%TF.GenerationSoftware,KiCad,Pcbnew,7.0.0-rc1-unknown-00d77f624a~164~ubuntu22.04.1*%
%TF.CreationDate,2023-01-15T10:56:28+01:00*%
%TF.ProjectId,lora-nano,6c6f7261-2d6e-4616-9e6f-2e6b69636164,rev?*%
%TF.SameCoordinates,Original*%
%TF.FileFunction,Drillmap*%
%TF.FilePolarity,Positive*%
%FSLAX45Y45*%
G04 Gerber Fmt 4.5, Leading zero omitted, Abs format (unit mm)*
G04 Created by KiCad (PCBNEW 7.0.0-rc1-unknown-00d77f624a~164~ubuntu22.04.1) date 2023-01-15 10:56:28*
%MOMM*%
%LPD*%
G01*
G04 APERTURE LIST*
%ADD10C,0.100000*%
%ADD11C,0.200000*%
%ADD12C,0.040000*%
%ADD13C,0.070000*%
%ADD14C,0.076200*%
%ADD15C,0.080000*%
%ADD16C,0.120000*%
G04 APERTURE END LIST*
D10*
X10970000Y-7330000D02*
X18900000Y-7330000D01*
X18900000Y-7330000D02*
X18900000Y-12530000D01*
X18900000Y-12530000D02*
X10970000Y-12530000D01*
X10970000Y-12530000D02*
X10970000Y-7330000D01*
D11*
D12*
X12360000Y-8320000D02*
X12400000Y-8360000D01*
X12400000Y-8320000D02*
X12360000Y-8360000D01*
X12360000Y-8670000D02*
X12400000Y-8710000D01*
X12400000Y-8670000D02*
X12360000Y-8710000D01*
X12360000Y-9020000D02*
X12400000Y-9060000D01*
X12400000Y-9020000D02*
X12360000Y-9060000D01*
X12370000Y-9370000D02*
X12410000Y-9410000D01*
X12410000Y-9370000D02*
X12370000Y-9410000D01*
X12840000Y-8230000D02*
X12880000Y-8270000D01*
X12880000Y-8230000D02*
X12840000Y-8270000D01*
X12840000Y-8580000D02*
X12880000Y-8620000D01*
X12880000Y-8580000D02*
X12840000Y-8620000D01*
X12840000Y-8930000D02*
X12880000Y-8970000D01*
X12880000Y-8930000D02*
X12840000Y-8970000D01*
X12840000Y-9270000D02*
X12880000Y-9310000D01*
X12880000Y-9270000D02*
X12840000Y-9310000D01*
X13670000Y-8520857D02*
X13710000Y-8560857D01*
X13710000Y-8520857D02*
X13670000Y-8560857D01*
X13850000Y-9710857D02*
X13890000Y-9750857D01*
X13890000Y-9710857D02*
X13850000Y-9750857D01*
X13850000Y-10035000D02*
X13890000Y-10075000D01*
X13890000Y-10035000D02*
X13850000Y-10075000D01*
X13960000Y-7760857D02*
X14000000Y-7800857D01*
X14000000Y-7760857D02*
X13960000Y-7800857D01*
X14000000Y-9340000D02*
X14040000Y-9380000D01*
X14040000Y-9340000D02*
X14000000Y-9380000D01*
X14000000Y-10610857D02*
X14040000Y-10650857D01*
X14040000Y-10610857D02*
X14000000Y-10650857D01*
X14090000Y-8870000D02*
X14130000Y-8910000D01*
X14130000Y-8870000D02*
X14090000Y-8910000D01*
X14140000Y-9720000D02*
X14180000Y-9760000D01*
X14180000Y-9720000D02*
X14140000Y-9760000D01*
X14260000Y-7620000D02*
X14300000Y-7660000D01*
X14300000Y-7620000D02*
X14260000Y-7660000D01*
X14260000Y-8300000D02*
X14300000Y-8340000D01*
X14300000Y-8300000D02*
X14260000Y-8340000D01*
X14260000Y-8620000D02*
X14300000Y-8660000D01*
X14300000Y-8620000D02*
X14260000Y-8660000D01*
X14560000Y-7700000D02*
X14600000Y-7740000D01*
X14600000Y-7700000D02*
X14560000Y-7740000D01*
X14560000Y-8960000D02*
X14600000Y-9000000D01*
X14600000Y-8960000D02*
X14560000Y-9000000D01*
X15530000Y-10989557D02*
X15570000Y-11029557D01*
X15570000Y-10989557D02*
X15530000Y-11029557D01*
X15572200Y-9916657D02*
X15612200Y-9956657D01*
X15612200Y-9916657D02*
X15572200Y-9956657D01*
X15572200Y-10272257D02*
X15612200Y-10312257D01*
X15612200Y-10272257D02*
X15572200Y-10312257D01*
X15620000Y-10627857D02*
X15660000Y-10667857D01*
X15660000Y-10627857D02*
X15620000Y-10667857D01*
X16066300Y-10894557D02*
X16106300Y-10934557D01*
X16106300Y-10894557D02*
X16066300Y-10934557D01*
X16070000Y-9821657D02*
X16110000Y-9861657D01*
X16110000Y-9821657D02*
X16070000Y-9861657D01*
X16070000Y-10177257D02*
X16110000Y-10217257D01*
X16110000Y-10177257D02*
X16070000Y-10217257D01*
X16078000Y-10532857D02*
X16118000Y-10572857D01*
X16118000Y-10532857D02*
X16078000Y-10572857D01*
D13*
X12175000Y-12040000D02*
G75*
G03*
X12175000Y-12040000I-35000J0D01*
G01*
X12485000Y-12040000D02*
G75*
G03*
X12485000Y-12040000I-35000J0D01*
G01*
X12785000Y-12040000D02*
G75*
G03*
X12785000Y-12040000I-35000J0D01*
G01*
X13085000Y-12040000D02*
G75*
G03*
X13085000Y-12040000I-35000J0D01*
G01*
X16863000Y-10090000D02*
G75*
G03*
X16863000Y-10090000I-35000J0D01*
G01*
X16865000Y-9830000D02*
G75*
G03*
X16865000Y-9830000I-35000J0D01*
G01*
X17625000Y-10090000D02*
G75*
G03*
X17625000Y-10090000I-35000J0D01*
G01*
X17627000Y-9830000D02*
G75*
G03*
X17627000Y-9830000I-35000J0D01*
G01*
D14*
X15296700Y-7831900D02*
X15296700Y-7908100D01*
X15258600Y-7870000D02*
X15334800Y-7870000D01*
X15296700Y-8085900D02*
X15296700Y-8162100D01*
X15258600Y-8124000D02*
X15334800Y-8124000D01*
X15296700Y-8339900D02*
X15296700Y-8416100D01*
X15258600Y-8378000D02*
X15334800Y-8378000D01*
X15296700Y-8593900D02*
X15296700Y-8670100D01*
X15258600Y-8632000D02*
X15334800Y-8632000D01*
X15296700Y-8847900D02*
X15296700Y-8924100D01*
X15258600Y-8886000D02*
X15334800Y-8886000D01*
X15296700Y-9101900D02*
X15296700Y-9178100D01*
X15258600Y-9140000D02*
X15334800Y-9140000D01*
X15296700Y-9355900D02*
X15296700Y-9432100D01*
X15258600Y-9394000D02*
X15334800Y-9394000D01*
X18446700Y-7901900D02*
X18446700Y-7978100D01*
X18408600Y-7940000D02*
X18484800Y-7940000D01*
X18446700Y-8155900D02*
X18446700Y-8232100D01*
X18408600Y-8194000D02*
X18484800Y-8194000D01*
X18446700Y-8409900D02*
X18446700Y-8486100D01*
X18408600Y-8448000D02*
X18484800Y-8448000D01*
D15*
X18538285Y-10508285D02*
X18538285Y-10451716D01*
X18481716Y-10451716D01*
X18481716Y-10508285D01*
X18538285Y-10508285D01*
D10*
X12280000Y-7920000D02*
X12330000Y-7870000D01*
X12280000Y-7820000D01*
X12230000Y-7870000D01*
X12280000Y-7920000D01*
X12760000Y-7920000D02*
X12810000Y-7870000D01*
X12760000Y-7820000D01*
X12710000Y-7870000D01*
X12760000Y-7920000D01*
X13080000Y-7920000D02*
X13130000Y-7870000D01*
X13080000Y-7820000D01*
X13030000Y-7870000D01*
X13080000Y-7920000D01*
X13408800Y-8043557D02*
X13458800Y-7993557D01*
X13408800Y-7943557D01*
X13358800Y-7993557D01*
X13408800Y-8043557D01*
X13408800Y-8297557D02*
X13458800Y-8247557D01*
X13408800Y-8197557D01*
X13358800Y-8247557D01*
X13408800Y-8297557D01*
X13408800Y-8551557D02*
X13458800Y-8501557D01*
X13408800Y-8451557D01*
X13358800Y-8501557D01*
X13408800Y-8551557D01*
X13408800Y-8805557D02*
X13458800Y-8755557D01*
X13408800Y-8705557D01*
X13358800Y-8755557D01*
X13408800Y-8805557D01*
X13408800Y-9059557D02*
X13458800Y-9009557D01*
X13408800Y-8959557D01*
X13358800Y-9009557D01*
X13408800Y-9059557D01*
X13408800Y-9313557D02*
X13458800Y-9263557D01*
X13408800Y-9213557D01*
X13358800Y-9263557D01*
X13408800Y-9313557D01*
X13408800Y-9567557D02*
X13458800Y-9517557D01*
X13408800Y-9467557D01*
X13358800Y-9517557D01*
X13408800Y-9567557D01*
X13408800Y-9821557D02*
X13458800Y-9771557D01*
X13408800Y-9721557D01*
X13358800Y-9771557D01*
X13408800Y-9821557D01*
X13408800Y-10075557D02*
X13458800Y-10025557D01*
X13408800Y-9975557D01*
X13358800Y-10025557D01*
X13408800Y-10075557D01*
X13408800Y-10329557D02*
X13458800Y-10279557D01*
X13408800Y-10229557D01*
X13358800Y-10279557D01*
X13408800Y-10329557D01*
X13408800Y-10583557D02*
X13458800Y-10533557D01*
X13408800Y-10483557D01*
X13358800Y-10533557D01*
X13408800Y-10583557D01*
X13408800Y-10837557D02*
X13458800Y-10787557D01*
X13408800Y-10737557D01*
X13358800Y-10787557D01*
X13408800Y-10837557D01*
X13408800Y-11091557D02*
X13458800Y-11041557D01*
X13408800Y-10991557D01*
X13358800Y-11041557D01*
X13408800Y-11091557D01*
X13408800Y-11345557D02*
X13458800Y-11295557D01*
X13408800Y-11245557D01*
X13358800Y-11295557D01*
X13408800Y-11345557D01*
X13408800Y-11599557D02*
X13458800Y-11549557D01*
X13408800Y-11499557D01*
X13358800Y-11549557D01*
X13408800Y-11599557D01*
X14932800Y-8043557D02*
X14982800Y-7993557D01*
X14932800Y-7943557D01*
X14882800Y-7993557D01*
X14932800Y-8043557D01*
X14932800Y-8297557D02*
X14982800Y-8247557D01*
X14932800Y-8197557D01*
X14882800Y-8247557D01*
X14932800Y-8297557D01*
X14932800Y-8551557D02*
X14982800Y-8501557D01*
X14932800Y-8451557D01*
X14882800Y-8501557D01*
X14932800Y-8551557D01*
X14932800Y-8805557D02*
X14982800Y-8755557D01*
X14932800Y-8705557D01*
X14882800Y-8755557D01*
X14932800Y-8805557D01*
X14932800Y-9059557D02*
X14982800Y-9009557D01*
X14932800Y-8959557D01*
X14882800Y-9009557D01*
X14932800Y-9059557D01*
X14932800Y-9313557D02*
X14982800Y-9263557D01*
X14932800Y-9213557D01*
X14882800Y-9263557D01*
X14932800Y-9313557D01*
X14932800Y-9567557D02*
X14982800Y-9517557D01*
X14932800Y-9467557D01*
X14882800Y-9517557D01*
X14932800Y-9567557D01*
X14932800Y-9821557D02*
X14982800Y-9771557D01*
X14932800Y-9721557D01*
X14882800Y-9771557D01*
X14932800Y-9821557D01*
X14932800Y-10075557D02*
X14982800Y-10025557D01*
X14932800Y-9975557D01*
X14882800Y-10025557D01*
X14932800Y-10075557D01*
X14932800Y-10329557D02*
X14982800Y-10279557D01*
X14932800Y-10229557D01*
X14882800Y-10279557D01*
X14932800Y-10329557D01*
X14932800Y-10583557D02*
X14982800Y-10533557D01*
X14932800Y-10483557D01*
X14882800Y-10533557D01*
X14932800Y-10583557D01*
X14932800Y-10837557D02*
X14982800Y-10787557D01*
X14932800Y-10737557D01*
X14882800Y-10787557D01*
X14932800Y-10837557D01*
X14932800Y-11091557D02*
X14982800Y-11041557D01*
X14932800Y-10991557D01*
X14882800Y-11041557D01*
X14932800Y-11091557D01*
X14932800Y-11345557D02*
X14982800Y-11295557D01*
X14932800Y-11245557D01*
X14882800Y-11295557D01*
X14932800Y-11345557D01*
X14932800Y-11599557D02*
X14982800Y-11549557D01*
X14932800Y-11499557D01*
X14882800Y-11549557D01*
X14932800Y-11599557D01*
D16*
X11560000Y-8280857D02*
X11680000Y-8400857D01*
X11680000Y-8280857D02*
X11560000Y-8400857D01*
X11680000Y-8340857D02*
G75*
G03*
X11680000Y-8340857I-60000J0D01*
G01*
X11560000Y-8630857D02*
X11680000Y-8750857D01*
X11680000Y-8630857D02*
X11560000Y-8750857D01*
X11680000Y-8690857D02*
G75*
G03*
X11680000Y-8690857I-60000J0D01*
G01*
X11560000Y-8980857D02*
X11680000Y-9100857D01*
X11680000Y-8980857D02*
X11560000Y-9100857D01*
X11680000Y-9040857D02*
G75*
G03*
X11680000Y-9040857I-60000J0D01*
G01*
X11560000Y-9330857D02*
X11680000Y-9450857D01*
X11680000Y-9330857D02*
X11560000Y-9450857D01*
X11680000Y-9390857D02*
G75*
G03*
X11680000Y-9390857I-60000J0D01*
G01*
X11560000Y-9680857D02*
X11680000Y-9800857D01*
X11680000Y-9680857D02*
X11560000Y-9800857D01*
X11680000Y-9740857D02*
G75*
G03*
X11680000Y-9740857I-60000J0D01*
G01*
X11560000Y-10380857D02*
X11680000Y-10500857D01*
X11680000Y-10380857D02*
X11560000Y-10500857D01*
X11680000Y-10440857D02*
G75*
G03*
X11680000Y-10440857I-60000J0D01*
G01*
X11560000Y-10730857D02*
X11680000Y-10850857D01*
X11680000Y-10730857D02*
X11560000Y-10850857D01*
X11680000Y-10790857D02*
G75*
G03*
X11680000Y-10790857I-60000J0D01*
G01*
X11560000Y-11080857D02*
X11680000Y-11200857D01*
X11680000Y-11080857D02*
X11560000Y-11200857D01*
X11680000Y-11140857D02*
G75*
G03*
X11680000Y-11140857I-60000J0D01*
G01*
X11560000Y-11430857D02*
X11680000Y-11550857D01*
X11680000Y-11430857D02*
X11560000Y-11550857D01*
X11680000Y-11490857D02*
G75*
G03*
X11680000Y-11490857I-60000J0D01*
G01*
X11560000Y-11780857D02*
X11680000Y-11900857D01*
X11680000Y-11780857D02*
X11560000Y-11900857D01*
X11680000Y-11840857D02*
G75*
G03*
X11680000Y-11840857I-60000J0D01*
G01*
X15370000Y-11860857D02*
X15490000Y-11980857D01*
X15490000Y-11860857D02*
X15370000Y-11980857D01*
X15490000Y-11920857D02*
G75*
G03*
X15490000Y-11920857I-60000J0D01*
G01*
X15720000Y-11860857D02*
X15840000Y-11980857D01*
X15840000Y-11860857D02*
X15720000Y-11980857D01*
X15840000Y-11920857D02*
G75*
G03*
X15840000Y-11920857I-60000J0D01*
G01*
X16070000Y-11860857D02*
X16190000Y-11980857D01*
X16190000Y-11860857D02*
X16070000Y-11980857D01*
X16190000Y-11920857D02*
G75*
G03*
X16190000Y-11920857I-60000J0D01*
G01*
X16420000Y-11860857D02*
X16540000Y-11980857D01*
X16540000Y-11860857D02*
X16420000Y-11980857D01*
X16540000Y-11920857D02*
G75*
G03*
X16540000Y-11920857I-60000J0D01*
G01*
X16770000Y-11860857D02*
X16890000Y-11980857D01*
X16890000Y-11860857D02*
X16770000Y-11980857D01*
X16890000Y-11920857D02*
G75*
G03*
X16890000Y-11920857I-60000J0D01*
G01*
X17432000Y-11870557D02*
X17552000Y-11990557D01*
X17552000Y-11870557D02*
X17432000Y-11990557D01*
X17552000Y-11930557D02*
G75*
G03*
X17552000Y-11930557I-60000J0D01*
G01*
X17940000Y-11870557D02*
X18060000Y-11990557D01*
X18060000Y-11870557D02*
X17940000Y-11990557D01*
X18060000Y-11930557D02*
G75*
G03*
X18060000Y-11930557I-60000J0D01*
G01*
X18448000Y-11870557D02*
X18568000Y-11990557D01*
X18568000Y-11870557D02*
X18448000Y-11990557D01*
X18568000Y-11930557D02*
G75*
G03*
X18568000Y-11930557I-60000J0D01*
G01*
D11*
X11212619Y-12828476D02*
X11212619Y-12628476D01*
X11212619Y-12628476D02*
X11260238Y-12628476D01*
X11260238Y-12628476D02*
X11288809Y-12638000D01*
X11288809Y-12638000D02*
X11307857Y-12657048D01*
X11307857Y-12657048D02*
X11317381Y-12676095D01*
X11317381Y-12676095D02*
X11326905Y-12714190D01*
X11326905Y-12714190D02*
X11326905Y-12742762D01*
X11326905Y-12742762D02*
X11317381Y-12780857D01*
X11317381Y-12780857D02*
X11307857Y-12799905D01*
X11307857Y-12799905D02*
X11288809Y-12818952D01*
X11288809Y-12818952D02*
X11260238Y-12828476D01*
X11260238Y-12828476D02*
X11212619Y-12828476D01*
X11412619Y-12828476D02*
X11412619Y-12695143D01*
X11412619Y-12733238D02*
X11422143Y-12714190D01*
X11422143Y-12714190D02*
X11431667Y-12704667D01*
X11431667Y-12704667D02*
X11450714Y-12695143D01*
X11450714Y-12695143D02*
X11469762Y-12695143D01*
X11536428Y-12828476D02*
X11536428Y-12695143D01*
X11536428Y-12628476D02*
X11526905Y-12638000D01*
X11526905Y-12638000D02*
X11536428Y-12647524D01*
X11536428Y-12647524D02*
X11545952Y-12638000D01*
X11545952Y-12638000D02*
X11536428Y-12628476D01*
X11536428Y-12628476D02*
X11536428Y-12647524D01*
X11660238Y-12828476D02*
X11641190Y-12818952D01*
X11641190Y-12818952D02*
X11631667Y-12799905D01*
X11631667Y-12799905D02*
X11631667Y-12628476D01*
X11765000Y-12828476D02*
X11745952Y-12818952D01*
X11745952Y-12818952D02*
X11736428Y-12799905D01*
X11736428Y-12799905D02*
X11736428Y-12628476D01*
X11961190Y-12828476D02*
X11961190Y-12628476D01*
X11961190Y-12628476D02*
X12027857Y-12771333D01*
X12027857Y-12771333D02*
X12094524Y-12628476D01*
X12094524Y-12628476D02*
X12094524Y-12828476D01*
X12275476Y-12828476D02*
X12275476Y-12723714D01*
X12275476Y-12723714D02*
X12265952Y-12704667D01*
X12265952Y-12704667D02*
X12246905Y-12695143D01*
X12246905Y-12695143D02*
X12208809Y-12695143D01*
X12208809Y-12695143D02*
X12189762Y-12704667D01*
X12275476Y-12818952D02*
X12256428Y-12828476D01*
X12256428Y-12828476D02*
X12208809Y-12828476D01*
X12208809Y-12828476D02*
X12189762Y-12818952D01*
X12189762Y-12818952D02*
X12180238Y-12799905D01*
X12180238Y-12799905D02*
X12180238Y-12780857D01*
X12180238Y-12780857D02*
X12189762Y-12761809D01*
X12189762Y-12761809D02*
X12208809Y-12752286D01*
X12208809Y-12752286D02*
X12256428Y-12752286D01*
X12256428Y-12752286D02*
X12275476Y-12742762D01*
X12370714Y-12695143D02*
X12370714Y-12895143D01*
X12370714Y-12704667D02*
X12389762Y-12695143D01*
X12389762Y-12695143D02*
X12427857Y-12695143D01*
X12427857Y-12695143D02*
X12446905Y-12704667D01*
X12446905Y-12704667D02*
X12456428Y-12714190D01*
X12456428Y-12714190D02*
X12465952Y-12733238D01*
X12465952Y-12733238D02*
X12465952Y-12790381D01*
X12465952Y-12790381D02*
X12456428Y-12809428D01*
X12456428Y-12809428D02*
X12446905Y-12818952D01*
X12446905Y-12818952D02*
X12427857Y-12828476D01*
X12427857Y-12828476D02*
X12389762Y-12828476D01*
X12389762Y-12828476D02*
X12370714Y-12818952D01*
X12551667Y-12809428D02*
X12561190Y-12818952D01*
X12561190Y-12818952D02*
X12551667Y-12828476D01*
X12551667Y-12828476D02*
X12542143Y-12818952D01*
X12542143Y-12818952D02*
X12551667Y-12809428D01*
X12551667Y-12809428D02*
X12551667Y-12828476D01*
X12551667Y-12704667D02*
X12561190Y-12714190D01*
X12561190Y-12714190D02*
X12551667Y-12723714D01*
X12551667Y-12723714D02*
X12542143Y-12714190D01*
X12542143Y-12714190D02*
X12551667Y-12704667D01*
X12551667Y-12704667D02*
X12551667Y-12723714D01*
D12*
X10925000Y-13155000D02*
X10965000Y-13195000D01*
X10965000Y-13155000D02*
X10925000Y-13195000D01*
D11*
X11250714Y-13048476D02*
X11269762Y-13048476D01*
X11269762Y-13048476D02*
X11288809Y-13058000D01*
X11288809Y-13058000D02*
X11298333Y-13067524D01*
X11298333Y-13067524D02*
X11307857Y-13086571D01*
X11307857Y-13086571D02*
X11317381Y-13124667D01*
X11317381Y-13124667D02*
X11317381Y-13172286D01*
X11317381Y-13172286D02*
X11307857Y-13210381D01*
X11307857Y-13210381D02*
X11298333Y-13229428D01*
X11298333Y-13229428D02*
X11288809Y-13238952D01*
X11288809Y-13238952D02*
X11269762Y-13248476D01*
X11269762Y-13248476D02*
X11250714Y-13248476D01*
X11250714Y-13248476D02*
X11231667Y-13238952D01*
X11231667Y-13238952D02*
X11222143Y-13229428D01*
X11222143Y-13229428D02*
X11212619Y-13210381D01*
X11212619Y-13210381D02*
X11203095Y-13172286D01*
X11203095Y-13172286D02*
X11203095Y-13124667D01*
X11203095Y-13124667D02*
X11212619Y-13086571D01*
X11212619Y-13086571D02*
X11222143Y-13067524D01*
X11222143Y-13067524D02*
X11231667Y-13058000D01*
X11231667Y-13058000D02*
X11250714Y-13048476D01*
X11403095Y-13229428D02*
X11412619Y-13238952D01*
X11412619Y-13238952D02*
X11403095Y-13248476D01*
X11403095Y-13248476D02*
X11393571Y-13238952D01*
X11393571Y-13238952D02*
X11403095Y-13229428D01*
X11403095Y-13229428D02*
X11403095Y-13248476D01*
X11584048Y-13115143D02*
X11584048Y-13248476D01*
X11536428Y-13038952D02*
X11488809Y-13181809D01*
X11488809Y-13181809D02*
X11612619Y-13181809D01*
X11726905Y-13048476D02*
X11745952Y-13048476D01*
X11745952Y-13048476D02*
X11765000Y-13058000D01*
X11765000Y-13058000D02*
X11774524Y-13067524D01*
X11774524Y-13067524D02*
X11784048Y-13086571D01*
X11784048Y-13086571D02*
X11793571Y-13124667D01*
X11793571Y-13124667D02*
X11793571Y-13172286D01*
X11793571Y-13172286D02*
X11784048Y-13210381D01*
X11784048Y-13210381D02*
X11774524Y-13229428D01*
X11774524Y-13229428D02*
X11765000Y-13238952D01*
X11765000Y-13238952D02*
X11745952Y-13248476D01*
X11745952Y-13248476D02*
X11726905Y-13248476D01*
X11726905Y-13248476D02*
X11707857Y-13238952D01*
X11707857Y-13238952D02*
X11698333Y-13229428D01*
X11698333Y-13229428D02*
X11688809Y-13210381D01*
X11688809Y-13210381D02*
X11679286Y-13172286D01*
X11679286Y-13172286D02*
X11679286Y-13124667D01*
X11679286Y-13124667D02*
X11688809Y-13086571D01*
X11688809Y-13086571D02*
X11698333Y-13067524D01*
X11698333Y-13067524D02*
X11707857Y-13058000D01*
X11707857Y-13058000D02*
X11726905Y-13048476D01*
X11917381Y-13048476D02*
X11936429Y-13048476D01*
X11936429Y-13048476D02*
X11955476Y-13058000D01*
X11955476Y-13058000D02*
X11965000Y-13067524D01*
X11965000Y-13067524D02*
X11974524Y-13086571D01*
X11974524Y-13086571D02*
X11984048Y-13124667D01*
X11984048Y-13124667D02*
X11984048Y-13172286D01*
X11984048Y-13172286D02*
X11974524Y-13210381D01*
X11974524Y-13210381D02*
X11965000Y-13229428D01*
X11965000Y-13229428D02*
X11955476Y-13238952D01*
X11955476Y-13238952D02*
X11936429Y-13248476D01*
X11936429Y-13248476D02*
X11917381Y-13248476D01*
X11917381Y-13248476D02*
X11898333Y-13238952D01*
X11898333Y-13238952D02*
X11888809Y-13229428D01*
X11888809Y-13229428D02*
X11879286Y-13210381D01*
X11879286Y-13210381D02*
X11869762Y-13172286D01*
X11869762Y-13172286D02*
X11869762Y-13124667D01*
X11869762Y-13124667D02*
X11879286Y-13086571D01*
X11879286Y-13086571D02*
X11888809Y-13067524D01*
X11888809Y-13067524D02*
X11898333Y-13058000D01*
X11898333Y-13058000D02*
X11917381Y-13048476D01*
X12069762Y-13248476D02*
X12069762Y-13115143D01*
X12069762Y-13134190D02*
X12079286Y-13124667D01*
X12079286Y-13124667D02*
X12098333Y-13115143D01*
X12098333Y-13115143D02*
X12126905Y-13115143D01*
X12126905Y-13115143D02*
X12145952Y-13124667D01*
X12145952Y-13124667D02*
X12155476Y-13143714D01*
X12155476Y-13143714D02*
X12155476Y-13248476D01*
X12155476Y-13143714D02*
X12165000Y-13124667D01*
X12165000Y-13124667D02*
X12184048Y-13115143D01*
X12184048Y-13115143D02*
X12212619Y-13115143D01*
X12212619Y-13115143D02*
X12231667Y-13124667D01*
X12231667Y-13124667D02*
X12241190Y-13143714D01*
X12241190Y-13143714D02*
X12241190Y-13248476D01*
X12336429Y-13248476D02*
X12336429Y-13115143D01*
X12336429Y-13134190D02*
X12345952Y-13124667D01*
X12345952Y-13124667D02*
X12365000Y-13115143D01*
X12365000Y-13115143D02*
X12393571Y-13115143D01*
X12393571Y-13115143D02*
X12412619Y-13124667D01*
X12412619Y-13124667D02*
X12422143Y-13143714D01*
X12422143Y-13143714D02*
X12422143Y-13248476D01*
X12422143Y-13143714D02*
X12431667Y-13124667D01*
X12431667Y-13124667D02*
X12450714Y-13115143D01*
X12450714Y-13115143D02*
X12479286Y-13115143D01*
X12479286Y-13115143D02*
X12498333Y-13124667D01*
X12498333Y-13124667D02*
X12507857Y-13143714D01*
X12507857Y-13143714D02*
X12507857Y-13248476D01*
X12865952Y-13038952D02*
X12694524Y-13296095D01*
X13090714Y-13048476D02*
X13109762Y-13048476D01*
X13109762Y-13048476D02*
X13128810Y-13058000D01*
X13128810Y-13058000D02*
X13138333Y-13067524D01*
X13138333Y-13067524D02*
X13147857Y-13086571D01*
X13147857Y-13086571D02*
X13157381Y-13124667D01*
X13157381Y-13124667D02*
X13157381Y-13172286D01*
X13157381Y-13172286D02*
X13147857Y-13210381D01*
X13147857Y-13210381D02*
X13138333Y-13229428D01*
X13138333Y-13229428D02*
X13128810Y-13238952D01*
X13128810Y-13238952D02*
X13109762Y-13248476D01*
X13109762Y-13248476D02*
X13090714Y-13248476D01*
X13090714Y-13248476D02*
X13071667Y-13238952D01*
X13071667Y-13238952D02*
X13062143Y-13229428D01*
X13062143Y-13229428D02*
X13052619Y-13210381D01*
X13052619Y-13210381D02*
X13043095Y-13172286D01*
X13043095Y-13172286D02*
X13043095Y-13124667D01*
X13043095Y-13124667D02*
X13052619Y-13086571D01*
X13052619Y-13086571D02*
X13062143Y-13067524D01*
X13062143Y-13067524D02*
X13071667Y-13058000D01*
X13071667Y-13058000D02*
X13090714Y-13048476D01*
X13243095Y-13229428D02*
X13252619Y-13238952D01*
X13252619Y-13238952D02*
X13243095Y-13248476D01*
X13243095Y-13248476D02*
X13233571Y-13238952D01*
X13233571Y-13238952D02*
X13243095Y-13229428D01*
X13243095Y-13229428D02*
X13243095Y-13248476D01*
X13376429Y-13048476D02*
X13395476Y-13048476D01*
X13395476Y-13048476D02*
X13414524Y-13058000D01*
X13414524Y-13058000D02*
X13424048Y-13067524D01*
X13424048Y-13067524D02*
X13433571Y-13086571D01*
X13433571Y-13086571D02*
X13443095Y-13124667D01*
X13443095Y-13124667D02*
X13443095Y-13172286D01*
X13443095Y-13172286D02*
X13433571Y-13210381D01*
X13433571Y-13210381D02*
X13424048Y-13229428D01*
X13424048Y-13229428D02*
X13414524Y-13238952D01*
X13414524Y-13238952D02*
X13395476Y-13248476D01*
X13395476Y-13248476D02*
X13376429Y-13248476D01*
X13376429Y-13248476D02*
X13357381Y-13238952D01*
X13357381Y-13238952D02*
X13347857Y-13229428D01*
X13347857Y-13229428D02*
X13338333Y-13210381D01*
X13338333Y-13210381D02*
X13328810Y-13172286D01*
X13328810Y-13172286D02*
X13328810Y-13124667D01*
X13328810Y-13124667D02*
X13338333Y-13086571D01*
X13338333Y-13086571D02*
X13347857Y-13067524D01*
X13347857Y-13067524D02*
X13357381Y-13058000D01*
X13357381Y-13058000D02*
X13376429Y-13048476D01*
X13633571Y-13248476D02*
X13519286Y-13248476D01*
X13576429Y-13248476D02*
X13576429Y-13048476D01*
X13576429Y-13048476D02*
X13557381Y-13077048D01*
X13557381Y-13077048D02*
X13538333Y-13096095D01*
X13538333Y-13096095D02*
X13519286Y-13105619D01*
X13814524Y-13048476D02*
X13719286Y-13048476D01*
X13719286Y-13048476D02*
X13709762Y-13143714D01*
X13709762Y-13143714D02*
X13719286Y-13134190D01*
X13719286Y-13134190D02*
X13738333Y-13124667D01*
X13738333Y-13124667D02*
X13785952Y-13124667D01*
X13785952Y-13124667D02*
X13805000Y-13134190D01*
X13805000Y-13134190D02*
X13814524Y-13143714D01*
X13814524Y-13143714D02*
X13824048Y-13162762D01*
X13824048Y-13162762D02*
X13824048Y-13210381D01*
X13824048Y-13210381D02*
X13814524Y-13229428D01*
X13814524Y-13229428D02*
X13805000Y-13238952D01*
X13805000Y-13238952D02*
X13785952Y-13248476D01*
X13785952Y-13248476D02*
X13738333Y-13248476D01*
X13738333Y-13248476D02*
X13719286Y-13238952D01*
X13719286Y-13238952D02*
X13709762Y-13229428D01*
X13890714Y-13048476D02*
X14024048Y-13048476D01*
X14024048Y-13048476D02*
X13938333Y-13248476D01*
X14090714Y-13048476D02*
X14090714Y-13086571D01*
X14166905Y-13048476D02*
X14166905Y-13086571D01*
X14429762Y-13324667D02*
X14420238Y-13315143D01*
X14420238Y-13315143D02*
X14401191Y-13286571D01*
X14401191Y-13286571D02*
X14391667Y-13267524D01*
X14391667Y-13267524D02*
X14382143Y-13238952D01*
X14382143Y-13238952D02*
X14372619Y-13191333D01*
X14372619Y-13191333D02*
X14372619Y-13153238D01*
X14372619Y-13153238D02*
X14382143Y-13105619D01*
X14382143Y-13105619D02*
X14391667Y-13077048D01*
X14391667Y-13077048D02*
X14401191Y-13058000D01*
X14401191Y-13058000D02*
X14420238Y-13029428D01*
X14420238Y-13029428D02*
X14429762Y-13019905D01*
X14496429Y-13067524D02*
X14505952Y-13058000D01*
X14505952Y-13058000D02*
X14525000Y-13048476D01*
X14525000Y-13048476D02*
X14572619Y-13048476D01*
X14572619Y-13048476D02*
X14591667Y-13058000D01*
X14591667Y-13058000D02*
X14601191Y-13067524D01*
X14601191Y-13067524D02*
X14610714Y-13086571D01*
X14610714Y-13086571D02*
X14610714Y-13105619D01*
X14610714Y-13105619D02*
X14601191Y-13134190D01*
X14601191Y-13134190D02*
X14486905Y-13248476D01*
X14486905Y-13248476D02*
X14610714Y-13248476D01*
X14705952Y-13248476D02*
X14744048Y-13248476D01*
X14744048Y-13248476D02*
X14763095Y-13238952D01*
X14763095Y-13238952D02*
X14772619Y-13229428D01*
X14772619Y-13229428D02*
X14791667Y-13200857D01*
X14791667Y-13200857D02*
X14801191Y-13162762D01*
X14801191Y-13162762D02*
X14801191Y-13086571D01*
X14801191Y-13086571D02*
X14791667Y-13067524D01*
X14791667Y-13067524D02*
X14782143Y-13058000D01*
X14782143Y-13058000D02*
X14763095Y-13048476D01*
X14763095Y-13048476D02*
X14725000Y-13048476D01*
X14725000Y-13048476D02*
X14705952Y-13058000D01*
X14705952Y-13058000D02*
X14696429Y-13067524D01*
X14696429Y-13067524D02*
X14686905Y-13086571D01*
X14686905Y-13086571D02*
X14686905Y-13134190D01*
X14686905Y-13134190D02*
X14696429Y-13153238D01*
X14696429Y-13153238D02*
X14705952Y-13162762D01*
X14705952Y-13162762D02*
X14725000Y-13172286D01*
X14725000Y-13172286D02*
X14763095Y-13172286D01*
X14763095Y-13172286D02*
X14782143Y-13162762D01*
X14782143Y-13162762D02*
X14791667Y-13153238D01*
X14791667Y-13153238D02*
X14801191Y-13134190D01*
X15006905Y-13248476D02*
X15006905Y-13048476D01*
X15092619Y-13248476D02*
X15092619Y-13143714D01*
X15092619Y-13143714D02*
X15083095Y-13124667D01*
X15083095Y-13124667D02*
X15064048Y-13115143D01*
X15064048Y-13115143D02*
X15035476Y-13115143D01*
X15035476Y-13115143D02*
X15016429Y-13124667D01*
X15016429Y-13124667D02*
X15006905Y-13134190D01*
X15216429Y-13248476D02*
X15197381Y-13238952D01*
X15197381Y-13238952D02*
X15187857Y-13229428D01*
X15187857Y-13229428D02*
X15178333Y-13210381D01*
X15178333Y-13210381D02*
X15178333Y-13153238D01*
X15178333Y-13153238D02*
X15187857Y-13134190D01*
X15187857Y-13134190D02*
X15197381Y-13124667D01*
X15197381Y-13124667D02*
X15216429Y-13115143D01*
X15216429Y-13115143D02*
X15245000Y-13115143D01*
X15245000Y-13115143D02*
X15264048Y-13124667D01*
X15264048Y-13124667D02*
X15273572Y-13134190D01*
X15273572Y-13134190D02*
X15283095Y-13153238D01*
X15283095Y-13153238D02*
X15283095Y-13210381D01*
X15283095Y-13210381D02*
X15273572Y-13229428D01*
X15273572Y-13229428D02*
X15264048Y-13238952D01*
X15264048Y-13238952D02*
X15245000Y-13248476D01*
X15245000Y-13248476D02*
X15216429Y-13248476D01*
X15397381Y-13248476D02*
X15378333Y-13238952D01*
X15378333Y-13238952D02*
X15368810Y-13219905D01*
X15368810Y-13219905D02*
X15368810Y-13048476D01*
X15549762Y-13238952D02*
X15530714Y-13248476D01*
X15530714Y-13248476D02*
X15492619Y-13248476D01*
X15492619Y-13248476D02*
X15473572Y-13238952D01*
X15473572Y-13238952D02*
X15464048Y-13219905D01*
X15464048Y-13219905D02*
X15464048Y-13143714D01*
X15464048Y-13143714D02*
X15473572Y-13124667D01*
X15473572Y-13124667D02*
X15492619Y-13115143D01*
X15492619Y-13115143D02*
X15530714Y-13115143D01*
X15530714Y-13115143D02*
X15549762Y-13124667D01*
X15549762Y-13124667D02*
X15559286Y-13143714D01*
X15559286Y-13143714D02*
X15559286Y-13162762D01*
X15559286Y-13162762D02*
X15464048Y-13181809D01*
X15635476Y-13238952D02*
X15654524Y-13248476D01*
X15654524Y-13248476D02*
X15692619Y-13248476D01*
X15692619Y-13248476D02*
X15711667Y-13238952D01*
X15711667Y-13238952D02*
X15721191Y-13219905D01*
X15721191Y-13219905D02*
X15721191Y-13210381D01*
X15721191Y-13210381D02*
X15711667Y-13191333D01*
X15711667Y-13191333D02*
X15692619Y-13181809D01*
X15692619Y-13181809D02*
X15664048Y-13181809D01*
X15664048Y-13181809D02*
X15645000Y-13172286D01*
X15645000Y-13172286D02*
X15635476Y-13153238D01*
X15635476Y-13153238D02*
X15635476Y-13143714D01*
X15635476Y-13143714D02*
X15645000Y-13124667D01*
X15645000Y-13124667D02*
X15664048Y-13115143D01*
X15664048Y-13115143D02*
X15692619Y-13115143D01*
X15692619Y-13115143D02*
X15711667Y-13124667D01*
X15787857Y-13324667D02*
X15797381Y-13315143D01*
X15797381Y-13315143D02*
X15816429Y-13286571D01*
X15816429Y-13286571D02*
X15825953Y-13267524D01*
X15825953Y-13267524D02*
X15835476Y-13238952D01*
X15835476Y-13238952D02*
X15845000Y-13191333D01*
X15845000Y-13191333D02*
X15845000Y-13153238D01*
X15845000Y-13153238D02*
X15835476Y-13105619D01*
X15835476Y-13105619D02*
X15825953Y-13077048D01*
X15825953Y-13077048D02*
X15816429Y-13058000D01*
X15816429Y-13058000D02*
X15797381Y-13029428D01*
X15797381Y-13029428D02*
X15787857Y-13019905D01*
D13*
X10965000Y-13439000D02*
G75*
G03*
X10965000Y-13439000I-35000J0D01*
G01*
D11*
X11250714Y-13312476D02*
X11269762Y-13312476D01*
X11269762Y-13312476D02*
X11288809Y-13322000D01*
X11288809Y-13322000D02*
X11298333Y-13331524D01*
X11298333Y-13331524D02*
X11307857Y-13350571D01*
X11307857Y-13350571D02*
X11317381Y-13388667D01*
X11317381Y-13388667D02*
X11317381Y-13436286D01*
X11317381Y-13436286D02*
X11307857Y-13474381D01*
X11307857Y-13474381D02*
X11298333Y-13493428D01*
X11298333Y-13493428D02*
X11288809Y-13502952D01*
X11288809Y-13502952D02*
X11269762Y-13512476D01*
X11269762Y-13512476D02*
X11250714Y-13512476D01*
X11250714Y-13512476D02*
X11231667Y-13502952D01*
X11231667Y-13502952D02*
X11222143Y-13493428D01*
X11222143Y-13493428D02*
X11212619Y-13474381D01*
X11212619Y-13474381D02*
X11203095Y-13436286D01*
X11203095Y-13436286D02*
X11203095Y-13388667D01*
X11203095Y-13388667D02*
X11212619Y-13350571D01*
X11212619Y-13350571D02*
X11222143Y-13331524D01*
X11222143Y-13331524D02*
X11231667Y-13322000D01*
X11231667Y-13322000D02*
X11250714Y-13312476D01*
X11403095Y-13493428D02*
X11412619Y-13502952D01*
X11412619Y-13502952D02*
X11403095Y-13512476D01*
X11403095Y-13512476D02*
X11393571Y-13502952D01*
X11393571Y-13502952D02*
X11403095Y-13493428D01*
X11403095Y-13493428D02*
X11403095Y-13512476D01*
X11479286Y-13312476D02*
X11612619Y-13312476D01*
X11612619Y-13312476D02*
X11526905Y-13512476D01*
X11726905Y-13312476D02*
X11745952Y-13312476D01*
X11745952Y-13312476D02*
X11765000Y-13322000D01*
X11765000Y-13322000D02*
X11774524Y-13331524D01*
X11774524Y-13331524D02*
X11784048Y-13350571D01*
X11784048Y-13350571D02*
X11793571Y-13388667D01*
X11793571Y-13388667D02*
X11793571Y-13436286D01*
X11793571Y-13436286D02*
X11784048Y-13474381D01*
X11784048Y-13474381D02*
X11774524Y-13493428D01*
X11774524Y-13493428D02*
X11765000Y-13502952D01*
X11765000Y-13502952D02*
X11745952Y-13512476D01*
X11745952Y-13512476D02*
X11726905Y-13512476D01*
X11726905Y-13512476D02*
X11707857Y-13502952D01*
X11707857Y-13502952D02*
X11698333Y-13493428D01*
X11698333Y-13493428D02*
X11688809Y-13474381D01*
X11688809Y-13474381D02*
X11679286Y-13436286D01*
X11679286Y-13436286D02*
X11679286Y-13388667D01*
X11679286Y-13388667D02*
X11688809Y-13350571D01*
X11688809Y-13350571D02*
X11698333Y-13331524D01*
X11698333Y-13331524D02*
X11707857Y-13322000D01*
X11707857Y-13322000D02*
X11726905Y-13312476D01*
X11917381Y-13312476D02*
X11936429Y-13312476D01*
X11936429Y-13312476D02*
X11955476Y-13322000D01*
X11955476Y-13322000D02*
X11965000Y-13331524D01*
X11965000Y-13331524D02*
X11974524Y-13350571D01*
X11974524Y-13350571D02*
X11984048Y-13388667D01*
X11984048Y-13388667D02*
X11984048Y-13436286D01*
X11984048Y-13436286D02*
X11974524Y-13474381D01*
X11974524Y-13474381D02*
X11965000Y-13493428D01*
X11965000Y-13493428D02*
X11955476Y-13502952D01*
X11955476Y-13502952D02*
X11936429Y-13512476D01*
X11936429Y-13512476D02*
X11917381Y-13512476D01*
X11917381Y-13512476D02*
X11898333Y-13502952D01*
X11898333Y-13502952D02*
X11888809Y-13493428D01*
X11888809Y-13493428D02*
X11879286Y-13474381D01*
X11879286Y-13474381D02*
X11869762Y-13436286D01*
X11869762Y-13436286D02*
X11869762Y-13388667D01*
X11869762Y-13388667D02*
X11879286Y-13350571D01*
X11879286Y-13350571D02*
X11888809Y-13331524D01*
X11888809Y-13331524D02*
X11898333Y-13322000D01*
X11898333Y-13322000D02*
X11917381Y-13312476D01*
X12069762Y-13512476D02*
X12069762Y-13379143D01*
X12069762Y-13398190D02*
X12079286Y-13388667D01*
X12079286Y-13388667D02*
X12098333Y-13379143D01*
X12098333Y-13379143D02*
X12126905Y-13379143D01*
X12126905Y-13379143D02*
X12145952Y-13388667D01*
X12145952Y-13388667D02*
X12155476Y-13407714D01*
X12155476Y-13407714D02*
X12155476Y-13512476D01*
X12155476Y-13407714D02*
X12165000Y-13388667D01*
X12165000Y-13388667D02*
X12184048Y-13379143D01*
X12184048Y-13379143D02*
X12212619Y-13379143D01*
X12212619Y-13379143D02*
X12231667Y-13388667D01*
X12231667Y-13388667D02*
X12241190Y-13407714D01*
X12241190Y-13407714D02*
X12241190Y-13512476D01*
X12336429Y-13512476D02*
X12336429Y-13379143D01*
X12336429Y-13398190D02*
X12345952Y-13388667D01*
X12345952Y-13388667D02*
X12365000Y-13379143D01*
X12365000Y-13379143D02*
X12393571Y-13379143D01*
X12393571Y-13379143D02*
X12412619Y-13388667D01*
X12412619Y-13388667D02*
X12422143Y-13407714D01*
X12422143Y-13407714D02*
X12422143Y-13512476D01*
X12422143Y-13407714D02*
X12431667Y-13388667D01*
X12431667Y-13388667D02*
X12450714Y-13379143D01*
X12450714Y-13379143D02*
X12479286Y-13379143D01*
X12479286Y-13379143D02*
X12498333Y-13388667D01*
X12498333Y-13388667D02*
X12507857Y-13407714D01*
X12507857Y-13407714D02*
X12507857Y-13512476D01*
X12865952Y-13302952D02*
X12694524Y-13560095D01*
X13090714Y-13312476D02*
X13109762Y-13312476D01*
X13109762Y-13312476D02*
X13128810Y-13322000D01*
X13128810Y-13322000D02*
X13138333Y-13331524D01*
X13138333Y-13331524D02*
X13147857Y-13350571D01*
X13147857Y-13350571D02*
X13157381Y-13388667D01*
X13157381Y-13388667D02*
X13157381Y-13436286D01*
X13157381Y-13436286D02*
X13147857Y-13474381D01*
X13147857Y-13474381D02*
X13138333Y-13493428D01*
X13138333Y-13493428D02*
X13128810Y-13502952D01*
X13128810Y-13502952D02*
X13109762Y-13512476D01*
X13109762Y-13512476D02*
X13090714Y-13512476D01*
X13090714Y-13512476D02*
X13071667Y-13502952D01*
X13071667Y-13502952D02*
X13062143Y-13493428D01*
X13062143Y-13493428D02*
X13052619Y-13474381D01*
X13052619Y-13474381D02*
X13043095Y-13436286D01*
X13043095Y-13436286D02*
X13043095Y-13388667D01*
X13043095Y-13388667D02*
X13052619Y-13350571D01*
X13052619Y-13350571D02*
X13062143Y-13331524D01*
X13062143Y-13331524D02*
X13071667Y-13322000D01*
X13071667Y-13322000D02*
X13090714Y-13312476D01*
X13243095Y-13493428D02*
X13252619Y-13502952D01*
X13252619Y-13502952D02*
X13243095Y-13512476D01*
X13243095Y-13512476D02*
X13233571Y-13502952D01*
X13233571Y-13502952D02*
X13243095Y-13493428D01*
X13243095Y-13493428D02*
X13243095Y-13512476D01*
X13376429Y-13312476D02*
X13395476Y-13312476D01*
X13395476Y-13312476D02*
X13414524Y-13322000D01*
X13414524Y-13322000D02*
X13424048Y-13331524D01*
X13424048Y-13331524D02*
X13433571Y-13350571D01*
X13433571Y-13350571D02*
X13443095Y-13388667D01*
X13443095Y-13388667D02*
X13443095Y-13436286D01*
X13443095Y-13436286D02*
X13433571Y-13474381D01*
X13433571Y-13474381D02*
X13424048Y-13493428D01*
X13424048Y-13493428D02*
X13414524Y-13502952D01*
X13414524Y-13502952D02*
X13395476Y-13512476D01*
X13395476Y-13512476D02*
X13376429Y-13512476D01*
X13376429Y-13512476D02*
X13357381Y-13502952D01*
X13357381Y-13502952D02*
X13347857Y-13493428D01*
X13347857Y-13493428D02*
X13338333Y-13474381D01*
X13338333Y-13474381D02*
X13328810Y-13436286D01*
X13328810Y-13436286D02*
X13328810Y-13388667D01*
X13328810Y-13388667D02*
X13338333Y-13350571D01*
X13338333Y-13350571D02*
X13347857Y-13331524D01*
X13347857Y-13331524D02*
X13357381Y-13322000D01*
X13357381Y-13322000D02*
X13376429Y-13312476D01*
X13519286Y-13331524D02*
X13528810Y-13322000D01*
X13528810Y-13322000D02*
X13547857Y-13312476D01*
X13547857Y-13312476D02*
X13595476Y-13312476D01*
X13595476Y-13312476D02*
X13614524Y-13322000D01*
X13614524Y-13322000D02*
X13624048Y-13331524D01*
X13624048Y-13331524D02*
X13633571Y-13350571D01*
X13633571Y-13350571D02*
X13633571Y-13369619D01*
X13633571Y-13369619D02*
X13624048Y-13398190D01*
X13624048Y-13398190D02*
X13509762Y-13512476D01*
X13509762Y-13512476D02*
X13633571Y-13512476D01*
X13700238Y-13312476D02*
X13833571Y-13312476D01*
X13833571Y-13312476D02*
X13747857Y-13512476D01*
X13995476Y-13312476D02*
X13957381Y-13312476D01*
X13957381Y-13312476D02*
X13938333Y-13322000D01*
X13938333Y-13322000D02*
X13928810Y-13331524D01*
X13928810Y-13331524D02*
X13909762Y-13360095D01*
X13909762Y-13360095D02*
X13900238Y-13398190D01*
X13900238Y-13398190D02*
X13900238Y-13474381D01*
X13900238Y-13474381D02*
X13909762Y-13493428D01*
X13909762Y-13493428D02*
X13919286Y-13502952D01*
X13919286Y-13502952D02*
X13938333Y-13512476D01*
X13938333Y-13512476D02*
X13976429Y-13512476D01*
X13976429Y-13512476D02*
X13995476Y-13502952D01*
X13995476Y-13502952D02*
X14005000Y-13493428D01*
X14005000Y-13493428D02*
X14014524Y-13474381D01*
X14014524Y-13474381D02*
X14014524Y-13426762D01*
X14014524Y-13426762D02*
X14005000Y-13407714D01*
X14005000Y-13407714D02*
X13995476Y-13398190D01*
X13995476Y-13398190D02*
X13976429Y-13388667D01*
X13976429Y-13388667D02*
X13938333Y-13388667D01*
X13938333Y-13388667D02*
X13919286Y-13398190D01*
X13919286Y-13398190D02*
X13909762Y-13407714D01*
X13909762Y-13407714D02*
X13900238Y-13426762D01*
X14090714Y-13312476D02*
X14090714Y-13350571D01*
X14166905Y-13312476D02*
X14166905Y-13350571D01*
X14429762Y-13588667D02*
X14420238Y-13579143D01*
X14420238Y-13579143D02*
X14401191Y-13550571D01*
X14401191Y-13550571D02*
X14391667Y-13531524D01*
X14391667Y-13531524D02*
X14382143Y-13502952D01*
X14382143Y-13502952D02*
X14372619Y-13455333D01*
X14372619Y-13455333D02*
X14372619Y-13417238D01*
X14372619Y-13417238D02*
X14382143Y-13369619D01*
X14382143Y-13369619D02*
X14391667Y-13341048D01*
X14391667Y-13341048D02*
X14401191Y-13322000D01*
X14401191Y-13322000D02*
X14420238Y-13293428D01*
X14420238Y-13293428D02*
X14429762Y-13283905D01*
X14534524Y-13398190D02*
X14515476Y-13388667D01*
X14515476Y-13388667D02*
X14505952Y-13379143D01*
X14505952Y-13379143D02*
X14496429Y-13360095D01*
X14496429Y-13360095D02*
X14496429Y-13350571D01*
X14496429Y-13350571D02*
X14505952Y-13331524D01*
X14505952Y-13331524D02*
X14515476Y-13322000D01*
X14515476Y-13322000D02*
X14534524Y-13312476D01*
X14534524Y-13312476D02*
X14572619Y-13312476D01*
X14572619Y-13312476D02*
X14591667Y-13322000D01*
X14591667Y-13322000D02*
X14601191Y-13331524D01*
X14601191Y-13331524D02*
X14610714Y-13350571D01*
X14610714Y-13350571D02*
X14610714Y-13360095D01*
X14610714Y-13360095D02*
X14601191Y-13379143D01*
X14601191Y-13379143D02*
X14591667Y-13388667D01*
X14591667Y-13388667D02*
X14572619Y-13398190D01*
X14572619Y-13398190D02*
X14534524Y-13398190D01*
X14534524Y-13398190D02*
X14515476Y-13407714D01*
X14515476Y-13407714D02*
X14505952Y-13417238D01*
X14505952Y-13417238D02*
X14496429Y-13436286D01*
X14496429Y-13436286D02*
X14496429Y-13474381D01*
X14496429Y-13474381D02*
X14505952Y-13493428D01*
X14505952Y-13493428D02*
X14515476Y-13502952D01*
X14515476Y-13502952D02*
X14534524Y-13512476D01*
X14534524Y-13512476D02*
X14572619Y-13512476D01*
X14572619Y-13512476D02*
X14591667Y-13502952D01*
X14591667Y-13502952D02*
X14601191Y-13493428D01*
X14601191Y-13493428D02*
X14610714Y-13474381D01*
X14610714Y-13474381D02*
X14610714Y-13436286D01*
X14610714Y-13436286D02*
X14601191Y-13417238D01*
X14601191Y-13417238D02*
X14591667Y-13407714D01*
X14591667Y-13407714D02*
X14572619Y-13398190D01*
X14816429Y-13512476D02*
X14816429Y-13312476D01*
X14902143Y-13512476D02*
X14902143Y-13407714D01*
X14902143Y-13407714D02*
X14892619Y-13388667D01*
X14892619Y-13388667D02*
X14873572Y-13379143D01*
X14873572Y-13379143D02*
X14845000Y-13379143D01*
X14845000Y-13379143D02*
X14825952Y-13388667D01*
X14825952Y-13388667D02*
X14816429Y-13398190D01*
X15025952Y-13512476D02*
X15006905Y-13502952D01*
X15006905Y-13502952D02*
X14997381Y-13493428D01*
X14997381Y-13493428D02*
X14987857Y-13474381D01*
X14987857Y-13474381D02*
X14987857Y-13417238D01*
X14987857Y-13417238D02*
X14997381Y-13398190D01*
X14997381Y-13398190D02*
X15006905Y-13388667D01*
X15006905Y-13388667D02*
X15025952Y-13379143D01*
X15025952Y-13379143D02*
X15054524Y-13379143D01*
X15054524Y-13379143D02*
X15073572Y-13388667D01*
X15073572Y-13388667D02*
X15083095Y-13398190D01*
X15083095Y-13398190D02*
X15092619Y-13417238D01*
X15092619Y-13417238D02*
X15092619Y-13474381D01*
X15092619Y-13474381D02*
X15083095Y-13493428D01*
X15083095Y-13493428D02*
X15073572Y-13502952D01*
X15073572Y-13502952D02*
X15054524Y-13512476D01*
X15054524Y-13512476D02*
X15025952Y-13512476D01*
X15206905Y-13512476D02*
X15187857Y-13502952D01*
X15187857Y-13502952D02*
X15178333Y-13483905D01*
X15178333Y-13483905D02*
X15178333Y-13312476D01*
X15359286Y-13502952D02*
X15340238Y-13512476D01*
X15340238Y-13512476D02*
X15302143Y-13512476D01*
X15302143Y-13512476D02*
X15283095Y-13502952D01*
X15283095Y-13502952D02*
X15273572Y-13483905D01*
X15273572Y-13483905D02*
X15273572Y-13407714D01*
X15273572Y-13407714D02*
X15283095Y-13388667D01*
X15283095Y-13388667D02*
X15302143Y-13379143D01*
X15302143Y-13379143D02*
X15340238Y-13379143D01*
X15340238Y-13379143D02*
X15359286Y-13388667D01*
X15359286Y-13388667D02*
X15368810Y-13407714D01*
X15368810Y-13407714D02*
X15368810Y-13426762D01*
X15368810Y-13426762D02*
X15273572Y-13445809D01*
X15445000Y-13502952D02*
X15464048Y-13512476D01*
X15464048Y-13512476D02*
X15502143Y-13512476D01*
X15502143Y-13512476D02*
X15521191Y-13502952D01*
X15521191Y-13502952D02*
X15530714Y-13483905D01*
X15530714Y-13483905D02*
X15530714Y-13474381D01*
X15530714Y-13474381D02*
X15521191Y-13455333D01*
X15521191Y-13455333D02*
X15502143Y-13445809D01*
X15502143Y-13445809D02*
X15473572Y-13445809D01*
X15473572Y-13445809D02*
X15454524Y-13436286D01*
X15454524Y-13436286D02*
X15445000Y-13417238D01*
X15445000Y-13417238D02*
X15445000Y-13407714D01*
X15445000Y-13407714D02*
X15454524Y-13388667D01*
X15454524Y-13388667D02*
X15473572Y-13379143D01*
X15473572Y-13379143D02*
X15502143Y-13379143D01*
X15502143Y-13379143D02*
X15521191Y-13388667D01*
X15597381Y-13588667D02*
X15606905Y-13579143D01*
X15606905Y-13579143D02*
X15625953Y-13550571D01*
X15625953Y-13550571D02*
X15635476Y-13531524D01*
X15635476Y-13531524D02*
X15645000Y-13502952D01*
X15645000Y-13502952D02*
X15654524Y-13455333D01*
X15654524Y-13455333D02*
X15654524Y-13417238D01*
X15654524Y-13417238D02*
X15645000Y-13369619D01*
X15645000Y-13369619D02*
X15635476Y-13341048D01*
X15635476Y-13341048D02*
X15625953Y-13322000D01*
X15625953Y-13322000D02*
X15606905Y-13293428D01*
X15606905Y-13293428D02*
X15597381Y-13283905D01*
D14*
X10926900Y-13664900D02*
X10926900Y-13741100D01*
X10888800Y-13703000D02*
X10965000Y-13703000D01*
D11*
X11250714Y-13576476D02*
X11269762Y-13576476D01*
X11269762Y-13576476D02*
X11288809Y-13586000D01*
X11288809Y-13586000D02*
X11298333Y-13595524D01*
X11298333Y-13595524D02*
X11307857Y-13614571D01*
X11307857Y-13614571D02*
X11317381Y-13652667D01*
X11317381Y-13652667D02*
X11317381Y-13700286D01*
X11317381Y-13700286D02*
X11307857Y-13738381D01*
X11307857Y-13738381D02*
X11298333Y-13757428D01*
X11298333Y-13757428D02*
X11288809Y-13766952D01*
X11288809Y-13766952D02*
X11269762Y-13776476D01*
X11269762Y-13776476D02*
X11250714Y-13776476D01*
X11250714Y-13776476D02*
X11231667Y-13766952D01*
X11231667Y-13766952D02*
X11222143Y-13757428D01*
X11222143Y-13757428D02*
X11212619Y-13738381D01*
X11212619Y-13738381D02*
X11203095Y-13700286D01*
X11203095Y-13700286D02*
X11203095Y-13652667D01*
X11203095Y-13652667D02*
X11212619Y-13614571D01*
X11212619Y-13614571D02*
X11222143Y-13595524D01*
X11222143Y-13595524D02*
X11231667Y-13586000D01*
X11231667Y-13586000D02*
X11250714Y-13576476D01*
X11403095Y-13757428D02*
X11412619Y-13766952D01*
X11412619Y-13766952D02*
X11403095Y-13776476D01*
X11403095Y-13776476D02*
X11393571Y-13766952D01*
X11393571Y-13766952D02*
X11403095Y-13757428D01*
X11403095Y-13757428D02*
X11403095Y-13776476D01*
X11479286Y-13576476D02*
X11612619Y-13576476D01*
X11612619Y-13576476D02*
X11526905Y-13776476D01*
X11774524Y-13576476D02*
X11736428Y-13576476D01*
X11736428Y-13576476D02*
X11717381Y-13586000D01*
X11717381Y-13586000D02*
X11707857Y-13595524D01*
X11707857Y-13595524D02*
X11688809Y-13624095D01*
X11688809Y-13624095D02*
X11679286Y-13662190D01*
X11679286Y-13662190D02*
X11679286Y-13738381D01*
X11679286Y-13738381D02*
X11688809Y-13757428D01*
X11688809Y-13757428D02*
X11698333Y-13766952D01*
X11698333Y-13766952D02*
X11717381Y-13776476D01*
X11717381Y-13776476D02*
X11755476Y-13776476D01*
X11755476Y-13776476D02*
X11774524Y-13766952D01*
X11774524Y-13766952D02*
X11784048Y-13757428D01*
X11784048Y-13757428D02*
X11793571Y-13738381D01*
X11793571Y-13738381D02*
X11793571Y-13690762D01*
X11793571Y-13690762D02*
X11784048Y-13671714D01*
X11784048Y-13671714D02*
X11774524Y-13662190D01*
X11774524Y-13662190D02*
X11755476Y-13652667D01*
X11755476Y-13652667D02*
X11717381Y-13652667D01*
X11717381Y-13652667D02*
X11698333Y-13662190D01*
X11698333Y-13662190D02*
X11688809Y-13671714D01*
X11688809Y-13671714D02*
X11679286Y-13690762D01*
X11869762Y-13595524D02*
X11879286Y-13586000D01*
X11879286Y-13586000D02*
X11898333Y-13576476D01*
X11898333Y-13576476D02*
X11945952Y-13576476D01*
X11945952Y-13576476D02*
X11965000Y-13586000D01*
X11965000Y-13586000D02*
X11974524Y-13595524D01*
X11974524Y-13595524D02*
X11984048Y-13614571D01*
X11984048Y-13614571D02*
X11984048Y-13633619D01*
X11984048Y-13633619D02*
X11974524Y-13662190D01*
X11974524Y-13662190D02*
X11860238Y-13776476D01*
X11860238Y-13776476D02*
X11984048Y-13776476D01*
X12069762Y-13776476D02*
X12069762Y-13643143D01*
X12069762Y-13662190D02*
X12079286Y-13652667D01*
X12079286Y-13652667D02*
X12098333Y-13643143D01*
X12098333Y-13643143D02*
X12126905Y-13643143D01*
X12126905Y-13643143D02*
X12145952Y-13652667D01*
X12145952Y-13652667D02*
X12155476Y-13671714D01*
X12155476Y-13671714D02*
X12155476Y-13776476D01*
X12155476Y-13671714D02*
X12165000Y-13652667D01*
X12165000Y-13652667D02*
X12184048Y-13643143D01*
X12184048Y-13643143D02*
X12212619Y-13643143D01*
X12212619Y-13643143D02*
X12231667Y-13652667D01*
X12231667Y-13652667D02*
X12241190Y-13671714D01*
X12241190Y-13671714D02*
X12241190Y-13776476D01*
X12336429Y-13776476D02*
X12336429Y-13643143D01*
X12336429Y-13662190D02*
X12345952Y-13652667D01*
X12345952Y-13652667D02*
X12365000Y-13643143D01*
X12365000Y-13643143D02*
X12393571Y-13643143D01*
X12393571Y-13643143D02*
X12412619Y-13652667D01*
X12412619Y-13652667D02*
X12422143Y-13671714D01*
X12422143Y-13671714D02*
X12422143Y-13776476D01*
X12422143Y-13671714D02*
X12431667Y-13652667D01*
X12431667Y-13652667D02*
X12450714Y-13643143D01*
X12450714Y-13643143D02*
X12479286Y-13643143D01*
X12479286Y-13643143D02*
X12498333Y-13652667D01*
X12498333Y-13652667D02*
X12507857Y-13671714D01*
X12507857Y-13671714D02*
X12507857Y-13776476D01*
X12865952Y-13566952D02*
X12694524Y-13824095D01*
X13090714Y-13576476D02*
X13109762Y-13576476D01*
X13109762Y-13576476D02*
X13128810Y-13586000D01*
X13128810Y-13586000D02*
X13138333Y-13595524D01*
X13138333Y-13595524D02*
X13147857Y-13614571D01*
X13147857Y-13614571D02*
X13157381Y-13652667D01*
X13157381Y-13652667D02*
X13157381Y-13700286D01*
X13157381Y-13700286D02*
X13147857Y-13738381D01*
X13147857Y-13738381D02*
X13138333Y-13757428D01*
X13138333Y-13757428D02*
X13128810Y-13766952D01*
X13128810Y-13766952D02*
X13109762Y-13776476D01*
X13109762Y-13776476D02*
X13090714Y-13776476D01*
X13090714Y-13776476D02*
X13071667Y-13766952D01*
X13071667Y-13766952D02*
X13062143Y-13757428D01*
X13062143Y-13757428D02*
X13052619Y-13738381D01*
X13052619Y-13738381D02*
X13043095Y-13700286D01*
X13043095Y-13700286D02*
X13043095Y-13652667D01*
X13043095Y-13652667D02*
X13052619Y-13614571D01*
X13052619Y-13614571D02*
X13062143Y-13595524D01*
X13062143Y-13595524D02*
X13071667Y-13586000D01*
X13071667Y-13586000D02*
X13090714Y-13576476D01*
X13243095Y-13757428D02*
X13252619Y-13766952D01*
X13252619Y-13766952D02*
X13243095Y-13776476D01*
X13243095Y-13776476D02*
X13233571Y-13766952D01*
X13233571Y-13766952D02*
X13243095Y-13757428D01*
X13243095Y-13757428D02*
X13243095Y-13776476D01*
X13376429Y-13576476D02*
X13395476Y-13576476D01*
X13395476Y-13576476D02*
X13414524Y-13586000D01*
X13414524Y-13586000D02*
X13424048Y-13595524D01*
X13424048Y-13595524D02*
X13433571Y-13614571D01*
X13433571Y-13614571D02*
X13443095Y-13652667D01*
X13443095Y-13652667D02*
X13443095Y-13700286D01*
X13443095Y-13700286D02*
X13433571Y-13738381D01*
X13433571Y-13738381D02*
X13424048Y-13757428D01*
X13424048Y-13757428D02*
X13414524Y-13766952D01*
X13414524Y-13766952D02*
X13395476Y-13776476D01*
X13395476Y-13776476D02*
X13376429Y-13776476D01*
X13376429Y-13776476D02*
X13357381Y-13766952D01*
X13357381Y-13766952D02*
X13347857Y-13757428D01*
X13347857Y-13757428D02*
X13338333Y-13738381D01*
X13338333Y-13738381D02*
X13328810Y-13700286D01*
X13328810Y-13700286D02*
X13328810Y-13652667D01*
X13328810Y-13652667D02*
X13338333Y-13614571D01*
X13338333Y-13614571D02*
X13347857Y-13595524D01*
X13347857Y-13595524D02*
X13357381Y-13586000D01*
X13357381Y-13586000D02*
X13376429Y-13576476D01*
X13509762Y-13576476D02*
X13633571Y-13576476D01*
X13633571Y-13576476D02*
X13566905Y-13652667D01*
X13566905Y-13652667D02*
X13595476Y-13652667D01*
X13595476Y-13652667D02*
X13614524Y-13662190D01*
X13614524Y-13662190D02*
X13624048Y-13671714D01*
X13624048Y-13671714D02*
X13633571Y-13690762D01*
X13633571Y-13690762D02*
X13633571Y-13738381D01*
X13633571Y-13738381D02*
X13624048Y-13757428D01*
X13624048Y-13757428D02*
X13614524Y-13766952D01*
X13614524Y-13766952D02*
X13595476Y-13776476D01*
X13595476Y-13776476D02*
X13538333Y-13776476D01*
X13538333Y-13776476D02*
X13519286Y-13766952D01*
X13519286Y-13766952D02*
X13509762Y-13757428D01*
X13757381Y-13576476D02*
X13776429Y-13576476D01*
X13776429Y-13576476D02*
X13795476Y-13586000D01*
X13795476Y-13586000D02*
X13805000Y-13595524D01*
X13805000Y-13595524D02*
X13814524Y-13614571D01*
X13814524Y-13614571D02*
X13824048Y-13652667D01*
X13824048Y-13652667D02*
X13824048Y-13700286D01*
X13824048Y-13700286D02*
X13814524Y-13738381D01*
X13814524Y-13738381D02*
X13805000Y-13757428D01*
X13805000Y-13757428D02*
X13795476Y-13766952D01*
X13795476Y-13766952D02*
X13776429Y-13776476D01*
X13776429Y-13776476D02*
X13757381Y-13776476D01*
X13757381Y-13776476D02*
X13738333Y-13766952D01*
X13738333Y-13766952D02*
X13728810Y-13757428D01*
X13728810Y-13757428D02*
X13719286Y-13738381D01*
X13719286Y-13738381D02*
X13709762Y-13700286D01*
X13709762Y-13700286D02*
X13709762Y-13652667D01*
X13709762Y-13652667D02*
X13719286Y-13614571D01*
X13719286Y-13614571D02*
X13728810Y-13595524D01*
X13728810Y-13595524D02*
X13738333Y-13586000D01*
X13738333Y-13586000D02*
X13757381Y-13576476D01*
X13947857Y-13576476D02*
X13966905Y-13576476D01*
X13966905Y-13576476D02*
X13985952Y-13586000D01*
X13985952Y-13586000D02*
X13995476Y-13595524D01*
X13995476Y-13595524D02*
X14005000Y-13614571D01*
X14005000Y-13614571D02*
X14014524Y-13652667D01*
X14014524Y-13652667D02*
X14014524Y-13700286D01*
X14014524Y-13700286D02*
X14005000Y-13738381D01*
X14005000Y-13738381D02*
X13995476Y-13757428D01*
X13995476Y-13757428D02*
X13985952Y-13766952D01*
X13985952Y-13766952D02*
X13966905Y-13776476D01*
X13966905Y-13776476D02*
X13947857Y-13776476D01*
X13947857Y-13776476D02*
X13928810Y-13766952D01*
X13928810Y-13766952D02*
X13919286Y-13757428D01*
X13919286Y-13757428D02*
X13909762Y-13738381D01*
X13909762Y-13738381D02*
X13900238Y-13700286D01*
X13900238Y-13700286D02*
X13900238Y-13652667D01*
X13900238Y-13652667D02*
X13909762Y-13614571D01*
X13909762Y-13614571D02*
X13919286Y-13595524D01*
X13919286Y-13595524D02*
X13928810Y-13586000D01*
X13928810Y-13586000D02*
X13947857Y-13576476D01*
X14090714Y-13576476D02*
X14090714Y-13614571D01*
X14166905Y-13576476D02*
X14166905Y-13614571D01*
X14429762Y-13852667D02*
X14420238Y-13843143D01*
X14420238Y-13843143D02*
X14401191Y-13814571D01*
X14401191Y-13814571D02*
X14391667Y-13795524D01*
X14391667Y-13795524D02*
X14382143Y-13766952D01*
X14382143Y-13766952D02*
X14372619Y-13719333D01*
X14372619Y-13719333D02*
X14372619Y-13681238D01*
X14372619Y-13681238D02*
X14382143Y-13633619D01*
X14382143Y-13633619D02*
X14391667Y-13605048D01*
X14391667Y-13605048D02*
X14401191Y-13586000D01*
X14401191Y-13586000D02*
X14420238Y-13557428D01*
X14420238Y-13557428D02*
X14429762Y-13547905D01*
X14610714Y-13776476D02*
X14496429Y-13776476D01*
X14553571Y-13776476D02*
X14553571Y-13576476D01*
X14553571Y-13576476D02*
X14534524Y-13605048D01*
X14534524Y-13605048D02*
X14515476Y-13624095D01*
X14515476Y-13624095D02*
X14496429Y-13633619D01*
X14734524Y-13576476D02*
X14753572Y-13576476D01*
X14753572Y-13576476D02*
X14772619Y-13586000D01*
X14772619Y-13586000D02*
X14782143Y-13595524D01*
X14782143Y-13595524D02*
X14791667Y-13614571D01*
X14791667Y-13614571D02*
X14801191Y-13652667D01*
X14801191Y-13652667D02*
X14801191Y-13700286D01*
X14801191Y-13700286D02*
X14791667Y-13738381D01*
X14791667Y-13738381D02*
X14782143Y-13757428D01*
X14782143Y-13757428D02*
X14772619Y-13766952D01*
X14772619Y-13766952D02*
X14753572Y-13776476D01*
X14753572Y-13776476D02*
X14734524Y-13776476D01*
X14734524Y-13776476D02*
X14715476Y-13766952D01*
X14715476Y-13766952D02*
X14705952Y-13757428D01*
X14705952Y-13757428D02*
X14696429Y-13738381D01*
X14696429Y-13738381D02*
X14686905Y-13700286D01*
X14686905Y-13700286D02*
X14686905Y-13652667D01*
X14686905Y-13652667D02*
X14696429Y-13614571D01*
X14696429Y-13614571D02*
X14705952Y-13595524D01*
X14705952Y-13595524D02*
X14715476Y-13586000D01*
X14715476Y-13586000D02*
X14734524Y-13576476D01*
X15006905Y-13776476D02*
X15006905Y-13576476D01*
X15092619Y-13776476D02*
X15092619Y-13671714D01*
X15092619Y-13671714D02*
X15083095Y-13652667D01*
X15083095Y-13652667D02*
X15064048Y-13643143D01*
X15064048Y-13643143D02*
X15035476Y-13643143D01*
X15035476Y-13643143D02*
X15016429Y-13652667D01*
X15016429Y-13652667D02*
X15006905Y-13662190D01*
X15216429Y-13776476D02*
X15197381Y-13766952D01*
X15197381Y-13766952D02*
X15187857Y-13757428D01*
X15187857Y-13757428D02*
X15178333Y-13738381D01*
X15178333Y-13738381D02*
X15178333Y-13681238D01*
X15178333Y-13681238D02*
X15187857Y-13662190D01*
X15187857Y-13662190D02*
X15197381Y-13652667D01*
X15197381Y-13652667D02*
X15216429Y-13643143D01*
X15216429Y-13643143D02*
X15245000Y-13643143D01*
X15245000Y-13643143D02*
X15264048Y-13652667D01*
X15264048Y-13652667D02*
X15273572Y-13662190D01*
X15273572Y-13662190D02*
X15283095Y-13681238D01*
X15283095Y-13681238D02*
X15283095Y-13738381D01*
X15283095Y-13738381D02*
X15273572Y-13757428D01*
X15273572Y-13757428D02*
X15264048Y-13766952D01*
X15264048Y-13766952D02*
X15245000Y-13776476D01*
X15245000Y-13776476D02*
X15216429Y-13776476D01*
X15397381Y-13776476D02*
X15378333Y-13766952D01*
X15378333Y-13766952D02*
X15368810Y-13747905D01*
X15368810Y-13747905D02*
X15368810Y-13576476D01*
X15549762Y-13766952D02*
X15530714Y-13776476D01*
X15530714Y-13776476D02*
X15492619Y-13776476D01*
X15492619Y-13776476D02*
X15473572Y-13766952D01*
X15473572Y-13766952D02*
X15464048Y-13747905D01*
X15464048Y-13747905D02*
X15464048Y-13671714D01*
X15464048Y-13671714D02*
X15473572Y-13652667D01*
X15473572Y-13652667D02*
X15492619Y-13643143D01*
X15492619Y-13643143D02*
X15530714Y-13643143D01*
X15530714Y-13643143D02*
X15549762Y-13652667D01*
X15549762Y-13652667D02*
X15559286Y-13671714D01*
X15559286Y-13671714D02*
X15559286Y-13690762D01*
X15559286Y-13690762D02*
X15464048Y-13709809D01*
X15635476Y-13766952D02*
X15654524Y-13776476D01*
X15654524Y-13776476D02*
X15692619Y-13776476D01*
X15692619Y-13776476D02*
X15711667Y-13766952D01*
X15711667Y-13766952D02*
X15721191Y-13747905D01*
X15721191Y-13747905D02*
X15721191Y-13738381D01*
X15721191Y-13738381D02*
X15711667Y-13719333D01*
X15711667Y-13719333D02*
X15692619Y-13709809D01*
X15692619Y-13709809D02*
X15664048Y-13709809D01*
X15664048Y-13709809D02*
X15645000Y-13700286D01*
X15645000Y-13700286D02*
X15635476Y-13681238D01*
X15635476Y-13681238D02*
X15635476Y-13671714D01*
X15635476Y-13671714D02*
X15645000Y-13652667D01*
X15645000Y-13652667D02*
X15664048Y-13643143D01*
X15664048Y-13643143D02*
X15692619Y-13643143D01*
X15692619Y-13643143D02*
X15711667Y-13652667D01*
X15787857Y-13852667D02*
X15797381Y-13843143D01*
X15797381Y-13843143D02*
X15816429Y-13814571D01*
X15816429Y-13814571D02*
X15825953Y-13795524D01*
X15825953Y-13795524D02*
X15835476Y-13766952D01*
X15835476Y-13766952D02*
X15845000Y-13719333D01*
X15845000Y-13719333D02*
X15845000Y-13681238D01*
X15845000Y-13681238D02*
X15835476Y-13633619D01*
X15835476Y-13633619D02*
X15825953Y-13605048D01*
X15825953Y-13605048D02*
X15816429Y-13586000D01*
X15816429Y-13586000D02*
X15797381Y-13557428D01*
X15797381Y-13557428D02*
X15787857Y-13547905D01*
D15*
X10953285Y-13995284D02*
X10953285Y-13938715D01*
X10896716Y-13938715D01*
X10896716Y-13995284D01*
X10953285Y-13995284D01*
D11*
X11250714Y-13840476D02*
X11269762Y-13840476D01*
X11269762Y-13840476D02*
X11288809Y-13850000D01*
X11288809Y-13850000D02*
X11298333Y-13859524D01*
X11298333Y-13859524D02*
X11307857Y-13878571D01*
X11307857Y-13878571D02*
X11317381Y-13916667D01*
X11317381Y-13916667D02*
X11317381Y-13964286D01*
X11317381Y-13964286D02*
X11307857Y-14002381D01*
X11307857Y-14002381D02*
X11298333Y-14021428D01*
X11298333Y-14021428D02*
X11288809Y-14030952D01*
X11288809Y-14030952D02*
X11269762Y-14040476D01*
X11269762Y-14040476D02*
X11250714Y-14040476D01*
X11250714Y-14040476D02*
X11231667Y-14030952D01*
X11231667Y-14030952D02*
X11222143Y-14021428D01*
X11222143Y-14021428D02*
X11212619Y-14002381D01*
X11212619Y-14002381D02*
X11203095Y-13964286D01*
X11203095Y-13964286D02*
X11203095Y-13916667D01*
X11203095Y-13916667D02*
X11212619Y-13878571D01*
X11212619Y-13878571D02*
X11222143Y-13859524D01*
X11222143Y-13859524D02*
X11231667Y-13850000D01*
X11231667Y-13850000D02*
X11250714Y-13840476D01*
X11403095Y-14021428D02*
X11412619Y-14030952D01*
X11412619Y-14030952D02*
X11403095Y-14040476D01*
X11403095Y-14040476D02*
X11393571Y-14030952D01*
X11393571Y-14030952D02*
X11403095Y-14021428D01*
X11403095Y-14021428D02*
X11403095Y-14040476D01*
X11526905Y-13926190D02*
X11507857Y-13916667D01*
X11507857Y-13916667D02*
X11498333Y-13907143D01*
X11498333Y-13907143D02*
X11488809Y-13888095D01*
X11488809Y-13888095D02*
X11488809Y-13878571D01*
X11488809Y-13878571D02*
X11498333Y-13859524D01*
X11498333Y-13859524D02*
X11507857Y-13850000D01*
X11507857Y-13850000D02*
X11526905Y-13840476D01*
X11526905Y-13840476D02*
X11565000Y-13840476D01*
X11565000Y-13840476D02*
X11584048Y-13850000D01*
X11584048Y-13850000D02*
X11593571Y-13859524D01*
X11593571Y-13859524D02*
X11603095Y-13878571D01*
X11603095Y-13878571D02*
X11603095Y-13888095D01*
X11603095Y-13888095D02*
X11593571Y-13907143D01*
X11593571Y-13907143D02*
X11584048Y-13916667D01*
X11584048Y-13916667D02*
X11565000Y-13926190D01*
X11565000Y-13926190D02*
X11526905Y-13926190D01*
X11526905Y-13926190D02*
X11507857Y-13935714D01*
X11507857Y-13935714D02*
X11498333Y-13945238D01*
X11498333Y-13945238D02*
X11488809Y-13964286D01*
X11488809Y-13964286D02*
X11488809Y-14002381D01*
X11488809Y-14002381D02*
X11498333Y-14021428D01*
X11498333Y-14021428D02*
X11507857Y-14030952D01*
X11507857Y-14030952D02*
X11526905Y-14040476D01*
X11526905Y-14040476D02*
X11565000Y-14040476D01*
X11565000Y-14040476D02*
X11584048Y-14030952D01*
X11584048Y-14030952D02*
X11593571Y-14021428D01*
X11593571Y-14021428D02*
X11603095Y-14002381D01*
X11603095Y-14002381D02*
X11603095Y-13964286D01*
X11603095Y-13964286D02*
X11593571Y-13945238D01*
X11593571Y-13945238D02*
X11584048Y-13935714D01*
X11584048Y-13935714D02*
X11565000Y-13926190D01*
X11726905Y-13840476D02*
X11745952Y-13840476D01*
X11745952Y-13840476D02*
X11765000Y-13850000D01*
X11765000Y-13850000D02*
X11774524Y-13859524D01*
X11774524Y-13859524D02*
X11784048Y-13878571D01*
X11784048Y-13878571D02*
X11793571Y-13916667D01*
X11793571Y-13916667D02*
X11793571Y-13964286D01*
X11793571Y-13964286D02*
X11784048Y-14002381D01*
X11784048Y-14002381D02*
X11774524Y-14021428D01*
X11774524Y-14021428D02*
X11765000Y-14030952D01*
X11765000Y-14030952D02*
X11745952Y-14040476D01*
X11745952Y-14040476D02*
X11726905Y-14040476D01*
X11726905Y-14040476D02*
X11707857Y-14030952D01*
X11707857Y-14030952D02*
X11698333Y-14021428D01*
X11698333Y-14021428D02*
X11688809Y-14002381D01*
X11688809Y-14002381D02*
X11679286Y-13964286D01*
X11679286Y-13964286D02*
X11679286Y-13916667D01*
X11679286Y-13916667D02*
X11688809Y-13878571D01*
X11688809Y-13878571D02*
X11698333Y-13859524D01*
X11698333Y-13859524D02*
X11707857Y-13850000D01*
X11707857Y-13850000D02*
X11726905Y-13840476D01*
X11917381Y-13840476D02*
X11936429Y-13840476D01*
X11936429Y-13840476D02*
X11955476Y-13850000D01*
X11955476Y-13850000D02*
X11965000Y-13859524D01*
X11965000Y-13859524D02*
X11974524Y-13878571D01*
X11974524Y-13878571D02*
X11984048Y-13916667D01*
X11984048Y-13916667D02*
X11984048Y-13964286D01*
X11984048Y-13964286D02*
X11974524Y-14002381D01*
X11974524Y-14002381D02*
X11965000Y-14021428D01*
X11965000Y-14021428D02*
X11955476Y-14030952D01*
X11955476Y-14030952D02*
X11936429Y-14040476D01*
X11936429Y-14040476D02*
X11917381Y-14040476D01*
X11917381Y-14040476D02*
X11898333Y-14030952D01*
X11898333Y-14030952D02*
X11888809Y-14021428D01*
X11888809Y-14021428D02*
X11879286Y-14002381D01*
X11879286Y-14002381D02*
X11869762Y-13964286D01*
X11869762Y-13964286D02*
X11869762Y-13916667D01*
X11869762Y-13916667D02*
X11879286Y-13878571D01*
X11879286Y-13878571D02*
X11888809Y-13859524D01*
X11888809Y-13859524D02*
X11898333Y-13850000D01*
X11898333Y-13850000D02*
X11917381Y-13840476D01*
X12069762Y-14040476D02*
X12069762Y-13907143D01*
X12069762Y-13926190D02*
X12079286Y-13916667D01*
X12079286Y-13916667D02*
X12098333Y-13907143D01*
X12098333Y-13907143D02*
X12126905Y-13907143D01*
X12126905Y-13907143D02*
X12145952Y-13916667D01*
X12145952Y-13916667D02*
X12155476Y-13935714D01*
X12155476Y-13935714D02*
X12155476Y-14040476D01*
X12155476Y-13935714D02*
X12165000Y-13916667D01*
X12165000Y-13916667D02*
X12184048Y-13907143D01*
X12184048Y-13907143D02*
X12212619Y-13907143D01*
X12212619Y-13907143D02*
X12231667Y-13916667D01*
X12231667Y-13916667D02*
X12241190Y-13935714D01*
X12241190Y-13935714D02*
X12241190Y-14040476D01*
X12336429Y-14040476D02*
X12336429Y-13907143D01*
X12336429Y-13926190D02*
X12345952Y-13916667D01*
X12345952Y-13916667D02*
X12365000Y-13907143D01*
X12365000Y-13907143D02*
X12393571Y-13907143D01*
X12393571Y-13907143D02*
X12412619Y-13916667D01*
X12412619Y-13916667D02*
X12422143Y-13935714D01*
X12422143Y-13935714D02*
X12422143Y-14040476D01*
X12422143Y-13935714D02*
X12431667Y-13916667D01*
X12431667Y-13916667D02*
X12450714Y-13907143D01*
X12450714Y-13907143D02*
X12479286Y-13907143D01*
X12479286Y-13907143D02*
X12498333Y-13916667D01*
X12498333Y-13916667D02*
X12507857Y-13935714D01*
X12507857Y-13935714D02*
X12507857Y-14040476D01*
X12865952Y-13830952D02*
X12694524Y-14088095D01*
X13090714Y-13840476D02*
X13109762Y-13840476D01*
X13109762Y-13840476D02*
X13128810Y-13850000D01*
X13128810Y-13850000D02*
X13138333Y-13859524D01*
X13138333Y-13859524D02*
X13147857Y-13878571D01*
X13147857Y-13878571D02*
X13157381Y-13916667D01*
X13157381Y-13916667D02*
X13157381Y-13964286D01*
X13157381Y-13964286D02*
X13147857Y-14002381D01*
X13147857Y-14002381D02*
X13138333Y-14021428D01*
X13138333Y-14021428D02*
X13128810Y-14030952D01*
X13128810Y-14030952D02*
X13109762Y-14040476D01*
X13109762Y-14040476D02*
X13090714Y-14040476D01*
X13090714Y-14040476D02*
X13071667Y-14030952D01*
X13071667Y-14030952D02*
X13062143Y-14021428D01*
X13062143Y-14021428D02*
X13052619Y-14002381D01*
X13052619Y-14002381D02*
X13043095Y-13964286D01*
X13043095Y-13964286D02*
X13043095Y-13916667D01*
X13043095Y-13916667D02*
X13052619Y-13878571D01*
X13052619Y-13878571D02*
X13062143Y-13859524D01*
X13062143Y-13859524D02*
X13071667Y-13850000D01*
X13071667Y-13850000D02*
X13090714Y-13840476D01*
X13243095Y-14021428D02*
X13252619Y-14030952D01*
X13252619Y-14030952D02*
X13243095Y-14040476D01*
X13243095Y-14040476D02*
X13233571Y-14030952D01*
X13233571Y-14030952D02*
X13243095Y-14021428D01*
X13243095Y-14021428D02*
X13243095Y-14040476D01*
X13376429Y-13840476D02*
X13395476Y-13840476D01*
X13395476Y-13840476D02*
X13414524Y-13850000D01*
X13414524Y-13850000D02*
X13424048Y-13859524D01*
X13424048Y-13859524D02*
X13433571Y-13878571D01*
X13433571Y-13878571D02*
X13443095Y-13916667D01*
X13443095Y-13916667D02*
X13443095Y-13964286D01*
X13443095Y-13964286D02*
X13433571Y-14002381D01*
X13433571Y-14002381D02*
X13424048Y-14021428D01*
X13424048Y-14021428D02*
X13414524Y-14030952D01*
X13414524Y-14030952D02*
X13395476Y-14040476D01*
X13395476Y-14040476D02*
X13376429Y-14040476D01*
X13376429Y-14040476D02*
X13357381Y-14030952D01*
X13357381Y-14030952D02*
X13347857Y-14021428D01*
X13347857Y-14021428D02*
X13338333Y-14002381D01*
X13338333Y-14002381D02*
X13328810Y-13964286D01*
X13328810Y-13964286D02*
X13328810Y-13916667D01*
X13328810Y-13916667D02*
X13338333Y-13878571D01*
X13338333Y-13878571D02*
X13347857Y-13859524D01*
X13347857Y-13859524D02*
X13357381Y-13850000D01*
X13357381Y-13850000D02*
X13376429Y-13840476D01*
X13509762Y-13840476D02*
X13633571Y-13840476D01*
X13633571Y-13840476D02*
X13566905Y-13916667D01*
X13566905Y-13916667D02*
X13595476Y-13916667D01*
X13595476Y-13916667D02*
X13614524Y-13926190D01*
X13614524Y-13926190D02*
X13624048Y-13935714D01*
X13624048Y-13935714D02*
X13633571Y-13954762D01*
X13633571Y-13954762D02*
X13633571Y-14002381D01*
X13633571Y-14002381D02*
X13624048Y-14021428D01*
X13624048Y-14021428D02*
X13614524Y-14030952D01*
X13614524Y-14030952D02*
X13595476Y-14040476D01*
X13595476Y-14040476D02*
X13538333Y-14040476D01*
X13538333Y-14040476D02*
X13519286Y-14030952D01*
X13519286Y-14030952D02*
X13509762Y-14021428D01*
X13824048Y-14040476D02*
X13709762Y-14040476D01*
X13766905Y-14040476D02*
X13766905Y-13840476D01*
X13766905Y-13840476D02*
X13747857Y-13869048D01*
X13747857Y-13869048D02*
X13728810Y-13888095D01*
X13728810Y-13888095D02*
X13709762Y-13897619D01*
X14005000Y-13840476D02*
X13909762Y-13840476D01*
X13909762Y-13840476D02*
X13900238Y-13935714D01*
X13900238Y-13935714D02*
X13909762Y-13926190D01*
X13909762Y-13926190D02*
X13928810Y-13916667D01*
X13928810Y-13916667D02*
X13976429Y-13916667D01*
X13976429Y-13916667D02*
X13995476Y-13926190D01*
X13995476Y-13926190D02*
X14005000Y-13935714D01*
X14005000Y-13935714D02*
X14014524Y-13954762D01*
X14014524Y-13954762D02*
X14014524Y-14002381D01*
X14014524Y-14002381D02*
X14005000Y-14021428D01*
X14005000Y-14021428D02*
X13995476Y-14030952D01*
X13995476Y-14030952D02*
X13976429Y-14040476D01*
X13976429Y-14040476D02*
X13928810Y-14040476D01*
X13928810Y-14040476D02*
X13909762Y-14030952D01*
X13909762Y-14030952D02*
X13900238Y-14021428D01*
X14090714Y-13840476D02*
X14090714Y-13878571D01*
X14166905Y-13840476D02*
X14166905Y-13878571D01*
X14429762Y-14116667D02*
X14420238Y-14107143D01*
X14420238Y-14107143D02*
X14401191Y-14078571D01*
X14401191Y-14078571D02*
X14391667Y-14059524D01*
X14391667Y-14059524D02*
X14382143Y-14030952D01*
X14382143Y-14030952D02*
X14372619Y-13983333D01*
X14372619Y-13983333D02*
X14372619Y-13945238D01*
X14372619Y-13945238D02*
X14382143Y-13897619D01*
X14382143Y-13897619D02*
X14391667Y-13869048D01*
X14391667Y-13869048D02*
X14401191Y-13850000D01*
X14401191Y-13850000D02*
X14420238Y-13821428D01*
X14420238Y-13821428D02*
X14429762Y-13811905D01*
X14610714Y-14040476D02*
X14496429Y-14040476D01*
X14553571Y-14040476D02*
X14553571Y-13840476D01*
X14553571Y-13840476D02*
X14534524Y-13869048D01*
X14534524Y-13869048D02*
X14515476Y-13888095D01*
X14515476Y-13888095D02*
X14496429Y-13897619D01*
X14816429Y-14040476D02*
X14816429Y-13840476D01*
X14902143Y-14040476D02*
X14902143Y-13935714D01*
X14902143Y-13935714D02*
X14892619Y-13916667D01*
X14892619Y-13916667D02*
X14873572Y-13907143D01*
X14873572Y-13907143D02*
X14845000Y-13907143D01*
X14845000Y-13907143D02*
X14825952Y-13916667D01*
X14825952Y-13916667D02*
X14816429Y-13926190D01*
X15025952Y-14040476D02*
X15006905Y-14030952D01*
X15006905Y-14030952D02*
X14997381Y-14021428D01*
X14997381Y-14021428D02*
X14987857Y-14002381D01*
X14987857Y-14002381D02*
X14987857Y-13945238D01*
X14987857Y-13945238D02*
X14997381Y-13926190D01*
X14997381Y-13926190D02*
X15006905Y-13916667D01*
X15006905Y-13916667D02*
X15025952Y-13907143D01*
X15025952Y-13907143D02*
X15054524Y-13907143D01*
X15054524Y-13907143D02*
X15073572Y-13916667D01*
X15073572Y-13916667D02*
X15083095Y-13926190D01*
X15083095Y-13926190D02*
X15092619Y-13945238D01*
X15092619Y-13945238D02*
X15092619Y-14002381D01*
X15092619Y-14002381D02*
X15083095Y-14021428D01*
X15083095Y-14021428D02*
X15073572Y-14030952D01*
X15073572Y-14030952D02*
X15054524Y-14040476D01*
X15054524Y-14040476D02*
X15025952Y-14040476D01*
X15206905Y-14040476D02*
X15187857Y-14030952D01*
X15187857Y-14030952D02*
X15178333Y-14011905D01*
X15178333Y-14011905D02*
X15178333Y-13840476D01*
X15359286Y-14030952D02*
X15340238Y-14040476D01*
X15340238Y-14040476D02*
X15302143Y-14040476D01*
X15302143Y-14040476D02*
X15283095Y-14030952D01*
X15283095Y-14030952D02*
X15273572Y-14011905D01*
X15273572Y-14011905D02*
X15273572Y-13935714D01*
X15273572Y-13935714D02*
X15283095Y-13916667D01*
X15283095Y-13916667D02*
X15302143Y-13907143D01*
X15302143Y-13907143D02*
X15340238Y-13907143D01*
X15340238Y-13907143D02*
X15359286Y-13916667D01*
X15359286Y-13916667D02*
X15368810Y-13935714D01*
X15368810Y-13935714D02*
X15368810Y-13954762D01*
X15368810Y-13954762D02*
X15273572Y-13973809D01*
X15435476Y-14116667D02*
X15445000Y-14107143D01*
X15445000Y-14107143D02*
X15464048Y-14078571D01*
X15464048Y-14078571D02*
X15473572Y-14059524D01*
X15473572Y-14059524D02*
X15483095Y-14030952D01*
X15483095Y-14030952D02*
X15492619Y-13983333D01*
X15492619Y-13983333D02*
X15492619Y-13945238D01*
X15492619Y-13945238D02*
X15483095Y-13897619D01*
X15483095Y-13897619D02*
X15473572Y-13869048D01*
X15473572Y-13869048D02*
X15464048Y-13850000D01*
X15464048Y-13850000D02*
X15445000Y-13821428D01*
X15445000Y-13821428D02*
X15435476Y-13811905D01*
D10*
X10915000Y-14281000D02*
X10965000Y-14231000D01*
X10915000Y-14181000D01*
X10865000Y-14231000D01*
X10915000Y-14281000D01*
D11*
X11317381Y-14304476D02*
X11203095Y-14304476D01*
X11260238Y-14304476D02*
X11260238Y-14104476D01*
X11260238Y-14104476D02*
X11241190Y-14133048D01*
X11241190Y-14133048D02*
X11222143Y-14152095D01*
X11222143Y-14152095D02*
X11203095Y-14161619D01*
X11403095Y-14285428D02*
X11412619Y-14294952D01*
X11412619Y-14294952D02*
X11403095Y-14304476D01*
X11403095Y-14304476D02*
X11393571Y-14294952D01*
X11393571Y-14294952D02*
X11403095Y-14285428D01*
X11403095Y-14285428D02*
X11403095Y-14304476D01*
X11536428Y-14104476D02*
X11555476Y-14104476D01*
X11555476Y-14104476D02*
X11574524Y-14114000D01*
X11574524Y-14114000D02*
X11584048Y-14123524D01*
X11584048Y-14123524D02*
X11593571Y-14142571D01*
X11593571Y-14142571D02*
X11603095Y-14180667D01*
X11603095Y-14180667D02*
X11603095Y-14228286D01*
X11603095Y-14228286D02*
X11593571Y-14266381D01*
X11593571Y-14266381D02*
X11584048Y-14285428D01*
X11584048Y-14285428D02*
X11574524Y-14294952D01*
X11574524Y-14294952D02*
X11555476Y-14304476D01*
X11555476Y-14304476D02*
X11536428Y-14304476D01*
X11536428Y-14304476D02*
X11517381Y-14294952D01*
X11517381Y-14294952D02*
X11507857Y-14285428D01*
X11507857Y-14285428D02*
X11498333Y-14266381D01*
X11498333Y-14266381D02*
X11488809Y-14228286D01*
X11488809Y-14228286D02*
X11488809Y-14180667D01*
X11488809Y-14180667D02*
X11498333Y-14142571D01*
X11498333Y-14142571D02*
X11507857Y-14123524D01*
X11507857Y-14123524D02*
X11517381Y-14114000D01*
X11517381Y-14114000D02*
X11536428Y-14104476D01*
X11726905Y-14104476D02*
X11745952Y-14104476D01*
X11745952Y-14104476D02*
X11765000Y-14114000D01*
X11765000Y-14114000D02*
X11774524Y-14123524D01*
X11774524Y-14123524D02*
X11784048Y-14142571D01*
X11784048Y-14142571D02*
X11793571Y-14180667D01*
X11793571Y-14180667D02*
X11793571Y-14228286D01*
X11793571Y-14228286D02*
X11784048Y-14266381D01*
X11784048Y-14266381D02*
X11774524Y-14285428D01*
X11774524Y-14285428D02*
X11765000Y-14294952D01*
X11765000Y-14294952D02*
X11745952Y-14304476D01*
X11745952Y-14304476D02*
X11726905Y-14304476D01*
X11726905Y-14304476D02*
X11707857Y-14294952D01*
X11707857Y-14294952D02*
X11698333Y-14285428D01*
X11698333Y-14285428D02*
X11688809Y-14266381D01*
X11688809Y-14266381D02*
X11679286Y-14228286D01*
X11679286Y-14228286D02*
X11679286Y-14180667D01*
X11679286Y-14180667D02*
X11688809Y-14142571D01*
X11688809Y-14142571D02*
X11698333Y-14123524D01*
X11698333Y-14123524D02*
X11707857Y-14114000D01*
X11707857Y-14114000D02*
X11726905Y-14104476D01*
X11917381Y-14104476D02*
X11936429Y-14104476D01*
X11936429Y-14104476D02*
X11955476Y-14114000D01*
X11955476Y-14114000D02*
X11965000Y-14123524D01*
X11965000Y-14123524D02*
X11974524Y-14142571D01*
X11974524Y-14142571D02*
X11984048Y-14180667D01*
X11984048Y-14180667D02*
X11984048Y-14228286D01*
X11984048Y-14228286D02*
X11974524Y-14266381D01*
X11974524Y-14266381D02*
X11965000Y-14285428D01*
X11965000Y-14285428D02*
X11955476Y-14294952D01*
X11955476Y-14294952D02*
X11936429Y-14304476D01*
X11936429Y-14304476D02*
X11917381Y-14304476D01*
X11917381Y-14304476D02*
X11898333Y-14294952D01*
X11898333Y-14294952D02*
X11888809Y-14285428D01*
X11888809Y-14285428D02*
X11879286Y-14266381D01*
X11879286Y-14266381D02*
X11869762Y-14228286D01*
X11869762Y-14228286D02*
X11869762Y-14180667D01*
X11869762Y-14180667D02*
X11879286Y-14142571D01*
X11879286Y-14142571D02*
X11888809Y-14123524D01*
X11888809Y-14123524D02*
X11898333Y-14114000D01*
X11898333Y-14114000D02*
X11917381Y-14104476D01*
X12069762Y-14304476D02*
X12069762Y-14171143D01*
X12069762Y-14190190D02*
X12079286Y-14180667D01*
X12079286Y-14180667D02*
X12098333Y-14171143D01*
X12098333Y-14171143D02*
X12126905Y-14171143D01*
X12126905Y-14171143D02*
X12145952Y-14180667D01*
X12145952Y-14180667D02*
X12155476Y-14199714D01*
X12155476Y-14199714D02*
X12155476Y-14304476D01*
X12155476Y-14199714D02*
X12165000Y-14180667D01*
X12165000Y-14180667D02*
X12184048Y-14171143D01*
X12184048Y-14171143D02*
X12212619Y-14171143D01*
X12212619Y-14171143D02*
X12231667Y-14180667D01*
X12231667Y-14180667D02*
X12241190Y-14199714D01*
X12241190Y-14199714D02*
X12241190Y-14304476D01*
X12336429Y-14304476D02*
X12336429Y-14171143D01*
X12336429Y-14190190D02*
X12345952Y-14180667D01*
X12345952Y-14180667D02*
X12365000Y-14171143D01*
X12365000Y-14171143D02*
X12393571Y-14171143D01*
X12393571Y-14171143D02*
X12412619Y-14180667D01*
X12412619Y-14180667D02*
X12422143Y-14199714D01*
X12422143Y-14199714D02*
X12422143Y-14304476D01*
X12422143Y-14199714D02*
X12431667Y-14180667D01*
X12431667Y-14180667D02*
X12450714Y-14171143D01*
X12450714Y-14171143D02*
X12479286Y-14171143D01*
X12479286Y-14171143D02*
X12498333Y-14180667D01*
X12498333Y-14180667D02*
X12507857Y-14199714D01*
X12507857Y-14199714D02*
X12507857Y-14304476D01*
X12865952Y-14094952D02*
X12694524Y-14352095D01*
X13090714Y-14104476D02*
X13109762Y-14104476D01*
X13109762Y-14104476D02*
X13128810Y-14114000D01*
X13128810Y-14114000D02*
X13138333Y-14123524D01*
X13138333Y-14123524D02*
X13147857Y-14142571D01*
X13147857Y-14142571D02*
X13157381Y-14180667D01*
X13157381Y-14180667D02*
X13157381Y-14228286D01*
X13157381Y-14228286D02*
X13147857Y-14266381D01*
X13147857Y-14266381D02*
X13138333Y-14285428D01*
X13138333Y-14285428D02*
X13128810Y-14294952D01*
X13128810Y-14294952D02*
X13109762Y-14304476D01*
X13109762Y-14304476D02*
X13090714Y-14304476D01*
X13090714Y-14304476D02*
X13071667Y-14294952D01*
X13071667Y-14294952D02*
X13062143Y-14285428D01*
X13062143Y-14285428D02*
X13052619Y-14266381D01*
X13052619Y-14266381D02*
X13043095Y-14228286D01*
X13043095Y-14228286D02*
X13043095Y-14180667D01*
X13043095Y-14180667D02*
X13052619Y-14142571D01*
X13052619Y-14142571D02*
X13062143Y-14123524D01*
X13062143Y-14123524D02*
X13071667Y-14114000D01*
X13071667Y-14114000D02*
X13090714Y-14104476D01*
X13243095Y-14285428D02*
X13252619Y-14294952D01*
X13252619Y-14294952D02*
X13243095Y-14304476D01*
X13243095Y-14304476D02*
X13233571Y-14294952D01*
X13233571Y-14294952D02*
X13243095Y-14285428D01*
X13243095Y-14285428D02*
X13243095Y-14304476D01*
X13376429Y-14104476D02*
X13395476Y-14104476D01*
X13395476Y-14104476D02*
X13414524Y-14114000D01*
X13414524Y-14114000D02*
X13424048Y-14123524D01*
X13424048Y-14123524D02*
X13433571Y-14142571D01*
X13433571Y-14142571D02*
X13443095Y-14180667D01*
X13443095Y-14180667D02*
X13443095Y-14228286D01*
X13443095Y-14228286D02*
X13433571Y-14266381D01*
X13433571Y-14266381D02*
X13424048Y-14285428D01*
X13424048Y-14285428D02*
X13414524Y-14294952D01*
X13414524Y-14294952D02*
X13395476Y-14304476D01*
X13395476Y-14304476D02*
X13376429Y-14304476D01*
X13376429Y-14304476D02*
X13357381Y-14294952D01*
X13357381Y-14294952D02*
X13347857Y-14285428D01*
X13347857Y-14285428D02*
X13338333Y-14266381D01*
X13338333Y-14266381D02*
X13328810Y-14228286D01*
X13328810Y-14228286D02*
X13328810Y-14180667D01*
X13328810Y-14180667D02*
X13338333Y-14142571D01*
X13338333Y-14142571D02*
X13347857Y-14123524D01*
X13347857Y-14123524D02*
X13357381Y-14114000D01*
X13357381Y-14114000D02*
X13376429Y-14104476D01*
X13509762Y-14104476D02*
X13633571Y-14104476D01*
X13633571Y-14104476D02*
X13566905Y-14180667D01*
X13566905Y-14180667D02*
X13595476Y-14180667D01*
X13595476Y-14180667D02*
X13614524Y-14190190D01*
X13614524Y-14190190D02*
X13624048Y-14199714D01*
X13624048Y-14199714D02*
X13633571Y-14218762D01*
X13633571Y-14218762D02*
X13633571Y-14266381D01*
X13633571Y-14266381D02*
X13624048Y-14285428D01*
X13624048Y-14285428D02*
X13614524Y-14294952D01*
X13614524Y-14294952D02*
X13595476Y-14304476D01*
X13595476Y-14304476D02*
X13538333Y-14304476D01*
X13538333Y-14304476D02*
X13519286Y-14294952D01*
X13519286Y-14294952D02*
X13509762Y-14285428D01*
X13728810Y-14304476D02*
X13766905Y-14304476D01*
X13766905Y-14304476D02*
X13785952Y-14294952D01*
X13785952Y-14294952D02*
X13795476Y-14285428D01*
X13795476Y-14285428D02*
X13814524Y-14256857D01*
X13814524Y-14256857D02*
X13824048Y-14218762D01*
X13824048Y-14218762D02*
X13824048Y-14142571D01*
X13824048Y-14142571D02*
X13814524Y-14123524D01*
X13814524Y-14123524D02*
X13805000Y-14114000D01*
X13805000Y-14114000D02*
X13785952Y-14104476D01*
X13785952Y-14104476D02*
X13747857Y-14104476D01*
X13747857Y-14104476D02*
X13728810Y-14114000D01*
X13728810Y-14114000D02*
X13719286Y-14123524D01*
X13719286Y-14123524D02*
X13709762Y-14142571D01*
X13709762Y-14142571D02*
X13709762Y-14190190D01*
X13709762Y-14190190D02*
X13719286Y-14209238D01*
X13719286Y-14209238D02*
X13728810Y-14218762D01*
X13728810Y-14218762D02*
X13747857Y-14228286D01*
X13747857Y-14228286D02*
X13785952Y-14228286D01*
X13785952Y-14228286D02*
X13805000Y-14218762D01*
X13805000Y-14218762D02*
X13814524Y-14209238D01*
X13814524Y-14209238D02*
X13824048Y-14190190D01*
X13995476Y-14171143D02*
X13995476Y-14304476D01*
X13947857Y-14094952D02*
X13900238Y-14237809D01*
X13900238Y-14237809D02*
X14024048Y-14237809D01*
X14090714Y-14104476D02*
X14090714Y-14142571D01*
X14166905Y-14104476D02*
X14166905Y-14142571D01*
X14429762Y-14380667D02*
X14420238Y-14371143D01*
X14420238Y-14371143D02*
X14401191Y-14342571D01*
X14401191Y-14342571D02*
X14391667Y-14323524D01*
X14391667Y-14323524D02*
X14382143Y-14294952D01*
X14382143Y-14294952D02*
X14372619Y-14247333D01*
X14372619Y-14247333D02*
X14372619Y-14209238D01*
X14372619Y-14209238D02*
X14382143Y-14161619D01*
X14382143Y-14161619D02*
X14391667Y-14133048D01*
X14391667Y-14133048D02*
X14401191Y-14114000D01*
X14401191Y-14114000D02*
X14420238Y-14085428D01*
X14420238Y-14085428D02*
X14429762Y-14075905D01*
X14486905Y-14104476D02*
X14610714Y-14104476D01*
X14610714Y-14104476D02*
X14544048Y-14180667D01*
X14544048Y-14180667D02*
X14572619Y-14180667D01*
X14572619Y-14180667D02*
X14591667Y-14190190D01*
X14591667Y-14190190D02*
X14601191Y-14199714D01*
X14601191Y-14199714D02*
X14610714Y-14218762D01*
X14610714Y-14218762D02*
X14610714Y-14266381D01*
X14610714Y-14266381D02*
X14601191Y-14285428D01*
X14601191Y-14285428D02*
X14591667Y-14294952D01*
X14591667Y-14294952D02*
X14572619Y-14304476D01*
X14572619Y-14304476D02*
X14515476Y-14304476D01*
X14515476Y-14304476D02*
X14496429Y-14294952D01*
X14496429Y-14294952D02*
X14486905Y-14285428D01*
X14677381Y-14104476D02*
X14801191Y-14104476D01*
X14801191Y-14104476D02*
X14734524Y-14180667D01*
X14734524Y-14180667D02*
X14763095Y-14180667D01*
X14763095Y-14180667D02*
X14782143Y-14190190D01*
X14782143Y-14190190D02*
X14791667Y-14199714D01*
X14791667Y-14199714D02*
X14801191Y-14218762D01*
X14801191Y-14218762D02*
X14801191Y-14266381D01*
X14801191Y-14266381D02*
X14791667Y-14285428D01*
X14791667Y-14285428D02*
X14782143Y-14294952D01*
X14782143Y-14294952D02*
X14763095Y-14304476D01*
X14763095Y-14304476D02*
X14705952Y-14304476D01*
X14705952Y-14304476D02*
X14686905Y-14294952D01*
X14686905Y-14294952D02*
X14677381Y-14285428D01*
X15006905Y-14304476D02*
X15006905Y-14104476D01*
X15092619Y-14304476D02*
X15092619Y-14199714D01*
X15092619Y-14199714D02*
X15083095Y-14180667D01*
X15083095Y-14180667D02*
X15064048Y-14171143D01*
X15064048Y-14171143D02*
X15035476Y-14171143D01*
X15035476Y-14171143D02*
X15016429Y-14180667D01*
X15016429Y-14180667D02*
X15006905Y-14190190D01*
X15216429Y-14304476D02*
X15197381Y-14294952D01*
X15197381Y-14294952D02*
X15187857Y-14285428D01*
X15187857Y-14285428D02*
X15178333Y-14266381D01*
X15178333Y-14266381D02*
X15178333Y-14209238D01*
X15178333Y-14209238D02*
X15187857Y-14190190D01*
X15187857Y-14190190D02*
X15197381Y-14180667D01*
X15197381Y-14180667D02*
X15216429Y-14171143D01*
X15216429Y-14171143D02*
X15245000Y-14171143D01*
X15245000Y-14171143D02*
X15264048Y-14180667D01*
X15264048Y-14180667D02*
X15273572Y-14190190D01*
X15273572Y-14190190D02*
X15283095Y-14209238D01*
X15283095Y-14209238D02*
X15283095Y-14266381D01*
X15283095Y-14266381D02*
X15273572Y-14285428D01*
X15273572Y-14285428D02*
X15264048Y-14294952D01*
X15264048Y-14294952D02*
X15245000Y-14304476D01*
X15245000Y-14304476D02*
X15216429Y-14304476D01*
X15397381Y-14304476D02*
X15378333Y-14294952D01*
X15378333Y-14294952D02*
X15368810Y-14275905D01*
X15368810Y-14275905D02*
X15368810Y-14104476D01*
X15549762Y-14294952D02*
X15530714Y-14304476D01*
X15530714Y-14304476D02*
X15492619Y-14304476D01*
X15492619Y-14304476D02*
X15473572Y-14294952D01*
X15473572Y-14294952D02*
X15464048Y-14275905D01*
X15464048Y-14275905D02*
X15464048Y-14199714D01*
X15464048Y-14199714D02*
X15473572Y-14180667D01*
X15473572Y-14180667D02*
X15492619Y-14171143D01*
X15492619Y-14171143D02*
X15530714Y-14171143D01*
X15530714Y-14171143D02*
X15549762Y-14180667D01*
X15549762Y-14180667D02*
X15559286Y-14199714D01*
X15559286Y-14199714D02*
X15559286Y-14218762D01*
X15559286Y-14218762D02*
X15464048Y-14237809D01*
X15635476Y-14294952D02*
X15654524Y-14304476D01*
X15654524Y-14304476D02*
X15692619Y-14304476D01*
X15692619Y-14304476D02*
X15711667Y-14294952D01*
X15711667Y-14294952D02*
X15721191Y-14275905D01*
X15721191Y-14275905D02*
X15721191Y-14266381D01*
X15721191Y-14266381D02*
X15711667Y-14247333D01*
X15711667Y-14247333D02*
X15692619Y-14237809D01*
X15692619Y-14237809D02*
X15664048Y-14237809D01*
X15664048Y-14237809D02*
X15645000Y-14228286D01*
X15645000Y-14228286D02*
X15635476Y-14209238D01*
X15635476Y-14209238D02*
X15635476Y-14199714D01*
X15635476Y-14199714D02*
X15645000Y-14180667D01*
X15645000Y-14180667D02*
X15664048Y-14171143D01*
X15664048Y-14171143D02*
X15692619Y-14171143D01*
X15692619Y-14171143D02*
X15711667Y-14180667D01*
X15787857Y-14380667D02*
X15797381Y-14371143D01*
X15797381Y-14371143D02*
X15816429Y-14342571D01*
X15816429Y-14342571D02*
X15825953Y-14323524D01*
X15825953Y-14323524D02*
X15835476Y-14294952D01*
X15835476Y-14294952D02*
X15845000Y-14247333D01*
X15845000Y-14247333D02*
X15845000Y-14209238D01*
X15845000Y-14209238D02*
X15835476Y-14161619D01*
X15835476Y-14161619D02*
X15825953Y-14133048D01*
X15825953Y-14133048D02*
X15816429Y-14114000D01*
X15816429Y-14114000D02*
X15797381Y-14085428D01*
X15797381Y-14085428D02*
X15787857Y-14075905D01*
D16*
X10845000Y-14435000D02*
X10965000Y-14555000D01*
X10965000Y-14435000D02*
X10845000Y-14555000D01*
X10965000Y-14495000D02*
G75*
G03*
X10965000Y-14495000I-60000J0D01*
G01*
D11*
X11317381Y-14568476D02*
X11203095Y-14568476D01*
X11260238Y-14568476D02*
X11260238Y-14368476D01*
X11260238Y-14368476D02*
X11241190Y-14397048D01*
X11241190Y-14397048D02*
X11222143Y-14416095D01*
X11222143Y-14416095D02*
X11203095Y-14425619D01*
X11403095Y-14549428D02*
X11412619Y-14558952D01*
X11412619Y-14558952D02*
X11403095Y-14568476D01*
X11403095Y-14568476D02*
X11393571Y-14558952D01*
X11393571Y-14558952D02*
X11403095Y-14549428D01*
X11403095Y-14549428D02*
X11403095Y-14568476D01*
X11488809Y-14387524D02*
X11498333Y-14378000D01*
X11498333Y-14378000D02*
X11517381Y-14368476D01*
X11517381Y-14368476D02*
X11565000Y-14368476D01*
X11565000Y-14368476D02*
X11584048Y-14378000D01*
X11584048Y-14378000D02*
X11593571Y-14387524D01*
X11593571Y-14387524D02*
X11603095Y-14406571D01*
X11603095Y-14406571D02*
X11603095Y-14425619D01*
X11603095Y-14425619D02*
X11593571Y-14454190D01*
X11593571Y-14454190D02*
X11479286Y-14568476D01*
X11479286Y-14568476D02*
X11603095Y-14568476D01*
X11726905Y-14368476D02*
X11745952Y-14368476D01*
X11745952Y-14368476D02*
X11765000Y-14378000D01*
X11765000Y-14378000D02*
X11774524Y-14387524D01*
X11774524Y-14387524D02*
X11784048Y-14406571D01*
X11784048Y-14406571D02*
X11793571Y-14444667D01*
X11793571Y-14444667D02*
X11793571Y-14492286D01*
X11793571Y-14492286D02*
X11784048Y-14530381D01*
X11784048Y-14530381D02*
X11774524Y-14549428D01*
X11774524Y-14549428D02*
X11765000Y-14558952D01*
X11765000Y-14558952D02*
X11745952Y-14568476D01*
X11745952Y-14568476D02*
X11726905Y-14568476D01*
X11726905Y-14568476D02*
X11707857Y-14558952D01*
X11707857Y-14558952D02*
X11698333Y-14549428D01*
X11698333Y-14549428D02*
X11688809Y-14530381D01*
X11688809Y-14530381D02*
X11679286Y-14492286D01*
X11679286Y-14492286D02*
X11679286Y-14444667D01*
X11679286Y-14444667D02*
X11688809Y-14406571D01*
X11688809Y-14406571D02*
X11698333Y-14387524D01*
X11698333Y-14387524D02*
X11707857Y-14378000D01*
X11707857Y-14378000D02*
X11726905Y-14368476D01*
X11917381Y-14368476D02*
X11936429Y-14368476D01*
X11936429Y-14368476D02*
X11955476Y-14378000D01*
X11955476Y-14378000D02*
X11965000Y-14387524D01*
X11965000Y-14387524D02*
X11974524Y-14406571D01*
X11974524Y-14406571D02*
X11984048Y-14444667D01*
X11984048Y-14444667D02*
X11984048Y-14492286D01*
X11984048Y-14492286D02*
X11974524Y-14530381D01*
X11974524Y-14530381D02*
X11965000Y-14549428D01*
X11965000Y-14549428D02*
X11955476Y-14558952D01*
X11955476Y-14558952D02*
X11936429Y-14568476D01*
X11936429Y-14568476D02*
X11917381Y-14568476D01*
X11917381Y-14568476D02*
X11898333Y-14558952D01*
X11898333Y-14558952D02*
X11888809Y-14549428D01*
X11888809Y-14549428D02*
X11879286Y-14530381D01*
X11879286Y-14530381D02*
X11869762Y-14492286D01*
X11869762Y-14492286D02*
X11869762Y-14444667D01*
X11869762Y-14444667D02*
X11879286Y-14406571D01*
X11879286Y-14406571D02*
X11888809Y-14387524D01*
X11888809Y-14387524D02*
X11898333Y-14378000D01*
X11898333Y-14378000D02*
X11917381Y-14368476D01*
X12069762Y-14568476D02*
X12069762Y-14435143D01*
X12069762Y-14454190D02*
X12079286Y-14444667D01*
X12079286Y-14444667D02*
X12098333Y-14435143D01*
X12098333Y-14435143D02*
X12126905Y-14435143D01*
X12126905Y-14435143D02*
X12145952Y-14444667D01*
X12145952Y-14444667D02*
X12155476Y-14463714D01*
X12155476Y-14463714D02*
X12155476Y-14568476D01*
X12155476Y-14463714D02*
X12165000Y-14444667D01*
X12165000Y-14444667D02*
X12184048Y-14435143D01*
X12184048Y-14435143D02*
X12212619Y-14435143D01*
X12212619Y-14435143D02*
X12231667Y-14444667D01*
X12231667Y-14444667D02*
X12241190Y-14463714D01*
X12241190Y-14463714D02*
X12241190Y-14568476D01*
X12336429Y-14568476D02*
X12336429Y-14435143D01*
X12336429Y-14454190D02*
X12345952Y-14444667D01*
X12345952Y-14444667D02*
X12365000Y-14435143D01*
X12365000Y-14435143D02*
X12393571Y-14435143D01*
X12393571Y-14435143D02*
X12412619Y-14444667D01*
X12412619Y-14444667D02*
X12422143Y-14463714D01*
X12422143Y-14463714D02*
X12422143Y-14568476D01*
X12422143Y-14463714D02*
X12431667Y-14444667D01*
X12431667Y-14444667D02*
X12450714Y-14435143D01*
X12450714Y-14435143D02*
X12479286Y-14435143D01*
X12479286Y-14435143D02*
X12498333Y-14444667D01*
X12498333Y-14444667D02*
X12507857Y-14463714D01*
X12507857Y-14463714D02*
X12507857Y-14568476D01*
X12865952Y-14358952D02*
X12694524Y-14616095D01*
X13090714Y-14368476D02*
X13109762Y-14368476D01*
X13109762Y-14368476D02*
X13128810Y-14378000D01*
X13128810Y-14378000D02*
X13138333Y-14387524D01*
X13138333Y-14387524D02*
X13147857Y-14406571D01*
X13147857Y-14406571D02*
X13157381Y-14444667D01*
X13157381Y-14444667D02*
X13157381Y-14492286D01*
X13157381Y-14492286D02*
X13147857Y-14530381D01*
X13147857Y-14530381D02*
X13138333Y-14549428D01*
X13138333Y-14549428D02*
X13128810Y-14558952D01*
X13128810Y-14558952D02*
X13109762Y-14568476D01*
X13109762Y-14568476D02*
X13090714Y-14568476D01*
X13090714Y-14568476D02*
X13071667Y-14558952D01*
X13071667Y-14558952D02*
X13062143Y-14549428D01*
X13062143Y-14549428D02*
X13052619Y-14530381D01*
X13052619Y-14530381D02*
X13043095Y-14492286D01*
X13043095Y-14492286D02*
X13043095Y-14444667D01*
X13043095Y-14444667D02*
X13052619Y-14406571D01*
X13052619Y-14406571D02*
X13062143Y-14387524D01*
X13062143Y-14387524D02*
X13071667Y-14378000D01*
X13071667Y-14378000D02*
X13090714Y-14368476D01*
X13243095Y-14549428D02*
X13252619Y-14558952D01*
X13252619Y-14558952D02*
X13243095Y-14568476D01*
X13243095Y-14568476D02*
X13233571Y-14558952D01*
X13233571Y-14558952D02*
X13243095Y-14549428D01*
X13243095Y-14549428D02*
X13243095Y-14568476D01*
X13376429Y-14368476D02*
X13395476Y-14368476D01*
X13395476Y-14368476D02*
X13414524Y-14378000D01*
X13414524Y-14378000D02*
X13424048Y-14387524D01*
X13424048Y-14387524D02*
X13433571Y-14406571D01*
X13433571Y-14406571D02*
X13443095Y-14444667D01*
X13443095Y-14444667D02*
X13443095Y-14492286D01*
X13443095Y-14492286D02*
X13433571Y-14530381D01*
X13433571Y-14530381D02*
X13424048Y-14549428D01*
X13424048Y-14549428D02*
X13414524Y-14558952D01*
X13414524Y-14558952D02*
X13395476Y-14568476D01*
X13395476Y-14568476D02*
X13376429Y-14568476D01*
X13376429Y-14568476D02*
X13357381Y-14558952D01*
X13357381Y-14558952D02*
X13347857Y-14549428D01*
X13347857Y-14549428D02*
X13338333Y-14530381D01*
X13338333Y-14530381D02*
X13328810Y-14492286D01*
X13328810Y-14492286D02*
X13328810Y-14444667D01*
X13328810Y-14444667D02*
X13338333Y-14406571D01*
X13338333Y-14406571D02*
X13347857Y-14387524D01*
X13347857Y-14387524D02*
X13357381Y-14378000D01*
X13357381Y-14378000D02*
X13376429Y-14368476D01*
X13614524Y-14435143D02*
X13614524Y-14568476D01*
X13566905Y-14358952D02*
X13519286Y-14501809D01*
X13519286Y-14501809D02*
X13643095Y-14501809D01*
X13700238Y-14368476D02*
X13833571Y-14368476D01*
X13833571Y-14368476D02*
X13747857Y-14568476D01*
X13900238Y-14387524D02*
X13909762Y-14378000D01*
X13909762Y-14378000D02*
X13928810Y-14368476D01*
X13928810Y-14368476D02*
X13976429Y-14368476D01*
X13976429Y-14368476D02*
X13995476Y-14378000D01*
X13995476Y-14378000D02*
X14005000Y-14387524D01*
X14005000Y-14387524D02*
X14014524Y-14406571D01*
X14014524Y-14406571D02*
X14014524Y-14425619D01*
X14014524Y-14425619D02*
X14005000Y-14454190D01*
X14005000Y-14454190D02*
X13890714Y-14568476D01*
X13890714Y-14568476D02*
X14014524Y-14568476D01*
X14090714Y-14368476D02*
X14090714Y-14406571D01*
X14166905Y-14368476D02*
X14166905Y-14406571D01*
X14429762Y-14644667D02*
X14420238Y-14635143D01*
X14420238Y-14635143D02*
X14401191Y-14606571D01*
X14401191Y-14606571D02*
X14391667Y-14587524D01*
X14391667Y-14587524D02*
X14382143Y-14558952D01*
X14382143Y-14558952D02*
X14372619Y-14511333D01*
X14372619Y-14511333D02*
X14372619Y-14473238D01*
X14372619Y-14473238D02*
X14382143Y-14425619D01*
X14382143Y-14425619D02*
X14391667Y-14397048D01*
X14391667Y-14397048D02*
X14401191Y-14378000D01*
X14401191Y-14378000D02*
X14420238Y-14349428D01*
X14420238Y-14349428D02*
X14429762Y-14339905D01*
X14610714Y-14568476D02*
X14496429Y-14568476D01*
X14553571Y-14568476D02*
X14553571Y-14368476D01*
X14553571Y-14368476D02*
X14534524Y-14397048D01*
X14534524Y-14397048D02*
X14515476Y-14416095D01*
X14515476Y-14416095D02*
X14496429Y-14425619D01*
X14725000Y-14454190D02*
X14705952Y-14444667D01*
X14705952Y-14444667D02*
X14696429Y-14435143D01*
X14696429Y-14435143D02*
X14686905Y-14416095D01*
X14686905Y-14416095D02*
X14686905Y-14406571D01*
X14686905Y-14406571D02*
X14696429Y-14387524D01*
X14696429Y-14387524D02*
X14705952Y-14378000D01*
X14705952Y-14378000D02*
X14725000Y-14368476D01*
X14725000Y-14368476D02*
X14763095Y-14368476D01*
X14763095Y-14368476D02*
X14782143Y-14378000D01*
X14782143Y-14378000D02*
X14791667Y-14387524D01*
X14791667Y-14387524D02*
X14801191Y-14406571D01*
X14801191Y-14406571D02*
X14801191Y-14416095D01*
X14801191Y-14416095D02*
X14791667Y-14435143D01*
X14791667Y-14435143D02*
X14782143Y-14444667D01*
X14782143Y-14444667D02*
X14763095Y-14454190D01*
X14763095Y-14454190D02*
X14725000Y-14454190D01*
X14725000Y-14454190D02*
X14705952Y-14463714D01*
X14705952Y-14463714D02*
X14696429Y-14473238D01*
X14696429Y-14473238D02*
X14686905Y-14492286D01*
X14686905Y-14492286D02*
X14686905Y-14530381D01*
X14686905Y-14530381D02*
X14696429Y-14549428D01*
X14696429Y-14549428D02*
X14705952Y-14558952D01*
X14705952Y-14558952D02*
X14725000Y-14568476D01*
X14725000Y-14568476D02*
X14763095Y-14568476D01*
X14763095Y-14568476D02*
X14782143Y-14558952D01*
X14782143Y-14558952D02*
X14791667Y-14549428D01*
X14791667Y-14549428D02*
X14801191Y-14530381D01*
X14801191Y-14530381D02*
X14801191Y-14492286D01*
X14801191Y-14492286D02*
X14791667Y-14473238D01*
X14791667Y-14473238D02*
X14782143Y-14463714D01*
X14782143Y-14463714D02*
X14763095Y-14454190D01*
X15006905Y-14568476D02*
X15006905Y-14368476D01*
X15092619Y-14568476D02*
X15092619Y-14463714D01*
X15092619Y-14463714D02*
X15083095Y-14444667D01*
X15083095Y-14444667D02*
X15064048Y-14435143D01*
X15064048Y-14435143D02*
X15035476Y-14435143D01*
X15035476Y-14435143D02*
X15016429Y-14444667D01*
X15016429Y-14444667D02*
X15006905Y-14454190D01*
X15216429Y-14568476D02*
X15197381Y-14558952D01*
X15197381Y-14558952D02*
X15187857Y-14549428D01*
X15187857Y-14549428D02*
X15178333Y-14530381D01*
X15178333Y-14530381D02*
X15178333Y-14473238D01*
X15178333Y-14473238D02*
X15187857Y-14454190D01*
X15187857Y-14454190D02*
X15197381Y-14444667D01*
X15197381Y-14444667D02*
X15216429Y-14435143D01*
X15216429Y-14435143D02*
X15245000Y-14435143D01*
X15245000Y-14435143D02*
X15264048Y-14444667D01*
X15264048Y-14444667D02*
X15273572Y-14454190D01*
X15273572Y-14454190D02*
X15283095Y-14473238D01*
X15283095Y-14473238D02*
X15283095Y-14530381D01*
X15283095Y-14530381D02*
X15273572Y-14549428D01*
X15273572Y-14549428D02*
X15264048Y-14558952D01*
X15264048Y-14558952D02*
X15245000Y-14568476D01*
X15245000Y-14568476D02*
X15216429Y-14568476D01*
X15397381Y-14568476D02*
X15378333Y-14558952D01*
X15378333Y-14558952D02*
X15368810Y-14539905D01*
X15368810Y-14539905D02*
X15368810Y-14368476D01*
X15549762Y-14558952D02*
X15530714Y-14568476D01*
X15530714Y-14568476D02*
X15492619Y-14568476D01*
X15492619Y-14568476D02*
X15473572Y-14558952D01*
X15473572Y-14558952D02*
X15464048Y-14539905D01*
X15464048Y-14539905D02*
X15464048Y-14463714D01*
X15464048Y-14463714D02*
X15473572Y-14444667D01*
X15473572Y-14444667D02*
X15492619Y-14435143D01*
X15492619Y-14435143D02*
X15530714Y-14435143D01*
X15530714Y-14435143D02*
X15549762Y-14444667D01*
X15549762Y-14444667D02*
X15559286Y-14463714D01*
X15559286Y-14463714D02*
X15559286Y-14482762D01*
X15559286Y-14482762D02*
X15464048Y-14501809D01*
X15635476Y-14558952D02*
X15654524Y-14568476D01*
X15654524Y-14568476D02*
X15692619Y-14568476D01*
X15692619Y-14568476D02*
X15711667Y-14558952D01*
X15711667Y-14558952D02*
X15721191Y-14539905D01*
X15721191Y-14539905D02*
X15721191Y-14530381D01*
X15721191Y-14530381D02*
X15711667Y-14511333D01*
X15711667Y-14511333D02*
X15692619Y-14501809D01*
X15692619Y-14501809D02*
X15664048Y-14501809D01*
X15664048Y-14501809D02*
X15645000Y-14492286D01*
X15645000Y-14492286D02*
X15635476Y-14473238D01*
X15635476Y-14473238D02*
X15635476Y-14463714D01*
X15635476Y-14463714D02*
X15645000Y-14444667D01*
X15645000Y-14444667D02*
X15664048Y-14435143D01*
X15664048Y-14435143D02*
X15692619Y-14435143D01*
X15692619Y-14435143D02*
X15711667Y-14444667D01*
X15787857Y-14644667D02*
X15797381Y-14635143D01*
X15797381Y-14635143D02*
X15816429Y-14606571D01*
X15816429Y-14606571D02*
X15825953Y-14587524D01*
X15825953Y-14587524D02*
X15835476Y-14558952D01*
X15835476Y-14558952D02*
X15845000Y-14511333D01*
X15845000Y-14511333D02*
X15845000Y-14473238D01*
X15845000Y-14473238D02*
X15835476Y-14425619D01*
X15835476Y-14425619D02*
X15825953Y-14397048D01*
X15825953Y-14397048D02*
X15816429Y-14378000D01*
X15816429Y-14378000D02*
X15797381Y-14349428D01*
X15797381Y-14349428D02*
X15787857Y-14339905D01*
M02*
