%TF.GenerationSoftware,KiCad,Pcbnew,7.0.0-rc1-unknown-00d77f624a~164~ubuntu22.04.1*%
%TF.CreationDate,2023-01-15T10:56:32+01:00*%
%TF.ProjectId,lora-nano,6c6f7261-2d6e-4616-9e6f-2e6b69636164,rev?*%
%TF.SameCoordinates,Original*%
%TF.FileFunction,Legend,Bot*%
%TF.FilePolarity,Positive*%
%FSLAX46Y46*%
G04 Gerber Fmt 4.6, Leading zero omitted, Abs format (unit mm)*
G04 Created by KiCad (PCBNEW 7.0.0-rc1-unknown-00d77f624a~164~ubuntu22.04.1) date 2023-01-15 10:56:32*
%MOMM*%
%LPD*%
G01*
G04 APERTURE LIST*
%ADD10C,0.150000*%
%ADD11C,0.300000*%
G04 APERTURE END LIST*
D10*
X128266666Y-77167380D02*
X128599999Y-76691190D01*
X128838094Y-77167380D02*
X128838094Y-76167380D01*
X128838094Y-76167380D02*
X128457142Y-76167380D01*
X128457142Y-76167380D02*
X128361904Y-76215000D01*
X128361904Y-76215000D02*
X128314285Y-76262619D01*
X128314285Y-76262619D02*
X128266666Y-76357857D01*
X128266666Y-76357857D02*
X128266666Y-76500714D01*
X128266666Y-76500714D02*
X128314285Y-76595952D01*
X128314285Y-76595952D02*
X128361904Y-76643571D01*
X128361904Y-76643571D02*
X128457142Y-76691190D01*
X128457142Y-76691190D02*
X128838094Y-76691190D01*
X127933332Y-76167380D02*
X127266666Y-77167380D01*
X127266666Y-76167380D02*
X127933332Y-77167380D01*
X126885713Y-77167380D02*
X126885713Y-76167380D01*
X126885713Y-76167380D02*
X126647618Y-76167380D01*
X126647618Y-76167380D02*
X126504761Y-76215000D01*
X126504761Y-76215000D02*
X126409523Y-76310238D01*
X126409523Y-76310238D02*
X126361904Y-76405476D01*
X126361904Y-76405476D02*
X126314285Y-76595952D01*
X126314285Y-76595952D02*
X126314285Y-76738809D01*
X126314285Y-76738809D02*
X126361904Y-76929285D01*
X126361904Y-76929285D02*
X126409523Y-77024523D01*
X126409523Y-77024523D02*
X126504761Y-77119761D01*
X126504761Y-77119761D02*
X126647618Y-77167380D01*
X126647618Y-77167380D02*
X126885713Y-77167380D01*
X164709523Y-123200714D02*
X164709523Y-123867380D01*
X164947618Y-122819761D02*
X165185713Y-123534047D01*
X165185713Y-123534047D02*
X164566666Y-123534047D01*
X176233332Y-122867380D02*
X175899999Y-123867380D01*
X175899999Y-123867380D02*
X175566666Y-122867380D01*
X174661904Y-123772142D02*
X174709523Y-123819761D01*
X174709523Y-123819761D02*
X174852380Y-123867380D01*
X174852380Y-123867380D02*
X174947618Y-123867380D01*
X174947618Y-123867380D02*
X175090475Y-123819761D01*
X175090475Y-123819761D02*
X175185713Y-123724523D01*
X175185713Y-123724523D02*
X175233332Y-123629285D01*
X175233332Y-123629285D02*
X175280951Y-123438809D01*
X175280951Y-123438809D02*
X175280951Y-123295952D01*
X175280951Y-123295952D02*
X175233332Y-123105476D01*
X175233332Y-123105476D02*
X175185713Y-123010238D01*
X175185713Y-123010238D02*
X175090475Y-122915000D01*
X175090475Y-122915000D02*
X174947618Y-122867380D01*
X174947618Y-122867380D02*
X174852380Y-122867380D01*
X174852380Y-122867380D02*
X174709523Y-122915000D01*
X174709523Y-122915000D02*
X174661904Y-122962619D01*
X174233332Y-123867380D02*
X174233332Y-122867380D01*
X174233332Y-122867380D02*
X173995237Y-122867380D01*
X173995237Y-122867380D02*
X173852380Y-122915000D01*
X173852380Y-122915000D02*
X173757142Y-123010238D01*
X173757142Y-123010238D02*
X173709523Y-123105476D01*
X173709523Y-123105476D02*
X173661904Y-123295952D01*
X173661904Y-123295952D02*
X173661904Y-123438809D01*
X173661904Y-123438809D02*
X173709523Y-123629285D01*
X173709523Y-123629285D02*
X173757142Y-123724523D01*
X173757142Y-123724523D02*
X173852380Y-123819761D01*
X173852380Y-123819761D02*
X173995237Y-123867380D01*
X173995237Y-123867380D02*
X174233332Y-123867380D01*
D11*
X111327976Y-86897619D02*
X110077976Y-86897619D01*
X111327976Y-87492857D02*
X110077976Y-87492857D01*
X110077976Y-87492857D02*
X111327976Y-88207142D01*
X111327976Y-88207142D02*
X110077976Y-88207142D01*
X111327976Y-88802381D02*
X110077976Y-88802381D01*
X110077976Y-88802381D02*
X110077976Y-89278571D01*
X110077976Y-89278571D02*
X110137500Y-89397619D01*
X110137500Y-89397619D02*
X110197023Y-89457142D01*
X110197023Y-89457142D02*
X110316071Y-89516666D01*
X110316071Y-89516666D02*
X110494642Y-89516666D01*
X110494642Y-89516666D02*
X110613690Y-89457142D01*
X110613690Y-89457142D02*
X110673214Y-89397619D01*
X110673214Y-89397619D02*
X110732738Y-89278571D01*
X110732738Y-89278571D02*
X110732738Y-88802381D01*
X110077976Y-90052381D02*
X111089880Y-90052381D01*
X111089880Y-90052381D02*
X111208928Y-90111904D01*
X111208928Y-90111904D02*
X111268452Y-90171428D01*
X111268452Y-90171428D02*
X111327976Y-90290476D01*
X111327976Y-90290476D02*
X111327976Y-90528571D01*
X111327976Y-90528571D02*
X111268452Y-90647619D01*
X111268452Y-90647619D02*
X111208928Y-90707142D01*
X111208928Y-90707142D02*
X111089880Y-90766666D01*
X111089880Y-90766666D02*
X110077976Y-90766666D01*
X110077976Y-91183333D02*
X110077976Y-91897619D01*
X111327976Y-91540476D02*
X110077976Y-91540476D01*
D10*
X156938094Y-88981666D02*
X156461904Y-88981666D01*
X157033332Y-89267380D02*
X156699999Y-88267380D01*
X156699999Y-88267380D02*
X156366666Y-89267380D01*
X156033332Y-88267380D02*
X156033332Y-89076904D01*
X156033332Y-89076904D02*
X155985713Y-89172142D01*
X155985713Y-89172142D02*
X155938094Y-89219761D01*
X155938094Y-89219761D02*
X155842856Y-89267380D01*
X155842856Y-89267380D02*
X155652380Y-89267380D01*
X155652380Y-89267380D02*
X155557142Y-89219761D01*
X155557142Y-89219761D02*
X155509523Y-89172142D01*
X155509523Y-89172142D02*
X155461904Y-89076904D01*
X155461904Y-89076904D02*
X155461904Y-88267380D01*
X155080951Y-88267380D02*
X154414285Y-89267380D01*
X154414285Y-88267380D02*
X155080951Y-89267380D01*
X110315000Y-96538095D02*
X110267380Y-96442857D01*
X110267380Y-96442857D02*
X110267380Y-96300000D01*
X110267380Y-96300000D02*
X110315000Y-96157143D01*
X110315000Y-96157143D02*
X110410238Y-96061905D01*
X110410238Y-96061905D02*
X110505476Y-96014286D01*
X110505476Y-96014286D02*
X110695952Y-95966667D01*
X110695952Y-95966667D02*
X110838809Y-95966667D01*
X110838809Y-95966667D02*
X111029285Y-96014286D01*
X111029285Y-96014286D02*
X111124523Y-96061905D01*
X111124523Y-96061905D02*
X111219761Y-96157143D01*
X111219761Y-96157143D02*
X111267380Y-96300000D01*
X111267380Y-96300000D02*
X111267380Y-96395238D01*
X111267380Y-96395238D02*
X111219761Y-96538095D01*
X111219761Y-96538095D02*
X111172142Y-96585714D01*
X111172142Y-96585714D02*
X110838809Y-96585714D01*
X110838809Y-96585714D02*
X110838809Y-96395238D01*
X111267380Y-97014286D02*
X110267380Y-97014286D01*
X110267380Y-97014286D02*
X111267380Y-97585714D01*
X111267380Y-97585714D02*
X110267380Y-97585714D01*
X111267380Y-98061905D02*
X110267380Y-98061905D01*
X110267380Y-98061905D02*
X110267380Y-98300000D01*
X110267380Y-98300000D02*
X110315000Y-98442857D01*
X110315000Y-98442857D02*
X110410238Y-98538095D01*
X110410238Y-98538095D02*
X110505476Y-98585714D01*
X110505476Y-98585714D02*
X110695952Y-98633333D01*
X110695952Y-98633333D02*
X110838809Y-98633333D01*
X110838809Y-98633333D02*
X111029285Y-98585714D01*
X111029285Y-98585714D02*
X111124523Y-98538095D01*
X111124523Y-98538095D02*
X111219761Y-98442857D01*
X111219761Y-98442857D02*
X111267380Y-98300000D01*
X111267380Y-98300000D02*
X111267380Y-98061905D01*
X157085713Y-91386428D02*
X156323809Y-91386428D01*
X156704761Y-91767380D02*
X156704761Y-91005476D01*
X155371428Y-90767380D02*
X155847618Y-90767380D01*
X155847618Y-90767380D02*
X155895237Y-91243571D01*
X155895237Y-91243571D02*
X155847618Y-91195952D01*
X155847618Y-91195952D02*
X155752380Y-91148333D01*
X155752380Y-91148333D02*
X155514285Y-91148333D01*
X155514285Y-91148333D02*
X155419047Y-91195952D01*
X155419047Y-91195952D02*
X155371428Y-91243571D01*
X155371428Y-91243571D02*
X155323809Y-91338809D01*
X155323809Y-91338809D02*
X155323809Y-91576904D01*
X155323809Y-91576904D02*
X155371428Y-91672142D01*
X155371428Y-91672142D02*
X155419047Y-91719761D01*
X155419047Y-91719761D02*
X155514285Y-91767380D01*
X155514285Y-91767380D02*
X155752380Y-91767380D01*
X155752380Y-91767380D02*
X155847618Y-91719761D01*
X155847618Y-91719761D02*
X155895237Y-91672142D01*
X155038094Y-90767380D02*
X154704761Y-91767380D01*
X154704761Y-91767380D02*
X154371428Y-90767380D01*
X156361904Y-93415000D02*
X156457142Y-93367380D01*
X156457142Y-93367380D02*
X156599999Y-93367380D01*
X156599999Y-93367380D02*
X156742856Y-93415000D01*
X156742856Y-93415000D02*
X156838094Y-93510238D01*
X156838094Y-93510238D02*
X156885713Y-93605476D01*
X156885713Y-93605476D02*
X156933332Y-93795952D01*
X156933332Y-93795952D02*
X156933332Y-93938809D01*
X156933332Y-93938809D02*
X156885713Y-94129285D01*
X156885713Y-94129285D02*
X156838094Y-94224523D01*
X156838094Y-94224523D02*
X156742856Y-94319761D01*
X156742856Y-94319761D02*
X156599999Y-94367380D01*
X156599999Y-94367380D02*
X156504761Y-94367380D01*
X156504761Y-94367380D02*
X156361904Y-94319761D01*
X156361904Y-94319761D02*
X156314285Y-94272142D01*
X156314285Y-94272142D02*
X156314285Y-93938809D01*
X156314285Y-93938809D02*
X156504761Y-93938809D01*
X155885713Y-94367380D02*
X155885713Y-93367380D01*
X155885713Y-93367380D02*
X155314285Y-94367380D01*
X155314285Y-94367380D02*
X155314285Y-93367380D01*
X154838094Y-94367380D02*
X154838094Y-93367380D01*
X154838094Y-93367380D02*
X154599999Y-93367380D01*
X154599999Y-93367380D02*
X154457142Y-93415000D01*
X154457142Y-93415000D02*
X154361904Y-93510238D01*
X154361904Y-93510238D02*
X154314285Y-93605476D01*
X154314285Y-93605476D02*
X154266666Y-93795952D01*
X154266666Y-93795952D02*
X154266666Y-93938809D01*
X154266666Y-93938809D02*
X154314285Y-94129285D01*
X154314285Y-94129285D02*
X154361904Y-94224523D01*
X154361904Y-94224523D02*
X154457142Y-94319761D01*
X154457142Y-94319761D02*
X154599999Y-94367380D01*
X154599999Y-94367380D02*
X154838094Y-94367380D01*
X162538094Y-123581666D02*
X162061904Y-123581666D01*
X162633332Y-123867380D02*
X162299999Y-122867380D01*
X162299999Y-122867380D02*
X161966666Y-123867380D01*
X161633332Y-123867380D02*
X161633332Y-122867380D01*
X161633332Y-122867380D02*
X161395237Y-122867380D01*
X161395237Y-122867380D02*
X161252380Y-122915000D01*
X161252380Y-122915000D02*
X161157142Y-123010238D01*
X161157142Y-123010238D02*
X161109523Y-123105476D01*
X161109523Y-123105476D02*
X161061904Y-123295952D01*
X161061904Y-123295952D02*
X161061904Y-123438809D01*
X161061904Y-123438809D02*
X161109523Y-123629285D01*
X161109523Y-123629285D02*
X161157142Y-123724523D01*
X161157142Y-123724523D02*
X161252380Y-123819761D01*
X161252380Y-123819761D02*
X161395237Y-123867380D01*
X161395237Y-123867380D02*
X161633332Y-123867380D01*
X160061904Y-123772142D02*
X160109523Y-123819761D01*
X160109523Y-123819761D02*
X160252380Y-123867380D01*
X160252380Y-123867380D02*
X160347618Y-123867380D01*
X160347618Y-123867380D02*
X160490475Y-123819761D01*
X160490475Y-123819761D02*
X160585713Y-123724523D01*
X160585713Y-123724523D02*
X160633332Y-123629285D01*
X160633332Y-123629285D02*
X160680951Y-123438809D01*
X160680951Y-123438809D02*
X160680951Y-123295952D01*
X160680951Y-123295952D02*
X160633332Y-123105476D01*
X160633332Y-123105476D02*
X160585713Y-123010238D01*
X160585713Y-123010238D02*
X160490475Y-122915000D01*
X160490475Y-122915000D02*
X160347618Y-122867380D01*
X160347618Y-122867380D02*
X160252380Y-122867380D01*
X160252380Y-122867380D02*
X160109523Y-122915000D01*
X160109523Y-122915000D02*
X160061904Y-122962619D01*
X156466666Y-84067380D02*
X156799999Y-83591190D01*
X157038094Y-84067380D02*
X157038094Y-83067380D01*
X157038094Y-83067380D02*
X156657142Y-83067380D01*
X156657142Y-83067380D02*
X156561904Y-83115000D01*
X156561904Y-83115000D02*
X156514285Y-83162619D01*
X156514285Y-83162619D02*
X156466666Y-83257857D01*
X156466666Y-83257857D02*
X156466666Y-83400714D01*
X156466666Y-83400714D02*
X156514285Y-83495952D01*
X156514285Y-83495952D02*
X156561904Y-83543571D01*
X156561904Y-83543571D02*
X156657142Y-83591190D01*
X156657142Y-83591190D02*
X157038094Y-83591190D01*
X156133332Y-83067380D02*
X155466666Y-84067380D01*
X155466666Y-83067380D02*
X156133332Y-84067380D01*
X155085713Y-84067380D02*
X155085713Y-83067380D01*
X155085713Y-83067380D02*
X154847618Y-83067380D01*
X154847618Y-83067380D02*
X154704761Y-83115000D01*
X154704761Y-83115000D02*
X154609523Y-83210238D01*
X154609523Y-83210238D02*
X154561904Y-83305476D01*
X154561904Y-83305476D02*
X154514285Y-83495952D01*
X154514285Y-83495952D02*
X154514285Y-83638809D01*
X154514285Y-83638809D02*
X154561904Y-83829285D01*
X154561904Y-83829285D02*
X154609523Y-83924523D01*
X154609523Y-83924523D02*
X154704761Y-84019761D01*
X154704761Y-84019761D02*
X154847618Y-84067380D01*
X154847618Y-84067380D02*
X155085713Y-84067380D01*
X169061904Y-122815000D02*
X169157142Y-122767380D01*
X169157142Y-122767380D02*
X169299999Y-122767380D01*
X169299999Y-122767380D02*
X169442856Y-122815000D01*
X169442856Y-122815000D02*
X169538094Y-122910238D01*
X169538094Y-122910238D02*
X169585713Y-123005476D01*
X169585713Y-123005476D02*
X169633332Y-123195952D01*
X169633332Y-123195952D02*
X169633332Y-123338809D01*
X169633332Y-123338809D02*
X169585713Y-123529285D01*
X169585713Y-123529285D02*
X169538094Y-123624523D01*
X169538094Y-123624523D02*
X169442856Y-123719761D01*
X169442856Y-123719761D02*
X169299999Y-123767380D01*
X169299999Y-123767380D02*
X169204761Y-123767380D01*
X169204761Y-123767380D02*
X169061904Y-123719761D01*
X169061904Y-123719761D02*
X169014285Y-123672142D01*
X169014285Y-123672142D02*
X169014285Y-123338809D01*
X169014285Y-123338809D02*
X169204761Y-123338809D01*
X168585713Y-123767380D02*
X168585713Y-122767380D01*
X168585713Y-122767380D02*
X168014285Y-123767380D01*
X168014285Y-123767380D02*
X168014285Y-122767380D01*
X167538094Y-123767380D02*
X167538094Y-122767380D01*
X167538094Y-122767380D02*
X167299999Y-122767380D01*
X167299999Y-122767380D02*
X167157142Y-122815000D01*
X167157142Y-122815000D02*
X167061904Y-122910238D01*
X167061904Y-122910238D02*
X167014285Y-123005476D01*
X167014285Y-123005476D02*
X166966666Y-123195952D01*
X166966666Y-123195952D02*
X166966666Y-123338809D01*
X166966666Y-123338809D02*
X167014285Y-123529285D01*
X167014285Y-123529285D02*
X167061904Y-123624523D01*
X167061904Y-123624523D02*
X167157142Y-123719761D01*
X167157142Y-123719761D02*
X167299999Y-123767380D01*
X167299999Y-123767380D02*
X167538094Y-123767380D01*
X123461904Y-76215000D02*
X123557142Y-76167380D01*
X123557142Y-76167380D02*
X123699999Y-76167380D01*
X123699999Y-76167380D02*
X123842856Y-76215000D01*
X123842856Y-76215000D02*
X123938094Y-76310238D01*
X123938094Y-76310238D02*
X123985713Y-76405476D01*
X123985713Y-76405476D02*
X124033332Y-76595952D01*
X124033332Y-76595952D02*
X124033332Y-76738809D01*
X124033332Y-76738809D02*
X123985713Y-76929285D01*
X123985713Y-76929285D02*
X123938094Y-77024523D01*
X123938094Y-77024523D02*
X123842856Y-77119761D01*
X123842856Y-77119761D02*
X123699999Y-77167380D01*
X123699999Y-77167380D02*
X123604761Y-77167380D01*
X123604761Y-77167380D02*
X123461904Y-77119761D01*
X123461904Y-77119761D02*
X123414285Y-77072142D01*
X123414285Y-77072142D02*
X123414285Y-76738809D01*
X123414285Y-76738809D02*
X123604761Y-76738809D01*
X122985713Y-77167380D02*
X122985713Y-76167380D01*
X122985713Y-76167380D02*
X122414285Y-77167380D01*
X122414285Y-77167380D02*
X122414285Y-76167380D01*
X121938094Y-77167380D02*
X121938094Y-76167380D01*
X121938094Y-76167380D02*
X121699999Y-76167380D01*
X121699999Y-76167380D02*
X121557142Y-76215000D01*
X121557142Y-76215000D02*
X121461904Y-76310238D01*
X121461904Y-76310238D02*
X121414285Y-76405476D01*
X121414285Y-76405476D02*
X121366666Y-76595952D01*
X121366666Y-76595952D02*
X121366666Y-76738809D01*
X121366666Y-76738809D02*
X121414285Y-76929285D01*
X121414285Y-76929285D02*
X121461904Y-77024523D01*
X121461904Y-77024523D02*
X121557142Y-77119761D01*
X121557142Y-77119761D02*
X121699999Y-77167380D01*
X121699999Y-77167380D02*
X121938094Y-77167380D01*
D11*
X110077976Y-106835714D02*
X110077976Y-107073809D01*
X110077976Y-107073809D02*
X110137500Y-107192857D01*
X110137500Y-107192857D02*
X110256547Y-107311904D01*
X110256547Y-107311904D02*
X110494642Y-107371428D01*
X110494642Y-107371428D02*
X110911309Y-107371428D01*
X110911309Y-107371428D02*
X111149404Y-107311904D01*
X111149404Y-107311904D02*
X111268452Y-107192857D01*
X111268452Y-107192857D02*
X111327976Y-107073809D01*
X111327976Y-107073809D02*
X111327976Y-106835714D01*
X111327976Y-106835714D02*
X111268452Y-106716666D01*
X111268452Y-106716666D02*
X111149404Y-106597619D01*
X111149404Y-106597619D02*
X110911309Y-106538095D01*
X110911309Y-106538095D02*
X110494642Y-106538095D01*
X110494642Y-106538095D02*
X110256547Y-106597619D01*
X110256547Y-106597619D02*
X110137500Y-106716666D01*
X110137500Y-106716666D02*
X110077976Y-106835714D01*
X110077976Y-107907143D02*
X111089880Y-107907143D01*
X111089880Y-107907143D02*
X111208928Y-107966666D01*
X111208928Y-107966666D02*
X111268452Y-108026190D01*
X111268452Y-108026190D02*
X111327976Y-108145238D01*
X111327976Y-108145238D02*
X111327976Y-108383333D01*
X111327976Y-108383333D02*
X111268452Y-108502381D01*
X111268452Y-108502381D02*
X111208928Y-108561904D01*
X111208928Y-108561904D02*
X111089880Y-108621428D01*
X111089880Y-108621428D02*
X110077976Y-108621428D01*
X110077976Y-109038095D02*
X110077976Y-109752381D01*
X111327976Y-109395238D02*
X110077976Y-109395238D01*
X111327976Y-110169048D02*
X110077976Y-110169048D01*
X110077976Y-110169048D02*
X110077976Y-110645238D01*
X110077976Y-110645238D02*
X110137500Y-110764286D01*
X110137500Y-110764286D02*
X110197023Y-110823809D01*
X110197023Y-110823809D02*
X110316071Y-110883333D01*
X110316071Y-110883333D02*
X110494642Y-110883333D01*
X110494642Y-110883333D02*
X110613690Y-110823809D01*
X110613690Y-110823809D02*
X110673214Y-110764286D01*
X110673214Y-110764286D02*
X110732738Y-110645238D01*
X110732738Y-110645238D02*
X110732738Y-110169048D01*
X110077976Y-111419048D02*
X111089880Y-111419048D01*
X111089880Y-111419048D02*
X111208928Y-111478571D01*
X111208928Y-111478571D02*
X111268452Y-111538095D01*
X111268452Y-111538095D02*
X111327976Y-111657143D01*
X111327976Y-111657143D02*
X111327976Y-111895238D01*
X111327976Y-111895238D02*
X111268452Y-112014286D01*
X111268452Y-112014286D02*
X111208928Y-112073809D01*
X111208928Y-112073809D02*
X111089880Y-112133333D01*
X111089880Y-112133333D02*
X110077976Y-112133333D01*
X110077976Y-112550000D02*
X110077976Y-113264286D01*
X111327976Y-112907143D02*
X110077976Y-112907143D01*
D10*
X156209523Y-81667380D02*
X156209523Y-80667380D01*
X156209523Y-80667380D02*
X155876190Y-81381666D01*
X155876190Y-81381666D02*
X155542857Y-80667380D01*
X155542857Y-80667380D02*
X155542857Y-81667380D01*
X154542857Y-81667380D02*
X155114285Y-81667380D01*
X154828571Y-81667380D02*
X154828571Y-80667380D01*
X154828571Y-80667380D02*
X154923809Y-80810238D01*
X154923809Y-80810238D02*
X155019047Y-80905476D01*
X155019047Y-80905476D02*
X155114285Y-80953095D01*
X122785713Y-122486428D02*
X122023809Y-122486428D01*
X122404761Y-122867380D02*
X122404761Y-122105476D01*
X121071428Y-121867380D02*
X121547618Y-121867380D01*
X121547618Y-121867380D02*
X121595237Y-122343571D01*
X121595237Y-122343571D02*
X121547618Y-122295952D01*
X121547618Y-122295952D02*
X121452380Y-122248333D01*
X121452380Y-122248333D02*
X121214285Y-122248333D01*
X121214285Y-122248333D02*
X121119047Y-122295952D01*
X121119047Y-122295952D02*
X121071428Y-122343571D01*
X121071428Y-122343571D02*
X121023809Y-122438809D01*
X121023809Y-122438809D02*
X121023809Y-122676904D01*
X121023809Y-122676904D02*
X121071428Y-122772142D01*
X121071428Y-122772142D02*
X121119047Y-122819761D01*
X121119047Y-122819761D02*
X121214285Y-122867380D01*
X121214285Y-122867380D02*
X121452380Y-122867380D01*
X121452380Y-122867380D02*
X121547618Y-122819761D01*
X121547618Y-122819761D02*
X121595237Y-122772142D01*
X120738094Y-121867380D02*
X120404761Y-122867380D01*
X120404761Y-122867380D02*
X120071428Y-121867380D01*
X131861904Y-76167380D02*
X131290476Y-76167380D01*
X131576190Y-77167380D02*
X131576190Y-76167380D01*
X131052380Y-76167380D02*
X130385714Y-77167380D01*
X130385714Y-76167380D02*
X131052380Y-77167380D01*
X130004761Y-77167380D02*
X130004761Y-76167380D01*
X130004761Y-76167380D02*
X129766666Y-76167380D01*
X129766666Y-76167380D02*
X129623809Y-76215000D01*
X129623809Y-76215000D02*
X129528571Y-76310238D01*
X129528571Y-76310238D02*
X129480952Y-76405476D01*
X129480952Y-76405476D02*
X129433333Y-76595952D01*
X129433333Y-76595952D02*
X129433333Y-76738809D01*
X129433333Y-76738809D02*
X129480952Y-76929285D01*
X129480952Y-76929285D02*
X129528571Y-77024523D01*
X129528571Y-77024523D02*
X129623809Y-77119761D01*
X129623809Y-77119761D02*
X129766666Y-77167380D01*
X129766666Y-77167380D02*
X130004761Y-77167380D01*
X156309523Y-78967380D02*
X156309523Y-77967380D01*
X156309523Y-77967380D02*
X155976190Y-78681666D01*
X155976190Y-78681666D02*
X155642857Y-77967380D01*
X155642857Y-77967380D02*
X155642857Y-78967380D01*
X154976190Y-77967380D02*
X154880952Y-77967380D01*
X154880952Y-77967380D02*
X154785714Y-78015000D01*
X154785714Y-78015000D02*
X154738095Y-78062619D01*
X154738095Y-78062619D02*
X154690476Y-78157857D01*
X154690476Y-78157857D02*
X154642857Y-78348333D01*
X154642857Y-78348333D02*
X154642857Y-78586428D01*
X154642857Y-78586428D02*
X154690476Y-78776904D01*
X154690476Y-78776904D02*
X154738095Y-78872142D01*
X154738095Y-78872142D02*
X154785714Y-78919761D01*
X154785714Y-78919761D02*
X154880952Y-78967380D01*
X154880952Y-78967380D02*
X154976190Y-78967380D01*
X154976190Y-78967380D02*
X155071428Y-78919761D01*
X155071428Y-78919761D02*
X155119047Y-78872142D01*
X155119047Y-78872142D02*
X155166666Y-78776904D01*
X155166666Y-78776904D02*
X155214285Y-78586428D01*
X155214285Y-78586428D02*
X155214285Y-78348333D01*
X155214285Y-78348333D02*
X155166666Y-78157857D01*
X155166666Y-78157857D02*
X155119047Y-78062619D01*
X155119047Y-78062619D02*
X155071428Y-78015000D01*
X155071428Y-78015000D02*
X154976190Y-77967380D01*
X110414285Y-83667380D02*
X110985713Y-83667380D01*
X110699999Y-83667380D02*
X110699999Y-82667380D01*
X110699999Y-82667380D02*
X110795237Y-82810238D01*
X110795237Y-82810238D02*
X110890475Y-82905476D01*
X110890475Y-82905476D02*
X110985713Y-82953095D01*
X110709523Y-114700714D02*
X110709523Y-115367380D01*
X110947618Y-114319761D02*
X111185713Y-115034047D01*
X111185713Y-115034047D02*
X110566666Y-115034047D01*
X156861904Y-85667380D02*
X156290476Y-85667380D01*
X156576190Y-86667380D02*
X156576190Y-85667380D01*
X156052380Y-85667380D02*
X155385714Y-86667380D01*
X155385714Y-85667380D02*
X156052380Y-86667380D01*
X155004761Y-86667380D02*
X155004761Y-85667380D01*
X155004761Y-85667380D02*
X154766666Y-85667380D01*
X154766666Y-85667380D02*
X154623809Y-85715000D01*
X154623809Y-85715000D02*
X154528571Y-85810238D01*
X154528571Y-85810238D02*
X154480952Y-85905476D01*
X154480952Y-85905476D02*
X154433333Y-86095952D01*
X154433333Y-86095952D02*
X154433333Y-86238809D01*
X154433333Y-86238809D02*
X154480952Y-86429285D01*
X154480952Y-86429285D02*
X154528571Y-86524523D01*
X154528571Y-86524523D02*
X154623809Y-86619761D01*
X154623809Y-86619761D02*
X154766666Y-86667380D01*
X154766666Y-86667380D02*
X155004761Y-86667380D01*
X111072142Y-117914285D02*
X111119761Y-117866666D01*
X111119761Y-117866666D02*
X111167380Y-117723809D01*
X111167380Y-117723809D02*
X111167380Y-117628571D01*
X111167380Y-117628571D02*
X111119761Y-117485714D01*
X111119761Y-117485714D02*
X111024523Y-117390476D01*
X111024523Y-117390476D02*
X110929285Y-117342857D01*
X110929285Y-117342857D02*
X110738809Y-117295238D01*
X110738809Y-117295238D02*
X110595952Y-117295238D01*
X110595952Y-117295238D02*
X110405476Y-117342857D01*
X110405476Y-117342857D02*
X110310238Y-117390476D01*
X110310238Y-117390476D02*
X110215000Y-117485714D01*
X110215000Y-117485714D02*
X110167380Y-117628571D01*
X110167380Y-117628571D02*
X110167380Y-117723809D01*
X110167380Y-117723809D02*
X110215000Y-117866666D01*
X110215000Y-117866666D02*
X110262619Y-117914285D01*
X110167380Y-118533333D02*
X110167380Y-118723809D01*
X110167380Y-118723809D02*
X110215000Y-118819047D01*
X110215000Y-118819047D02*
X110310238Y-118914285D01*
X110310238Y-118914285D02*
X110500714Y-118961904D01*
X110500714Y-118961904D02*
X110834047Y-118961904D01*
X110834047Y-118961904D02*
X111024523Y-118914285D01*
X111024523Y-118914285D02*
X111119761Y-118819047D01*
X111119761Y-118819047D02*
X111167380Y-118723809D01*
X111167380Y-118723809D02*
X111167380Y-118533333D01*
X111167380Y-118533333D02*
X111119761Y-118438095D01*
X111119761Y-118438095D02*
X111024523Y-118342857D01*
X111024523Y-118342857D02*
X110834047Y-118295238D01*
X110834047Y-118295238D02*
X110500714Y-118295238D01*
X110500714Y-118295238D02*
X110310238Y-118342857D01*
X110310238Y-118342857D02*
X110215000Y-118438095D01*
X110215000Y-118438095D02*
X110167380Y-118533333D01*
X111167380Y-119390476D02*
X110167380Y-119390476D01*
X110167380Y-119390476D02*
X110881666Y-119723809D01*
X110881666Y-119723809D02*
X110167380Y-120057142D01*
X110167380Y-120057142D02*
X111167380Y-120057142D01*
X125690475Y-122819761D02*
X125547618Y-122867380D01*
X125547618Y-122867380D02*
X125309523Y-122867380D01*
X125309523Y-122867380D02*
X125214285Y-122819761D01*
X125214285Y-122819761D02*
X125166666Y-122772142D01*
X125166666Y-122772142D02*
X125119047Y-122676904D01*
X125119047Y-122676904D02*
X125119047Y-122581666D01*
X125119047Y-122581666D02*
X125166666Y-122486428D01*
X125166666Y-122486428D02*
X125214285Y-122438809D01*
X125214285Y-122438809D02*
X125309523Y-122391190D01*
X125309523Y-122391190D02*
X125499999Y-122343571D01*
X125499999Y-122343571D02*
X125595237Y-122295952D01*
X125595237Y-122295952D02*
X125642856Y-122248333D01*
X125642856Y-122248333D02*
X125690475Y-122153095D01*
X125690475Y-122153095D02*
X125690475Y-122057857D01*
X125690475Y-122057857D02*
X125642856Y-121962619D01*
X125642856Y-121962619D02*
X125595237Y-121915000D01*
X125595237Y-121915000D02*
X125499999Y-121867380D01*
X125499999Y-121867380D02*
X125261904Y-121867380D01*
X125261904Y-121867380D02*
X125119047Y-121915000D01*
X124119047Y-122772142D02*
X124166666Y-122819761D01*
X124166666Y-122819761D02*
X124309523Y-122867380D01*
X124309523Y-122867380D02*
X124404761Y-122867380D01*
X124404761Y-122867380D02*
X124547618Y-122819761D01*
X124547618Y-122819761D02*
X124642856Y-122724523D01*
X124642856Y-122724523D02*
X124690475Y-122629285D01*
X124690475Y-122629285D02*
X124738094Y-122438809D01*
X124738094Y-122438809D02*
X124738094Y-122295952D01*
X124738094Y-122295952D02*
X124690475Y-122105476D01*
X124690475Y-122105476D02*
X124642856Y-122010238D01*
X124642856Y-122010238D02*
X124547618Y-121915000D01*
X124547618Y-121915000D02*
X124404761Y-121867380D01*
X124404761Y-121867380D02*
X124309523Y-121867380D01*
X124309523Y-121867380D02*
X124166666Y-121915000D01*
X124166666Y-121915000D02*
X124119047Y-121962619D01*
X123214285Y-122867380D02*
X123690475Y-122867380D01*
X123690475Y-122867380D02*
X123690475Y-121867380D01*
X180761904Y-123015000D02*
X180857142Y-122967380D01*
X180857142Y-122967380D02*
X180999999Y-122967380D01*
X180999999Y-122967380D02*
X181142856Y-123015000D01*
X181142856Y-123015000D02*
X181238094Y-123110238D01*
X181238094Y-123110238D02*
X181285713Y-123205476D01*
X181285713Y-123205476D02*
X181333332Y-123395952D01*
X181333332Y-123395952D02*
X181333332Y-123538809D01*
X181333332Y-123538809D02*
X181285713Y-123729285D01*
X181285713Y-123729285D02*
X181238094Y-123824523D01*
X181238094Y-123824523D02*
X181142856Y-123919761D01*
X181142856Y-123919761D02*
X180999999Y-123967380D01*
X180999999Y-123967380D02*
X180904761Y-123967380D01*
X180904761Y-123967380D02*
X180761904Y-123919761D01*
X180761904Y-123919761D02*
X180714285Y-123872142D01*
X180714285Y-123872142D02*
X180714285Y-123538809D01*
X180714285Y-123538809D02*
X180904761Y-123538809D01*
X180285713Y-123967380D02*
X180285713Y-122967380D01*
X180285713Y-122967380D02*
X179714285Y-123967380D01*
X179714285Y-123967380D02*
X179714285Y-122967380D01*
X179238094Y-123967380D02*
X179238094Y-122967380D01*
X179238094Y-122967380D02*
X178999999Y-122967380D01*
X178999999Y-122967380D02*
X178857142Y-123015000D01*
X178857142Y-123015000D02*
X178761904Y-123110238D01*
X178761904Y-123110238D02*
X178714285Y-123205476D01*
X178714285Y-123205476D02*
X178666666Y-123395952D01*
X178666666Y-123395952D02*
X178666666Y-123538809D01*
X178666666Y-123538809D02*
X178714285Y-123729285D01*
X178714285Y-123729285D02*
X178761904Y-123824523D01*
X178761904Y-123824523D02*
X178857142Y-123919761D01*
X178857142Y-123919761D02*
X178999999Y-123967380D01*
X178999999Y-123967380D02*
X179238094Y-123967380D01*
X110709523Y-93800714D02*
X110709523Y-94467380D01*
X110947618Y-93419761D02*
X111185713Y-94134047D01*
X111185713Y-94134047D02*
X110566666Y-94134047D01*
X186585713Y-123686428D02*
X185823809Y-123686428D01*
X186204761Y-124067380D02*
X186204761Y-123305476D01*
X184871428Y-123067380D02*
X185347618Y-123067380D01*
X185347618Y-123067380D02*
X185395237Y-123543571D01*
X185395237Y-123543571D02*
X185347618Y-123495952D01*
X185347618Y-123495952D02*
X185252380Y-123448333D01*
X185252380Y-123448333D02*
X185014285Y-123448333D01*
X185014285Y-123448333D02*
X184919047Y-123495952D01*
X184919047Y-123495952D02*
X184871428Y-123543571D01*
X184871428Y-123543571D02*
X184823809Y-123638809D01*
X184823809Y-123638809D02*
X184823809Y-123876904D01*
X184823809Y-123876904D02*
X184871428Y-123972142D01*
X184871428Y-123972142D02*
X184919047Y-124019761D01*
X184919047Y-124019761D02*
X185014285Y-124067380D01*
X185014285Y-124067380D02*
X185252380Y-124067380D01*
X185252380Y-124067380D02*
X185347618Y-124019761D01*
X185347618Y-124019761D02*
X185395237Y-123972142D01*
X184538094Y-123067380D02*
X184204761Y-124067380D01*
X184204761Y-124067380D02*
X183871428Y-123067380D01*
X153914285Y-123967380D02*
X154485713Y-123967380D01*
X154199999Y-123967380D02*
X154199999Y-122967380D01*
X154199999Y-122967380D02*
X154295237Y-123110238D01*
X154295237Y-123110238D02*
X154390475Y-123205476D01*
X154390475Y-123205476D02*
X154485713Y-123253095D01*
X110414285Y-104767380D02*
X110985713Y-104767380D01*
X110699999Y-104767380D02*
X110699999Y-103767380D01*
X110699999Y-103767380D02*
X110795237Y-103910238D01*
X110795237Y-103910238D02*
X110890475Y-104005476D01*
X110890475Y-104005476D02*
X110985713Y-104053095D01*
X131814285Y-80767380D02*
X132385713Y-80767380D01*
X132099999Y-80767380D02*
X132099999Y-79767380D01*
X132099999Y-79767380D02*
X132195237Y-79910238D01*
X132195237Y-79910238D02*
X132290475Y-80005476D01*
X132290475Y-80005476D02*
X132385713Y-80053095D01*
%TO.C,SDA*%
X128714285Y-122819761D02*
X128571428Y-122867380D01*
X128571428Y-122867380D02*
X128333333Y-122867380D01*
X128333333Y-122867380D02*
X128238095Y-122819761D01*
X128238095Y-122819761D02*
X128190476Y-122772142D01*
X128190476Y-122772142D02*
X128142857Y-122676904D01*
X128142857Y-122676904D02*
X128142857Y-122581666D01*
X128142857Y-122581666D02*
X128190476Y-122486428D01*
X128190476Y-122486428D02*
X128238095Y-122438809D01*
X128238095Y-122438809D02*
X128333333Y-122391190D01*
X128333333Y-122391190D02*
X128523809Y-122343571D01*
X128523809Y-122343571D02*
X128619047Y-122295952D01*
X128619047Y-122295952D02*
X128666666Y-122248333D01*
X128666666Y-122248333D02*
X128714285Y-122153095D01*
X128714285Y-122153095D02*
X128714285Y-122057857D01*
X128714285Y-122057857D02*
X128666666Y-121962619D01*
X128666666Y-121962619D02*
X128619047Y-121915000D01*
X128619047Y-121915000D02*
X128523809Y-121867380D01*
X128523809Y-121867380D02*
X128285714Y-121867380D01*
X128285714Y-121867380D02*
X128142857Y-121915000D01*
X127714285Y-122867380D02*
X127714285Y-121867380D01*
X127714285Y-121867380D02*
X127476190Y-121867380D01*
X127476190Y-121867380D02*
X127333333Y-121915000D01*
X127333333Y-121915000D02*
X127238095Y-122010238D01*
X127238095Y-122010238D02*
X127190476Y-122105476D01*
X127190476Y-122105476D02*
X127142857Y-122295952D01*
X127142857Y-122295952D02*
X127142857Y-122438809D01*
X127142857Y-122438809D02*
X127190476Y-122629285D01*
X127190476Y-122629285D02*
X127238095Y-122724523D01*
X127238095Y-122724523D02*
X127333333Y-122819761D01*
X127333333Y-122819761D02*
X127476190Y-122867380D01*
X127476190Y-122867380D02*
X127714285Y-122867380D01*
X126761904Y-122581666D02*
X126285714Y-122581666D01*
X126857142Y-122867380D02*
X126523809Y-121867380D01*
X126523809Y-121867380D02*
X126190476Y-122867380D01*
%TO.C,GND*%
X131561904Y-121915000D02*
X131657142Y-121867380D01*
X131657142Y-121867380D02*
X131799999Y-121867380D01*
X131799999Y-121867380D02*
X131942856Y-121915000D01*
X131942856Y-121915000D02*
X132038094Y-122010238D01*
X132038094Y-122010238D02*
X132085713Y-122105476D01*
X132085713Y-122105476D02*
X132133332Y-122295952D01*
X132133332Y-122295952D02*
X132133332Y-122438809D01*
X132133332Y-122438809D02*
X132085713Y-122629285D01*
X132085713Y-122629285D02*
X132038094Y-122724523D01*
X132038094Y-122724523D02*
X131942856Y-122819761D01*
X131942856Y-122819761D02*
X131799999Y-122867380D01*
X131799999Y-122867380D02*
X131704761Y-122867380D01*
X131704761Y-122867380D02*
X131561904Y-122819761D01*
X131561904Y-122819761D02*
X131514285Y-122772142D01*
X131514285Y-122772142D02*
X131514285Y-122438809D01*
X131514285Y-122438809D02*
X131704761Y-122438809D01*
X131085713Y-122867380D02*
X131085713Y-121867380D01*
X131085713Y-121867380D02*
X130514285Y-122867380D01*
X130514285Y-122867380D02*
X130514285Y-121867380D01*
X130038094Y-122867380D02*
X130038094Y-121867380D01*
X130038094Y-121867380D02*
X129799999Y-121867380D01*
X129799999Y-121867380D02*
X129657142Y-121915000D01*
X129657142Y-121915000D02*
X129561904Y-122010238D01*
X129561904Y-122010238D02*
X129514285Y-122105476D01*
X129514285Y-122105476D02*
X129466666Y-122295952D01*
X129466666Y-122295952D02*
X129466666Y-122438809D01*
X129466666Y-122438809D02*
X129514285Y-122629285D01*
X129514285Y-122629285D02*
X129561904Y-122724523D01*
X129561904Y-122724523D02*
X129657142Y-122819761D01*
X129657142Y-122819761D02*
X129799999Y-122867380D01*
X129799999Y-122867380D02*
X130038094Y-122867380D01*
%TD*%
M02*
