M48
; DRILL file {KiCad 7.0.0-rc1-unknown-00d77f624a~164~ubuntu22.04.1} date dom 15 ene 2023 10:56:29
; FORMAT={-:-/ absolute / metric / decimal}
; #@! TF.CreationDate,2023-01-15T10:56:29+01:00
; #@! TF.GenerationSoftware,Kicad,Pcbnew,7.0.0-rc1-unknown-00d77f624a~164~ubuntu22.04.1
; #@! TF.FileFunction,Plated,1,2,PTH
FMAT,2
METRIC
; #@! TA.AperFunction,Plated,PTH,ViaDrill
T1C0.400
; #@! TA.AperFunction,Plated,PTH,ComponentDrill
T2C0.700
; #@! TA.AperFunction,Plated,PTH,ComponentDrill
T3C0.762
; #@! TA.AperFunction,Plated,PTH,ViaDrill
T4C0.800
; #@! TA.AperFunction,Plated,PTH,ComponentDrill
T5C1.000
; #@! TA.AperFunction,Plated,PTH,ComponentDrill
T6C1.200
%
G90
G05
T1
X123.8Y-83.4
X123.8Y-86.9
X123.8Y-90.4
X123.9Y-93.9
X128.6Y-82.5
X128.6Y-86.0
X128.6Y-89.5
X128.6Y-92.9
X136.9Y-85.409
X138.7Y-97.309
X138.7Y-100.55
X139.8Y-77.809
X140.2Y-93.6
X140.2Y-106.309
X141.1Y-88.9
X141.6Y-97.4
X142.8Y-76.4
X142.8Y-83.2
X142.8Y-86.4
X145.8Y-77.2
X145.8Y-89.8
X155.5Y-110.096
X155.922Y-99.367
X155.922Y-102.923
X156.4Y-106.479
X160.863Y-109.146
X160.9Y-98.417
X160.9Y-101.973
X160.98Y-105.529
T2
X121.4Y-120.4
X124.5Y-120.4
X127.5Y-120.4
X130.5Y-120.4
X168.28Y-100.9
X168.3Y-98.3
X175.9Y-100.9
X175.92Y-98.3
T3
X152.967Y-78.7
X152.967Y-81.24
X152.967Y-83.78
X152.967Y-86.32
X152.967Y-88.86
X152.967Y-91.4
X152.967Y-93.94
X184.467Y-79.4
X184.467Y-81.94
X184.467Y-84.48
T4
X185.1Y-104.8
T5
X122.8Y-78.7
X127.6Y-78.7
X130.8Y-78.7
X134.088Y-79.936
X134.088Y-82.476
X134.088Y-85.016
X134.088Y-87.556
X134.088Y-90.096
X134.088Y-92.636
X134.088Y-95.176
X134.088Y-97.716
X134.088Y-100.256
X134.088Y-102.796
X134.088Y-105.336
X134.088Y-107.876
X134.088Y-110.416
X134.088Y-112.956
X134.088Y-115.496
X149.328Y-79.936
X149.328Y-82.476
X149.328Y-85.016
X149.328Y-87.556
X149.328Y-90.096
X149.328Y-92.636
X149.328Y-95.176
X149.328Y-97.716
X149.328Y-100.256
X149.328Y-102.796
X149.328Y-105.336
X149.328Y-107.876
X149.328Y-110.416
X149.328Y-112.956
X149.328Y-115.496
T6
X116.2Y-83.409
X116.2Y-86.909
X116.2Y-90.409
X116.2Y-93.909
X116.2Y-97.409
X116.2Y-104.409
X116.2Y-107.909
X116.2Y-111.409
X116.2Y-114.909
X116.2Y-118.409
X154.3Y-119.209
X157.8Y-119.209
X161.3Y-119.209
X164.8Y-119.209
X168.3Y-119.209
X174.92Y-119.306
X180.0Y-119.306
X185.08Y-119.306
T0
M30
