%TF.GenerationSoftware,KiCad,Pcbnew,7.0.0-rc1-unknown-00d77f624a~164~ubuntu22.04.1*%
%TF.CreationDate,2023-01-15T10:56:32+01:00*%
%TF.ProjectId,lora-nano,6c6f7261-2d6e-4616-9e6f-2e6b69636164,rev?*%
%TF.SameCoordinates,Original*%
%TF.FileFunction,Soldermask,Top*%
%TF.FilePolarity,Negative*%
%FSLAX46Y46*%
G04 Gerber Fmt 4.6, Leading zero omitted, Abs format (unit mm)*
G04 Created by KiCad (PCBNEW 7.0.0-rc1-unknown-00d77f624a~164~ubuntu22.04.1) date 2023-01-15 10:56:32*
%MOMM*%
%LPD*%
G01*
G04 APERTURE LIST*
G04 Aperture macros list*
%AMRoundRect*
0 Rectangle with rounded corners*
0 $1 Rounding radius*
0 $2 $3 $4 $5 $6 $7 $8 $9 X,Y pos of 4 corners*
0 Add a 4 corners polygon primitive as box body*
4,1,4,$2,$3,$4,$5,$6,$7,$8,$9,$2,$3,0*
0 Add four circle primitives for the rounded corners*
1,1,$1+$1,$2,$3*
1,1,$1+$1,$4,$5*
1,1,$1+$1,$6,$7*
1,1,$1+$1,$8,$9*
0 Add four rect primitives between the rounded corners*
20,1,$1+$1,$2,$3,$4,$5,0*
20,1,$1+$1,$4,$5,$6,$7,0*
20,1,$1+$1,$6,$7,$8,$9,0*
20,1,$1+$1,$8,$9,$2,$3,0*%
G04 Aperture macros list end*
%ADD10RoundRect,0.150000X0.875000X0.150000X-0.875000X0.150000X-0.875000X-0.150000X0.875000X-0.150000X0*%
%ADD11RoundRect,0.250000X0.262500X0.450000X-0.262500X0.450000X-0.262500X-0.450000X0.262500X-0.450000X0*%
%ADD12C,2.700000*%
%ADD13RoundRect,0.150000X0.587500X0.150000X-0.587500X0.150000X-0.587500X-0.150000X0.587500X-0.150000X0*%
%ADD14RoundRect,0.250000X-0.650000X-1.550000X0.650000X-1.550000X0.650000X1.550000X-0.650000X1.550000X0*%
%ADD15O,1.800000X3.600000*%
%ADD16RoundRect,0.250000X1.550000X-0.650000X1.550000X0.650000X-1.550000X0.650000X-1.550000X-0.650000X0*%
%ADD17O,3.600000X1.800000*%
%ADD18C,1.400000*%
%ADD19O,1.400000X1.400000*%
%ADD20RoundRect,0.250000X0.450000X-0.262500X0.450000X0.262500X-0.450000X0.262500X-0.450000X-0.262500X0*%
%ADD21RoundRect,0.250000X-0.475000X0.250000X-0.475000X-0.250000X0.475000X-0.250000X0.475000X0.250000X0*%
%ADD22RoundRect,0.150000X-0.150000X0.587500X-0.150000X-0.587500X0.150000X-0.587500X0.150000X0.587500X0*%
%ADD23C,2.000000*%
%ADD24RoundRect,0.150000X0.150000X-0.587500X0.150000X0.587500X-0.150000X0.587500X-0.150000X-0.587500X0*%
%ADD25RoundRect,0.250000X-0.262500X-0.450000X0.262500X-0.450000X0.262500X0.450000X-0.262500X0.450000X0*%
%ADD26RoundRect,0.249999X-1.075001X0.512501X-1.075001X-0.512501X1.075001X-0.512501X1.075001X0.512501X0*%
%ADD27RoundRect,0.250000X0.475000X-0.250000X0.475000X0.250000X-0.475000X0.250000X-0.475000X-0.250000X0*%
%ADD28RoundRect,0.250000X-1.000000X1.750000X-1.000000X-1.750000X1.000000X-1.750000X1.000000X1.750000X0*%
%ADD29C,1.524000*%
%ADD30R,1.600000X1.600000*%
%ADD31O,1.600000X1.600000*%
%ADD32RoundRect,0.250000X-0.550000X1.250000X-0.550000X-1.250000X0.550000X-1.250000X0.550000X1.250000X0*%
G04 APERTURE END LIST*
D10*
%TO.C,U2*%
X130488500Y-115542572D03*
X130488500Y-114272572D03*
X130488500Y-113002572D03*
X130488500Y-111732572D03*
X130488500Y-110462572D03*
X130488500Y-109192572D03*
X130488500Y-107922572D03*
X130488500Y-106652572D03*
X130488500Y-105382572D03*
X121188500Y-105382572D03*
X121188500Y-106652572D03*
X121188500Y-107922572D03*
X121188500Y-109192572D03*
X121188500Y-110462572D03*
X121188500Y-111732572D03*
X121188500Y-113002572D03*
X121188500Y-114272572D03*
X121188500Y-115542572D03*
%TD*%
D11*
%TO.C,R18*%
X154525000Y-99366572D03*
X152700000Y-99366572D03*
%TD*%
D12*
%TO.C,REF\u002A\u002A*%
X179800000Y-77400000D03*
%TD*%
D13*
%TO.C,D8*%
X159351000Y-111045572D03*
X159351000Y-109145572D03*
X157476000Y-110095572D03*
%TD*%
%TO.C,Q1*%
X139001000Y-93585572D03*
X139001000Y-91685572D03*
X137126000Y-92635572D03*
%TD*%
%TO.C,D15*%
X126937500Y-87850000D03*
X126937500Y-85950000D03*
X125062500Y-86900000D03*
%TD*%
%TO.C,D12*%
X126966000Y-84350000D03*
X126966000Y-82450000D03*
X125091000Y-83400000D03*
%TD*%
D14*
%TO.C,J2*%
X154300000Y-119208572D03*
D15*
X157799999Y-119208571D03*
X161299999Y-119208571D03*
X164799999Y-119208571D03*
X168299999Y-119208571D03*
%TD*%
D16*
%TO.C,J3*%
X116200000Y-118408572D03*
D17*
X116199999Y-114908571D03*
X116199999Y-111408571D03*
X116199999Y-107908571D03*
X116199999Y-104408571D03*
%TD*%
D18*
%TO.C,R14*%
X175920000Y-98300000D03*
D19*
X168299999Y-98299999D03*
%TD*%
D20*
%TO.C,R5*%
X141600000Y-106224572D03*
X141600000Y-104399572D03*
%TD*%
D13*
%TO.C,D9*%
X159448000Y-107428572D03*
X159448000Y-105528572D03*
X157573000Y-106478572D03*
%TD*%
D18*
%TO.C,SDA*%
X127500000Y-120400000D03*
%TD*%
D13*
%TO.C,Q2*%
X138874000Y-106285572D03*
X138874000Y-104385572D03*
X136999000Y-105335572D03*
%TD*%
D21*
%TO.C,C1*%
X166300000Y-106850000D03*
X166300000Y-108750000D03*
%TD*%
D11*
%TO.C,R12*%
X142800000Y-79900000D03*
X140975000Y-79900000D03*
%TD*%
D20*
%TO.C,R6*%
X141400000Y-93600000D03*
X141400000Y-91775000D03*
%TD*%
D22*
%TO.C,Q3*%
X138750000Y-77925000D03*
X136850000Y-77925000D03*
X137800000Y-79800000D03*
%TD*%
D23*
%TO.C,GND*%
X122800000Y-78700000D03*
%TD*%
D18*
%TO.C,R13*%
X175900000Y-100900000D03*
D19*
X168279999Y-100899999D03*
%TD*%
D11*
%TO.C,R17*%
X154572000Y-102951572D03*
X152747000Y-102951572D03*
%TD*%
%TO.C,R16*%
X154572000Y-106478572D03*
X152747000Y-106478572D03*
%TD*%
D24*
%TO.C,Q4*%
X136900000Y-83800000D03*
X138800000Y-83800000D03*
X137850000Y-81925000D03*
%TD*%
D25*
%TO.C,R9*%
X136999000Y-95556572D03*
X138824000Y-95556572D03*
%TD*%
D12*
%TO.C,REF\u002A\u002A*%
X116300000Y-77300000D03*
%TD*%
D11*
%TO.C,R11*%
X142841000Y-81900000D03*
X141016000Y-81900000D03*
%TD*%
D26*
%TO.C,D5*%
X179900000Y-98262500D03*
X179900000Y-102937500D03*
%TD*%
D14*
%TO.C,J4*%
X174920000Y-119305572D03*
D15*
X179999999Y-119305571D03*
X185079999Y-119305571D03*
%TD*%
D13*
%TO.C,D14*%
X126966000Y-91350000D03*
X126966000Y-89450000D03*
X125091000Y-90400000D03*
%TD*%
D25*
%TO.C,R2*%
X120800000Y-86900000D03*
X122625000Y-86900000D03*
%TD*%
D26*
%TO.C,D6*%
X185100000Y-106762500D03*
X185100000Y-111437500D03*
%TD*%
D25*
%TO.C,R7*%
X140987500Y-77800000D03*
X142812500Y-77800000D03*
%TD*%
D12*
%TO.C,REF\u002A\u002A*%
X148300000Y-122400000D03*
%TD*%
D18*
%TO.C,+5V*%
X121400000Y-120400000D03*
%TD*%
D23*
%TO.C,TXD*%
X130800000Y-78700000D03*
%TD*%
D13*
%TO.C,D11*%
X159448000Y-100316572D03*
X159448000Y-98416572D03*
X157573000Y-99366572D03*
%TD*%
D25*
%TO.C,R8*%
X136975000Y-86700000D03*
X138800000Y-86700000D03*
%TD*%
D13*
%TO.C,D10*%
X159448000Y-103872572D03*
X159448000Y-101972572D03*
X157573000Y-102922572D03*
%TD*%
D16*
%TO.C,J1*%
X116200000Y-97408572D03*
D17*
X116199999Y-93908571D03*
X116199999Y-90408571D03*
X116199999Y-86908571D03*
X116199999Y-83408571D03*
%TD*%
D11*
%TO.C,R15*%
X154572000Y-110034572D03*
X152747000Y-110034572D03*
%TD*%
D27*
%TO.C,C4*%
X185100000Y-103100000D03*
X185100000Y-101200000D03*
%TD*%
D28*
%TO.C,C2*%
X171900000Y-104700000D03*
X171900000Y-110800000D03*
%TD*%
D29*
%TO.C,U1*%
X152967000Y-78700000D03*
X152967000Y-81240000D03*
X152967000Y-83780000D03*
X152967000Y-86320000D03*
X152967000Y-88860000D03*
X152967000Y-91400000D03*
X152967000Y-93940000D03*
X184467000Y-84480000D03*
X184467000Y-81940000D03*
X184467000Y-79400000D03*
%TD*%
D13*
%TO.C,D13*%
X126966000Y-94850000D03*
X126966000Y-92950000D03*
X125091000Y-93900000D03*
%TD*%
D18*
%TO.C,GND*%
X130500000Y-120400000D03*
%TD*%
D25*
%TO.C,R4*%
X120775000Y-93900000D03*
X122600000Y-93900000D03*
%TD*%
D18*
%TO.C,SCL*%
X124500000Y-120400000D03*
%TD*%
D23*
%TO.C,RXD*%
X127600000Y-78700000D03*
%TD*%
D25*
%TO.C,R10*%
X136900000Y-102200000D03*
X138725000Y-102200000D03*
%TD*%
%TO.C,R3*%
X120775000Y-90400000D03*
X122600000Y-90400000D03*
%TD*%
D30*
%TO.C,A1*%
X134087999Y-79935571D03*
D31*
X134087999Y-82475571D03*
X134087999Y-85015571D03*
X134087999Y-87555571D03*
X134087999Y-90095571D03*
X134087999Y-92635571D03*
X134087999Y-95175571D03*
X134087999Y-97715571D03*
X134087999Y-100255571D03*
X134087999Y-102795571D03*
X134087999Y-105335571D03*
X134087999Y-107875571D03*
X134087999Y-110415571D03*
X134087999Y-112955571D03*
X134087999Y-115495571D03*
X149327999Y-115495571D03*
X149327999Y-112955571D03*
X149327999Y-110415571D03*
X149327999Y-107875571D03*
X149327999Y-105335571D03*
X149327999Y-102795571D03*
X149327999Y-100255571D03*
X149327999Y-97715571D03*
X149327999Y-95175571D03*
X149327999Y-92635571D03*
X149327999Y-90095571D03*
X149327999Y-87555571D03*
X149327999Y-85015571D03*
X149327999Y-82475571D03*
X149327999Y-79935571D03*
%TD*%
D25*
%TO.C,R1*%
X120787500Y-83400000D03*
X122612500Y-83400000D03*
%TD*%
D32*
%TO.C,C3*%
X179800000Y-106000000D03*
X179800000Y-110400000D03*
%TD*%
M02*
