%TF.GenerationSoftware,KiCad,Pcbnew,7.0.0-rc1-unknown-00d77f624a~164~ubuntu22.04.1*%
%TF.CreationDate,2023-01-15T10:56:28+01:00*%
%TF.ProjectId,lora-nano,6c6f7261-2d6e-4616-9e6f-2e6b69636164,rev?*%
%TF.SameCoordinates,Original*%
%TF.FileFunction,Drillmap*%
%TF.FilePolarity,Positive*%
%FSLAX45Y45*%
G04 Gerber Fmt 4.5, Leading zero omitted, Abs format (unit mm)*
G04 Created by KiCad (PCBNEW 7.0.0-rc1-unknown-00d77f624a~164~ubuntu22.04.1) date 2023-01-15 10:56:28*
%MOMM*%
%LPD*%
G01*
G04 APERTURE LIST*
%ADD10C,0.100000*%
%ADD11C,0.200000*%
%ADD12C,0.270000*%
G04 APERTURE END LIST*
D10*
X10970000Y-7330000D02*
X18900000Y-7330000D01*
X18900000Y-7330000D02*
X18900000Y-12530000D01*
X18900000Y-12530000D02*
X10970000Y-12530000D01*
X10970000Y-12530000D02*
X10970000Y-7330000D01*
D11*
D12*
X11495000Y-7595000D02*
X11765000Y-7865000D01*
X11765000Y-7595000D02*
X11495000Y-7865000D01*
X14695000Y-12105000D02*
X14965000Y-12375000D01*
X14965000Y-12105000D02*
X14695000Y-12375000D01*
X17845000Y-7605000D02*
X18115000Y-7875000D01*
X18115000Y-7605000D02*
X17845000Y-7875000D01*
D11*
X11212619Y-12828476D02*
X11212619Y-12628476D01*
X11212619Y-12628476D02*
X11260238Y-12628476D01*
X11260238Y-12628476D02*
X11288809Y-12638000D01*
X11288809Y-12638000D02*
X11307857Y-12657048D01*
X11307857Y-12657048D02*
X11317381Y-12676095D01*
X11317381Y-12676095D02*
X11326905Y-12714190D01*
X11326905Y-12714190D02*
X11326905Y-12742762D01*
X11326905Y-12742762D02*
X11317381Y-12780857D01*
X11317381Y-12780857D02*
X11307857Y-12799905D01*
X11307857Y-12799905D02*
X11288809Y-12818952D01*
X11288809Y-12818952D02*
X11260238Y-12828476D01*
X11260238Y-12828476D02*
X11212619Y-12828476D01*
X11412619Y-12828476D02*
X11412619Y-12695143D01*
X11412619Y-12733238D02*
X11422143Y-12714190D01*
X11422143Y-12714190D02*
X11431667Y-12704667D01*
X11431667Y-12704667D02*
X11450714Y-12695143D01*
X11450714Y-12695143D02*
X11469762Y-12695143D01*
X11536428Y-12828476D02*
X11536428Y-12695143D01*
X11536428Y-12628476D02*
X11526905Y-12638000D01*
X11526905Y-12638000D02*
X11536428Y-12647524D01*
X11536428Y-12647524D02*
X11545952Y-12638000D01*
X11545952Y-12638000D02*
X11536428Y-12628476D01*
X11536428Y-12628476D02*
X11536428Y-12647524D01*
X11660238Y-12828476D02*
X11641190Y-12818952D01*
X11641190Y-12818952D02*
X11631667Y-12799905D01*
X11631667Y-12799905D02*
X11631667Y-12628476D01*
X11765000Y-12828476D02*
X11745952Y-12818952D01*
X11745952Y-12818952D02*
X11736428Y-12799905D01*
X11736428Y-12799905D02*
X11736428Y-12628476D01*
X11961190Y-12828476D02*
X11961190Y-12628476D01*
X11961190Y-12628476D02*
X12027857Y-12771333D01*
X12027857Y-12771333D02*
X12094524Y-12628476D01*
X12094524Y-12628476D02*
X12094524Y-12828476D01*
X12275476Y-12828476D02*
X12275476Y-12723714D01*
X12275476Y-12723714D02*
X12265952Y-12704667D01*
X12265952Y-12704667D02*
X12246905Y-12695143D01*
X12246905Y-12695143D02*
X12208809Y-12695143D01*
X12208809Y-12695143D02*
X12189762Y-12704667D01*
X12275476Y-12818952D02*
X12256428Y-12828476D01*
X12256428Y-12828476D02*
X12208809Y-12828476D01*
X12208809Y-12828476D02*
X12189762Y-12818952D01*
X12189762Y-12818952D02*
X12180238Y-12799905D01*
X12180238Y-12799905D02*
X12180238Y-12780857D01*
X12180238Y-12780857D02*
X12189762Y-12761809D01*
X12189762Y-12761809D02*
X12208809Y-12752286D01*
X12208809Y-12752286D02*
X12256428Y-12752286D01*
X12256428Y-12752286D02*
X12275476Y-12742762D01*
X12370714Y-12695143D02*
X12370714Y-12895143D01*
X12370714Y-12704667D02*
X12389762Y-12695143D01*
X12389762Y-12695143D02*
X12427857Y-12695143D01*
X12427857Y-12695143D02*
X12446905Y-12704667D01*
X12446905Y-12704667D02*
X12456428Y-12714190D01*
X12456428Y-12714190D02*
X12465952Y-12733238D01*
X12465952Y-12733238D02*
X12465952Y-12790381D01*
X12465952Y-12790381D02*
X12456428Y-12809428D01*
X12456428Y-12809428D02*
X12446905Y-12818952D01*
X12446905Y-12818952D02*
X12427857Y-12828476D01*
X12427857Y-12828476D02*
X12389762Y-12828476D01*
X12389762Y-12828476D02*
X12370714Y-12818952D01*
X12551667Y-12809428D02*
X12561190Y-12818952D01*
X12561190Y-12818952D02*
X12551667Y-12828476D01*
X12551667Y-12828476D02*
X12542143Y-12818952D01*
X12542143Y-12818952D02*
X12551667Y-12809428D01*
X12551667Y-12809428D02*
X12551667Y-12828476D01*
X12551667Y-12704667D02*
X12561190Y-12714190D01*
X12561190Y-12714190D02*
X12551667Y-12723714D01*
X12551667Y-12723714D02*
X12542143Y-12714190D01*
X12542143Y-12714190D02*
X12551667Y-12704667D01*
X12551667Y-12704667D02*
X12551667Y-12723714D01*
X10765000Y-13075000D02*
X10965000Y-13275000D01*
X10965000Y-13075000D02*
X10765000Y-13275000D01*
X11203095Y-13067524D02*
X11212619Y-13058000D01*
X11212619Y-13058000D02*
X11231667Y-13048476D01*
X11231667Y-13048476D02*
X11279286Y-13048476D01*
X11279286Y-13048476D02*
X11298333Y-13058000D01*
X11298333Y-13058000D02*
X11307857Y-13067524D01*
X11307857Y-13067524D02*
X11317381Y-13086571D01*
X11317381Y-13086571D02*
X11317381Y-13105619D01*
X11317381Y-13105619D02*
X11307857Y-13134190D01*
X11307857Y-13134190D02*
X11193571Y-13248476D01*
X11193571Y-13248476D02*
X11317381Y-13248476D01*
X11403095Y-13229428D02*
X11412619Y-13238952D01*
X11412619Y-13238952D02*
X11403095Y-13248476D01*
X11403095Y-13248476D02*
X11393571Y-13238952D01*
X11393571Y-13238952D02*
X11403095Y-13229428D01*
X11403095Y-13229428D02*
X11403095Y-13248476D01*
X11479286Y-13048476D02*
X11612619Y-13048476D01*
X11612619Y-13048476D02*
X11526905Y-13248476D01*
X11726905Y-13048476D02*
X11745952Y-13048476D01*
X11745952Y-13048476D02*
X11765000Y-13058000D01*
X11765000Y-13058000D02*
X11774524Y-13067524D01*
X11774524Y-13067524D02*
X11784048Y-13086571D01*
X11784048Y-13086571D02*
X11793571Y-13124667D01*
X11793571Y-13124667D02*
X11793571Y-13172286D01*
X11793571Y-13172286D02*
X11784048Y-13210381D01*
X11784048Y-13210381D02*
X11774524Y-13229428D01*
X11774524Y-13229428D02*
X11765000Y-13238952D01*
X11765000Y-13238952D02*
X11745952Y-13248476D01*
X11745952Y-13248476D02*
X11726905Y-13248476D01*
X11726905Y-13248476D02*
X11707857Y-13238952D01*
X11707857Y-13238952D02*
X11698333Y-13229428D01*
X11698333Y-13229428D02*
X11688809Y-13210381D01*
X11688809Y-13210381D02*
X11679286Y-13172286D01*
X11679286Y-13172286D02*
X11679286Y-13124667D01*
X11679286Y-13124667D02*
X11688809Y-13086571D01*
X11688809Y-13086571D02*
X11698333Y-13067524D01*
X11698333Y-13067524D02*
X11707857Y-13058000D01*
X11707857Y-13058000D02*
X11726905Y-13048476D01*
X11917381Y-13048476D02*
X11936429Y-13048476D01*
X11936429Y-13048476D02*
X11955476Y-13058000D01*
X11955476Y-13058000D02*
X11965000Y-13067524D01*
X11965000Y-13067524D02*
X11974524Y-13086571D01*
X11974524Y-13086571D02*
X11984048Y-13124667D01*
X11984048Y-13124667D02*
X11984048Y-13172286D01*
X11984048Y-13172286D02*
X11974524Y-13210381D01*
X11974524Y-13210381D02*
X11965000Y-13229428D01*
X11965000Y-13229428D02*
X11955476Y-13238952D01*
X11955476Y-13238952D02*
X11936429Y-13248476D01*
X11936429Y-13248476D02*
X11917381Y-13248476D01*
X11917381Y-13248476D02*
X11898333Y-13238952D01*
X11898333Y-13238952D02*
X11888809Y-13229428D01*
X11888809Y-13229428D02*
X11879286Y-13210381D01*
X11879286Y-13210381D02*
X11869762Y-13172286D01*
X11869762Y-13172286D02*
X11869762Y-13124667D01*
X11869762Y-13124667D02*
X11879286Y-13086571D01*
X11879286Y-13086571D02*
X11888809Y-13067524D01*
X11888809Y-13067524D02*
X11898333Y-13058000D01*
X11898333Y-13058000D02*
X11917381Y-13048476D01*
X12069762Y-13248476D02*
X12069762Y-13115143D01*
X12069762Y-13134190D02*
X12079286Y-13124667D01*
X12079286Y-13124667D02*
X12098333Y-13115143D01*
X12098333Y-13115143D02*
X12126905Y-13115143D01*
X12126905Y-13115143D02*
X12145952Y-13124667D01*
X12145952Y-13124667D02*
X12155476Y-13143714D01*
X12155476Y-13143714D02*
X12155476Y-13248476D01*
X12155476Y-13143714D02*
X12165000Y-13124667D01*
X12165000Y-13124667D02*
X12184048Y-13115143D01*
X12184048Y-13115143D02*
X12212619Y-13115143D01*
X12212619Y-13115143D02*
X12231667Y-13124667D01*
X12231667Y-13124667D02*
X12241190Y-13143714D01*
X12241190Y-13143714D02*
X12241190Y-13248476D01*
X12336429Y-13248476D02*
X12336429Y-13115143D01*
X12336429Y-13134190D02*
X12345952Y-13124667D01*
X12345952Y-13124667D02*
X12365000Y-13115143D01*
X12365000Y-13115143D02*
X12393571Y-13115143D01*
X12393571Y-13115143D02*
X12412619Y-13124667D01*
X12412619Y-13124667D02*
X12422143Y-13143714D01*
X12422143Y-13143714D02*
X12422143Y-13248476D01*
X12422143Y-13143714D02*
X12431667Y-13124667D01*
X12431667Y-13124667D02*
X12450714Y-13115143D01*
X12450714Y-13115143D02*
X12479286Y-13115143D01*
X12479286Y-13115143D02*
X12498333Y-13124667D01*
X12498333Y-13124667D02*
X12507857Y-13143714D01*
X12507857Y-13143714D02*
X12507857Y-13248476D01*
X12865952Y-13038952D02*
X12694524Y-13296095D01*
X13090714Y-13048476D02*
X13109762Y-13048476D01*
X13109762Y-13048476D02*
X13128810Y-13058000D01*
X13128810Y-13058000D02*
X13138333Y-13067524D01*
X13138333Y-13067524D02*
X13147857Y-13086571D01*
X13147857Y-13086571D02*
X13157381Y-13124667D01*
X13157381Y-13124667D02*
X13157381Y-13172286D01*
X13157381Y-13172286D02*
X13147857Y-13210381D01*
X13147857Y-13210381D02*
X13138333Y-13229428D01*
X13138333Y-13229428D02*
X13128810Y-13238952D01*
X13128810Y-13238952D02*
X13109762Y-13248476D01*
X13109762Y-13248476D02*
X13090714Y-13248476D01*
X13090714Y-13248476D02*
X13071667Y-13238952D01*
X13071667Y-13238952D02*
X13062143Y-13229428D01*
X13062143Y-13229428D02*
X13052619Y-13210381D01*
X13052619Y-13210381D02*
X13043095Y-13172286D01*
X13043095Y-13172286D02*
X13043095Y-13124667D01*
X13043095Y-13124667D02*
X13052619Y-13086571D01*
X13052619Y-13086571D02*
X13062143Y-13067524D01*
X13062143Y-13067524D02*
X13071667Y-13058000D01*
X13071667Y-13058000D02*
X13090714Y-13048476D01*
X13243095Y-13229428D02*
X13252619Y-13238952D01*
X13252619Y-13238952D02*
X13243095Y-13248476D01*
X13243095Y-13248476D02*
X13233571Y-13238952D01*
X13233571Y-13238952D02*
X13243095Y-13229428D01*
X13243095Y-13229428D02*
X13243095Y-13248476D01*
X13443095Y-13248476D02*
X13328810Y-13248476D01*
X13385952Y-13248476D02*
X13385952Y-13048476D01*
X13385952Y-13048476D02*
X13366905Y-13077048D01*
X13366905Y-13077048D02*
X13347857Y-13096095D01*
X13347857Y-13096095D02*
X13328810Y-13105619D01*
X13566905Y-13048476D02*
X13585952Y-13048476D01*
X13585952Y-13048476D02*
X13605000Y-13058000D01*
X13605000Y-13058000D02*
X13614524Y-13067524D01*
X13614524Y-13067524D02*
X13624048Y-13086571D01*
X13624048Y-13086571D02*
X13633571Y-13124667D01*
X13633571Y-13124667D02*
X13633571Y-13172286D01*
X13633571Y-13172286D02*
X13624048Y-13210381D01*
X13624048Y-13210381D02*
X13614524Y-13229428D01*
X13614524Y-13229428D02*
X13605000Y-13238952D01*
X13605000Y-13238952D02*
X13585952Y-13248476D01*
X13585952Y-13248476D02*
X13566905Y-13248476D01*
X13566905Y-13248476D02*
X13547857Y-13238952D01*
X13547857Y-13238952D02*
X13538333Y-13229428D01*
X13538333Y-13229428D02*
X13528810Y-13210381D01*
X13528810Y-13210381D02*
X13519286Y-13172286D01*
X13519286Y-13172286D02*
X13519286Y-13124667D01*
X13519286Y-13124667D02*
X13528810Y-13086571D01*
X13528810Y-13086571D02*
X13538333Y-13067524D01*
X13538333Y-13067524D02*
X13547857Y-13058000D01*
X13547857Y-13058000D02*
X13566905Y-13048476D01*
X13805000Y-13048476D02*
X13766905Y-13048476D01*
X13766905Y-13048476D02*
X13747857Y-13058000D01*
X13747857Y-13058000D02*
X13738333Y-13067524D01*
X13738333Y-13067524D02*
X13719286Y-13096095D01*
X13719286Y-13096095D02*
X13709762Y-13134190D01*
X13709762Y-13134190D02*
X13709762Y-13210381D01*
X13709762Y-13210381D02*
X13719286Y-13229428D01*
X13719286Y-13229428D02*
X13728810Y-13238952D01*
X13728810Y-13238952D02*
X13747857Y-13248476D01*
X13747857Y-13248476D02*
X13785952Y-13248476D01*
X13785952Y-13248476D02*
X13805000Y-13238952D01*
X13805000Y-13238952D02*
X13814524Y-13229428D01*
X13814524Y-13229428D02*
X13824048Y-13210381D01*
X13824048Y-13210381D02*
X13824048Y-13162762D01*
X13824048Y-13162762D02*
X13814524Y-13143714D01*
X13814524Y-13143714D02*
X13805000Y-13134190D01*
X13805000Y-13134190D02*
X13785952Y-13124667D01*
X13785952Y-13124667D02*
X13747857Y-13124667D01*
X13747857Y-13124667D02*
X13728810Y-13134190D01*
X13728810Y-13134190D02*
X13719286Y-13143714D01*
X13719286Y-13143714D02*
X13709762Y-13162762D01*
X13890714Y-13048476D02*
X14014524Y-13048476D01*
X14014524Y-13048476D02*
X13947857Y-13124667D01*
X13947857Y-13124667D02*
X13976429Y-13124667D01*
X13976429Y-13124667D02*
X13995476Y-13134190D01*
X13995476Y-13134190D02*
X14005000Y-13143714D01*
X14005000Y-13143714D02*
X14014524Y-13162762D01*
X14014524Y-13162762D02*
X14014524Y-13210381D01*
X14014524Y-13210381D02*
X14005000Y-13229428D01*
X14005000Y-13229428D02*
X13995476Y-13238952D01*
X13995476Y-13238952D02*
X13976429Y-13248476D01*
X13976429Y-13248476D02*
X13919286Y-13248476D01*
X13919286Y-13248476D02*
X13900238Y-13238952D01*
X13900238Y-13238952D02*
X13890714Y-13229428D01*
X14090714Y-13048476D02*
X14090714Y-13086571D01*
X14166905Y-13048476D02*
X14166905Y-13086571D01*
X14429762Y-13324667D02*
X14420238Y-13315143D01*
X14420238Y-13315143D02*
X14401191Y-13286571D01*
X14401191Y-13286571D02*
X14391667Y-13267524D01*
X14391667Y-13267524D02*
X14382143Y-13238952D01*
X14382143Y-13238952D02*
X14372619Y-13191333D01*
X14372619Y-13191333D02*
X14372619Y-13153238D01*
X14372619Y-13153238D02*
X14382143Y-13105619D01*
X14382143Y-13105619D02*
X14391667Y-13077048D01*
X14391667Y-13077048D02*
X14401191Y-13058000D01*
X14401191Y-13058000D02*
X14420238Y-13029428D01*
X14420238Y-13029428D02*
X14429762Y-13019905D01*
X14486905Y-13048476D02*
X14610714Y-13048476D01*
X14610714Y-13048476D02*
X14544048Y-13124667D01*
X14544048Y-13124667D02*
X14572619Y-13124667D01*
X14572619Y-13124667D02*
X14591667Y-13134190D01*
X14591667Y-13134190D02*
X14601191Y-13143714D01*
X14601191Y-13143714D02*
X14610714Y-13162762D01*
X14610714Y-13162762D02*
X14610714Y-13210381D01*
X14610714Y-13210381D02*
X14601191Y-13229428D01*
X14601191Y-13229428D02*
X14591667Y-13238952D01*
X14591667Y-13238952D02*
X14572619Y-13248476D01*
X14572619Y-13248476D02*
X14515476Y-13248476D01*
X14515476Y-13248476D02*
X14496429Y-13238952D01*
X14496429Y-13238952D02*
X14486905Y-13229428D01*
X14816429Y-13248476D02*
X14816429Y-13048476D01*
X14902143Y-13248476D02*
X14902143Y-13143714D01*
X14902143Y-13143714D02*
X14892619Y-13124667D01*
X14892619Y-13124667D02*
X14873572Y-13115143D01*
X14873572Y-13115143D02*
X14845000Y-13115143D01*
X14845000Y-13115143D02*
X14825952Y-13124667D01*
X14825952Y-13124667D02*
X14816429Y-13134190D01*
X15025952Y-13248476D02*
X15006905Y-13238952D01*
X15006905Y-13238952D02*
X14997381Y-13229428D01*
X14997381Y-13229428D02*
X14987857Y-13210381D01*
X14987857Y-13210381D02*
X14987857Y-13153238D01*
X14987857Y-13153238D02*
X14997381Y-13134190D01*
X14997381Y-13134190D02*
X15006905Y-13124667D01*
X15006905Y-13124667D02*
X15025952Y-13115143D01*
X15025952Y-13115143D02*
X15054524Y-13115143D01*
X15054524Y-13115143D02*
X15073572Y-13124667D01*
X15073572Y-13124667D02*
X15083095Y-13134190D01*
X15083095Y-13134190D02*
X15092619Y-13153238D01*
X15092619Y-13153238D02*
X15092619Y-13210381D01*
X15092619Y-13210381D02*
X15083095Y-13229428D01*
X15083095Y-13229428D02*
X15073572Y-13238952D01*
X15073572Y-13238952D02*
X15054524Y-13248476D01*
X15054524Y-13248476D02*
X15025952Y-13248476D01*
X15206905Y-13248476D02*
X15187857Y-13238952D01*
X15187857Y-13238952D02*
X15178333Y-13219905D01*
X15178333Y-13219905D02*
X15178333Y-13048476D01*
X15359286Y-13238952D02*
X15340238Y-13248476D01*
X15340238Y-13248476D02*
X15302143Y-13248476D01*
X15302143Y-13248476D02*
X15283095Y-13238952D01*
X15283095Y-13238952D02*
X15273572Y-13219905D01*
X15273572Y-13219905D02*
X15273572Y-13143714D01*
X15273572Y-13143714D02*
X15283095Y-13124667D01*
X15283095Y-13124667D02*
X15302143Y-13115143D01*
X15302143Y-13115143D02*
X15340238Y-13115143D01*
X15340238Y-13115143D02*
X15359286Y-13124667D01*
X15359286Y-13124667D02*
X15368810Y-13143714D01*
X15368810Y-13143714D02*
X15368810Y-13162762D01*
X15368810Y-13162762D02*
X15273572Y-13181809D01*
X15445000Y-13238952D02*
X15464048Y-13248476D01*
X15464048Y-13248476D02*
X15502143Y-13248476D01*
X15502143Y-13248476D02*
X15521191Y-13238952D01*
X15521191Y-13238952D02*
X15530714Y-13219905D01*
X15530714Y-13219905D02*
X15530714Y-13210381D01*
X15530714Y-13210381D02*
X15521191Y-13191333D01*
X15521191Y-13191333D02*
X15502143Y-13181809D01*
X15502143Y-13181809D02*
X15473572Y-13181809D01*
X15473572Y-13181809D02*
X15454524Y-13172286D01*
X15454524Y-13172286D02*
X15445000Y-13153238D01*
X15445000Y-13153238D02*
X15445000Y-13143714D01*
X15445000Y-13143714D02*
X15454524Y-13124667D01*
X15454524Y-13124667D02*
X15473572Y-13115143D01*
X15473572Y-13115143D02*
X15502143Y-13115143D01*
X15502143Y-13115143D02*
X15521191Y-13124667D01*
X15597381Y-13324667D02*
X15606905Y-13315143D01*
X15606905Y-13315143D02*
X15625953Y-13286571D01*
X15625953Y-13286571D02*
X15635476Y-13267524D01*
X15635476Y-13267524D02*
X15645000Y-13238952D01*
X15645000Y-13238952D02*
X15654524Y-13191333D01*
X15654524Y-13191333D02*
X15654524Y-13153238D01*
X15654524Y-13153238D02*
X15645000Y-13105619D01*
X15645000Y-13105619D02*
X15635476Y-13077048D01*
X15635476Y-13077048D02*
X15625953Y-13058000D01*
X15625953Y-13058000D02*
X15606905Y-13029428D01*
X15606905Y-13029428D02*
X15597381Y-13019905D01*
X15926905Y-13324667D02*
X15917381Y-13315143D01*
X15917381Y-13315143D02*
X15898333Y-13286571D01*
X15898333Y-13286571D02*
X15888810Y-13267524D01*
X15888810Y-13267524D02*
X15879286Y-13238952D01*
X15879286Y-13238952D02*
X15869762Y-13191333D01*
X15869762Y-13191333D02*
X15869762Y-13153238D01*
X15869762Y-13153238D02*
X15879286Y-13105619D01*
X15879286Y-13105619D02*
X15888810Y-13077048D01*
X15888810Y-13077048D02*
X15898333Y-13058000D01*
X15898333Y-13058000D02*
X15917381Y-13029428D01*
X15917381Y-13029428D02*
X15926905Y-13019905D01*
X16003095Y-13115143D02*
X16003095Y-13248476D01*
X16003095Y-13134190D02*
X16012619Y-13124667D01*
X16012619Y-13124667D02*
X16031667Y-13115143D01*
X16031667Y-13115143D02*
X16060238Y-13115143D01*
X16060238Y-13115143D02*
X16079286Y-13124667D01*
X16079286Y-13124667D02*
X16088810Y-13143714D01*
X16088810Y-13143714D02*
X16088810Y-13248476D01*
X16212619Y-13248476D02*
X16193572Y-13238952D01*
X16193572Y-13238952D02*
X16184048Y-13229428D01*
X16184048Y-13229428D02*
X16174524Y-13210381D01*
X16174524Y-13210381D02*
X16174524Y-13153238D01*
X16174524Y-13153238D02*
X16184048Y-13134190D01*
X16184048Y-13134190D02*
X16193572Y-13124667D01*
X16193572Y-13124667D02*
X16212619Y-13115143D01*
X16212619Y-13115143D02*
X16241191Y-13115143D01*
X16241191Y-13115143D02*
X16260238Y-13124667D01*
X16260238Y-13124667D02*
X16269762Y-13134190D01*
X16269762Y-13134190D02*
X16279286Y-13153238D01*
X16279286Y-13153238D02*
X16279286Y-13210381D01*
X16279286Y-13210381D02*
X16269762Y-13229428D01*
X16269762Y-13229428D02*
X16260238Y-13238952D01*
X16260238Y-13238952D02*
X16241191Y-13248476D01*
X16241191Y-13248476D02*
X16212619Y-13248476D01*
X16336429Y-13115143D02*
X16412619Y-13115143D01*
X16365000Y-13048476D02*
X16365000Y-13219905D01*
X16365000Y-13219905D02*
X16374524Y-13238952D01*
X16374524Y-13238952D02*
X16393572Y-13248476D01*
X16393572Y-13248476D02*
X16412619Y-13248476D01*
X16599286Y-13115143D02*
X16599286Y-13315143D01*
X16599286Y-13124667D02*
X16618333Y-13115143D01*
X16618333Y-13115143D02*
X16656429Y-13115143D01*
X16656429Y-13115143D02*
X16675476Y-13124667D01*
X16675476Y-13124667D02*
X16685000Y-13134190D01*
X16685000Y-13134190D02*
X16694524Y-13153238D01*
X16694524Y-13153238D02*
X16694524Y-13210381D01*
X16694524Y-13210381D02*
X16685000Y-13229428D01*
X16685000Y-13229428D02*
X16675476Y-13238952D01*
X16675476Y-13238952D02*
X16656429Y-13248476D01*
X16656429Y-13248476D02*
X16618333Y-13248476D01*
X16618333Y-13248476D02*
X16599286Y-13238952D01*
X16808810Y-13248476D02*
X16789762Y-13238952D01*
X16789762Y-13238952D02*
X16780238Y-13219905D01*
X16780238Y-13219905D02*
X16780238Y-13048476D01*
X16970715Y-13248476D02*
X16970715Y-13143714D01*
X16970715Y-13143714D02*
X16961191Y-13124667D01*
X16961191Y-13124667D02*
X16942143Y-13115143D01*
X16942143Y-13115143D02*
X16904048Y-13115143D01*
X16904048Y-13115143D02*
X16885000Y-13124667D01*
X16970715Y-13238952D02*
X16951667Y-13248476D01*
X16951667Y-13248476D02*
X16904048Y-13248476D01*
X16904048Y-13248476D02*
X16885000Y-13238952D01*
X16885000Y-13238952D02*
X16875476Y-13219905D01*
X16875476Y-13219905D02*
X16875476Y-13200857D01*
X16875476Y-13200857D02*
X16885000Y-13181809D01*
X16885000Y-13181809D02*
X16904048Y-13172286D01*
X16904048Y-13172286D02*
X16951667Y-13172286D01*
X16951667Y-13172286D02*
X16970715Y-13162762D01*
X17037381Y-13115143D02*
X17113572Y-13115143D01*
X17065953Y-13048476D02*
X17065953Y-13219905D01*
X17065953Y-13219905D02*
X17075476Y-13238952D01*
X17075476Y-13238952D02*
X17094524Y-13248476D01*
X17094524Y-13248476D02*
X17113572Y-13248476D01*
X17256429Y-13238952D02*
X17237381Y-13248476D01*
X17237381Y-13248476D02*
X17199286Y-13248476D01*
X17199286Y-13248476D02*
X17180238Y-13238952D01*
X17180238Y-13238952D02*
X17170715Y-13219905D01*
X17170715Y-13219905D02*
X17170715Y-13143714D01*
X17170715Y-13143714D02*
X17180238Y-13124667D01*
X17180238Y-13124667D02*
X17199286Y-13115143D01*
X17199286Y-13115143D02*
X17237381Y-13115143D01*
X17237381Y-13115143D02*
X17256429Y-13124667D01*
X17256429Y-13124667D02*
X17265953Y-13143714D01*
X17265953Y-13143714D02*
X17265953Y-13162762D01*
X17265953Y-13162762D02*
X17170715Y-13181809D01*
X17437381Y-13248476D02*
X17437381Y-13048476D01*
X17437381Y-13238952D02*
X17418334Y-13248476D01*
X17418334Y-13248476D02*
X17380238Y-13248476D01*
X17380238Y-13248476D02*
X17361191Y-13238952D01*
X17361191Y-13238952D02*
X17351667Y-13229428D01*
X17351667Y-13229428D02*
X17342143Y-13210381D01*
X17342143Y-13210381D02*
X17342143Y-13153238D01*
X17342143Y-13153238D02*
X17351667Y-13134190D01*
X17351667Y-13134190D02*
X17361191Y-13124667D01*
X17361191Y-13124667D02*
X17380238Y-13115143D01*
X17380238Y-13115143D02*
X17418334Y-13115143D01*
X17418334Y-13115143D02*
X17437381Y-13124667D01*
X17513572Y-13324667D02*
X17523096Y-13315143D01*
X17523096Y-13315143D02*
X17542143Y-13286571D01*
X17542143Y-13286571D02*
X17551667Y-13267524D01*
X17551667Y-13267524D02*
X17561191Y-13238952D01*
X17561191Y-13238952D02*
X17570715Y-13191333D01*
X17570715Y-13191333D02*
X17570715Y-13153238D01*
X17570715Y-13153238D02*
X17561191Y-13105619D01*
X17561191Y-13105619D02*
X17551667Y-13077048D01*
X17551667Y-13077048D02*
X17542143Y-13058000D01*
X17542143Y-13058000D02*
X17523096Y-13029428D01*
X17523096Y-13029428D02*
X17513572Y-13019905D01*
M02*
