%TF.GenerationSoftware,KiCad,Pcbnew,7.0.0-rc1-unknown-00d77f624a~164~ubuntu22.04.1*%
%TF.CreationDate,2023-01-15T10:56:32+01:00*%
%TF.ProjectId,lora-nano,6c6f7261-2d6e-4616-9e6f-2e6b69636164,rev?*%
%TF.SameCoordinates,Original*%
%TF.FileFunction,Paste,Top*%
%TF.FilePolarity,Positive*%
%FSLAX46Y46*%
G04 Gerber Fmt 4.6, Leading zero omitted, Abs format (unit mm)*
G04 Created by KiCad (PCBNEW 7.0.0-rc1-unknown-00d77f624a~164~ubuntu22.04.1) date 2023-01-15 10:56:32*
%MOMM*%
%LPD*%
G01*
G04 APERTURE LIST*
G04 Aperture macros list*
%AMRoundRect*
0 Rectangle with rounded corners*
0 $1 Rounding radius*
0 $2 $3 $4 $5 $6 $7 $8 $9 X,Y pos of 4 corners*
0 Add a 4 corners polygon primitive as box body*
4,1,4,$2,$3,$4,$5,$6,$7,$8,$9,$2,$3,0*
0 Add four circle primitives for the rounded corners*
1,1,$1+$1,$2,$3*
1,1,$1+$1,$4,$5*
1,1,$1+$1,$6,$7*
1,1,$1+$1,$8,$9*
0 Add four rect primitives between the rounded corners*
20,1,$1+$1,$2,$3,$4,$5,0*
20,1,$1+$1,$4,$5,$6,$7,0*
20,1,$1+$1,$6,$7,$8,$9,0*
20,1,$1+$1,$8,$9,$2,$3,0*%
G04 Aperture macros list end*
%ADD10RoundRect,0.150000X0.875000X0.150000X-0.875000X0.150000X-0.875000X-0.150000X0.875000X-0.150000X0*%
%ADD11RoundRect,0.250000X0.262500X0.450000X-0.262500X0.450000X-0.262500X-0.450000X0.262500X-0.450000X0*%
%ADD12RoundRect,0.150000X0.587500X0.150000X-0.587500X0.150000X-0.587500X-0.150000X0.587500X-0.150000X0*%
%ADD13RoundRect,0.250000X0.450000X-0.262500X0.450000X0.262500X-0.450000X0.262500X-0.450000X-0.262500X0*%
%ADD14RoundRect,0.250000X-0.475000X0.250000X-0.475000X-0.250000X0.475000X-0.250000X0.475000X0.250000X0*%
%ADD15RoundRect,0.150000X-0.150000X0.587500X-0.150000X-0.587500X0.150000X-0.587500X0.150000X0.587500X0*%
%ADD16RoundRect,0.150000X0.150000X-0.587500X0.150000X0.587500X-0.150000X0.587500X-0.150000X-0.587500X0*%
%ADD17RoundRect,0.250000X-0.262500X-0.450000X0.262500X-0.450000X0.262500X0.450000X-0.262500X0.450000X0*%
%ADD18RoundRect,0.249999X-1.075001X0.512501X-1.075001X-0.512501X1.075001X-0.512501X1.075001X0.512501X0*%
%ADD19RoundRect,0.250000X0.475000X-0.250000X0.475000X0.250000X-0.475000X0.250000X-0.475000X-0.250000X0*%
%ADD20RoundRect,0.250000X-1.000000X1.750000X-1.000000X-1.750000X1.000000X-1.750000X1.000000X1.750000X0*%
%ADD21RoundRect,0.250000X-0.550000X1.250000X-0.550000X-1.250000X0.550000X-1.250000X0.550000X1.250000X0*%
G04 APERTURE END LIST*
D10*
%TO.C,U2*%
X130488500Y-115542572D03*
X130488500Y-114272572D03*
X130488500Y-113002572D03*
X130488500Y-111732572D03*
X130488500Y-110462572D03*
X130488500Y-109192572D03*
X130488500Y-107922572D03*
X130488500Y-106652572D03*
X130488500Y-105382572D03*
X121188500Y-105382572D03*
X121188500Y-106652572D03*
X121188500Y-107922572D03*
X121188500Y-109192572D03*
X121188500Y-110462572D03*
X121188500Y-111732572D03*
X121188500Y-113002572D03*
X121188500Y-114272572D03*
X121188500Y-115542572D03*
%TD*%
D11*
%TO.C,R18*%
X154525000Y-99366572D03*
X152700000Y-99366572D03*
%TD*%
D12*
%TO.C,D8*%
X159351000Y-111045572D03*
X159351000Y-109145572D03*
X157476000Y-110095572D03*
%TD*%
%TO.C,Q1*%
X139001000Y-93585572D03*
X139001000Y-91685572D03*
X137126000Y-92635572D03*
%TD*%
%TO.C,D15*%
X126937500Y-87850000D03*
X126937500Y-85950000D03*
X125062500Y-86900000D03*
%TD*%
%TO.C,D12*%
X126966000Y-84350000D03*
X126966000Y-82450000D03*
X125091000Y-83400000D03*
%TD*%
D13*
%TO.C,R5*%
X141600000Y-106224572D03*
X141600000Y-104399572D03*
%TD*%
D12*
%TO.C,D9*%
X159448000Y-107428572D03*
X159448000Y-105528572D03*
X157573000Y-106478572D03*
%TD*%
%TO.C,Q2*%
X138874000Y-106285572D03*
X138874000Y-104385572D03*
X136999000Y-105335572D03*
%TD*%
D14*
%TO.C,C1*%
X166300000Y-106850000D03*
X166300000Y-108750000D03*
%TD*%
D11*
%TO.C,R12*%
X142800000Y-79900000D03*
X140975000Y-79900000D03*
%TD*%
D13*
%TO.C,R6*%
X141400000Y-93600000D03*
X141400000Y-91775000D03*
%TD*%
D15*
%TO.C,Q3*%
X138750000Y-77925000D03*
X136850000Y-77925000D03*
X137800000Y-79800000D03*
%TD*%
D11*
%TO.C,R17*%
X154572000Y-102951572D03*
X152747000Y-102951572D03*
%TD*%
%TO.C,R16*%
X154572000Y-106478572D03*
X152747000Y-106478572D03*
%TD*%
D16*
%TO.C,Q4*%
X136900000Y-83800000D03*
X138800000Y-83800000D03*
X137850000Y-81925000D03*
%TD*%
D17*
%TO.C,R9*%
X136999000Y-95556572D03*
X138824000Y-95556572D03*
%TD*%
D11*
%TO.C,R11*%
X142841000Y-81900000D03*
X141016000Y-81900000D03*
%TD*%
D18*
%TO.C,D5*%
X179900000Y-98262500D03*
X179900000Y-102937500D03*
%TD*%
D12*
%TO.C,D14*%
X126966000Y-91350000D03*
X126966000Y-89450000D03*
X125091000Y-90400000D03*
%TD*%
D17*
%TO.C,R2*%
X120800000Y-86900000D03*
X122625000Y-86900000D03*
%TD*%
D18*
%TO.C,D6*%
X185100000Y-106762500D03*
X185100000Y-111437500D03*
%TD*%
D17*
%TO.C,R7*%
X140987500Y-77800000D03*
X142812500Y-77800000D03*
%TD*%
D12*
%TO.C,D11*%
X159448000Y-100316572D03*
X159448000Y-98416572D03*
X157573000Y-99366572D03*
%TD*%
D17*
%TO.C,R8*%
X136975000Y-86700000D03*
X138800000Y-86700000D03*
%TD*%
D12*
%TO.C,D10*%
X159448000Y-103872572D03*
X159448000Y-101972572D03*
X157573000Y-102922572D03*
%TD*%
D11*
%TO.C,R15*%
X154572000Y-110034572D03*
X152747000Y-110034572D03*
%TD*%
D19*
%TO.C,C4*%
X185100000Y-103100000D03*
X185100000Y-101200000D03*
%TD*%
D20*
%TO.C,C2*%
X171900000Y-104700000D03*
X171900000Y-110800000D03*
%TD*%
D12*
%TO.C,D13*%
X126966000Y-94850000D03*
X126966000Y-92950000D03*
X125091000Y-93900000D03*
%TD*%
D17*
%TO.C,R4*%
X120775000Y-93900000D03*
X122600000Y-93900000D03*
%TD*%
%TO.C,R10*%
X136900000Y-102200000D03*
X138725000Y-102200000D03*
%TD*%
%TO.C,R3*%
X120775000Y-90400000D03*
X122600000Y-90400000D03*
%TD*%
%TO.C,R1*%
X120787500Y-83400000D03*
X122612500Y-83400000D03*
%TD*%
D21*
%TO.C,C3*%
X179800000Y-106000000D03*
X179800000Y-110400000D03*
%TD*%
M02*
