%TF.GenerationSoftware,KiCad,Pcbnew,7.0.0-rc1-unknown-00d77f624a~164~ubuntu22.04.1*%
%TF.CreationDate,2023-01-15T10:56:32+01:00*%
%TF.ProjectId,lora-nano,6c6f7261-2d6e-4616-9e6f-2e6b69636164,rev?*%
%TF.SameCoordinates,Original*%
%TF.FileFunction,Legend,Top*%
%TF.FilePolarity,Positive*%
%FSLAX46Y46*%
G04 Gerber Fmt 4.6, Leading zero omitted, Abs format (unit mm)*
G04 Created by KiCad (PCBNEW 7.0.0-rc1-unknown-00d77f624a~164~ubuntu22.04.1) date 2023-01-15 10:56:32*
%MOMM*%
%LPD*%
G01*
G04 APERTURE LIST*
%ADD10C,0.150000*%
%ADD11C,0.300000*%
%ADD12C,0.120000*%
G04 APERTURE END LIST*
D10*
X154161905Y-88881666D02*
X154638095Y-88881666D01*
X154066667Y-89167380D02*
X154400000Y-88167380D01*
X154400000Y-88167380D02*
X154733333Y-89167380D01*
X155066667Y-88167380D02*
X155066667Y-88976904D01*
X155066667Y-88976904D02*
X155114286Y-89072142D01*
X155114286Y-89072142D02*
X155161905Y-89119761D01*
X155161905Y-89119761D02*
X155257143Y-89167380D01*
X155257143Y-89167380D02*
X155447619Y-89167380D01*
X155447619Y-89167380D02*
X155542857Y-89119761D01*
X155542857Y-89119761D02*
X155590476Y-89072142D01*
X155590476Y-89072142D02*
X155638095Y-88976904D01*
X155638095Y-88976904D02*
X155638095Y-88167380D01*
X156019048Y-88167380D02*
X156685714Y-89167380D01*
X156685714Y-88167380D02*
X156019048Y-89167380D01*
X179238095Y-123023572D02*
X179142857Y-122975952D01*
X179142857Y-122975952D02*
X179000000Y-122975952D01*
X179000000Y-122975952D02*
X178857143Y-123023572D01*
X178857143Y-123023572D02*
X178761905Y-123118810D01*
X178761905Y-123118810D02*
X178714286Y-123214048D01*
X178714286Y-123214048D02*
X178666667Y-123404524D01*
X178666667Y-123404524D02*
X178666667Y-123547381D01*
X178666667Y-123547381D02*
X178714286Y-123737857D01*
X178714286Y-123737857D02*
X178761905Y-123833095D01*
X178761905Y-123833095D02*
X178857143Y-123928333D01*
X178857143Y-123928333D02*
X179000000Y-123975952D01*
X179000000Y-123975952D02*
X179095238Y-123975952D01*
X179095238Y-123975952D02*
X179238095Y-123928333D01*
X179238095Y-123928333D02*
X179285714Y-123880714D01*
X179285714Y-123880714D02*
X179285714Y-123547381D01*
X179285714Y-123547381D02*
X179095238Y-123547381D01*
X179714286Y-123975952D02*
X179714286Y-122975952D01*
X179714286Y-122975952D02*
X180285714Y-123975952D01*
X180285714Y-123975952D02*
X180285714Y-122975952D01*
X180761905Y-123975952D02*
X180761905Y-122975952D01*
X180761905Y-122975952D02*
X181000000Y-122975952D01*
X181000000Y-122975952D02*
X181142857Y-123023572D01*
X181142857Y-123023572D02*
X181238095Y-123118810D01*
X181238095Y-123118810D02*
X181285714Y-123214048D01*
X181285714Y-123214048D02*
X181333333Y-123404524D01*
X181333333Y-123404524D02*
X181333333Y-123547381D01*
X181333333Y-123547381D02*
X181285714Y-123737857D01*
X181285714Y-123737857D02*
X181238095Y-123833095D01*
X181238095Y-123833095D02*
X181142857Y-123928333D01*
X181142857Y-123928333D02*
X181000000Y-123975952D01*
X181000000Y-123975952D02*
X180761905Y-123975952D01*
X154690476Y-78967380D02*
X154690476Y-77967380D01*
X154690476Y-77967380D02*
X155023809Y-78681666D01*
X155023809Y-78681666D02*
X155357142Y-77967380D01*
X155357142Y-77967380D02*
X155357142Y-78967380D01*
X156023809Y-77967380D02*
X156119047Y-77967380D01*
X156119047Y-77967380D02*
X156214285Y-78015000D01*
X156214285Y-78015000D02*
X156261904Y-78062619D01*
X156261904Y-78062619D02*
X156309523Y-78157857D01*
X156309523Y-78157857D02*
X156357142Y-78348333D01*
X156357142Y-78348333D02*
X156357142Y-78586428D01*
X156357142Y-78586428D02*
X156309523Y-78776904D01*
X156309523Y-78776904D02*
X156261904Y-78872142D01*
X156261904Y-78872142D02*
X156214285Y-78919761D01*
X156214285Y-78919761D02*
X156119047Y-78967380D01*
X156119047Y-78967380D02*
X156023809Y-78967380D01*
X156023809Y-78967380D02*
X155928571Y-78919761D01*
X155928571Y-78919761D02*
X155880952Y-78872142D01*
X155880952Y-78872142D02*
X155833333Y-78776904D01*
X155833333Y-78776904D02*
X155785714Y-78586428D01*
X155785714Y-78586428D02*
X155785714Y-78348333D01*
X155785714Y-78348333D02*
X155833333Y-78157857D01*
X155833333Y-78157857D02*
X155880952Y-78062619D01*
X155880952Y-78062619D02*
X155928571Y-78015000D01*
X155928571Y-78015000D02*
X156023809Y-77967380D01*
X110985714Y-104767380D02*
X110414286Y-104767380D01*
X110700000Y-104767380D02*
X110700000Y-103767380D01*
X110700000Y-103767380D02*
X110604762Y-103910238D01*
X110604762Y-103910238D02*
X110509524Y-104005476D01*
X110509524Y-104005476D02*
X110414286Y-104053095D01*
X154790476Y-81667380D02*
X154790476Y-80667380D01*
X154790476Y-80667380D02*
X155123809Y-81381666D01*
X155123809Y-81381666D02*
X155457142Y-80667380D01*
X155457142Y-80667380D02*
X155457142Y-81667380D01*
X156457142Y-81667380D02*
X155885714Y-81667380D01*
X156171428Y-81667380D02*
X156171428Y-80667380D01*
X156171428Y-80667380D02*
X156076190Y-80810238D01*
X156076190Y-80810238D02*
X155980952Y-80905476D01*
X155980952Y-80905476D02*
X155885714Y-80953095D01*
X183814286Y-123695000D02*
X184576191Y-123695000D01*
X184195238Y-124075952D02*
X184195238Y-123314048D01*
X185528571Y-123075952D02*
X185052381Y-123075952D01*
X185052381Y-123075952D02*
X185004762Y-123552143D01*
X185004762Y-123552143D02*
X185052381Y-123504524D01*
X185052381Y-123504524D02*
X185147619Y-123456905D01*
X185147619Y-123456905D02*
X185385714Y-123456905D01*
X185385714Y-123456905D02*
X185480952Y-123504524D01*
X185480952Y-123504524D02*
X185528571Y-123552143D01*
X185528571Y-123552143D02*
X185576190Y-123647381D01*
X185576190Y-123647381D02*
X185576190Y-123885476D01*
X185576190Y-123885476D02*
X185528571Y-123980714D01*
X185528571Y-123980714D02*
X185480952Y-124028333D01*
X185480952Y-124028333D02*
X185385714Y-124075952D01*
X185385714Y-124075952D02*
X185147619Y-124075952D01*
X185147619Y-124075952D02*
X185052381Y-124028333D01*
X185052381Y-124028333D02*
X185004762Y-123980714D01*
X185861905Y-123075952D02*
X186195238Y-124075952D01*
X186195238Y-124075952D02*
X186528571Y-123075952D01*
D11*
X111427976Y-91502380D02*
X110177976Y-91502380D01*
X111427976Y-90907142D02*
X110177976Y-90907142D01*
X110177976Y-90907142D02*
X111427976Y-90192857D01*
X111427976Y-90192857D02*
X110177976Y-90192857D01*
X111427976Y-89597618D02*
X110177976Y-89597618D01*
X110177976Y-89597618D02*
X110177976Y-89121428D01*
X110177976Y-89121428D02*
X110237500Y-89002380D01*
X110237500Y-89002380D02*
X110297023Y-88942857D01*
X110297023Y-88942857D02*
X110416071Y-88883333D01*
X110416071Y-88883333D02*
X110594642Y-88883333D01*
X110594642Y-88883333D02*
X110713690Y-88942857D01*
X110713690Y-88942857D02*
X110773214Y-89002380D01*
X110773214Y-89002380D02*
X110832738Y-89121428D01*
X110832738Y-89121428D02*
X110832738Y-89597618D01*
X110177976Y-88347618D02*
X111189880Y-88347618D01*
X111189880Y-88347618D02*
X111308928Y-88288095D01*
X111308928Y-88288095D02*
X111368452Y-88228571D01*
X111368452Y-88228571D02*
X111427976Y-88109523D01*
X111427976Y-88109523D02*
X111427976Y-87871428D01*
X111427976Y-87871428D02*
X111368452Y-87752380D01*
X111368452Y-87752380D02*
X111308928Y-87692857D01*
X111308928Y-87692857D02*
X111189880Y-87633333D01*
X111189880Y-87633333D02*
X110177976Y-87633333D01*
X110177976Y-87216666D02*
X110177976Y-86502380D01*
X111427976Y-86859523D02*
X110177976Y-86859523D01*
D10*
X173566667Y-122875952D02*
X173900000Y-123875952D01*
X173900000Y-123875952D02*
X174233333Y-122875952D01*
X175138095Y-123780714D02*
X175090476Y-123828333D01*
X175090476Y-123828333D02*
X174947619Y-123875952D01*
X174947619Y-123875952D02*
X174852381Y-123875952D01*
X174852381Y-123875952D02*
X174709524Y-123828333D01*
X174709524Y-123828333D02*
X174614286Y-123733095D01*
X174614286Y-123733095D02*
X174566667Y-123637857D01*
X174566667Y-123637857D02*
X174519048Y-123447381D01*
X174519048Y-123447381D02*
X174519048Y-123304524D01*
X174519048Y-123304524D02*
X174566667Y-123114048D01*
X174566667Y-123114048D02*
X174614286Y-123018810D01*
X174614286Y-123018810D02*
X174709524Y-122923572D01*
X174709524Y-122923572D02*
X174852381Y-122875952D01*
X174852381Y-122875952D02*
X174947619Y-122875952D01*
X174947619Y-122875952D02*
X175090476Y-122923572D01*
X175090476Y-122923572D02*
X175138095Y-122971191D01*
X175566667Y-123875952D02*
X175566667Y-122875952D01*
X175566667Y-122875952D02*
X175804762Y-122875952D01*
X175804762Y-122875952D02*
X175947619Y-122923572D01*
X175947619Y-122923572D02*
X176042857Y-123018810D01*
X176042857Y-123018810D02*
X176090476Y-123114048D01*
X176090476Y-123114048D02*
X176138095Y-123304524D01*
X176138095Y-123304524D02*
X176138095Y-123447381D01*
X176138095Y-123447381D02*
X176090476Y-123637857D01*
X176090476Y-123637857D02*
X176042857Y-123733095D01*
X176042857Y-123733095D02*
X175947619Y-123828333D01*
X175947619Y-123828333D02*
X175804762Y-123875952D01*
X175804762Y-123875952D02*
X175566667Y-123875952D01*
X154833333Y-84067380D02*
X154500000Y-83591190D01*
X154261905Y-84067380D02*
X154261905Y-83067380D01*
X154261905Y-83067380D02*
X154642857Y-83067380D01*
X154642857Y-83067380D02*
X154738095Y-83115000D01*
X154738095Y-83115000D02*
X154785714Y-83162619D01*
X154785714Y-83162619D02*
X154833333Y-83257857D01*
X154833333Y-83257857D02*
X154833333Y-83400714D01*
X154833333Y-83400714D02*
X154785714Y-83495952D01*
X154785714Y-83495952D02*
X154738095Y-83543571D01*
X154738095Y-83543571D02*
X154642857Y-83591190D01*
X154642857Y-83591190D02*
X154261905Y-83591190D01*
X155166667Y-83067380D02*
X155833333Y-84067380D01*
X155833333Y-83067380D02*
X155166667Y-84067380D01*
X156214286Y-84067380D02*
X156214286Y-83067380D01*
X156214286Y-83067380D02*
X156452381Y-83067380D01*
X156452381Y-83067380D02*
X156595238Y-83115000D01*
X156595238Y-83115000D02*
X156690476Y-83210238D01*
X156690476Y-83210238D02*
X156738095Y-83305476D01*
X156738095Y-83305476D02*
X156785714Y-83495952D01*
X156785714Y-83495952D02*
X156785714Y-83638809D01*
X156785714Y-83638809D02*
X156738095Y-83829285D01*
X156738095Y-83829285D02*
X156690476Y-83924523D01*
X156690476Y-83924523D02*
X156595238Y-84019761D01*
X156595238Y-84019761D02*
X156452381Y-84067380D01*
X156452381Y-84067380D02*
X156214286Y-84067380D01*
X167538095Y-122823572D02*
X167442857Y-122775952D01*
X167442857Y-122775952D02*
X167300000Y-122775952D01*
X167300000Y-122775952D02*
X167157143Y-122823572D01*
X167157143Y-122823572D02*
X167061905Y-122918810D01*
X167061905Y-122918810D02*
X167014286Y-123014048D01*
X167014286Y-123014048D02*
X166966667Y-123204524D01*
X166966667Y-123204524D02*
X166966667Y-123347381D01*
X166966667Y-123347381D02*
X167014286Y-123537857D01*
X167014286Y-123537857D02*
X167061905Y-123633095D01*
X167061905Y-123633095D02*
X167157143Y-123728333D01*
X167157143Y-123728333D02*
X167300000Y-123775952D01*
X167300000Y-123775952D02*
X167395238Y-123775952D01*
X167395238Y-123775952D02*
X167538095Y-123728333D01*
X167538095Y-123728333D02*
X167585714Y-123680714D01*
X167585714Y-123680714D02*
X167585714Y-123347381D01*
X167585714Y-123347381D02*
X167395238Y-123347381D01*
X168014286Y-123775952D02*
X168014286Y-122775952D01*
X168014286Y-122775952D02*
X168585714Y-123775952D01*
X168585714Y-123775952D02*
X168585714Y-122775952D01*
X169061905Y-123775952D02*
X169061905Y-122775952D01*
X169061905Y-122775952D02*
X169300000Y-122775952D01*
X169300000Y-122775952D02*
X169442857Y-122823572D01*
X169442857Y-122823572D02*
X169538095Y-122918810D01*
X169538095Y-122918810D02*
X169585714Y-123014048D01*
X169585714Y-123014048D02*
X169633333Y-123204524D01*
X169633333Y-123204524D02*
X169633333Y-123347381D01*
X169633333Y-123347381D02*
X169585714Y-123537857D01*
X169585714Y-123537857D02*
X169538095Y-123633095D01*
X169538095Y-123633095D02*
X169442857Y-123728333D01*
X169442857Y-123728333D02*
X169300000Y-123775952D01*
X169300000Y-123775952D02*
X169061905Y-123775952D01*
X154938095Y-93415000D02*
X154842857Y-93367380D01*
X154842857Y-93367380D02*
X154700000Y-93367380D01*
X154700000Y-93367380D02*
X154557143Y-93415000D01*
X154557143Y-93415000D02*
X154461905Y-93510238D01*
X154461905Y-93510238D02*
X154414286Y-93605476D01*
X154414286Y-93605476D02*
X154366667Y-93795952D01*
X154366667Y-93795952D02*
X154366667Y-93938809D01*
X154366667Y-93938809D02*
X154414286Y-94129285D01*
X154414286Y-94129285D02*
X154461905Y-94224523D01*
X154461905Y-94224523D02*
X154557143Y-94319761D01*
X154557143Y-94319761D02*
X154700000Y-94367380D01*
X154700000Y-94367380D02*
X154795238Y-94367380D01*
X154795238Y-94367380D02*
X154938095Y-94319761D01*
X154938095Y-94319761D02*
X154985714Y-94272142D01*
X154985714Y-94272142D02*
X154985714Y-93938809D01*
X154985714Y-93938809D02*
X154795238Y-93938809D01*
X155414286Y-94367380D02*
X155414286Y-93367380D01*
X155414286Y-93367380D02*
X155985714Y-94367380D01*
X155985714Y-94367380D02*
X155985714Y-93367380D01*
X156461905Y-94367380D02*
X156461905Y-93367380D01*
X156461905Y-93367380D02*
X156700000Y-93367380D01*
X156700000Y-93367380D02*
X156842857Y-93415000D01*
X156842857Y-93415000D02*
X156938095Y-93510238D01*
X156938095Y-93510238D02*
X156985714Y-93605476D01*
X156985714Y-93605476D02*
X157033333Y-93795952D01*
X157033333Y-93795952D02*
X157033333Y-93938809D01*
X157033333Y-93938809D02*
X156985714Y-94129285D01*
X156985714Y-94129285D02*
X156938095Y-94224523D01*
X156938095Y-94224523D02*
X156842857Y-94319761D01*
X156842857Y-94319761D02*
X156700000Y-94367380D01*
X156700000Y-94367380D02*
X156461905Y-94367380D01*
X154138095Y-85667380D02*
X154709523Y-85667380D01*
X154423809Y-86667380D02*
X154423809Y-85667380D01*
X154947619Y-85667380D02*
X155614285Y-86667380D01*
X155614285Y-85667380D02*
X154947619Y-86667380D01*
X155995238Y-86667380D02*
X155995238Y-85667380D01*
X155995238Y-85667380D02*
X156233333Y-85667380D01*
X156233333Y-85667380D02*
X156376190Y-85715000D01*
X156376190Y-85715000D02*
X156471428Y-85810238D01*
X156471428Y-85810238D02*
X156519047Y-85905476D01*
X156519047Y-85905476D02*
X156566666Y-86095952D01*
X156566666Y-86095952D02*
X156566666Y-86238809D01*
X156566666Y-86238809D02*
X156519047Y-86429285D01*
X156519047Y-86429285D02*
X156471428Y-86524523D01*
X156471428Y-86524523D02*
X156376190Y-86619761D01*
X156376190Y-86619761D02*
X156233333Y-86667380D01*
X156233333Y-86667380D02*
X155995238Y-86667380D01*
X164990476Y-123200714D02*
X164990476Y-123867380D01*
X164752381Y-122819761D02*
X164514286Y-123534047D01*
X164514286Y-123534047D02*
X165133333Y-123534047D01*
D11*
X110177976Y-112664285D02*
X110177976Y-112426190D01*
X110177976Y-112426190D02*
X110237500Y-112307142D01*
X110237500Y-112307142D02*
X110356547Y-112188095D01*
X110356547Y-112188095D02*
X110594642Y-112128571D01*
X110594642Y-112128571D02*
X111011309Y-112128571D01*
X111011309Y-112128571D02*
X111249404Y-112188095D01*
X111249404Y-112188095D02*
X111368452Y-112307142D01*
X111368452Y-112307142D02*
X111427976Y-112426190D01*
X111427976Y-112426190D02*
X111427976Y-112664285D01*
X111427976Y-112664285D02*
X111368452Y-112783333D01*
X111368452Y-112783333D02*
X111249404Y-112902380D01*
X111249404Y-112902380D02*
X111011309Y-112961904D01*
X111011309Y-112961904D02*
X110594642Y-112961904D01*
X110594642Y-112961904D02*
X110356547Y-112902380D01*
X110356547Y-112902380D02*
X110237500Y-112783333D01*
X110237500Y-112783333D02*
X110177976Y-112664285D01*
X110177976Y-111592856D02*
X111189880Y-111592856D01*
X111189880Y-111592856D02*
X111308928Y-111533333D01*
X111308928Y-111533333D02*
X111368452Y-111473809D01*
X111368452Y-111473809D02*
X111427976Y-111354761D01*
X111427976Y-111354761D02*
X111427976Y-111116666D01*
X111427976Y-111116666D02*
X111368452Y-110997618D01*
X111368452Y-110997618D02*
X111308928Y-110938095D01*
X111308928Y-110938095D02*
X111189880Y-110878571D01*
X111189880Y-110878571D02*
X110177976Y-110878571D01*
X110177976Y-110461904D02*
X110177976Y-109747618D01*
X111427976Y-110104761D02*
X110177976Y-110104761D01*
X111427976Y-109330951D02*
X110177976Y-109330951D01*
X110177976Y-109330951D02*
X110177976Y-108854761D01*
X110177976Y-108854761D02*
X110237500Y-108735713D01*
X110237500Y-108735713D02*
X110297023Y-108676190D01*
X110297023Y-108676190D02*
X110416071Y-108616666D01*
X110416071Y-108616666D02*
X110594642Y-108616666D01*
X110594642Y-108616666D02*
X110713690Y-108676190D01*
X110713690Y-108676190D02*
X110773214Y-108735713D01*
X110773214Y-108735713D02*
X110832738Y-108854761D01*
X110832738Y-108854761D02*
X110832738Y-109330951D01*
X110177976Y-108080951D02*
X111189880Y-108080951D01*
X111189880Y-108080951D02*
X111308928Y-108021428D01*
X111308928Y-108021428D02*
X111368452Y-107961904D01*
X111368452Y-107961904D02*
X111427976Y-107842856D01*
X111427976Y-107842856D02*
X111427976Y-107604761D01*
X111427976Y-107604761D02*
X111368452Y-107485713D01*
X111368452Y-107485713D02*
X111308928Y-107426190D01*
X111308928Y-107426190D02*
X111189880Y-107366666D01*
X111189880Y-107366666D02*
X110177976Y-107366666D01*
X110177976Y-106949999D02*
X110177976Y-106235713D01*
X111427976Y-106592856D02*
X110177976Y-106592856D01*
D10*
X111090476Y-93700714D02*
X111090476Y-94367380D01*
X110852381Y-93319761D02*
X110614286Y-94034047D01*
X110614286Y-94034047D02*
X111233333Y-94034047D01*
X110985714Y-83667380D02*
X110414286Y-83667380D01*
X110700000Y-83667380D02*
X110700000Y-82667380D01*
X110700000Y-82667380D02*
X110604762Y-82810238D01*
X110604762Y-82810238D02*
X110509524Y-82905476D01*
X110509524Y-82905476D02*
X110414286Y-82953095D01*
X122595237Y-99767380D02*
X122119047Y-99767380D01*
X122119047Y-99767380D02*
X122119047Y-98767380D01*
X123071428Y-99767380D02*
X122976190Y-99719761D01*
X122976190Y-99719761D02*
X122928571Y-99672142D01*
X122928571Y-99672142D02*
X122880952Y-99576904D01*
X122880952Y-99576904D02*
X122880952Y-99291190D01*
X122880952Y-99291190D02*
X122928571Y-99195952D01*
X122928571Y-99195952D02*
X122976190Y-99148333D01*
X122976190Y-99148333D02*
X123071428Y-99100714D01*
X123071428Y-99100714D02*
X123214285Y-99100714D01*
X123214285Y-99100714D02*
X123309523Y-99148333D01*
X123309523Y-99148333D02*
X123357142Y-99195952D01*
X123357142Y-99195952D02*
X123404761Y-99291190D01*
X123404761Y-99291190D02*
X123404761Y-99576904D01*
X123404761Y-99576904D02*
X123357142Y-99672142D01*
X123357142Y-99672142D02*
X123309523Y-99719761D01*
X123309523Y-99719761D02*
X123214285Y-99767380D01*
X123214285Y-99767380D02*
X123071428Y-99767380D01*
X123833333Y-99767380D02*
X123833333Y-99100714D01*
X123833333Y-99291190D02*
X123880952Y-99195952D01*
X123880952Y-99195952D02*
X123928571Y-99148333D01*
X123928571Y-99148333D02*
X124023809Y-99100714D01*
X124023809Y-99100714D02*
X124119047Y-99100714D01*
X124880952Y-99767380D02*
X124880952Y-99243571D01*
X124880952Y-99243571D02*
X124833333Y-99148333D01*
X124833333Y-99148333D02*
X124738095Y-99100714D01*
X124738095Y-99100714D02*
X124547619Y-99100714D01*
X124547619Y-99100714D02*
X124452381Y-99148333D01*
X124880952Y-99719761D02*
X124785714Y-99767380D01*
X124785714Y-99767380D02*
X124547619Y-99767380D01*
X124547619Y-99767380D02*
X124452381Y-99719761D01*
X124452381Y-99719761D02*
X124404762Y-99624523D01*
X124404762Y-99624523D02*
X124404762Y-99529285D01*
X124404762Y-99529285D02*
X124452381Y-99434047D01*
X124452381Y-99434047D02*
X124547619Y-99386428D01*
X124547619Y-99386428D02*
X124785714Y-99386428D01*
X124785714Y-99386428D02*
X124880952Y-99338809D01*
X125357143Y-99386428D02*
X126119048Y-99386428D01*
X126595238Y-99767380D02*
X126595238Y-98767380D01*
X126595238Y-98767380D02*
X127166666Y-99767380D01*
X127166666Y-99767380D02*
X127166666Y-98767380D01*
X128071428Y-99767380D02*
X128071428Y-99243571D01*
X128071428Y-99243571D02*
X128023809Y-99148333D01*
X128023809Y-99148333D02*
X127928571Y-99100714D01*
X127928571Y-99100714D02*
X127738095Y-99100714D01*
X127738095Y-99100714D02*
X127642857Y-99148333D01*
X128071428Y-99719761D02*
X127976190Y-99767380D01*
X127976190Y-99767380D02*
X127738095Y-99767380D01*
X127738095Y-99767380D02*
X127642857Y-99719761D01*
X127642857Y-99719761D02*
X127595238Y-99624523D01*
X127595238Y-99624523D02*
X127595238Y-99529285D01*
X127595238Y-99529285D02*
X127642857Y-99434047D01*
X127642857Y-99434047D02*
X127738095Y-99386428D01*
X127738095Y-99386428D02*
X127976190Y-99386428D01*
X127976190Y-99386428D02*
X128071428Y-99338809D01*
X128547619Y-99100714D02*
X128547619Y-99767380D01*
X128547619Y-99195952D02*
X128595238Y-99148333D01*
X128595238Y-99148333D02*
X128690476Y-99100714D01*
X128690476Y-99100714D02*
X128833333Y-99100714D01*
X128833333Y-99100714D02*
X128928571Y-99148333D01*
X128928571Y-99148333D02*
X128976190Y-99243571D01*
X128976190Y-99243571D02*
X128976190Y-99767380D01*
X129595238Y-99767380D02*
X129500000Y-99719761D01*
X129500000Y-99719761D02*
X129452381Y-99672142D01*
X129452381Y-99672142D02*
X129404762Y-99576904D01*
X129404762Y-99576904D02*
X129404762Y-99291190D01*
X129404762Y-99291190D02*
X129452381Y-99195952D01*
X129452381Y-99195952D02*
X129500000Y-99148333D01*
X129500000Y-99148333D02*
X129595238Y-99100714D01*
X129595238Y-99100714D02*
X129738095Y-99100714D01*
X129738095Y-99100714D02*
X129833333Y-99148333D01*
X129833333Y-99148333D02*
X129880952Y-99195952D01*
X129880952Y-99195952D02*
X129928571Y-99291190D01*
X129928571Y-99291190D02*
X129928571Y-99576904D01*
X129928571Y-99576904D02*
X129880952Y-99672142D01*
X129880952Y-99672142D02*
X129833333Y-99719761D01*
X129833333Y-99719761D02*
X129738095Y-99767380D01*
X129738095Y-99767380D02*
X129595238Y-99767380D01*
X154485714Y-123967380D02*
X153914286Y-123967380D01*
X154200000Y-123967380D02*
X154200000Y-122967380D01*
X154200000Y-122967380D02*
X154104762Y-123110238D01*
X154104762Y-123110238D02*
X154009524Y-123205476D01*
X154009524Y-123205476D02*
X153914286Y-123253095D01*
X110315000Y-98061904D02*
X110267380Y-98157142D01*
X110267380Y-98157142D02*
X110267380Y-98299999D01*
X110267380Y-98299999D02*
X110315000Y-98442856D01*
X110315000Y-98442856D02*
X110410238Y-98538094D01*
X110410238Y-98538094D02*
X110505476Y-98585713D01*
X110505476Y-98585713D02*
X110695952Y-98633332D01*
X110695952Y-98633332D02*
X110838809Y-98633332D01*
X110838809Y-98633332D02*
X111029285Y-98585713D01*
X111029285Y-98585713D02*
X111124523Y-98538094D01*
X111124523Y-98538094D02*
X111219761Y-98442856D01*
X111219761Y-98442856D02*
X111267380Y-98299999D01*
X111267380Y-98299999D02*
X111267380Y-98204761D01*
X111267380Y-98204761D02*
X111219761Y-98061904D01*
X111219761Y-98061904D02*
X111172142Y-98014285D01*
X111172142Y-98014285D02*
X110838809Y-98014285D01*
X110838809Y-98014285D02*
X110838809Y-98204761D01*
X111267380Y-97585713D02*
X110267380Y-97585713D01*
X110267380Y-97585713D02*
X111267380Y-97014285D01*
X111267380Y-97014285D02*
X110267380Y-97014285D01*
X111267380Y-96538094D02*
X110267380Y-96538094D01*
X110267380Y-96538094D02*
X110267380Y-96299999D01*
X110267380Y-96299999D02*
X110315000Y-96157142D01*
X110315000Y-96157142D02*
X110410238Y-96061904D01*
X110410238Y-96061904D02*
X110505476Y-96014285D01*
X110505476Y-96014285D02*
X110695952Y-95966666D01*
X110695952Y-95966666D02*
X110838809Y-95966666D01*
X110838809Y-95966666D02*
X111029285Y-96014285D01*
X111029285Y-96014285D02*
X111124523Y-96061904D01*
X111124523Y-96061904D02*
X111219761Y-96157142D01*
X111219761Y-96157142D02*
X111267380Y-96299999D01*
X111267380Y-96299999D02*
X111267380Y-96538094D01*
X132385714Y-80767380D02*
X131814286Y-80767380D01*
X132100000Y-80767380D02*
X132100000Y-79767380D01*
X132100000Y-79767380D02*
X132004762Y-79910238D01*
X132004762Y-79910238D02*
X131909524Y-80005476D01*
X131909524Y-80005476D02*
X131814286Y-80053095D01*
X110972142Y-119485714D02*
X111019761Y-119533333D01*
X111019761Y-119533333D02*
X111067380Y-119676190D01*
X111067380Y-119676190D02*
X111067380Y-119771428D01*
X111067380Y-119771428D02*
X111019761Y-119914285D01*
X111019761Y-119914285D02*
X110924523Y-120009523D01*
X110924523Y-120009523D02*
X110829285Y-120057142D01*
X110829285Y-120057142D02*
X110638809Y-120104761D01*
X110638809Y-120104761D02*
X110495952Y-120104761D01*
X110495952Y-120104761D02*
X110305476Y-120057142D01*
X110305476Y-120057142D02*
X110210238Y-120009523D01*
X110210238Y-120009523D02*
X110115000Y-119914285D01*
X110115000Y-119914285D02*
X110067380Y-119771428D01*
X110067380Y-119771428D02*
X110067380Y-119676190D01*
X110067380Y-119676190D02*
X110115000Y-119533333D01*
X110115000Y-119533333D02*
X110162619Y-119485714D01*
X110067380Y-118866666D02*
X110067380Y-118676190D01*
X110067380Y-118676190D02*
X110115000Y-118580952D01*
X110115000Y-118580952D02*
X110210238Y-118485714D01*
X110210238Y-118485714D02*
X110400714Y-118438095D01*
X110400714Y-118438095D02*
X110734047Y-118438095D01*
X110734047Y-118438095D02*
X110924523Y-118485714D01*
X110924523Y-118485714D02*
X111019761Y-118580952D01*
X111019761Y-118580952D02*
X111067380Y-118676190D01*
X111067380Y-118676190D02*
X111067380Y-118866666D01*
X111067380Y-118866666D02*
X111019761Y-118961904D01*
X111019761Y-118961904D02*
X110924523Y-119057142D01*
X110924523Y-119057142D02*
X110734047Y-119104761D01*
X110734047Y-119104761D02*
X110400714Y-119104761D01*
X110400714Y-119104761D02*
X110210238Y-119057142D01*
X110210238Y-119057142D02*
X110115000Y-118961904D01*
X110115000Y-118961904D02*
X110067380Y-118866666D01*
X111067380Y-118009523D02*
X110067380Y-118009523D01*
X110067380Y-118009523D02*
X110781666Y-117676190D01*
X110781666Y-117676190D02*
X110067380Y-117342857D01*
X110067380Y-117342857D02*
X111067380Y-117342857D01*
X111090476Y-114700714D02*
X111090476Y-115367380D01*
X110852381Y-114319761D02*
X110614286Y-115034047D01*
X110614286Y-115034047D02*
X111233333Y-115034047D01*
X154414286Y-91386428D02*
X155176191Y-91386428D01*
X154795238Y-91767380D02*
X154795238Y-91005476D01*
X156128571Y-90767380D02*
X155652381Y-90767380D01*
X155652381Y-90767380D02*
X155604762Y-91243571D01*
X155604762Y-91243571D02*
X155652381Y-91195952D01*
X155652381Y-91195952D02*
X155747619Y-91148333D01*
X155747619Y-91148333D02*
X155985714Y-91148333D01*
X155985714Y-91148333D02*
X156080952Y-91195952D01*
X156080952Y-91195952D02*
X156128571Y-91243571D01*
X156128571Y-91243571D02*
X156176190Y-91338809D01*
X156176190Y-91338809D02*
X156176190Y-91576904D01*
X156176190Y-91576904D02*
X156128571Y-91672142D01*
X156128571Y-91672142D02*
X156080952Y-91719761D01*
X156080952Y-91719761D02*
X155985714Y-91767380D01*
X155985714Y-91767380D02*
X155747619Y-91767380D01*
X155747619Y-91767380D02*
X155652381Y-91719761D01*
X155652381Y-91719761D02*
X155604762Y-91672142D01*
X156461905Y-90767380D02*
X156795238Y-91767380D01*
X156795238Y-91767380D02*
X157128571Y-90767380D01*
%TO.C,U2*%
X124934095Y-103305952D02*
X124934095Y-104115476D01*
X124934095Y-104115476D02*
X124981714Y-104210714D01*
X124981714Y-104210714D02*
X125029333Y-104258333D01*
X125029333Y-104258333D02*
X125124571Y-104305952D01*
X125124571Y-104305952D02*
X125315047Y-104305952D01*
X125315047Y-104305952D02*
X125410285Y-104258333D01*
X125410285Y-104258333D02*
X125457904Y-104210714D01*
X125457904Y-104210714D02*
X125505523Y-104115476D01*
X125505523Y-104115476D02*
X125505523Y-103305952D01*
X125934095Y-103401191D02*
X125981714Y-103353572D01*
X125981714Y-103353572D02*
X126076952Y-103305952D01*
X126076952Y-103305952D02*
X126315047Y-103305952D01*
X126315047Y-103305952D02*
X126410285Y-103353572D01*
X126410285Y-103353572D02*
X126457904Y-103401191D01*
X126457904Y-103401191D02*
X126505523Y-103496429D01*
X126505523Y-103496429D02*
X126505523Y-103591667D01*
X126505523Y-103591667D02*
X126457904Y-103734524D01*
X126457904Y-103734524D02*
X125886476Y-104305952D01*
X125886476Y-104305952D02*
X126505523Y-104305952D01*
%TO.C,R18*%
X152969642Y-101383952D02*
X152636309Y-100907762D01*
X152398214Y-101383952D02*
X152398214Y-100383952D01*
X152398214Y-100383952D02*
X152779166Y-100383952D01*
X152779166Y-100383952D02*
X152874404Y-100431572D01*
X152874404Y-100431572D02*
X152922023Y-100479191D01*
X152922023Y-100479191D02*
X152969642Y-100574429D01*
X152969642Y-100574429D02*
X152969642Y-100717286D01*
X152969642Y-100717286D02*
X152922023Y-100812524D01*
X152922023Y-100812524D02*
X152874404Y-100860143D01*
X152874404Y-100860143D02*
X152779166Y-100907762D01*
X152779166Y-100907762D02*
X152398214Y-100907762D01*
X153922023Y-101383952D02*
X153350595Y-101383952D01*
X153636309Y-101383952D02*
X153636309Y-100383952D01*
X153636309Y-100383952D02*
X153541071Y-100526810D01*
X153541071Y-100526810D02*
X153445833Y-100622048D01*
X153445833Y-100622048D02*
X153350595Y-100669667D01*
X154493452Y-100812524D02*
X154398214Y-100764905D01*
X154398214Y-100764905D02*
X154350595Y-100717286D01*
X154350595Y-100717286D02*
X154302976Y-100622048D01*
X154302976Y-100622048D02*
X154302976Y-100574429D01*
X154302976Y-100574429D02*
X154350595Y-100479191D01*
X154350595Y-100479191D02*
X154398214Y-100431572D01*
X154398214Y-100431572D02*
X154493452Y-100383952D01*
X154493452Y-100383952D02*
X154683928Y-100383952D01*
X154683928Y-100383952D02*
X154779166Y-100431572D01*
X154779166Y-100431572D02*
X154826785Y-100479191D01*
X154826785Y-100479191D02*
X154874404Y-100574429D01*
X154874404Y-100574429D02*
X154874404Y-100622048D01*
X154874404Y-100622048D02*
X154826785Y-100717286D01*
X154826785Y-100717286D02*
X154779166Y-100764905D01*
X154779166Y-100764905D02*
X154683928Y-100812524D01*
X154683928Y-100812524D02*
X154493452Y-100812524D01*
X154493452Y-100812524D02*
X154398214Y-100860143D01*
X154398214Y-100860143D02*
X154350595Y-100907762D01*
X154350595Y-100907762D02*
X154302976Y-101003000D01*
X154302976Y-101003000D02*
X154302976Y-101193476D01*
X154302976Y-101193476D02*
X154350595Y-101288714D01*
X154350595Y-101288714D02*
X154398214Y-101336333D01*
X154398214Y-101336333D02*
X154493452Y-101383952D01*
X154493452Y-101383952D02*
X154683928Y-101383952D01*
X154683928Y-101383952D02*
X154779166Y-101336333D01*
X154779166Y-101336333D02*
X154826785Y-101288714D01*
X154826785Y-101288714D02*
X154874404Y-101193476D01*
X154874404Y-101193476D02*
X154874404Y-101003000D01*
X154874404Y-101003000D02*
X154826785Y-100907762D01*
X154826785Y-100907762D02*
X154779166Y-100860143D01*
X154779166Y-100860143D02*
X154683928Y-100812524D01*
%TO.C,D8*%
X160661905Y-110675952D02*
X160661905Y-109675952D01*
X160661905Y-109675952D02*
X160900000Y-109675952D01*
X160900000Y-109675952D02*
X161042857Y-109723572D01*
X161042857Y-109723572D02*
X161138095Y-109818810D01*
X161138095Y-109818810D02*
X161185714Y-109914048D01*
X161185714Y-109914048D02*
X161233333Y-110104524D01*
X161233333Y-110104524D02*
X161233333Y-110247381D01*
X161233333Y-110247381D02*
X161185714Y-110437857D01*
X161185714Y-110437857D02*
X161138095Y-110533095D01*
X161138095Y-110533095D02*
X161042857Y-110628333D01*
X161042857Y-110628333D02*
X160900000Y-110675952D01*
X160900000Y-110675952D02*
X160661905Y-110675952D01*
X161804762Y-110104524D02*
X161709524Y-110056905D01*
X161709524Y-110056905D02*
X161661905Y-110009286D01*
X161661905Y-110009286D02*
X161614286Y-109914048D01*
X161614286Y-109914048D02*
X161614286Y-109866429D01*
X161614286Y-109866429D02*
X161661905Y-109771191D01*
X161661905Y-109771191D02*
X161709524Y-109723572D01*
X161709524Y-109723572D02*
X161804762Y-109675952D01*
X161804762Y-109675952D02*
X161995238Y-109675952D01*
X161995238Y-109675952D02*
X162090476Y-109723572D01*
X162090476Y-109723572D02*
X162138095Y-109771191D01*
X162138095Y-109771191D02*
X162185714Y-109866429D01*
X162185714Y-109866429D02*
X162185714Y-109914048D01*
X162185714Y-109914048D02*
X162138095Y-110009286D01*
X162138095Y-110009286D02*
X162090476Y-110056905D01*
X162090476Y-110056905D02*
X161995238Y-110104524D01*
X161995238Y-110104524D02*
X161804762Y-110104524D01*
X161804762Y-110104524D02*
X161709524Y-110152143D01*
X161709524Y-110152143D02*
X161661905Y-110199762D01*
X161661905Y-110199762D02*
X161614286Y-110295000D01*
X161614286Y-110295000D02*
X161614286Y-110485476D01*
X161614286Y-110485476D02*
X161661905Y-110580714D01*
X161661905Y-110580714D02*
X161709524Y-110628333D01*
X161709524Y-110628333D02*
X161804762Y-110675952D01*
X161804762Y-110675952D02*
X161995238Y-110675952D01*
X161995238Y-110675952D02*
X162090476Y-110628333D01*
X162090476Y-110628333D02*
X162138095Y-110580714D01*
X162138095Y-110580714D02*
X162185714Y-110485476D01*
X162185714Y-110485476D02*
X162185714Y-110295000D01*
X162185714Y-110295000D02*
X162138095Y-110199762D01*
X162138095Y-110199762D02*
X162090476Y-110152143D01*
X162090476Y-110152143D02*
X161995238Y-110104524D01*
%TO.C,Q1*%
X136304761Y-92062619D02*
X136209523Y-92015000D01*
X136209523Y-92015000D02*
X136114285Y-91919761D01*
X136114285Y-91919761D02*
X135971428Y-91776904D01*
X135971428Y-91776904D02*
X135876190Y-91729285D01*
X135876190Y-91729285D02*
X135780952Y-91729285D01*
X135828571Y-91967380D02*
X135733333Y-91919761D01*
X135733333Y-91919761D02*
X135638095Y-91824523D01*
X135638095Y-91824523D02*
X135590476Y-91634047D01*
X135590476Y-91634047D02*
X135590476Y-91300714D01*
X135590476Y-91300714D02*
X135638095Y-91110238D01*
X135638095Y-91110238D02*
X135733333Y-91015000D01*
X135733333Y-91015000D02*
X135828571Y-90967380D01*
X135828571Y-90967380D02*
X136019047Y-90967380D01*
X136019047Y-90967380D02*
X136114285Y-91015000D01*
X136114285Y-91015000D02*
X136209523Y-91110238D01*
X136209523Y-91110238D02*
X136257142Y-91300714D01*
X136257142Y-91300714D02*
X136257142Y-91634047D01*
X136257142Y-91634047D02*
X136209523Y-91824523D01*
X136209523Y-91824523D02*
X136114285Y-91919761D01*
X136114285Y-91919761D02*
X136019047Y-91967380D01*
X136019047Y-91967380D02*
X135828571Y-91967380D01*
X137209523Y-91967380D02*
X136638095Y-91967380D01*
X136923809Y-91967380D02*
X136923809Y-90967380D01*
X136923809Y-90967380D02*
X136828571Y-91110238D01*
X136828571Y-91110238D02*
X136733333Y-91205476D01*
X136733333Y-91205476D02*
X136638095Y-91253095D01*
%TO.C,D15*%
X128136214Y-87338380D02*
X128136214Y-86338380D01*
X128136214Y-86338380D02*
X128374309Y-86338380D01*
X128374309Y-86338380D02*
X128517166Y-86386000D01*
X128517166Y-86386000D02*
X128612404Y-86481238D01*
X128612404Y-86481238D02*
X128660023Y-86576476D01*
X128660023Y-86576476D02*
X128707642Y-86766952D01*
X128707642Y-86766952D02*
X128707642Y-86909809D01*
X128707642Y-86909809D02*
X128660023Y-87100285D01*
X128660023Y-87100285D02*
X128612404Y-87195523D01*
X128612404Y-87195523D02*
X128517166Y-87290761D01*
X128517166Y-87290761D02*
X128374309Y-87338380D01*
X128374309Y-87338380D02*
X128136214Y-87338380D01*
X129660023Y-87338380D02*
X129088595Y-87338380D01*
X129374309Y-87338380D02*
X129374309Y-86338380D01*
X129374309Y-86338380D02*
X129279071Y-86481238D01*
X129279071Y-86481238D02*
X129183833Y-86576476D01*
X129183833Y-86576476D02*
X129088595Y-86624095D01*
X130564785Y-86338380D02*
X130088595Y-86338380D01*
X130088595Y-86338380D02*
X130040976Y-86814571D01*
X130040976Y-86814571D02*
X130088595Y-86766952D01*
X130088595Y-86766952D02*
X130183833Y-86719333D01*
X130183833Y-86719333D02*
X130421928Y-86719333D01*
X130421928Y-86719333D02*
X130517166Y-86766952D01*
X130517166Y-86766952D02*
X130564785Y-86814571D01*
X130564785Y-86814571D02*
X130612404Y-86909809D01*
X130612404Y-86909809D02*
X130612404Y-87147904D01*
X130612404Y-87147904D02*
X130564785Y-87243142D01*
X130564785Y-87243142D02*
X130517166Y-87290761D01*
X130517166Y-87290761D02*
X130421928Y-87338380D01*
X130421928Y-87338380D02*
X130183833Y-87338380D01*
X130183833Y-87338380D02*
X130088595Y-87290761D01*
X130088595Y-87290761D02*
X130040976Y-87243142D01*
%TO.C,D12*%
X128164714Y-83772380D02*
X128164714Y-82772380D01*
X128164714Y-82772380D02*
X128402809Y-82772380D01*
X128402809Y-82772380D02*
X128545666Y-82820000D01*
X128545666Y-82820000D02*
X128640904Y-82915238D01*
X128640904Y-82915238D02*
X128688523Y-83010476D01*
X128688523Y-83010476D02*
X128736142Y-83200952D01*
X128736142Y-83200952D02*
X128736142Y-83343809D01*
X128736142Y-83343809D02*
X128688523Y-83534285D01*
X128688523Y-83534285D02*
X128640904Y-83629523D01*
X128640904Y-83629523D02*
X128545666Y-83724761D01*
X128545666Y-83724761D02*
X128402809Y-83772380D01*
X128402809Y-83772380D02*
X128164714Y-83772380D01*
X129688523Y-83772380D02*
X129117095Y-83772380D01*
X129402809Y-83772380D02*
X129402809Y-82772380D01*
X129402809Y-82772380D02*
X129307571Y-82915238D01*
X129307571Y-82915238D02*
X129212333Y-83010476D01*
X129212333Y-83010476D02*
X129117095Y-83058095D01*
X130069476Y-82867619D02*
X130117095Y-82820000D01*
X130117095Y-82820000D02*
X130212333Y-82772380D01*
X130212333Y-82772380D02*
X130450428Y-82772380D01*
X130450428Y-82772380D02*
X130545666Y-82820000D01*
X130545666Y-82820000D02*
X130593285Y-82867619D01*
X130593285Y-82867619D02*
X130640904Y-82962857D01*
X130640904Y-82962857D02*
X130640904Y-83058095D01*
X130640904Y-83058095D02*
X130593285Y-83200952D01*
X130593285Y-83200952D02*
X130021857Y-83772380D01*
X130021857Y-83772380D02*
X130640904Y-83772380D01*
%TO.C,J2*%
X160966666Y-113125952D02*
X160966666Y-113840238D01*
X160966666Y-113840238D02*
X160919047Y-113983095D01*
X160919047Y-113983095D02*
X160823809Y-114078333D01*
X160823809Y-114078333D02*
X160680952Y-114125952D01*
X160680952Y-114125952D02*
X160585714Y-114125952D01*
X161395238Y-113221191D02*
X161442857Y-113173572D01*
X161442857Y-113173572D02*
X161538095Y-113125952D01*
X161538095Y-113125952D02*
X161776190Y-113125952D01*
X161776190Y-113125952D02*
X161871428Y-113173572D01*
X161871428Y-113173572D02*
X161919047Y-113221191D01*
X161919047Y-113221191D02*
X161966666Y-113316429D01*
X161966666Y-113316429D02*
X161966666Y-113411667D01*
X161966666Y-113411667D02*
X161919047Y-113554524D01*
X161919047Y-113554524D02*
X161347619Y-114125952D01*
X161347619Y-114125952D02*
X161966666Y-114125952D01*
X160061905Y-123490238D02*
X160538095Y-123490238D01*
X159966667Y-123775952D02*
X160300000Y-122775952D01*
X160300000Y-122775952D02*
X160633333Y-123775952D01*
X160966667Y-123775952D02*
X160966667Y-122775952D01*
X160966667Y-122775952D02*
X161204762Y-122775952D01*
X161204762Y-122775952D02*
X161347619Y-122823572D01*
X161347619Y-122823572D02*
X161442857Y-122918810D01*
X161442857Y-122918810D02*
X161490476Y-123014048D01*
X161490476Y-123014048D02*
X161538095Y-123204524D01*
X161538095Y-123204524D02*
X161538095Y-123347381D01*
X161538095Y-123347381D02*
X161490476Y-123537857D01*
X161490476Y-123537857D02*
X161442857Y-123633095D01*
X161442857Y-123633095D02*
X161347619Y-123728333D01*
X161347619Y-123728333D02*
X161204762Y-123775952D01*
X161204762Y-123775952D02*
X160966667Y-123775952D01*
X162538095Y-123680714D02*
X162490476Y-123728333D01*
X162490476Y-123728333D02*
X162347619Y-123775952D01*
X162347619Y-123775952D02*
X162252381Y-123775952D01*
X162252381Y-123775952D02*
X162109524Y-123728333D01*
X162109524Y-123728333D02*
X162014286Y-123633095D01*
X162014286Y-123633095D02*
X161966667Y-123537857D01*
X161966667Y-123537857D02*
X161919048Y-123347381D01*
X161919048Y-123347381D02*
X161919048Y-123204524D01*
X161919048Y-123204524D02*
X161966667Y-123014048D01*
X161966667Y-123014048D02*
X162014286Y-122918810D01*
X162014286Y-122918810D02*
X162109524Y-122823572D01*
X162109524Y-122823572D02*
X162252381Y-122775952D01*
X162252381Y-122775952D02*
X162347619Y-122775952D01*
X162347619Y-122775952D02*
X162490476Y-122823572D01*
X162490476Y-122823572D02*
X162538095Y-122871191D01*
%TO.C,J3*%
X120266666Y-101975952D02*
X120266666Y-102690238D01*
X120266666Y-102690238D02*
X120219047Y-102833095D01*
X120219047Y-102833095D02*
X120123809Y-102928333D01*
X120123809Y-102928333D02*
X119980952Y-102975952D01*
X119980952Y-102975952D02*
X119885714Y-102975952D01*
X120647619Y-101975952D02*
X121266666Y-101975952D01*
X121266666Y-101975952D02*
X120933333Y-102356905D01*
X120933333Y-102356905D02*
X121076190Y-102356905D01*
X121076190Y-102356905D02*
X121171428Y-102404524D01*
X121171428Y-102404524D02*
X121219047Y-102452143D01*
X121219047Y-102452143D02*
X121266666Y-102547381D01*
X121266666Y-102547381D02*
X121266666Y-102785476D01*
X121266666Y-102785476D02*
X121219047Y-102880714D01*
X121219047Y-102880714D02*
X121171428Y-102928333D01*
X121171428Y-102928333D02*
X121076190Y-102975952D01*
X121076190Y-102975952D02*
X120790476Y-102975952D01*
X120790476Y-102975952D02*
X120695238Y-102928333D01*
X120695238Y-102928333D02*
X120647619Y-102880714D01*
%TO.C,R14*%
X165257142Y-98767380D02*
X164923809Y-98291190D01*
X164685714Y-98767380D02*
X164685714Y-97767380D01*
X164685714Y-97767380D02*
X165066666Y-97767380D01*
X165066666Y-97767380D02*
X165161904Y-97815000D01*
X165161904Y-97815000D02*
X165209523Y-97862619D01*
X165209523Y-97862619D02*
X165257142Y-97957857D01*
X165257142Y-97957857D02*
X165257142Y-98100714D01*
X165257142Y-98100714D02*
X165209523Y-98195952D01*
X165209523Y-98195952D02*
X165161904Y-98243571D01*
X165161904Y-98243571D02*
X165066666Y-98291190D01*
X165066666Y-98291190D02*
X164685714Y-98291190D01*
X166209523Y-98767380D02*
X165638095Y-98767380D01*
X165923809Y-98767380D02*
X165923809Y-97767380D01*
X165923809Y-97767380D02*
X165828571Y-97910238D01*
X165828571Y-97910238D02*
X165733333Y-98005476D01*
X165733333Y-98005476D02*
X165638095Y-98053095D01*
X167066666Y-98100714D02*
X167066666Y-98767380D01*
X166828571Y-97719761D02*
X166590476Y-98434047D01*
X166590476Y-98434047D02*
X167209523Y-98434047D01*
%TO.C,R5*%
X143338333Y-105829952D02*
X143005000Y-105353762D01*
X142766905Y-105829952D02*
X142766905Y-104829952D01*
X142766905Y-104829952D02*
X143147857Y-104829952D01*
X143147857Y-104829952D02*
X143243095Y-104877572D01*
X143243095Y-104877572D02*
X143290714Y-104925191D01*
X143290714Y-104925191D02*
X143338333Y-105020429D01*
X143338333Y-105020429D02*
X143338333Y-105163286D01*
X143338333Y-105163286D02*
X143290714Y-105258524D01*
X143290714Y-105258524D02*
X143243095Y-105306143D01*
X143243095Y-105306143D02*
X143147857Y-105353762D01*
X143147857Y-105353762D02*
X142766905Y-105353762D01*
X144243095Y-104829952D02*
X143766905Y-104829952D01*
X143766905Y-104829952D02*
X143719286Y-105306143D01*
X143719286Y-105306143D02*
X143766905Y-105258524D01*
X143766905Y-105258524D02*
X143862143Y-105210905D01*
X143862143Y-105210905D02*
X144100238Y-105210905D01*
X144100238Y-105210905D02*
X144195476Y-105258524D01*
X144195476Y-105258524D02*
X144243095Y-105306143D01*
X144243095Y-105306143D02*
X144290714Y-105401381D01*
X144290714Y-105401381D02*
X144290714Y-105639476D01*
X144290714Y-105639476D02*
X144243095Y-105734714D01*
X144243095Y-105734714D02*
X144195476Y-105782333D01*
X144195476Y-105782333D02*
X144100238Y-105829952D01*
X144100238Y-105829952D02*
X143862143Y-105829952D01*
X143862143Y-105829952D02*
X143766905Y-105782333D01*
X143766905Y-105782333D02*
X143719286Y-105734714D01*
%TO.C,D9*%
X160661905Y-106975952D02*
X160661905Y-105975952D01*
X160661905Y-105975952D02*
X160900000Y-105975952D01*
X160900000Y-105975952D02*
X161042857Y-106023572D01*
X161042857Y-106023572D02*
X161138095Y-106118810D01*
X161138095Y-106118810D02*
X161185714Y-106214048D01*
X161185714Y-106214048D02*
X161233333Y-106404524D01*
X161233333Y-106404524D02*
X161233333Y-106547381D01*
X161233333Y-106547381D02*
X161185714Y-106737857D01*
X161185714Y-106737857D02*
X161138095Y-106833095D01*
X161138095Y-106833095D02*
X161042857Y-106928333D01*
X161042857Y-106928333D02*
X160900000Y-106975952D01*
X160900000Y-106975952D02*
X160661905Y-106975952D01*
X161709524Y-106975952D02*
X161900000Y-106975952D01*
X161900000Y-106975952D02*
X161995238Y-106928333D01*
X161995238Y-106928333D02*
X162042857Y-106880714D01*
X162042857Y-106880714D02*
X162138095Y-106737857D01*
X162138095Y-106737857D02*
X162185714Y-106547381D01*
X162185714Y-106547381D02*
X162185714Y-106166429D01*
X162185714Y-106166429D02*
X162138095Y-106071191D01*
X162138095Y-106071191D02*
X162090476Y-106023572D01*
X162090476Y-106023572D02*
X161995238Y-105975952D01*
X161995238Y-105975952D02*
X161804762Y-105975952D01*
X161804762Y-105975952D02*
X161709524Y-106023572D01*
X161709524Y-106023572D02*
X161661905Y-106071191D01*
X161661905Y-106071191D02*
X161614286Y-106166429D01*
X161614286Y-106166429D02*
X161614286Y-106404524D01*
X161614286Y-106404524D02*
X161661905Y-106499762D01*
X161661905Y-106499762D02*
X161709524Y-106547381D01*
X161709524Y-106547381D02*
X161804762Y-106595000D01*
X161804762Y-106595000D02*
X161995238Y-106595000D01*
X161995238Y-106595000D02*
X162090476Y-106547381D01*
X162090476Y-106547381D02*
X162138095Y-106499762D01*
X162138095Y-106499762D02*
X162185714Y-106404524D01*
%TO.C,SDA*%
X126285714Y-122819761D02*
X126428571Y-122867380D01*
X126428571Y-122867380D02*
X126666666Y-122867380D01*
X126666666Y-122867380D02*
X126761904Y-122819761D01*
X126761904Y-122819761D02*
X126809523Y-122772142D01*
X126809523Y-122772142D02*
X126857142Y-122676904D01*
X126857142Y-122676904D02*
X126857142Y-122581666D01*
X126857142Y-122581666D02*
X126809523Y-122486428D01*
X126809523Y-122486428D02*
X126761904Y-122438809D01*
X126761904Y-122438809D02*
X126666666Y-122391190D01*
X126666666Y-122391190D02*
X126476190Y-122343571D01*
X126476190Y-122343571D02*
X126380952Y-122295952D01*
X126380952Y-122295952D02*
X126333333Y-122248333D01*
X126333333Y-122248333D02*
X126285714Y-122153095D01*
X126285714Y-122153095D02*
X126285714Y-122057857D01*
X126285714Y-122057857D02*
X126333333Y-121962619D01*
X126333333Y-121962619D02*
X126380952Y-121915000D01*
X126380952Y-121915000D02*
X126476190Y-121867380D01*
X126476190Y-121867380D02*
X126714285Y-121867380D01*
X126714285Y-121867380D02*
X126857142Y-121915000D01*
X127285714Y-122867380D02*
X127285714Y-121867380D01*
X127285714Y-121867380D02*
X127523809Y-121867380D01*
X127523809Y-121867380D02*
X127666666Y-121915000D01*
X127666666Y-121915000D02*
X127761904Y-122010238D01*
X127761904Y-122010238D02*
X127809523Y-122105476D01*
X127809523Y-122105476D02*
X127857142Y-122295952D01*
X127857142Y-122295952D02*
X127857142Y-122438809D01*
X127857142Y-122438809D02*
X127809523Y-122629285D01*
X127809523Y-122629285D02*
X127761904Y-122724523D01*
X127761904Y-122724523D02*
X127666666Y-122819761D01*
X127666666Y-122819761D02*
X127523809Y-122867380D01*
X127523809Y-122867380D02*
X127285714Y-122867380D01*
X128238095Y-122581666D02*
X128714285Y-122581666D01*
X128142857Y-122867380D02*
X128476190Y-121867380D01*
X128476190Y-121867380D02*
X128809523Y-122867380D01*
%TO.C,Q2*%
X137804761Y-103362619D02*
X137709523Y-103315000D01*
X137709523Y-103315000D02*
X137614285Y-103219761D01*
X137614285Y-103219761D02*
X137471428Y-103076904D01*
X137471428Y-103076904D02*
X137376190Y-103029285D01*
X137376190Y-103029285D02*
X137280952Y-103029285D01*
X137328571Y-103267380D02*
X137233333Y-103219761D01*
X137233333Y-103219761D02*
X137138095Y-103124523D01*
X137138095Y-103124523D02*
X137090476Y-102934047D01*
X137090476Y-102934047D02*
X137090476Y-102600714D01*
X137090476Y-102600714D02*
X137138095Y-102410238D01*
X137138095Y-102410238D02*
X137233333Y-102315000D01*
X137233333Y-102315000D02*
X137328571Y-102267380D01*
X137328571Y-102267380D02*
X137519047Y-102267380D01*
X137519047Y-102267380D02*
X137614285Y-102315000D01*
X137614285Y-102315000D02*
X137709523Y-102410238D01*
X137709523Y-102410238D02*
X137757142Y-102600714D01*
X137757142Y-102600714D02*
X137757142Y-102934047D01*
X137757142Y-102934047D02*
X137709523Y-103124523D01*
X137709523Y-103124523D02*
X137614285Y-103219761D01*
X137614285Y-103219761D02*
X137519047Y-103267380D01*
X137519047Y-103267380D02*
X137328571Y-103267380D01*
X138138095Y-102362619D02*
X138185714Y-102315000D01*
X138185714Y-102315000D02*
X138280952Y-102267380D01*
X138280952Y-102267380D02*
X138519047Y-102267380D01*
X138519047Y-102267380D02*
X138614285Y-102315000D01*
X138614285Y-102315000D02*
X138661904Y-102362619D01*
X138661904Y-102362619D02*
X138709523Y-102457857D01*
X138709523Y-102457857D02*
X138709523Y-102553095D01*
X138709523Y-102553095D02*
X138661904Y-102695952D01*
X138661904Y-102695952D02*
X138090476Y-103267380D01*
X138090476Y-103267380D02*
X138709523Y-103267380D01*
%TO.C,C1*%
X164228333Y-107884142D02*
X164180714Y-107931761D01*
X164180714Y-107931761D02*
X164037857Y-107979380D01*
X164037857Y-107979380D02*
X163942619Y-107979380D01*
X163942619Y-107979380D02*
X163799762Y-107931761D01*
X163799762Y-107931761D02*
X163704524Y-107836523D01*
X163704524Y-107836523D02*
X163656905Y-107741285D01*
X163656905Y-107741285D02*
X163609286Y-107550809D01*
X163609286Y-107550809D02*
X163609286Y-107407952D01*
X163609286Y-107407952D02*
X163656905Y-107217476D01*
X163656905Y-107217476D02*
X163704524Y-107122238D01*
X163704524Y-107122238D02*
X163799762Y-107027000D01*
X163799762Y-107027000D02*
X163942619Y-106979380D01*
X163942619Y-106979380D02*
X164037857Y-106979380D01*
X164037857Y-106979380D02*
X164180714Y-107027000D01*
X164180714Y-107027000D02*
X164228333Y-107074619D01*
X165180714Y-107979380D02*
X164609286Y-107979380D01*
X164895000Y-107979380D02*
X164895000Y-106979380D01*
X164895000Y-106979380D02*
X164799762Y-107122238D01*
X164799762Y-107122238D02*
X164704524Y-107217476D01*
X164704524Y-107217476D02*
X164609286Y-107265095D01*
%TO.C,R12*%
X144443142Y-80267380D02*
X144109809Y-79791190D01*
X143871714Y-80267380D02*
X143871714Y-79267380D01*
X143871714Y-79267380D02*
X144252666Y-79267380D01*
X144252666Y-79267380D02*
X144347904Y-79315000D01*
X144347904Y-79315000D02*
X144395523Y-79362619D01*
X144395523Y-79362619D02*
X144443142Y-79457857D01*
X144443142Y-79457857D02*
X144443142Y-79600714D01*
X144443142Y-79600714D02*
X144395523Y-79695952D01*
X144395523Y-79695952D02*
X144347904Y-79743571D01*
X144347904Y-79743571D02*
X144252666Y-79791190D01*
X144252666Y-79791190D02*
X143871714Y-79791190D01*
X145395523Y-80267380D02*
X144824095Y-80267380D01*
X145109809Y-80267380D02*
X145109809Y-79267380D01*
X145109809Y-79267380D02*
X145014571Y-79410238D01*
X145014571Y-79410238D02*
X144919333Y-79505476D01*
X144919333Y-79505476D02*
X144824095Y-79553095D01*
X145776476Y-79362619D02*
X145824095Y-79315000D01*
X145824095Y-79315000D02*
X145919333Y-79267380D01*
X145919333Y-79267380D02*
X146157428Y-79267380D01*
X146157428Y-79267380D02*
X146252666Y-79315000D01*
X146252666Y-79315000D02*
X146300285Y-79362619D01*
X146300285Y-79362619D02*
X146347904Y-79457857D01*
X146347904Y-79457857D02*
X146347904Y-79553095D01*
X146347904Y-79553095D02*
X146300285Y-79695952D01*
X146300285Y-79695952D02*
X145728857Y-80267380D01*
X145728857Y-80267380D02*
X146347904Y-80267380D01*
%TO.C,R6*%
X143233333Y-93267380D02*
X142900000Y-92791190D01*
X142661905Y-93267380D02*
X142661905Y-92267380D01*
X142661905Y-92267380D02*
X143042857Y-92267380D01*
X143042857Y-92267380D02*
X143138095Y-92315000D01*
X143138095Y-92315000D02*
X143185714Y-92362619D01*
X143185714Y-92362619D02*
X143233333Y-92457857D01*
X143233333Y-92457857D02*
X143233333Y-92600714D01*
X143233333Y-92600714D02*
X143185714Y-92695952D01*
X143185714Y-92695952D02*
X143138095Y-92743571D01*
X143138095Y-92743571D02*
X143042857Y-92791190D01*
X143042857Y-92791190D02*
X142661905Y-92791190D01*
X144090476Y-92267380D02*
X143900000Y-92267380D01*
X143900000Y-92267380D02*
X143804762Y-92315000D01*
X143804762Y-92315000D02*
X143757143Y-92362619D01*
X143757143Y-92362619D02*
X143661905Y-92505476D01*
X143661905Y-92505476D02*
X143614286Y-92695952D01*
X143614286Y-92695952D02*
X143614286Y-93076904D01*
X143614286Y-93076904D02*
X143661905Y-93172142D01*
X143661905Y-93172142D02*
X143709524Y-93219761D01*
X143709524Y-93219761D02*
X143804762Y-93267380D01*
X143804762Y-93267380D02*
X143995238Y-93267380D01*
X143995238Y-93267380D02*
X144090476Y-93219761D01*
X144090476Y-93219761D02*
X144138095Y-93172142D01*
X144138095Y-93172142D02*
X144185714Y-93076904D01*
X144185714Y-93076904D02*
X144185714Y-92838809D01*
X144185714Y-92838809D02*
X144138095Y-92743571D01*
X144138095Y-92743571D02*
X144090476Y-92695952D01*
X144090476Y-92695952D02*
X143995238Y-92648333D01*
X143995238Y-92648333D02*
X143804762Y-92648333D01*
X143804762Y-92648333D02*
X143709524Y-92695952D01*
X143709524Y-92695952D02*
X143661905Y-92743571D01*
X143661905Y-92743571D02*
X143614286Y-92838809D01*
%TO.C,Q3*%
X136426761Y-81089691D02*
X136331523Y-81042072D01*
X136331523Y-81042072D02*
X136236285Y-80946833D01*
X136236285Y-80946833D02*
X136093428Y-80803976D01*
X136093428Y-80803976D02*
X135998190Y-80756357D01*
X135998190Y-80756357D02*
X135902952Y-80756357D01*
X135950571Y-80994452D02*
X135855333Y-80946833D01*
X135855333Y-80946833D02*
X135760095Y-80851595D01*
X135760095Y-80851595D02*
X135712476Y-80661119D01*
X135712476Y-80661119D02*
X135712476Y-80327786D01*
X135712476Y-80327786D02*
X135760095Y-80137310D01*
X135760095Y-80137310D02*
X135855333Y-80042072D01*
X135855333Y-80042072D02*
X135950571Y-79994452D01*
X135950571Y-79994452D02*
X136141047Y-79994452D01*
X136141047Y-79994452D02*
X136236285Y-80042072D01*
X136236285Y-80042072D02*
X136331523Y-80137310D01*
X136331523Y-80137310D02*
X136379142Y-80327786D01*
X136379142Y-80327786D02*
X136379142Y-80661119D01*
X136379142Y-80661119D02*
X136331523Y-80851595D01*
X136331523Y-80851595D02*
X136236285Y-80946833D01*
X136236285Y-80946833D02*
X136141047Y-80994452D01*
X136141047Y-80994452D02*
X135950571Y-80994452D01*
X136712476Y-79994452D02*
X137331523Y-79994452D01*
X137331523Y-79994452D02*
X136998190Y-80375405D01*
X136998190Y-80375405D02*
X137141047Y-80375405D01*
X137141047Y-80375405D02*
X137236285Y-80423024D01*
X137236285Y-80423024D02*
X137283904Y-80470643D01*
X137283904Y-80470643D02*
X137331523Y-80565881D01*
X137331523Y-80565881D02*
X137331523Y-80803976D01*
X137331523Y-80803976D02*
X137283904Y-80899214D01*
X137283904Y-80899214D02*
X137236285Y-80946833D01*
X137236285Y-80946833D02*
X137141047Y-80994452D01*
X137141047Y-80994452D02*
X136855333Y-80994452D01*
X136855333Y-80994452D02*
X136760095Y-80946833D01*
X136760095Y-80946833D02*
X136712476Y-80899214D01*
%TO.C,GND*%
X121938095Y-76215000D02*
X121842857Y-76167380D01*
X121842857Y-76167380D02*
X121700000Y-76167380D01*
X121700000Y-76167380D02*
X121557143Y-76215000D01*
X121557143Y-76215000D02*
X121461905Y-76310238D01*
X121461905Y-76310238D02*
X121414286Y-76405476D01*
X121414286Y-76405476D02*
X121366667Y-76595952D01*
X121366667Y-76595952D02*
X121366667Y-76738809D01*
X121366667Y-76738809D02*
X121414286Y-76929285D01*
X121414286Y-76929285D02*
X121461905Y-77024523D01*
X121461905Y-77024523D02*
X121557143Y-77119761D01*
X121557143Y-77119761D02*
X121700000Y-77167380D01*
X121700000Y-77167380D02*
X121795238Y-77167380D01*
X121795238Y-77167380D02*
X121938095Y-77119761D01*
X121938095Y-77119761D02*
X121985714Y-77072142D01*
X121985714Y-77072142D02*
X121985714Y-76738809D01*
X121985714Y-76738809D02*
X121795238Y-76738809D01*
X122414286Y-77167380D02*
X122414286Y-76167380D01*
X122414286Y-76167380D02*
X122985714Y-77167380D01*
X122985714Y-77167380D02*
X122985714Y-76167380D01*
X123461905Y-77167380D02*
X123461905Y-76167380D01*
X123461905Y-76167380D02*
X123700000Y-76167380D01*
X123700000Y-76167380D02*
X123842857Y-76215000D01*
X123842857Y-76215000D02*
X123938095Y-76310238D01*
X123938095Y-76310238D02*
X123985714Y-76405476D01*
X123985714Y-76405476D02*
X124033333Y-76595952D01*
X124033333Y-76595952D02*
X124033333Y-76738809D01*
X124033333Y-76738809D02*
X123985714Y-76929285D01*
X123985714Y-76929285D02*
X123938095Y-77024523D01*
X123938095Y-77024523D02*
X123842857Y-77119761D01*
X123842857Y-77119761D02*
X123700000Y-77167380D01*
X123700000Y-77167380D02*
X123461905Y-77167380D01*
%TO.C,R13*%
X165257142Y-101367380D02*
X164923809Y-100891190D01*
X164685714Y-101367380D02*
X164685714Y-100367380D01*
X164685714Y-100367380D02*
X165066666Y-100367380D01*
X165066666Y-100367380D02*
X165161904Y-100415000D01*
X165161904Y-100415000D02*
X165209523Y-100462619D01*
X165209523Y-100462619D02*
X165257142Y-100557857D01*
X165257142Y-100557857D02*
X165257142Y-100700714D01*
X165257142Y-100700714D02*
X165209523Y-100795952D01*
X165209523Y-100795952D02*
X165161904Y-100843571D01*
X165161904Y-100843571D02*
X165066666Y-100891190D01*
X165066666Y-100891190D02*
X164685714Y-100891190D01*
X166209523Y-101367380D02*
X165638095Y-101367380D01*
X165923809Y-101367380D02*
X165923809Y-100367380D01*
X165923809Y-100367380D02*
X165828571Y-100510238D01*
X165828571Y-100510238D02*
X165733333Y-100605476D01*
X165733333Y-100605476D02*
X165638095Y-100653095D01*
X166542857Y-100367380D02*
X167161904Y-100367380D01*
X167161904Y-100367380D02*
X166828571Y-100748333D01*
X166828571Y-100748333D02*
X166971428Y-100748333D01*
X166971428Y-100748333D02*
X167066666Y-100795952D01*
X167066666Y-100795952D02*
X167114285Y-100843571D01*
X167114285Y-100843571D02*
X167161904Y-100938809D01*
X167161904Y-100938809D02*
X167161904Y-101176904D01*
X167161904Y-101176904D02*
X167114285Y-101272142D01*
X167114285Y-101272142D02*
X167066666Y-101319761D01*
X167066666Y-101319761D02*
X166971428Y-101367380D01*
X166971428Y-101367380D02*
X166685714Y-101367380D01*
X166685714Y-101367380D02*
X166590476Y-101319761D01*
X166590476Y-101319761D02*
X166542857Y-101272142D01*
%TO.C,R17*%
X153016642Y-104968952D02*
X152683309Y-104492762D01*
X152445214Y-104968952D02*
X152445214Y-103968952D01*
X152445214Y-103968952D02*
X152826166Y-103968952D01*
X152826166Y-103968952D02*
X152921404Y-104016572D01*
X152921404Y-104016572D02*
X152969023Y-104064191D01*
X152969023Y-104064191D02*
X153016642Y-104159429D01*
X153016642Y-104159429D02*
X153016642Y-104302286D01*
X153016642Y-104302286D02*
X152969023Y-104397524D01*
X152969023Y-104397524D02*
X152921404Y-104445143D01*
X152921404Y-104445143D02*
X152826166Y-104492762D01*
X152826166Y-104492762D02*
X152445214Y-104492762D01*
X153969023Y-104968952D02*
X153397595Y-104968952D01*
X153683309Y-104968952D02*
X153683309Y-103968952D01*
X153683309Y-103968952D02*
X153588071Y-104111810D01*
X153588071Y-104111810D02*
X153492833Y-104207048D01*
X153492833Y-104207048D02*
X153397595Y-104254667D01*
X154302357Y-103968952D02*
X154969023Y-103968952D01*
X154969023Y-103968952D02*
X154540452Y-104968952D01*
%TO.C,R16*%
X153016642Y-108495952D02*
X152683309Y-108019762D01*
X152445214Y-108495952D02*
X152445214Y-107495952D01*
X152445214Y-107495952D02*
X152826166Y-107495952D01*
X152826166Y-107495952D02*
X152921404Y-107543572D01*
X152921404Y-107543572D02*
X152969023Y-107591191D01*
X152969023Y-107591191D02*
X153016642Y-107686429D01*
X153016642Y-107686429D02*
X153016642Y-107829286D01*
X153016642Y-107829286D02*
X152969023Y-107924524D01*
X152969023Y-107924524D02*
X152921404Y-107972143D01*
X152921404Y-107972143D02*
X152826166Y-108019762D01*
X152826166Y-108019762D02*
X152445214Y-108019762D01*
X153969023Y-108495952D02*
X153397595Y-108495952D01*
X153683309Y-108495952D02*
X153683309Y-107495952D01*
X153683309Y-107495952D02*
X153588071Y-107638810D01*
X153588071Y-107638810D02*
X153492833Y-107734048D01*
X153492833Y-107734048D02*
X153397595Y-107781667D01*
X154826166Y-107495952D02*
X154635690Y-107495952D01*
X154635690Y-107495952D02*
X154540452Y-107543572D01*
X154540452Y-107543572D02*
X154492833Y-107591191D01*
X154492833Y-107591191D02*
X154397595Y-107734048D01*
X154397595Y-107734048D02*
X154349976Y-107924524D01*
X154349976Y-107924524D02*
X154349976Y-108305476D01*
X154349976Y-108305476D02*
X154397595Y-108400714D01*
X154397595Y-108400714D02*
X154445214Y-108448333D01*
X154445214Y-108448333D02*
X154540452Y-108495952D01*
X154540452Y-108495952D02*
X154730928Y-108495952D01*
X154730928Y-108495952D02*
X154826166Y-108448333D01*
X154826166Y-108448333D02*
X154873785Y-108400714D01*
X154873785Y-108400714D02*
X154921404Y-108305476D01*
X154921404Y-108305476D02*
X154921404Y-108067381D01*
X154921404Y-108067381D02*
X154873785Y-107972143D01*
X154873785Y-107972143D02*
X154826166Y-107924524D01*
X154826166Y-107924524D02*
X154730928Y-107876905D01*
X154730928Y-107876905D02*
X154540452Y-107876905D01*
X154540452Y-107876905D02*
X154445214Y-107924524D01*
X154445214Y-107924524D02*
X154397595Y-107972143D01*
X154397595Y-107972143D02*
X154349976Y-108067381D01*
%TO.C,Q4*%
X137803261Y-85659619D02*
X137708023Y-85612000D01*
X137708023Y-85612000D02*
X137612785Y-85516761D01*
X137612785Y-85516761D02*
X137469928Y-85373904D01*
X137469928Y-85373904D02*
X137374690Y-85326285D01*
X137374690Y-85326285D02*
X137279452Y-85326285D01*
X137327071Y-85564380D02*
X137231833Y-85516761D01*
X137231833Y-85516761D02*
X137136595Y-85421523D01*
X137136595Y-85421523D02*
X137088976Y-85231047D01*
X137088976Y-85231047D02*
X137088976Y-84897714D01*
X137088976Y-84897714D02*
X137136595Y-84707238D01*
X137136595Y-84707238D02*
X137231833Y-84612000D01*
X137231833Y-84612000D02*
X137327071Y-84564380D01*
X137327071Y-84564380D02*
X137517547Y-84564380D01*
X137517547Y-84564380D02*
X137612785Y-84612000D01*
X137612785Y-84612000D02*
X137708023Y-84707238D01*
X137708023Y-84707238D02*
X137755642Y-84897714D01*
X137755642Y-84897714D02*
X137755642Y-85231047D01*
X137755642Y-85231047D02*
X137708023Y-85421523D01*
X137708023Y-85421523D02*
X137612785Y-85516761D01*
X137612785Y-85516761D02*
X137517547Y-85564380D01*
X137517547Y-85564380D02*
X137327071Y-85564380D01*
X138612785Y-84897714D02*
X138612785Y-85564380D01*
X138374690Y-84516761D02*
X138136595Y-85231047D01*
X138136595Y-85231047D02*
X138755642Y-85231047D01*
%TO.C,R9*%
X140388333Y-96050952D02*
X140055000Y-95574762D01*
X139816905Y-96050952D02*
X139816905Y-95050952D01*
X139816905Y-95050952D02*
X140197857Y-95050952D01*
X140197857Y-95050952D02*
X140293095Y-95098572D01*
X140293095Y-95098572D02*
X140340714Y-95146191D01*
X140340714Y-95146191D02*
X140388333Y-95241429D01*
X140388333Y-95241429D02*
X140388333Y-95384286D01*
X140388333Y-95384286D02*
X140340714Y-95479524D01*
X140340714Y-95479524D02*
X140293095Y-95527143D01*
X140293095Y-95527143D02*
X140197857Y-95574762D01*
X140197857Y-95574762D02*
X139816905Y-95574762D01*
X140864524Y-96050952D02*
X141055000Y-96050952D01*
X141055000Y-96050952D02*
X141150238Y-96003333D01*
X141150238Y-96003333D02*
X141197857Y-95955714D01*
X141197857Y-95955714D02*
X141293095Y-95812857D01*
X141293095Y-95812857D02*
X141340714Y-95622381D01*
X141340714Y-95622381D02*
X141340714Y-95241429D01*
X141340714Y-95241429D02*
X141293095Y-95146191D01*
X141293095Y-95146191D02*
X141245476Y-95098572D01*
X141245476Y-95098572D02*
X141150238Y-95050952D01*
X141150238Y-95050952D02*
X140959762Y-95050952D01*
X140959762Y-95050952D02*
X140864524Y-95098572D01*
X140864524Y-95098572D02*
X140816905Y-95146191D01*
X140816905Y-95146191D02*
X140769286Y-95241429D01*
X140769286Y-95241429D02*
X140769286Y-95479524D01*
X140769286Y-95479524D02*
X140816905Y-95574762D01*
X140816905Y-95574762D02*
X140864524Y-95622381D01*
X140864524Y-95622381D02*
X140959762Y-95670000D01*
X140959762Y-95670000D02*
X141150238Y-95670000D01*
X141150238Y-95670000D02*
X141245476Y-95622381D01*
X141245476Y-95622381D02*
X141293095Y-95574762D01*
X141293095Y-95574762D02*
X141340714Y-95479524D01*
%TO.C,R11*%
X144484142Y-82394380D02*
X144150809Y-81918190D01*
X143912714Y-82394380D02*
X143912714Y-81394380D01*
X143912714Y-81394380D02*
X144293666Y-81394380D01*
X144293666Y-81394380D02*
X144388904Y-81442000D01*
X144388904Y-81442000D02*
X144436523Y-81489619D01*
X144436523Y-81489619D02*
X144484142Y-81584857D01*
X144484142Y-81584857D02*
X144484142Y-81727714D01*
X144484142Y-81727714D02*
X144436523Y-81822952D01*
X144436523Y-81822952D02*
X144388904Y-81870571D01*
X144388904Y-81870571D02*
X144293666Y-81918190D01*
X144293666Y-81918190D02*
X143912714Y-81918190D01*
X145436523Y-82394380D02*
X144865095Y-82394380D01*
X145150809Y-82394380D02*
X145150809Y-81394380D01*
X145150809Y-81394380D02*
X145055571Y-81537238D01*
X145055571Y-81537238D02*
X144960333Y-81632476D01*
X144960333Y-81632476D02*
X144865095Y-81680095D01*
X146388904Y-82394380D02*
X145817476Y-82394380D01*
X146103190Y-82394380D02*
X146103190Y-81394380D01*
X146103190Y-81394380D02*
X146007952Y-81537238D01*
X146007952Y-81537238D02*
X145912714Y-81632476D01*
X145912714Y-81632476D02*
X145817476Y-81680095D01*
%TO.C,D5*%
X182061905Y-100829880D02*
X182061905Y-99829880D01*
X182061905Y-99829880D02*
X182300000Y-99829880D01*
X182300000Y-99829880D02*
X182442857Y-99877500D01*
X182442857Y-99877500D02*
X182538095Y-99972738D01*
X182538095Y-99972738D02*
X182585714Y-100067976D01*
X182585714Y-100067976D02*
X182633333Y-100258452D01*
X182633333Y-100258452D02*
X182633333Y-100401309D01*
X182633333Y-100401309D02*
X182585714Y-100591785D01*
X182585714Y-100591785D02*
X182538095Y-100687023D01*
X182538095Y-100687023D02*
X182442857Y-100782261D01*
X182442857Y-100782261D02*
X182300000Y-100829880D01*
X182300000Y-100829880D02*
X182061905Y-100829880D01*
X183538095Y-99829880D02*
X183061905Y-99829880D01*
X183061905Y-99829880D02*
X183014286Y-100306071D01*
X183014286Y-100306071D02*
X183061905Y-100258452D01*
X183061905Y-100258452D02*
X183157143Y-100210833D01*
X183157143Y-100210833D02*
X183395238Y-100210833D01*
X183395238Y-100210833D02*
X183490476Y-100258452D01*
X183490476Y-100258452D02*
X183538095Y-100306071D01*
X183538095Y-100306071D02*
X183585714Y-100401309D01*
X183585714Y-100401309D02*
X183585714Y-100639404D01*
X183585714Y-100639404D02*
X183538095Y-100734642D01*
X183538095Y-100734642D02*
X183490476Y-100782261D01*
X183490476Y-100782261D02*
X183395238Y-100829880D01*
X183395238Y-100829880D02*
X183157143Y-100829880D01*
X183157143Y-100829880D02*
X183061905Y-100782261D01*
X183061905Y-100782261D02*
X183014286Y-100734642D01*
%TO.C,REF\u002A\u002A*%
X168838094Y-91516460D02*
X168504761Y-91040270D01*
X168266666Y-91516460D02*
X168266666Y-90516460D01*
X168266666Y-90516460D02*
X168647618Y-90516460D01*
X168647618Y-90516460D02*
X168742856Y-90564080D01*
X168742856Y-90564080D02*
X168790475Y-90611699D01*
X168790475Y-90611699D02*
X168838094Y-90706937D01*
X168838094Y-90706937D02*
X168838094Y-90849794D01*
X168838094Y-90849794D02*
X168790475Y-90945032D01*
X168790475Y-90945032D02*
X168742856Y-90992651D01*
X168742856Y-90992651D02*
X168647618Y-91040270D01*
X168647618Y-91040270D02*
X168266666Y-91040270D01*
X169695237Y-91516460D02*
X169695237Y-90992651D01*
X169695237Y-90992651D02*
X169647618Y-90897413D01*
X169647618Y-90897413D02*
X169552380Y-90849794D01*
X169552380Y-90849794D02*
X169361904Y-90849794D01*
X169361904Y-90849794D02*
X169266666Y-90897413D01*
X169695237Y-91468841D02*
X169599999Y-91516460D01*
X169599999Y-91516460D02*
X169361904Y-91516460D01*
X169361904Y-91516460D02*
X169266666Y-91468841D01*
X169266666Y-91468841D02*
X169219047Y-91373603D01*
X169219047Y-91373603D02*
X169219047Y-91278365D01*
X169219047Y-91278365D02*
X169266666Y-91183127D01*
X169266666Y-91183127D02*
X169361904Y-91135508D01*
X169361904Y-91135508D02*
X169599999Y-91135508D01*
X169599999Y-91135508D02*
X169695237Y-91087889D01*
X170599999Y-91516460D02*
X170599999Y-90516460D01*
X170599999Y-91468841D02*
X170504761Y-91516460D01*
X170504761Y-91516460D02*
X170314285Y-91516460D01*
X170314285Y-91516460D02*
X170219047Y-91468841D01*
X170219047Y-91468841D02*
X170171428Y-91421222D01*
X170171428Y-91421222D02*
X170123809Y-91325984D01*
X170123809Y-91325984D02*
X170123809Y-91040270D01*
X170123809Y-91040270D02*
X170171428Y-90945032D01*
X170171428Y-90945032D02*
X170219047Y-90897413D01*
X170219047Y-90897413D02*
X170314285Y-90849794D01*
X170314285Y-90849794D02*
X170504761Y-90849794D01*
X170504761Y-90849794D02*
X170599999Y-90897413D01*
X171076190Y-91516460D02*
X171076190Y-90849794D01*
X171076190Y-90516460D02*
X171028571Y-90564080D01*
X171028571Y-90564080D02*
X171076190Y-90611699D01*
X171076190Y-90611699D02*
X171123809Y-90564080D01*
X171123809Y-90564080D02*
X171076190Y-90516460D01*
X171076190Y-90516460D02*
X171076190Y-90611699D01*
X171695237Y-91516460D02*
X171599999Y-91468841D01*
X171599999Y-91468841D02*
X171552380Y-91421222D01*
X171552380Y-91421222D02*
X171504761Y-91325984D01*
X171504761Y-91325984D02*
X171504761Y-91040270D01*
X171504761Y-91040270D02*
X171552380Y-90945032D01*
X171552380Y-90945032D02*
X171599999Y-90897413D01*
X171599999Y-90897413D02*
X171695237Y-90849794D01*
X171695237Y-90849794D02*
X171838094Y-90849794D01*
X171838094Y-90849794D02*
X171933332Y-90897413D01*
X171933332Y-90897413D02*
X171980951Y-90945032D01*
X171980951Y-90945032D02*
X172028570Y-91040270D01*
X172028570Y-91040270D02*
X172028570Y-91325984D01*
X172028570Y-91325984D02*
X171980951Y-91421222D01*
X171980951Y-91421222D02*
X171933332Y-91468841D01*
X171933332Y-91468841D02*
X171838094Y-91516460D01*
X171838094Y-91516460D02*
X171695237Y-91516460D01*
X172838094Y-91468841D02*
X172742856Y-91516460D01*
X172742856Y-91516460D02*
X172552380Y-91516460D01*
X172552380Y-91516460D02*
X172457142Y-91468841D01*
X172457142Y-91468841D02*
X172409523Y-91373603D01*
X172409523Y-91373603D02*
X172409523Y-90992651D01*
X172409523Y-90992651D02*
X172457142Y-90897413D01*
X172457142Y-90897413D02*
X172552380Y-90849794D01*
X172552380Y-90849794D02*
X172742856Y-90849794D01*
X172742856Y-90849794D02*
X172838094Y-90897413D01*
X172838094Y-90897413D02*
X172885713Y-90992651D01*
X172885713Y-90992651D02*
X172885713Y-91087889D01*
X172885713Y-91087889D02*
X172409523Y-91183127D01*
X173457142Y-91516460D02*
X173361904Y-91468841D01*
X173361904Y-91468841D02*
X173314285Y-91373603D01*
X173314285Y-91373603D02*
X173314285Y-90516460D01*
X173695238Y-90849794D02*
X174076190Y-90849794D01*
X173838095Y-91516460D02*
X173838095Y-90659318D01*
X173838095Y-90659318D02*
X173885714Y-90564080D01*
X173885714Y-90564080D02*
X173980952Y-90516460D01*
X173980952Y-90516460D02*
X174076190Y-90516460D01*
%TO.C,J4*%
X179666666Y-113067380D02*
X179666666Y-113781666D01*
X179666666Y-113781666D02*
X179619047Y-113924523D01*
X179619047Y-113924523D02*
X179523809Y-114019761D01*
X179523809Y-114019761D02*
X179380952Y-114067380D01*
X179380952Y-114067380D02*
X179285714Y-114067380D01*
X180571428Y-113400714D02*
X180571428Y-114067380D01*
X180333333Y-113019761D02*
X180095238Y-113734047D01*
X180095238Y-113734047D02*
X180714285Y-113734047D01*
X188967380Y-120784762D02*
X187967380Y-120784762D01*
X187967380Y-120784762D02*
X187967380Y-120403810D01*
X187967380Y-120403810D02*
X188015000Y-120308572D01*
X188015000Y-120308572D02*
X188062619Y-120260953D01*
X188062619Y-120260953D02*
X188157857Y-120213334D01*
X188157857Y-120213334D02*
X188300714Y-120213334D01*
X188300714Y-120213334D02*
X188395952Y-120260953D01*
X188395952Y-120260953D02*
X188443571Y-120308572D01*
X188443571Y-120308572D02*
X188491190Y-120403810D01*
X188491190Y-120403810D02*
X188491190Y-120784762D01*
X188967380Y-119641905D02*
X188919761Y-119737143D01*
X188919761Y-119737143D02*
X188872142Y-119784762D01*
X188872142Y-119784762D02*
X188776904Y-119832381D01*
X188776904Y-119832381D02*
X188491190Y-119832381D01*
X188491190Y-119832381D02*
X188395952Y-119784762D01*
X188395952Y-119784762D02*
X188348333Y-119737143D01*
X188348333Y-119737143D02*
X188300714Y-119641905D01*
X188300714Y-119641905D02*
X188300714Y-119499048D01*
X188300714Y-119499048D02*
X188348333Y-119403810D01*
X188348333Y-119403810D02*
X188395952Y-119356191D01*
X188395952Y-119356191D02*
X188491190Y-119308572D01*
X188491190Y-119308572D02*
X188776904Y-119308572D01*
X188776904Y-119308572D02*
X188872142Y-119356191D01*
X188872142Y-119356191D02*
X188919761Y-119403810D01*
X188919761Y-119403810D02*
X188967380Y-119499048D01*
X188967380Y-119499048D02*
X188967380Y-119641905D01*
X188300714Y-118975238D02*
X188967380Y-118784762D01*
X188967380Y-118784762D02*
X188491190Y-118594286D01*
X188491190Y-118594286D02*
X188967380Y-118403810D01*
X188967380Y-118403810D02*
X188300714Y-118213334D01*
X188919761Y-117451429D02*
X188967380Y-117546667D01*
X188967380Y-117546667D02*
X188967380Y-117737143D01*
X188967380Y-117737143D02*
X188919761Y-117832381D01*
X188919761Y-117832381D02*
X188824523Y-117880000D01*
X188824523Y-117880000D02*
X188443571Y-117880000D01*
X188443571Y-117880000D02*
X188348333Y-117832381D01*
X188348333Y-117832381D02*
X188300714Y-117737143D01*
X188300714Y-117737143D02*
X188300714Y-117546667D01*
X188300714Y-117546667D02*
X188348333Y-117451429D01*
X188348333Y-117451429D02*
X188443571Y-117403810D01*
X188443571Y-117403810D02*
X188538809Y-117403810D01*
X188538809Y-117403810D02*
X188634047Y-117880000D01*
X188967380Y-116975238D02*
X188300714Y-116975238D01*
X188491190Y-116975238D02*
X188395952Y-116927619D01*
X188395952Y-116927619D02*
X188348333Y-116880000D01*
X188348333Y-116880000D02*
X188300714Y-116784762D01*
X188300714Y-116784762D02*
X188300714Y-116689524D01*
%TO.C,D14*%
X128164714Y-90960380D02*
X128164714Y-89960380D01*
X128164714Y-89960380D02*
X128402809Y-89960380D01*
X128402809Y-89960380D02*
X128545666Y-90008000D01*
X128545666Y-90008000D02*
X128640904Y-90103238D01*
X128640904Y-90103238D02*
X128688523Y-90198476D01*
X128688523Y-90198476D02*
X128736142Y-90388952D01*
X128736142Y-90388952D02*
X128736142Y-90531809D01*
X128736142Y-90531809D02*
X128688523Y-90722285D01*
X128688523Y-90722285D02*
X128640904Y-90817523D01*
X128640904Y-90817523D02*
X128545666Y-90912761D01*
X128545666Y-90912761D02*
X128402809Y-90960380D01*
X128402809Y-90960380D02*
X128164714Y-90960380D01*
X129688523Y-90960380D02*
X129117095Y-90960380D01*
X129402809Y-90960380D02*
X129402809Y-89960380D01*
X129402809Y-89960380D02*
X129307571Y-90103238D01*
X129307571Y-90103238D02*
X129212333Y-90198476D01*
X129212333Y-90198476D02*
X129117095Y-90246095D01*
X130545666Y-90293714D02*
X130545666Y-90960380D01*
X130307571Y-89912761D02*
X130069476Y-90627047D01*
X130069476Y-90627047D02*
X130688523Y-90627047D01*
%TO.C,R2*%
X123514333Y-86378380D02*
X123181000Y-85902190D01*
X122942905Y-86378380D02*
X122942905Y-85378380D01*
X122942905Y-85378380D02*
X123323857Y-85378380D01*
X123323857Y-85378380D02*
X123419095Y-85426000D01*
X123419095Y-85426000D02*
X123466714Y-85473619D01*
X123466714Y-85473619D02*
X123514333Y-85568857D01*
X123514333Y-85568857D02*
X123514333Y-85711714D01*
X123514333Y-85711714D02*
X123466714Y-85806952D01*
X123466714Y-85806952D02*
X123419095Y-85854571D01*
X123419095Y-85854571D02*
X123323857Y-85902190D01*
X123323857Y-85902190D02*
X122942905Y-85902190D01*
X123895286Y-85473619D02*
X123942905Y-85426000D01*
X123942905Y-85426000D02*
X124038143Y-85378380D01*
X124038143Y-85378380D02*
X124276238Y-85378380D01*
X124276238Y-85378380D02*
X124371476Y-85426000D01*
X124371476Y-85426000D02*
X124419095Y-85473619D01*
X124419095Y-85473619D02*
X124466714Y-85568857D01*
X124466714Y-85568857D02*
X124466714Y-85664095D01*
X124466714Y-85664095D02*
X124419095Y-85806952D01*
X124419095Y-85806952D02*
X123847667Y-86378380D01*
X123847667Y-86378380D02*
X124466714Y-86378380D01*
%TO.C,D6*%
X187867380Y-109838094D02*
X186867380Y-109838094D01*
X186867380Y-109838094D02*
X186867380Y-109599999D01*
X186867380Y-109599999D02*
X186915000Y-109457142D01*
X186915000Y-109457142D02*
X187010238Y-109361904D01*
X187010238Y-109361904D02*
X187105476Y-109314285D01*
X187105476Y-109314285D02*
X187295952Y-109266666D01*
X187295952Y-109266666D02*
X187438809Y-109266666D01*
X187438809Y-109266666D02*
X187629285Y-109314285D01*
X187629285Y-109314285D02*
X187724523Y-109361904D01*
X187724523Y-109361904D02*
X187819761Y-109457142D01*
X187819761Y-109457142D02*
X187867380Y-109599999D01*
X187867380Y-109599999D02*
X187867380Y-109838094D01*
X186867380Y-108409523D02*
X186867380Y-108599999D01*
X186867380Y-108599999D02*
X186915000Y-108695237D01*
X186915000Y-108695237D02*
X186962619Y-108742856D01*
X186962619Y-108742856D02*
X187105476Y-108838094D01*
X187105476Y-108838094D02*
X187295952Y-108885713D01*
X187295952Y-108885713D02*
X187676904Y-108885713D01*
X187676904Y-108885713D02*
X187772142Y-108838094D01*
X187772142Y-108838094D02*
X187819761Y-108790475D01*
X187819761Y-108790475D02*
X187867380Y-108695237D01*
X187867380Y-108695237D02*
X187867380Y-108504761D01*
X187867380Y-108504761D02*
X187819761Y-108409523D01*
X187819761Y-108409523D02*
X187772142Y-108361904D01*
X187772142Y-108361904D02*
X187676904Y-108314285D01*
X187676904Y-108314285D02*
X187438809Y-108314285D01*
X187438809Y-108314285D02*
X187343571Y-108361904D01*
X187343571Y-108361904D02*
X187295952Y-108409523D01*
X187295952Y-108409523D02*
X187248333Y-108504761D01*
X187248333Y-108504761D02*
X187248333Y-108695237D01*
X187248333Y-108695237D02*
X187295952Y-108790475D01*
X187295952Y-108790475D02*
X187343571Y-108838094D01*
X187343571Y-108838094D02*
X187438809Y-108885713D01*
%TO.C,R7*%
X144296833Y-78167380D02*
X143963500Y-77691190D01*
X143725405Y-78167380D02*
X143725405Y-77167380D01*
X143725405Y-77167380D02*
X144106357Y-77167380D01*
X144106357Y-77167380D02*
X144201595Y-77215000D01*
X144201595Y-77215000D02*
X144249214Y-77262619D01*
X144249214Y-77262619D02*
X144296833Y-77357857D01*
X144296833Y-77357857D02*
X144296833Y-77500714D01*
X144296833Y-77500714D02*
X144249214Y-77595952D01*
X144249214Y-77595952D02*
X144201595Y-77643571D01*
X144201595Y-77643571D02*
X144106357Y-77691190D01*
X144106357Y-77691190D02*
X143725405Y-77691190D01*
X144630167Y-77167380D02*
X145296833Y-77167380D01*
X145296833Y-77167380D02*
X144868262Y-78167380D01*
%TO.C,+5V*%
X120014286Y-122486428D02*
X120776191Y-122486428D01*
X120395238Y-122867380D02*
X120395238Y-122105476D01*
X121728571Y-121867380D02*
X121252381Y-121867380D01*
X121252381Y-121867380D02*
X121204762Y-122343571D01*
X121204762Y-122343571D02*
X121252381Y-122295952D01*
X121252381Y-122295952D02*
X121347619Y-122248333D01*
X121347619Y-122248333D02*
X121585714Y-122248333D01*
X121585714Y-122248333D02*
X121680952Y-122295952D01*
X121680952Y-122295952D02*
X121728571Y-122343571D01*
X121728571Y-122343571D02*
X121776190Y-122438809D01*
X121776190Y-122438809D02*
X121776190Y-122676904D01*
X121776190Y-122676904D02*
X121728571Y-122772142D01*
X121728571Y-122772142D02*
X121680952Y-122819761D01*
X121680952Y-122819761D02*
X121585714Y-122867380D01*
X121585714Y-122867380D02*
X121347619Y-122867380D01*
X121347619Y-122867380D02*
X121252381Y-122819761D01*
X121252381Y-122819761D02*
X121204762Y-122772142D01*
X122061905Y-121867380D02*
X122395238Y-122867380D01*
X122395238Y-122867380D02*
X122728571Y-121867380D01*
%TO.C,TXD*%
X129538095Y-76167380D02*
X130109523Y-76167380D01*
X129823809Y-77167380D02*
X129823809Y-76167380D01*
X130347619Y-76167380D02*
X131014285Y-77167380D01*
X131014285Y-76167380D02*
X130347619Y-77167380D01*
X131395238Y-77167380D02*
X131395238Y-76167380D01*
X131395238Y-76167380D02*
X131633333Y-76167380D01*
X131633333Y-76167380D02*
X131776190Y-76215000D01*
X131776190Y-76215000D02*
X131871428Y-76310238D01*
X131871428Y-76310238D02*
X131919047Y-76405476D01*
X131919047Y-76405476D02*
X131966666Y-76595952D01*
X131966666Y-76595952D02*
X131966666Y-76738809D01*
X131966666Y-76738809D02*
X131919047Y-76929285D01*
X131919047Y-76929285D02*
X131871428Y-77024523D01*
X131871428Y-77024523D02*
X131776190Y-77119761D01*
X131776190Y-77119761D02*
X131633333Y-77167380D01*
X131633333Y-77167380D02*
X131395238Y-77167380D01*
%TO.C,D11*%
X160685714Y-99975952D02*
X160685714Y-98975952D01*
X160685714Y-98975952D02*
X160923809Y-98975952D01*
X160923809Y-98975952D02*
X161066666Y-99023572D01*
X161066666Y-99023572D02*
X161161904Y-99118810D01*
X161161904Y-99118810D02*
X161209523Y-99214048D01*
X161209523Y-99214048D02*
X161257142Y-99404524D01*
X161257142Y-99404524D02*
X161257142Y-99547381D01*
X161257142Y-99547381D02*
X161209523Y-99737857D01*
X161209523Y-99737857D02*
X161161904Y-99833095D01*
X161161904Y-99833095D02*
X161066666Y-99928333D01*
X161066666Y-99928333D02*
X160923809Y-99975952D01*
X160923809Y-99975952D02*
X160685714Y-99975952D01*
X162209523Y-99975952D02*
X161638095Y-99975952D01*
X161923809Y-99975952D02*
X161923809Y-98975952D01*
X161923809Y-98975952D02*
X161828571Y-99118810D01*
X161828571Y-99118810D02*
X161733333Y-99214048D01*
X161733333Y-99214048D02*
X161638095Y-99261667D01*
X163161904Y-99975952D02*
X162590476Y-99975952D01*
X162876190Y-99975952D02*
X162876190Y-98975952D01*
X162876190Y-98975952D02*
X162780952Y-99118810D01*
X162780952Y-99118810D02*
X162685714Y-99214048D01*
X162685714Y-99214048D02*
X162590476Y-99261667D01*
%TO.C,R8*%
X140538333Y-87067380D02*
X140205000Y-86591190D01*
X139966905Y-87067380D02*
X139966905Y-86067380D01*
X139966905Y-86067380D02*
X140347857Y-86067380D01*
X140347857Y-86067380D02*
X140443095Y-86115000D01*
X140443095Y-86115000D02*
X140490714Y-86162619D01*
X140490714Y-86162619D02*
X140538333Y-86257857D01*
X140538333Y-86257857D02*
X140538333Y-86400714D01*
X140538333Y-86400714D02*
X140490714Y-86495952D01*
X140490714Y-86495952D02*
X140443095Y-86543571D01*
X140443095Y-86543571D02*
X140347857Y-86591190D01*
X140347857Y-86591190D02*
X139966905Y-86591190D01*
X141109762Y-86495952D02*
X141014524Y-86448333D01*
X141014524Y-86448333D02*
X140966905Y-86400714D01*
X140966905Y-86400714D02*
X140919286Y-86305476D01*
X140919286Y-86305476D02*
X140919286Y-86257857D01*
X140919286Y-86257857D02*
X140966905Y-86162619D01*
X140966905Y-86162619D02*
X141014524Y-86115000D01*
X141014524Y-86115000D02*
X141109762Y-86067380D01*
X141109762Y-86067380D02*
X141300238Y-86067380D01*
X141300238Y-86067380D02*
X141395476Y-86115000D01*
X141395476Y-86115000D02*
X141443095Y-86162619D01*
X141443095Y-86162619D02*
X141490714Y-86257857D01*
X141490714Y-86257857D02*
X141490714Y-86305476D01*
X141490714Y-86305476D02*
X141443095Y-86400714D01*
X141443095Y-86400714D02*
X141395476Y-86448333D01*
X141395476Y-86448333D02*
X141300238Y-86495952D01*
X141300238Y-86495952D02*
X141109762Y-86495952D01*
X141109762Y-86495952D02*
X141014524Y-86543571D01*
X141014524Y-86543571D02*
X140966905Y-86591190D01*
X140966905Y-86591190D02*
X140919286Y-86686428D01*
X140919286Y-86686428D02*
X140919286Y-86876904D01*
X140919286Y-86876904D02*
X140966905Y-86972142D01*
X140966905Y-86972142D02*
X141014524Y-87019761D01*
X141014524Y-87019761D02*
X141109762Y-87067380D01*
X141109762Y-87067380D02*
X141300238Y-87067380D01*
X141300238Y-87067380D02*
X141395476Y-87019761D01*
X141395476Y-87019761D02*
X141443095Y-86972142D01*
X141443095Y-86972142D02*
X141490714Y-86876904D01*
X141490714Y-86876904D02*
X141490714Y-86686428D01*
X141490714Y-86686428D02*
X141443095Y-86591190D01*
X141443095Y-86591190D02*
X141395476Y-86543571D01*
X141395476Y-86543571D02*
X141300238Y-86495952D01*
%TO.C,D10*%
X160585714Y-103675952D02*
X160585714Y-102675952D01*
X160585714Y-102675952D02*
X160823809Y-102675952D01*
X160823809Y-102675952D02*
X160966666Y-102723572D01*
X160966666Y-102723572D02*
X161061904Y-102818810D01*
X161061904Y-102818810D02*
X161109523Y-102914048D01*
X161109523Y-102914048D02*
X161157142Y-103104524D01*
X161157142Y-103104524D02*
X161157142Y-103247381D01*
X161157142Y-103247381D02*
X161109523Y-103437857D01*
X161109523Y-103437857D02*
X161061904Y-103533095D01*
X161061904Y-103533095D02*
X160966666Y-103628333D01*
X160966666Y-103628333D02*
X160823809Y-103675952D01*
X160823809Y-103675952D02*
X160585714Y-103675952D01*
X162109523Y-103675952D02*
X161538095Y-103675952D01*
X161823809Y-103675952D02*
X161823809Y-102675952D01*
X161823809Y-102675952D02*
X161728571Y-102818810D01*
X161728571Y-102818810D02*
X161633333Y-102914048D01*
X161633333Y-102914048D02*
X161538095Y-102961667D01*
X162728571Y-102675952D02*
X162823809Y-102675952D01*
X162823809Y-102675952D02*
X162919047Y-102723572D01*
X162919047Y-102723572D02*
X162966666Y-102771191D01*
X162966666Y-102771191D02*
X163014285Y-102866429D01*
X163014285Y-102866429D02*
X163061904Y-103056905D01*
X163061904Y-103056905D02*
X163061904Y-103295000D01*
X163061904Y-103295000D02*
X163014285Y-103485476D01*
X163014285Y-103485476D02*
X162966666Y-103580714D01*
X162966666Y-103580714D02*
X162919047Y-103628333D01*
X162919047Y-103628333D02*
X162823809Y-103675952D01*
X162823809Y-103675952D02*
X162728571Y-103675952D01*
X162728571Y-103675952D02*
X162633333Y-103628333D01*
X162633333Y-103628333D02*
X162585714Y-103580714D01*
X162585714Y-103580714D02*
X162538095Y-103485476D01*
X162538095Y-103485476D02*
X162490476Y-103295000D01*
X162490476Y-103295000D02*
X162490476Y-103056905D01*
X162490476Y-103056905D02*
X162538095Y-102866429D01*
X162538095Y-102866429D02*
X162585714Y-102771191D01*
X162585714Y-102771191D02*
X162633333Y-102723572D01*
X162633333Y-102723572D02*
X162728571Y-102675952D01*
%TO.C,J1*%
X120366666Y-80367380D02*
X120366666Y-81081666D01*
X120366666Y-81081666D02*
X120319047Y-81224523D01*
X120319047Y-81224523D02*
X120223809Y-81319761D01*
X120223809Y-81319761D02*
X120080952Y-81367380D01*
X120080952Y-81367380D02*
X119985714Y-81367380D01*
X121366666Y-81367380D02*
X120795238Y-81367380D01*
X121080952Y-81367380D02*
X121080952Y-80367380D01*
X121080952Y-80367380D02*
X120985714Y-80510238D01*
X120985714Y-80510238D02*
X120890476Y-80605476D01*
X120890476Y-80605476D02*
X120795238Y-80653095D01*
%TO.C,R15*%
X153016642Y-112051952D02*
X152683309Y-111575762D01*
X152445214Y-112051952D02*
X152445214Y-111051952D01*
X152445214Y-111051952D02*
X152826166Y-111051952D01*
X152826166Y-111051952D02*
X152921404Y-111099572D01*
X152921404Y-111099572D02*
X152969023Y-111147191D01*
X152969023Y-111147191D02*
X153016642Y-111242429D01*
X153016642Y-111242429D02*
X153016642Y-111385286D01*
X153016642Y-111385286D02*
X152969023Y-111480524D01*
X152969023Y-111480524D02*
X152921404Y-111528143D01*
X152921404Y-111528143D02*
X152826166Y-111575762D01*
X152826166Y-111575762D02*
X152445214Y-111575762D01*
X153969023Y-112051952D02*
X153397595Y-112051952D01*
X153683309Y-112051952D02*
X153683309Y-111051952D01*
X153683309Y-111051952D02*
X153588071Y-111194810D01*
X153588071Y-111194810D02*
X153492833Y-111290048D01*
X153492833Y-111290048D02*
X153397595Y-111337667D01*
X154873785Y-111051952D02*
X154397595Y-111051952D01*
X154397595Y-111051952D02*
X154349976Y-111528143D01*
X154349976Y-111528143D02*
X154397595Y-111480524D01*
X154397595Y-111480524D02*
X154492833Y-111432905D01*
X154492833Y-111432905D02*
X154730928Y-111432905D01*
X154730928Y-111432905D02*
X154826166Y-111480524D01*
X154826166Y-111480524D02*
X154873785Y-111528143D01*
X154873785Y-111528143D02*
X154921404Y-111623381D01*
X154921404Y-111623381D02*
X154921404Y-111861476D01*
X154921404Y-111861476D02*
X154873785Y-111956714D01*
X154873785Y-111956714D02*
X154826166Y-112004333D01*
X154826166Y-112004333D02*
X154730928Y-112051952D01*
X154730928Y-112051952D02*
X154492833Y-112051952D01*
X154492833Y-112051952D02*
X154397595Y-112004333D01*
X154397595Y-112004333D02*
X154349976Y-111956714D01*
%TO.C,C4*%
X183033333Y-102422142D02*
X182985714Y-102469761D01*
X182985714Y-102469761D02*
X182842857Y-102517380D01*
X182842857Y-102517380D02*
X182747619Y-102517380D01*
X182747619Y-102517380D02*
X182604762Y-102469761D01*
X182604762Y-102469761D02*
X182509524Y-102374523D01*
X182509524Y-102374523D02*
X182461905Y-102279285D01*
X182461905Y-102279285D02*
X182414286Y-102088809D01*
X182414286Y-102088809D02*
X182414286Y-101945952D01*
X182414286Y-101945952D02*
X182461905Y-101755476D01*
X182461905Y-101755476D02*
X182509524Y-101660238D01*
X182509524Y-101660238D02*
X182604762Y-101565000D01*
X182604762Y-101565000D02*
X182747619Y-101517380D01*
X182747619Y-101517380D02*
X182842857Y-101517380D01*
X182842857Y-101517380D02*
X182985714Y-101565000D01*
X182985714Y-101565000D02*
X183033333Y-101612619D01*
X183890476Y-101850714D02*
X183890476Y-102517380D01*
X183652381Y-101469761D02*
X183414286Y-102184047D01*
X183414286Y-102184047D02*
X184033333Y-102184047D01*
%TO.C,C2*%
X168333333Y-113372142D02*
X168285714Y-113419761D01*
X168285714Y-113419761D02*
X168142857Y-113467380D01*
X168142857Y-113467380D02*
X168047619Y-113467380D01*
X168047619Y-113467380D02*
X167904762Y-113419761D01*
X167904762Y-113419761D02*
X167809524Y-113324523D01*
X167809524Y-113324523D02*
X167761905Y-113229285D01*
X167761905Y-113229285D02*
X167714286Y-113038809D01*
X167714286Y-113038809D02*
X167714286Y-112895952D01*
X167714286Y-112895952D02*
X167761905Y-112705476D01*
X167761905Y-112705476D02*
X167809524Y-112610238D01*
X167809524Y-112610238D02*
X167904762Y-112515000D01*
X167904762Y-112515000D02*
X168047619Y-112467380D01*
X168047619Y-112467380D02*
X168142857Y-112467380D01*
X168142857Y-112467380D02*
X168285714Y-112515000D01*
X168285714Y-112515000D02*
X168333333Y-112562619D01*
X168714286Y-112562619D02*
X168761905Y-112515000D01*
X168761905Y-112515000D02*
X168857143Y-112467380D01*
X168857143Y-112467380D02*
X169095238Y-112467380D01*
X169095238Y-112467380D02*
X169190476Y-112515000D01*
X169190476Y-112515000D02*
X169238095Y-112562619D01*
X169238095Y-112562619D02*
X169285714Y-112657857D01*
X169285714Y-112657857D02*
X169285714Y-112753095D01*
X169285714Y-112753095D02*
X169238095Y-112895952D01*
X169238095Y-112895952D02*
X168666667Y-113467380D01*
X168666667Y-113467380D02*
X169285714Y-113467380D01*
%TO.C,U1*%
X185838095Y-97367380D02*
X185838095Y-98176904D01*
X185838095Y-98176904D02*
X185885714Y-98272142D01*
X185885714Y-98272142D02*
X185933333Y-98319761D01*
X185933333Y-98319761D02*
X186028571Y-98367380D01*
X186028571Y-98367380D02*
X186219047Y-98367380D01*
X186219047Y-98367380D02*
X186314285Y-98319761D01*
X186314285Y-98319761D02*
X186361904Y-98272142D01*
X186361904Y-98272142D02*
X186409523Y-98176904D01*
X186409523Y-98176904D02*
X186409523Y-97367380D01*
X187409523Y-98367380D02*
X186838095Y-98367380D01*
X187123809Y-98367380D02*
X187123809Y-97367380D01*
X187123809Y-97367380D02*
X187028571Y-97510238D01*
X187028571Y-97510238D02*
X186933333Y-97605476D01*
X186933333Y-97605476D02*
X186838095Y-97653095D01*
X163776190Y-74943571D02*
X164109523Y-74943571D01*
X164252380Y-75467380D02*
X163776190Y-75467380D01*
X163776190Y-75467380D02*
X163776190Y-74467380D01*
X163776190Y-74467380D02*
X164252380Y-74467380D01*
X164633333Y-74562619D02*
X164680952Y-74515000D01*
X164680952Y-74515000D02*
X164776190Y-74467380D01*
X164776190Y-74467380D02*
X165014285Y-74467380D01*
X165014285Y-74467380D02*
X165109523Y-74515000D01*
X165109523Y-74515000D02*
X165157142Y-74562619D01*
X165157142Y-74562619D02*
X165204761Y-74657857D01*
X165204761Y-74657857D02*
X165204761Y-74753095D01*
X165204761Y-74753095D02*
X165157142Y-74895952D01*
X165157142Y-74895952D02*
X164585714Y-75467380D01*
X164585714Y-75467380D02*
X165204761Y-75467380D01*
X165585714Y-74562619D02*
X165633333Y-74515000D01*
X165633333Y-74515000D02*
X165728571Y-74467380D01*
X165728571Y-74467380D02*
X165966666Y-74467380D01*
X165966666Y-74467380D02*
X166061904Y-74515000D01*
X166061904Y-74515000D02*
X166109523Y-74562619D01*
X166109523Y-74562619D02*
X166157142Y-74657857D01*
X166157142Y-74657857D02*
X166157142Y-74753095D01*
X166157142Y-74753095D02*
X166109523Y-74895952D01*
X166109523Y-74895952D02*
X165538095Y-75467380D01*
X165538095Y-75467380D02*
X166157142Y-75467380D01*
X166776190Y-74467380D02*
X166871428Y-74467380D01*
X166871428Y-74467380D02*
X166966666Y-74515000D01*
X166966666Y-74515000D02*
X167014285Y-74562619D01*
X167014285Y-74562619D02*
X167061904Y-74657857D01*
X167061904Y-74657857D02*
X167109523Y-74848333D01*
X167109523Y-74848333D02*
X167109523Y-75086428D01*
X167109523Y-75086428D02*
X167061904Y-75276904D01*
X167061904Y-75276904D02*
X167014285Y-75372142D01*
X167014285Y-75372142D02*
X166966666Y-75419761D01*
X166966666Y-75419761D02*
X166871428Y-75467380D01*
X166871428Y-75467380D02*
X166776190Y-75467380D01*
X166776190Y-75467380D02*
X166680952Y-75419761D01*
X166680952Y-75419761D02*
X166633333Y-75372142D01*
X166633333Y-75372142D02*
X166585714Y-75276904D01*
X166585714Y-75276904D02*
X166538095Y-75086428D01*
X166538095Y-75086428D02*
X166538095Y-74848333D01*
X166538095Y-74848333D02*
X166585714Y-74657857D01*
X166585714Y-74657857D02*
X166633333Y-74562619D01*
X166633333Y-74562619D02*
X166680952Y-74515000D01*
X166680952Y-74515000D02*
X166776190Y-74467380D01*
X167538095Y-75086428D02*
X168300000Y-75086428D01*
X168919047Y-74895952D02*
X168823809Y-74848333D01*
X168823809Y-74848333D02*
X168776190Y-74800714D01*
X168776190Y-74800714D02*
X168728571Y-74705476D01*
X168728571Y-74705476D02*
X168728571Y-74657857D01*
X168728571Y-74657857D02*
X168776190Y-74562619D01*
X168776190Y-74562619D02*
X168823809Y-74515000D01*
X168823809Y-74515000D02*
X168919047Y-74467380D01*
X168919047Y-74467380D02*
X169109523Y-74467380D01*
X169109523Y-74467380D02*
X169204761Y-74515000D01*
X169204761Y-74515000D02*
X169252380Y-74562619D01*
X169252380Y-74562619D02*
X169299999Y-74657857D01*
X169299999Y-74657857D02*
X169299999Y-74705476D01*
X169299999Y-74705476D02*
X169252380Y-74800714D01*
X169252380Y-74800714D02*
X169204761Y-74848333D01*
X169204761Y-74848333D02*
X169109523Y-74895952D01*
X169109523Y-74895952D02*
X168919047Y-74895952D01*
X168919047Y-74895952D02*
X168823809Y-74943571D01*
X168823809Y-74943571D02*
X168776190Y-74991190D01*
X168776190Y-74991190D02*
X168728571Y-75086428D01*
X168728571Y-75086428D02*
X168728571Y-75276904D01*
X168728571Y-75276904D02*
X168776190Y-75372142D01*
X168776190Y-75372142D02*
X168823809Y-75419761D01*
X168823809Y-75419761D02*
X168919047Y-75467380D01*
X168919047Y-75467380D02*
X169109523Y-75467380D01*
X169109523Y-75467380D02*
X169204761Y-75419761D01*
X169204761Y-75419761D02*
X169252380Y-75372142D01*
X169252380Y-75372142D02*
X169299999Y-75276904D01*
X169299999Y-75276904D02*
X169299999Y-75086428D01*
X169299999Y-75086428D02*
X169252380Y-74991190D01*
X169252380Y-74991190D02*
X169204761Y-74943571D01*
X169204761Y-74943571D02*
X169109523Y-74895952D01*
X170157142Y-74467380D02*
X169966666Y-74467380D01*
X169966666Y-74467380D02*
X169871428Y-74515000D01*
X169871428Y-74515000D02*
X169823809Y-74562619D01*
X169823809Y-74562619D02*
X169728571Y-74705476D01*
X169728571Y-74705476D02*
X169680952Y-74895952D01*
X169680952Y-74895952D02*
X169680952Y-75276904D01*
X169680952Y-75276904D02*
X169728571Y-75372142D01*
X169728571Y-75372142D02*
X169776190Y-75419761D01*
X169776190Y-75419761D02*
X169871428Y-75467380D01*
X169871428Y-75467380D02*
X170061904Y-75467380D01*
X170061904Y-75467380D02*
X170157142Y-75419761D01*
X170157142Y-75419761D02*
X170204761Y-75372142D01*
X170204761Y-75372142D02*
X170252380Y-75276904D01*
X170252380Y-75276904D02*
X170252380Y-75038809D01*
X170252380Y-75038809D02*
X170204761Y-74943571D01*
X170204761Y-74943571D02*
X170157142Y-74895952D01*
X170157142Y-74895952D02*
X170061904Y-74848333D01*
X170061904Y-74848333D02*
X169871428Y-74848333D01*
X169871428Y-74848333D02*
X169776190Y-74895952D01*
X169776190Y-74895952D02*
X169728571Y-74943571D01*
X169728571Y-74943571D02*
X169680952Y-75038809D01*
X170823809Y-74895952D02*
X170728571Y-74848333D01*
X170728571Y-74848333D02*
X170680952Y-74800714D01*
X170680952Y-74800714D02*
X170633333Y-74705476D01*
X170633333Y-74705476D02*
X170633333Y-74657857D01*
X170633333Y-74657857D02*
X170680952Y-74562619D01*
X170680952Y-74562619D02*
X170728571Y-74515000D01*
X170728571Y-74515000D02*
X170823809Y-74467380D01*
X170823809Y-74467380D02*
X171014285Y-74467380D01*
X171014285Y-74467380D02*
X171109523Y-74515000D01*
X171109523Y-74515000D02*
X171157142Y-74562619D01*
X171157142Y-74562619D02*
X171204761Y-74657857D01*
X171204761Y-74657857D02*
X171204761Y-74705476D01*
X171204761Y-74705476D02*
X171157142Y-74800714D01*
X171157142Y-74800714D02*
X171109523Y-74848333D01*
X171109523Y-74848333D02*
X171014285Y-74895952D01*
X171014285Y-74895952D02*
X170823809Y-74895952D01*
X170823809Y-74895952D02*
X170728571Y-74943571D01*
X170728571Y-74943571D02*
X170680952Y-74991190D01*
X170680952Y-74991190D02*
X170633333Y-75086428D01*
X170633333Y-75086428D02*
X170633333Y-75276904D01*
X170633333Y-75276904D02*
X170680952Y-75372142D01*
X170680952Y-75372142D02*
X170728571Y-75419761D01*
X170728571Y-75419761D02*
X170823809Y-75467380D01*
X170823809Y-75467380D02*
X171014285Y-75467380D01*
X171014285Y-75467380D02*
X171109523Y-75419761D01*
X171109523Y-75419761D02*
X171157142Y-75372142D01*
X171157142Y-75372142D02*
X171204761Y-75276904D01*
X171204761Y-75276904D02*
X171204761Y-75086428D01*
X171204761Y-75086428D02*
X171157142Y-74991190D01*
X171157142Y-74991190D02*
X171109523Y-74943571D01*
X171109523Y-74943571D02*
X171014285Y-74895952D01*
X171490476Y-74467380D02*
X172061904Y-74467380D01*
X171776190Y-75467380D02*
X171776190Y-74467380D01*
X172347619Y-74562619D02*
X172395238Y-74515000D01*
X172395238Y-74515000D02*
X172490476Y-74467380D01*
X172490476Y-74467380D02*
X172728571Y-74467380D01*
X172728571Y-74467380D02*
X172823809Y-74515000D01*
X172823809Y-74515000D02*
X172871428Y-74562619D01*
X172871428Y-74562619D02*
X172919047Y-74657857D01*
X172919047Y-74657857D02*
X172919047Y-74753095D01*
X172919047Y-74753095D02*
X172871428Y-74895952D01*
X172871428Y-74895952D02*
X172300000Y-75467380D01*
X172300000Y-75467380D02*
X172919047Y-75467380D01*
X173300000Y-74562619D02*
X173347619Y-74515000D01*
X173347619Y-74515000D02*
X173442857Y-74467380D01*
X173442857Y-74467380D02*
X173680952Y-74467380D01*
X173680952Y-74467380D02*
X173776190Y-74515000D01*
X173776190Y-74515000D02*
X173823809Y-74562619D01*
X173823809Y-74562619D02*
X173871428Y-74657857D01*
X173871428Y-74657857D02*
X173871428Y-74753095D01*
X173871428Y-74753095D02*
X173823809Y-74895952D01*
X173823809Y-74895952D02*
X173252381Y-75467380D01*
X173252381Y-75467380D02*
X173871428Y-75467380D01*
X174300000Y-75467380D02*
X174300000Y-74467380D01*
X174300000Y-74467380D02*
X174538095Y-74467380D01*
X174538095Y-74467380D02*
X174680952Y-74515000D01*
X174680952Y-74515000D02*
X174776190Y-74610238D01*
X174776190Y-74610238D02*
X174823809Y-74705476D01*
X174823809Y-74705476D02*
X174871428Y-74895952D01*
X174871428Y-74895952D02*
X174871428Y-75038809D01*
X174871428Y-75038809D02*
X174823809Y-75229285D01*
X174823809Y-75229285D02*
X174776190Y-75324523D01*
X174776190Y-75324523D02*
X174680952Y-75419761D01*
X174680952Y-75419761D02*
X174538095Y-75467380D01*
X174538095Y-75467380D02*
X174300000Y-75467380D01*
X191324143Y-91981666D02*
X191800333Y-91981666D01*
X191228905Y-92267380D02*
X191562238Y-91267380D01*
X191562238Y-91267380D02*
X191895571Y-92267380D01*
X192228905Y-92267380D02*
X192228905Y-91267380D01*
X192228905Y-91267380D02*
X192800333Y-92267380D01*
X192800333Y-92267380D02*
X192800333Y-91267380D01*
X193133667Y-91267380D02*
X193705095Y-91267380D01*
X193419381Y-92267380D02*
X193419381Y-91267380D01*
%TO.C,D13*%
X128164714Y-94465380D02*
X128164714Y-93465380D01*
X128164714Y-93465380D02*
X128402809Y-93465380D01*
X128402809Y-93465380D02*
X128545666Y-93513000D01*
X128545666Y-93513000D02*
X128640904Y-93608238D01*
X128640904Y-93608238D02*
X128688523Y-93703476D01*
X128688523Y-93703476D02*
X128736142Y-93893952D01*
X128736142Y-93893952D02*
X128736142Y-94036809D01*
X128736142Y-94036809D02*
X128688523Y-94227285D01*
X128688523Y-94227285D02*
X128640904Y-94322523D01*
X128640904Y-94322523D02*
X128545666Y-94417761D01*
X128545666Y-94417761D02*
X128402809Y-94465380D01*
X128402809Y-94465380D02*
X128164714Y-94465380D01*
X129688523Y-94465380D02*
X129117095Y-94465380D01*
X129402809Y-94465380D02*
X129402809Y-93465380D01*
X129402809Y-93465380D02*
X129307571Y-93608238D01*
X129307571Y-93608238D02*
X129212333Y-93703476D01*
X129212333Y-93703476D02*
X129117095Y-93751095D01*
X130021857Y-93465380D02*
X130640904Y-93465380D01*
X130640904Y-93465380D02*
X130307571Y-93846333D01*
X130307571Y-93846333D02*
X130450428Y-93846333D01*
X130450428Y-93846333D02*
X130545666Y-93893952D01*
X130545666Y-93893952D02*
X130593285Y-93941571D01*
X130593285Y-93941571D02*
X130640904Y-94036809D01*
X130640904Y-94036809D02*
X130640904Y-94274904D01*
X130640904Y-94274904D02*
X130593285Y-94370142D01*
X130593285Y-94370142D02*
X130545666Y-94417761D01*
X130545666Y-94417761D02*
X130450428Y-94465380D01*
X130450428Y-94465380D02*
X130164714Y-94465380D01*
X130164714Y-94465380D02*
X130069476Y-94417761D01*
X130069476Y-94417761D02*
X130021857Y-94370142D01*
%TO.C,GND*%
X130038095Y-121915000D02*
X129942857Y-121867380D01*
X129942857Y-121867380D02*
X129800000Y-121867380D01*
X129800000Y-121867380D02*
X129657143Y-121915000D01*
X129657143Y-121915000D02*
X129561905Y-122010238D01*
X129561905Y-122010238D02*
X129514286Y-122105476D01*
X129514286Y-122105476D02*
X129466667Y-122295952D01*
X129466667Y-122295952D02*
X129466667Y-122438809D01*
X129466667Y-122438809D02*
X129514286Y-122629285D01*
X129514286Y-122629285D02*
X129561905Y-122724523D01*
X129561905Y-122724523D02*
X129657143Y-122819761D01*
X129657143Y-122819761D02*
X129800000Y-122867380D01*
X129800000Y-122867380D02*
X129895238Y-122867380D01*
X129895238Y-122867380D02*
X130038095Y-122819761D01*
X130038095Y-122819761D02*
X130085714Y-122772142D01*
X130085714Y-122772142D02*
X130085714Y-122438809D01*
X130085714Y-122438809D02*
X129895238Y-122438809D01*
X130514286Y-122867380D02*
X130514286Y-121867380D01*
X130514286Y-121867380D02*
X131085714Y-122867380D01*
X131085714Y-122867380D02*
X131085714Y-121867380D01*
X131561905Y-122867380D02*
X131561905Y-121867380D01*
X131561905Y-121867380D02*
X131800000Y-121867380D01*
X131800000Y-121867380D02*
X131942857Y-121915000D01*
X131942857Y-121915000D02*
X132038095Y-122010238D01*
X132038095Y-122010238D02*
X132085714Y-122105476D01*
X132085714Y-122105476D02*
X132133333Y-122295952D01*
X132133333Y-122295952D02*
X132133333Y-122438809D01*
X132133333Y-122438809D02*
X132085714Y-122629285D01*
X132085714Y-122629285D02*
X132038095Y-122724523D01*
X132038095Y-122724523D02*
X131942857Y-122819761D01*
X131942857Y-122819761D02*
X131800000Y-122867380D01*
X131800000Y-122867380D02*
X131561905Y-122867380D01*
%TO.C,R4*%
X123870333Y-93251380D02*
X123537000Y-92775190D01*
X123298905Y-93251380D02*
X123298905Y-92251380D01*
X123298905Y-92251380D02*
X123679857Y-92251380D01*
X123679857Y-92251380D02*
X123775095Y-92299000D01*
X123775095Y-92299000D02*
X123822714Y-92346619D01*
X123822714Y-92346619D02*
X123870333Y-92441857D01*
X123870333Y-92441857D02*
X123870333Y-92584714D01*
X123870333Y-92584714D02*
X123822714Y-92679952D01*
X123822714Y-92679952D02*
X123775095Y-92727571D01*
X123775095Y-92727571D02*
X123679857Y-92775190D01*
X123679857Y-92775190D02*
X123298905Y-92775190D01*
X124727476Y-92584714D02*
X124727476Y-93251380D01*
X124489381Y-92203761D02*
X124251286Y-92918047D01*
X124251286Y-92918047D02*
X124870333Y-92918047D01*
%TO.C,SCL*%
X123309524Y-122819761D02*
X123452381Y-122867380D01*
X123452381Y-122867380D02*
X123690476Y-122867380D01*
X123690476Y-122867380D02*
X123785714Y-122819761D01*
X123785714Y-122819761D02*
X123833333Y-122772142D01*
X123833333Y-122772142D02*
X123880952Y-122676904D01*
X123880952Y-122676904D02*
X123880952Y-122581666D01*
X123880952Y-122581666D02*
X123833333Y-122486428D01*
X123833333Y-122486428D02*
X123785714Y-122438809D01*
X123785714Y-122438809D02*
X123690476Y-122391190D01*
X123690476Y-122391190D02*
X123500000Y-122343571D01*
X123500000Y-122343571D02*
X123404762Y-122295952D01*
X123404762Y-122295952D02*
X123357143Y-122248333D01*
X123357143Y-122248333D02*
X123309524Y-122153095D01*
X123309524Y-122153095D02*
X123309524Y-122057857D01*
X123309524Y-122057857D02*
X123357143Y-121962619D01*
X123357143Y-121962619D02*
X123404762Y-121915000D01*
X123404762Y-121915000D02*
X123500000Y-121867380D01*
X123500000Y-121867380D02*
X123738095Y-121867380D01*
X123738095Y-121867380D02*
X123880952Y-121915000D01*
X124880952Y-122772142D02*
X124833333Y-122819761D01*
X124833333Y-122819761D02*
X124690476Y-122867380D01*
X124690476Y-122867380D02*
X124595238Y-122867380D01*
X124595238Y-122867380D02*
X124452381Y-122819761D01*
X124452381Y-122819761D02*
X124357143Y-122724523D01*
X124357143Y-122724523D02*
X124309524Y-122629285D01*
X124309524Y-122629285D02*
X124261905Y-122438809D01*
X124261905Y-122438809D02*
X124261905Y-122295952D01*
X124261905Y-122295952D02*
X124309524Y-122105476D01*
X124309524Y-122105476D02*
X124357143Y-122010238D01*
X124357143Y-122010238D02*
X124452381Y-121915000D01*
X124452381Y-121915000D02*
X124595238Y-121867380D01*
X124595238Y-121867380D02*
X124690476Y-121867380D01*
X124690476Y-121867380D02*
X124833333Y-121915000D01*
X124833333Y-121915000D02*
X124880952Y-121962619D01*
X125785714Y-122867380D02*
X125309524Y-122867380D01*
X125309524Y-122867380D02*
X125309524Y-121867380D01*
%TO.C,RXD*%
X126933333Y-77167380D02*
X126600000Y-76691190D01*
X126361905Y-77167380D02*
X126361905Y-76167380D01*
X126361905Y-76167380D02*
X126742857Y-76167380D01*
X126742857Y-76167380D02*
X126838095Y-76215000D01*
X126838095Y-76215000D02*
X126885714Y-76262619D01*
X126885714Y-76262619D02*
X126933333Y-76357857D01*
X126933333Y-76357857D02*
X126933333Y-76500714D01*
X126933333Y-76500714D02*
X126885714Y-76595952D01*
X126885714Y-76595952D02*
X126838095Y-76643571D01*
X126838095Y-76643571D02*
X126742857Y-76691190D01*
X126742857Y-76691190D02*
X126361905Y-76691190D01*
X127266667Y-76167380D02*
X127933333Y-77167380D01*
X127933333Y-76167380D02*
X127266667Y-77167380D01*
X128314286Y-77167380D02*
X128314286Y-76167380D01*
X128314286Y-76167380D02*
X128552381Y-76167380D01*
X128552381Y-76167380D02*
X128695238Y-76215000D01*
X128695238Y-76215000D02*
X128790476Y-76310238D01*
X128790476Y-76310238D02*
X128838095Y-76405476D01*
X128838095Y-76405476D02*
X128885714Y-76595952D01*
X128885714Y-76595952D02*
X128885714Y-76738809D01*
X128885714Y-76738809D02*
X128838095Y-76929285D01*
X128838095Y-76929285D02*
X128790476Y-77024523D01*
X128790476Y-77024523D02*
X128695238Y-77119761D01*
X128695238Y-77119761D02*
X128552381Y-77167380D01*
X128552381Y-77167380D02*
X128314286Y-77167380D01*
%TO.C,R10*%
X140368142Y-102567380D02*
X140034809Y-102091190D01*
X139796714Y-102567380D02*
X139796714Y-101567380D01*
X139796714Y-101567380D02*
X140177666Y-101567380D01*
X140177666Y-101567380D02*
X140272904Y-101615000D01*
X140272904Y-101615000D02*
X140320523Y-101662619D01*
X140320523Y-101662619D02*
X140368142Y-101757857D01*
X140368142Y-101757857D02*
X140368142Y-101900714D01*
X140368142Y-101900714D02*
X140320523Y-101995952D01*
X140320523Y-101995952D02*
X140272904Y-102043571D01*
X140272904Y-102043571D02*
X140177666Y-102091190D01*
X140177666Y-102091190D02*
X139796714Y-102091190D01*
X141320523Y-102567380D02*
X140749095Y-102567380D01*
X141034809Y-102567380D02*
X141034809Y-101567380D01*
X141034809Y-101567380D02*
X140939571Y-101710238D01*
X140939571Y-101710238D02*
X140844333Y-101805476D01*
X140844333Y-101805476D02*
X140749095Y-101853095D01*
X141939571Y-101567380D02*
X142034809Y-101567380D01*
X142034809Y-101567380D02*
X142130047Y-101615000D01*
X142130047Y-101615000D02*
X142177666Y-101662619D01*
X142177666Y-101662619D02*
X142225285Y-101757857D01*
X142225285Y-101757857D02*
X142272904Y-101948333D01*
X142272904Y-101948333D02*
X142272904Y-102186428D01*
X142272904Y-102186428D02*
X142225285Y-102376904D01*
X142225285Y-102376904D02*
X142177666Y-102472142D01*
X142177666Y-102472142D02*
X142130047Y-102519761D01*
X142130047Y-102519761D02*
X142034809Y-102567380D01*
X142034809Y-102567380D02*
X141939571Y-102567380D01*
X141939571Y-102567380D02*
X141844333Y-102519761D01*
X141844333Y-102519761D02*
X141796714Y-102472142D01*
X141796714Y-102472142D02*
X141749095Y-102376904D01*
X141749095Y-102376904D02*
X141701476Y-102186428D01*
X141701476Y-102186428D02*
X141701476Y-101948333D01*
X141701476Y-101948333D02*
X141749095Y-101757857D01*
X141749095Y-101757857D02*
X141796714Y-101662619D01*
X141796714Y-101662619D02*
X141844333Y-101615000D01*
X141844333Y-101615000D02*
X141939571Y-101567380D01*
%TO.C,R3*%
X123616333Y-89624380D02*
X123283000Y-89148190D01*
X123044905Y-89624380D02*
X123044905Y-88624380D01*
X123044905Y-88624380D02*
X123425857Y-88624380D01*
X123425857Y-88624380D02*
X123521095Y-88672000D01*
X123521095Y-88672000D02*
X123568714Y-88719619D01*
X123568714Y-88719619D02*
X123616333Y-88814857D01*
X123616333Y-88814857D02*
X123616333Y-88957714D01*
X123616333Y-88957714D02*
X123568714Y-89052952D01*
X123568714Y-89052952D02*
X123521095Y-89100571D01*
X123521095Y-89100571D02*
X123425857Y-89148190D01*
X123425857Y-89148190D02*
X123044905Y-89148190D01*
X123949667Y-88624380D02*
X124568714Y-88624380D01*
X124568714Y-88624380D02*
X124235381Y-89005333D01*
X124235381Y-89005333D02*
X124378238Y-89005333D01*
X124378238Y-89005333D02*
X124473476Y-89052952D01*
X124473476Y-89052952D02*
X124521095Y-89100571D01*
X124521095Y-89100571D02*
X124568714Y-89195809D01*
X124568714Y-89195809D02*
X124568714Y-89433904D01*
X124568714Y-89433904D02*
X124521095Y-89529142D01*
X124521095Y-89529142D02*
X124473476Y-89576761D01*
X124473476Y-89576761D02*
X124378238Y-89624380D01*
X124378238Y-89624380D02*
X124092524Y-89624380D01*
X124092524Y-89624380D02*
X123997286Y-89576761D01*
X123997286Y-89576761D02*
X123949667Y-89529142D01*
%TO.C,A1*%
X148485714Y-118281666D02*
X148961904Y-118281666D01*
X148390476Y-118567380D02*
X148723809Y-117567380D01*
X148723809Y-117567380D02*
X149057142Y-118567380D01*
X149914285Y-118567380D02*
X149342857Y-118567380D01*
X149628571Y-118567380D02*
X149628571Y-117567380D01*
X149628571Y-117567380D02*
X149533333Y-117710238D01*
X149533333Y-117710238D02*
X149438095Y-117805476D01*
X149438095Y-117805476D02*
X149342857Y-117853095D01*
X136942857Y-74981666D02*
X137419047Y-74981666D01*
X136847619Y-75267380D02*
X137180952Y-74267380D01*
X137180952Y-74267380D02*
X137514285Y-75267380D01*
X137847619Y-75267380D02*
X137847619Y-74600714D01*
X137847619Y-74791190D02*
X137895238Y-74695952D01*
X137895238Y-74695952D02*
X137942857Y-74648333D01*
X137942857Y-74648333D02*
X138038095Y-74600714D01*
X138038095Y-74600714D02*
X138133333Y-74600714D01*
X138895238Y-75267380D02*
X138895238Y-74267380D01*
X138895238Y-75219761D02*
X138800000Y-75267380D01*
X138800000Y-75267380D02*
X138609524Y-75267380D01*
X138609524Y-75267380D02*
X138514286Y-75219761D01*
X138514286Y-75219761D02*
X138466667Y-75172142D01*
X138466667Y-75172142D02*
X138419048Y-75076904D01*
X138419048Y-75076904D02*
X138419048Y-74791190D01*
X138419048Y-74791190D02*
X138466667Y-74695952D01*
X138466667Y-74695952D02*
X138514286Y-74648333D01*
X138514286Y-74648333D02*
X138609524Y-74600714D01*
X138609524Y-74600714D02*
X138800000Y-74600714D01*
X138800000Y-74600714D02*
X138895238Y-74648333D01*
X139800000Y-74600714D02*
X139800000Y-75267380D01*
X139371429Y-74600714D02*
X139371429Y-75124523D01*
X139371429Y-75124523D02*
X139419048Y-75219761D01*
X139419048Y-75219761D02*
X139514286Y-75267380D01*
X139514286Y-75267380D02*
X139657143Y-75267380D01*
X139657143Y-75267380D02*
X139752381Y-75219761D01*
X139752381Y-75219761D02*
X139800000Y-75172142D01*
X140276191Y-75267380D02*
X140276191Y-74600714D01*
X140276191Y-74267380D02*
X140228572Y-74315000D01*
X140228572Y-74315000D02*
X140276191Y-74362619D01*
X140276191Y-74362619D02*
X140323810Y-74315000D01*
X140323810Y-74315000D02*
X140276191Y-74267380D01*
X140276191Y-74267380D02*
X140276191Y-74362619D01*
X140752381Y-74600714D02*
X140752381Y-75267380D01*
X140752381Y-74695952D02*
X140800000Y-74648333D01*
X140800000Y-74648333D02*
X140895238Y-74600714D01*
X140895238Y-74600714D02*
X141038095Y-74600714D01*
X141038095Y-74600714D02*
X141133333Y-74648333D01*
X141133333Y-74648333D02*
X141180952Y-74743571D01*
X141180952Y-74743571D02*
X141180952Y-75267380D01*
X141800000Y-75267380D02*
X141704762Y-75219761D01*
X141704762Y-75219761D02*
X141657143Y-75172142D01*
X141657143Y-75172142D02*
X141609524Y-75076904D01*
X141609524Y-75076904D02*
X141609524Y-74791190D01*
X141609524Y-74791190D02*
X141657143Y-74695952D01*
X141657143Y-74695952D02*
X141704762Y-74648333D01*
X141704762Y-74648333D02*
X141800000Y-74600714D01*
X141800000Y-74600714D02*
X141942857Y-74600714D01*
X141942857Y-74600714D02*
X142038095Y-74648333D01*
X142038095Y-74648333D02*
X142085714Y-74695952D01*
X142085714Y-74695952D02*
X142133333Y-74791190D01*
X142133333Y-74791190D02*
X142133333Y-75076904D01*
X142133333Y-75076904D02*
X142085714Y-75172142D01*
X142085714Y-75172142D02*
X142038095Y-75219761D01*
X142038095Y-75219761D02*
X141942857Y-75267380D01*
X141942857Y-75267380D02*
X141800000Y-75267380D01*
X142323810Y-75362619D02*
X143085714Y-75362619D01*
X143323810Y-75267380D02*
X143323810Y-74267380D01*
X143323810Y-74267380D02*
X143895238Y-75267380D01*
X143895238Y-75267380D02*
X143895238Y-74267380D01*
X144800000Y-75267380D02*
X144800000Y-74743571D01*
X144800000Y-74743571D02*
X144752381Y-74648333D01*
X144752381Y-74648333D02*
X144657143Y-74600714D01*
X144657143Y-74600714D02*
X144466667Y-74600714D01*
X144466667Y-74600714D02*
X144371429Y-74648333D01*
X144800000Y-75219761D02*
X144704762Y-75267380D01*
X144704762Y-75267380D02*
X144466667Y-75267380D01*
X144466667Y-75267380D02*
X144371429Y-75219761D01*
X144371429Y-75219761D02*
X144323810Y-75124523D01*
X144323810Y-75124523D02*
X144323810Y-75029285D01*
X144323810Y-75029285D02*
X144371429Y-74934047D01*
X144371429Y-74934047D02*
X144466667Y-74886428D01*
X144466667Y-74886428D02*
X144704762Y-74886428D01*
X144704762Y-74886428D02*
X144800000Y-74838809D01*
X145276191Y-74600714D02*
X145276191Y-75267380D01*
X145276191Y-74695952D02*
X145323810Y-74648333D01*
X145323810Y-74648333D02*
X145419048Y-74600714D01*
X145419048Y-74600714D02*
X145561905Y-74600714D01*
X145561905Y-74600714D02*
X145657143Y-74648333D01*
X145657143Y-74648333D02*
X145704762Y-74743571D01*
X145704762Y-74743571D02*
X145704762Y-75267380D01*
X146323810Y-75267380D02*
X146228572Y-75219761D01*
X146228572Y-75219761D02*
X146180953Y-75172142D01*
X146180953Y-75172142D02*
X146133334Y-75076904D01*
X146133334Y-75076904D02*
X146133334Y-74791190D01*
X146133334Y-74791190D02*
X146180953Y-74695952D01*
X146180953Y-74695952D02*
X146228572Y-74648333D01*
X146228572Y-74648333D02*
X146323810Y-74600714D01*
X146323810Y-74600714D02*
X146466667Y-74600714D01*
X146466667Y-74600714D02*
X146561905Y-74648333D01*
X146561905Y-74648333D02*
X146609524Y-74695952D01*
X146609524Y-74695952D02*
X146657143Y-74791190D01*
X146657143Y-74791190D02*
X146657143Y-75076904D01*
X146657143Y-75076904D02*
X146609524Y-75172142D01*
X146609524Y-75172142D02*
X146561905Y-75219761D01*
X146561905Y-75219761D02*
X146466667Y-75267380D01*
X146466667Y-75267380D02*
X146323810Y-75267380D01*
X140446095Y-114862952D02*
X140446095Y-115672476D01*
X140446095Y-115672476D02*
X140493714Y-115767714D01*
X140493714Y-115767714D02*
X140541333Y-115815333D01*
X140541333Y-115815333D02*
X140636571Y-115862952D01*
X140636571Y-115862952D02*
X140827047Y-115862952D01*
X140827047Y-115862952D02*
X140922285Y-115815333D01*
X140922285Y-115815333D02*
X140969904Y-115767714D01*
X140969904Y-115767714D02*
X141017523Y-115672476D01*
X141017523Y-115672476D02*
X141017523Y-114862952D01*
X141446095Y-115815333D02*
X141588952Y-115862952D01*
X141588952Y-115862952D02*
X141827047Y-115862952D01*
X141827047Y-115862952D02*
X141922285Y-115815333D01*
X141922285Y-115815333D02*
X141969904Y-115767714D01*
X141969904Y-115767714D02*
X142017523Y-115672476D01*
X142017523Y-115672476D02*
X142017523Y-115577238D01*
X142017523Y-115577238D02*
X141969904Y-115482000D01*
X141969904Y-115482000D02*
X141922285Y-115434381D01*
X141922285Y-115434381D02*
X141827047Y-115386762D01*
X141827047Y-115386762D02*
X141636571Y-115339143D01*
X141636571Y-115339143D02*
X141541333Y-115291524D01*
X141541333Y-115291524D02*
X141493714Y-115243905D01*
X141493714Y-115243905D02*
X141446095Y-115148667D01*
X141446095Y-115148667D02*
X141446095Y-115053429D01*
X141446095Y-115053429D02*
X141493714Y-114958191D01*
X141493714Y-114958191D02*
X141541333Y-114910572D01*
X141541333Y-114910572D02*
X141636571Y-114862952D01*
X141636571Y-114862952D02*
X141874666Y-114862952D01*
X141874666Y-114862952D02*
X142017523Y-114910572D01*
X142779428Y-115339143D02*
X142922285Y-115386762D01*
X142922285Y-115386762D02*
X142969904Y-115434381D01*
X142969904Y-115434381D02*
X143017523Y-115529619D01*
X143017523Y-115529619D02*
X143017523Y-115672476D01*
X143017523Y-115672476D02*
X142969904Y-115767714D01*
X142969904Y-115767714D02*
X142922285Y-115815333D01*
X142922285Y-115815333D02*
X142827047Y-115862952D01*
X142827047Y-115862952D02*
X142446095Y-115862952D01*
X142446095Y-115862952D02*
X142446095Y-114862952D01*
X142446095Y-114862952D02*
X142779428Y-114862952D01*
X142779428Y-114862952D02*
X142874666Y-114910572D01*
X142874666Y-114910572D02*
X142922285Y-114958191D01*
X142922285Y-114958191D02*
X142969904Y-115053429D01*
X142969904Y-115053429D02*
X142969904Y-115148667D01*
X142969904Y-115148667D02*
X142922285Y-115243905D01*
X142922285Y-115243905D02*
X142874666Y-115291524D01*
X142874666Y-115291524D02*
X142779428Y-115339143D01*
X142779428Y-115339143D02*
X142446095Y-115339143D01*
%TO.C,R1*%
X123628833Y-82624380D02*
X123295500Y-82148190D01*
X123057405Y-82624380D02*
X123057405Y-81624380D01*
X123057405Y-81624380D02*
X123438357Y-81624380D01*
X123438357Y-81624380D02*
X123533595Y-81672000D01*
X123533595Y-81672000D02*
X123581214Y-81719619D01*
X123581214Y-81719619D02*
X123628833Y-81814857D01*
X123628833Y-81814857D02*
X123628833Y-81957714D01*
X123628833Y-81957714D02*
X123581214Y-82052952D01*
X123581214Y-82052952D02*
X123533595Y-82100571D01*
X123533595Y-82100571D02*
X123438357Y-82148190D01*
X123438357Y-82148190D02*
X123057405Y-82148190D01*
X124581214Y-82624380D02*
X124009786Y-82624380D01*
X124295500Y-82624380D02*
X124295500Y-81624380D01*
X124295500Y-81624380D02*
X124200262Y-81767238D01*
X124200262Y-81767238D02*
X124105024Y-81862476D01*
X124105024Y-81862476D02*
X124009786Y-81910095D01*
%TO.C,C3*%
X177333333Y-112372142D02*
X177285714Y-112419761D01*
X177285714Y-112419761D02*
X177142857Y-112467380D01*
X177142857Y-112467380D02*
X177047619Y-112467380D01*
X177047619Y-112467380D02*
X176904762Y-112419761D01*
X176904762Y-112419761D02*
X176809524Y-112324523D01*
X176809524Y-112324523D02*
X176761905Y-112229285D01*
X176761905Y-112229285D02*
X176714286Y-112038809D01*
X176714286Y-112038809D02*
X176714286Y-111895952D01*
X176714286Y-111895952D02*
X176761905Y-111705476D01*
X176761905Y-111705476D02*
X176809524Y-111610238D01*
X176809524Y-111610238D02*
X176904762Y-111515000D01*
X176904762Y-111515000D02*
X177047619Y-111467380D01*
X177047619Y-111467380D02*
X177142857Y-111467380D01*
X177142857Y-111467380D02*
X177285714Y-111515000D01*
X177285714Y-111515000D02*
X177333333Y-111562619D01*
X177666667Y-111467380D02*
X178285714Y-111467380D01*
X178285714Y-111467380D02*
X177952381Y-111848333D01*
X177952381Y-111848333D02*
X178095238Y-111848333D01*
X178095238Y-111848333D02*
X178190476Y-111895952D01*
X178190476Y-111895952D02*
X178238095Y-111943571D01*
X178238095Y-111943571D02*
X178285714Y-112038809D01*
X178285714Y-112038809D02*
X178285714Y-112276904D01*
X178285714Y-112276904D02*
X178238095Y-112372142D01*
X178238095Y-112372142D02*
X178190476Y-112419761D01*
X178190476Y-112419761D02*
X178095238Y-112467380D01*
X178095238Y-112467380D02*
X177809524Y-112467380D01*
X177809524Y-112467380D02*
X177714286Y-112419761D01*
X177714286Y-112419761D02*
X177666667Y-112372142D01*
D12*
%TO.C,U2*%
X129698500Y-116347572D02*
X129698500Y-116102572D01*
X129698500Y-116102572D02*
X131513500Y-116102572D01*
X129698500Y-104577572D02*
X129698500Y-104822572D01*
X125838500Y-116347572D02*
X129698500Y-116347572D01*
X125838500Y-116347572D02*
X121978500Y-116347572D01*
X125838500Y-104577572D02*
X129698500Y-104577572D01*
X125838500Y-104577572D02*
X121978500Y-104577572D01*
X121978500Y-116347572D02*
X121978500Y-116102572D01*
X121978500Y-104577572D02*
X121978500Y-104822572D01*
%TO.C,R18*%
X153839564Y-100101572D02*
X153385436Y-100101572D01*
X153839564Y-98631572D02*
X153385436Y-98631572D01*
%TO.C,D8*%
X158413500Y-111655572D02*
X160088500Y-111655572D01*
X158413500Y-111655572D02*
X157763500Y-111655572D01*
X158413500Y-108535572D02*
X159063500Y-108535572D01*
X158413500Y-108535572D02*
X157763500Y-108535572D01*
%TO.C,Q1*%
X138063500Y-94195572D02*
X139738500Y-94195572D01*
X138063500Y-94195572D02*
X137413500Y-94195572D01*
X138063500Y-91075572D02*
X138713500Y-91075572D01*
X138063500Y-91075572D02*
X137413500Y-91075572D01*
%TO.C,D15*%
X126000000Y-88460000D02*
X127675000Y-88460000D01*
X126000000Y-88460000D02*
X125350000Y-88460000D01*
X126000000Y-85340000D02*
X126650000Y-85340000D01*
X126000000Y-85340000D02*
X125350000Y-85340000D01*
%TO.C,D12*%
X126028500Y-84960000D02*
X127703500Y-84960000D01*
X126028500Y-84960000D02*
X125378500Y-84960000D01*
X126028500Y-81840000D02*
X126678500Y-81840000D01*
X126028500Y-81840000D02*
X125378500Y-81840000D01*
%TO.C,J2*%
X151350000Y-114458572D02*
X153350000Y-114458572D01*
X151350000Y-115708572D02*
X151350000Y-114458572D01*
X151740000Y-114848572D02*
X151740000Y-122318572D01*
X151740000Y-122318572D02*
X170860000Y-122318572D01*
X152800000Y-115808572D02*
X155800000Y-115808572D01*
X152800000Y-117158572D02*
X153550000Y-117158572D01*
X152800000Y-121458572D02*
X152800000Y-117158572D01*
X153050000Y-116808572D02*
X152800000Y-115808572D01*
X153550000Y-116808572D02*
X153050000Y-116808572D01*
X153550000Y-117158572D02*
X153550000Y-116808572D01*
X153550000Y-121458572D02*
X152800000Y-121458572D01*
X155050000Y-116808572D02*
X155050000Y-117158572D01*
X155050000Y-117158572D02*
X155800000Y-117158572D01*
X155550000Y-116808572D02*
X155050000Y-116808572D01*
X155800000Y-115808572D02*
X155550000Y-116808572D01*
X155800000Y-117158572D02*
X155800000Y-121458572D01*
X155800000Y-121458572D02*
X155050000Y-121458572D01*
X156300000Y-115808572D02*
X159300000Y-115808572D01*
X156300000Y-117158572D02*
X157050000Y-117158572D01*
X156300000Y-121458572D02*
X156300000Y-117158572D01*
X156550000Y-116808572D02*
X156300000Y-115808572D01*
X157050000Y-116808572D02*
X156550000Y-116808572D01*
X157050000Y-117158572D02*
X157050000Y-116808572D01*
X157050000Y-121458572D02*
X156300000Y-121458572D01*
X158550000Y-116808572D02*
X158550000Y-117158572D01*
X158550000Y-117158572D02*
X159300000Y-117158572D01*
X159050000Y-116808572D02*
X158550000Y-116808572D01*
X159300000Y-115808572D02*
X159050000Y-116808572D01*
X159300000Y-117158572D02*
X159300000Y-121458572D01*
X159300000Y-121458572D02*
X158550000Y-121458572D01*
X159800000Y-115808572D02*
X162800000Y-115808572D01*
X159800000Y-117158572D02*
X160550000Y-117158572D01*
X159800000Y-121458572D02*
X159800000Y-117158572D01*
X160050000Y-116808572D02*
X159800000Y-115808572D01*
X160550000Y-116808572D02*
X160050000Y-116808572D01*
X160550000Y-117158572D02*
X160550000Y-116808572D01*
X160550000Y-121458572D02*
X159800000Y-121458572D01*
X162050000Y-116808572D02*
X162050000Y-117158572D01*
X162050000Y-117158572D02*
X162800000Y-117158572D01*
X162550000Y-116808572D02*
X162050000Y-116808572D01*
X162800000Y-115808572D02*
X162550000Y-116808572D01*
X162800000Y-117158572D02*
X162800000Y-121458572D01*
X162800000Y-121458572D02*
X162050000Y-121458572D01*
X163300000Y-115808572D02*
X166300000Y-115808572D01*
X163300000Y-117158572D02*
X164050000Y-117158572D01*
X163300000Y-121458572D02*
X163300000Y-117158572D01*
X163550000Y-116808572D02*
X163300000Y-115808572D01*
X164050000Y-116808572D02*
X163550000Y-116808572D01*
X164050000Y-117158572D02*
X164050000Y-116808572D01*
X164050000Y-121458572D02*
X163300000Y-121458572D01*
X165550000Y-116808572D02*
X165550000Y-117158572D01*
X165550000Y-117158572D02*
X166300000Y-117158572D01*
X166050000Y-116808572D02*
X165550000Y-116808572D01*
X166300000Y-115808572D02*
X166050000Y-116808572D01*
X166300000Y-117158572D02*
X166300000Y-121458572D01*
X166300000Y-121458572D02*
X165550000Y-121458572D01*
X166800000Y-115808572D02*
X169800000Y-115808572D01*
X166800000Y-117158572D02*
X167550000Y-117158572D01*
X166800000Y-121458572D02*
X166800000Y-117158572D01*
X167050000Y-116808572D02*
X166800000Y-115808572D01*
X167550000Y-116808572D02*
X167050000Y-116808572D01*
X167550000Y-117158572D02*
X167550000Y-116808572D01*
X167550000Y-121458572D02*
X166800000Y-121458572D01*
X169050000Y-116808572D02*
X169050000Y-117158572D01*
X169050000Y-117158572D02*
X169800000Y-117158572D01*
X169550000Y-116808572D02*
X169050000Y-116808572D01*
X169800000Y-115808572D02*
X169550000Y-116808572D01*
X169800000Y-117158572D02*
X169800000Y-121458572D01*
X169800000Y-121458572D02*
X169050000Y-121458572D01*
X170860000Y-114848572D02*
X151740000Y-114848572D01*
X170860000Y-122318572D02*
X170860000Y-114848572D01*
X155049647Y-121458417D02*
G75*
G03*
X153550000Y-121458572I-749647J-1700155D01*
G01*
X158549647Y-121458417D02*
G75*
G03*
X157050000Y-121458572I-749647J-1700155D01*
G01*
X162049647Y-121458417D02*
G75*
G03*
X160550000Y-121458572I-749647J-1700155D01*
G01*
X165549647Y-121458417D02*
G75*
G03*
X164050000Y-121458572I-749647J-1700155D01*
G01*
X169049647Y-121458417D02*
G75*
G03*
X167550000Y-121458572I-749647J-1700155D01*
G01*
%TO.C,J3*%
X111450000Y-121358572D02*
X111450000Y-119358572D01*
X112700000Y-121358572D02*
X111450000Y-121358572D01*
X111840000Y-120968572D02*
X119310000Y-120968572D01*
X119310000Y-120968572D02*
X119310000Y-101848572D01*
X112800000Y-119908572D02*
X112800000Y-116908572D01*
X114150000Y-119908572D02*
X114150000Y-119158572D01*
X118450000Y-119908572D02*
X114150000Y-119908572D01*
X113800000Y-119658572D02*
X112800000Y-119908572D01*
X113800000Y-119158572D02*
X113800000Y-119658572D01*
X114150000Y-119158572D02*
X113800000Y-119158572D01*
X118450000Y-119158572D02*
X118450000Y-119908572D01*
X113800000Y-117658572D02*
X114150000Y-117658572D01*
X114150000Y-117658572D02*
X114150000Y-116908572D01*
X113800000Y-117158572D02*
X113800000Y-117658572D01*
X112800000Y-116908572D02*
X113800000Y-117158572D01*
X114150000Y-116908572D02*
X118450000Y-116908572D01*
X118450000Y-116908572D02*
X118450000Y-117658572D01*
X112800000Y-116408572D02*
X112800000Y-113408572D01*
X114150000Y-116408572D02*
X114150000Y-115658572D01*
X118450000Y-116408572D02*
X114150000Y-116408572D01*
X113800000Y-116158572D02*
X112800000Y-116408572D01*
X113800000Y-115658572D02*
X113800000Y-116158572D01*
X114150000Y-115658572D02*
X113800000Y-115658572D01*
X118450000Y-115658572D02*
X118450000Y-116408572D01*
X113800000Y-114158572D02*
X114150000Y-114158572D01*
X114150000Y-114158572D02*
X114150000Y-113408572D01*
X113800000Y-113658572D02*
X113800000Y-114158572D01*
X112800000Y-113408572D02*
X113800000Y-113658572D01*
X114150000Y-113408572D02*
X118450000Y-113408572D01*
X118450000Y-113408572D02*
X118450000Y-114158572D01*
X112800000Y-112908572D02*
X112800000Y-109908572D01*
X114150000Y-112908572D02*
X114150000Y-112158572D01*
X118450000Y-112908572D02*
X114150000Y-112908572D01*
X113800000Y-112658572D02*
X112800000Y-112908572D01*
X113800000Y-112158572D02*
X113800000Y-112658572D01*
X114150000Y-112158572D02*
X113800000Y-112158572D01*
X118450000Y-112158572D02*
X118450000Y-112908572D01*
X113800000Y-110658572D02*
X114150000Y-110658572D01*
X114150000Y-110658572D02*
X114150000Y-109908572D01*
X113800000Y-110158572D02*
X113800000Y-110658572D01*
X112800000Y-109908572D02*
X113800000Y-110158572D01*
X114150000Y-109908572D02*
X118450000Y-109908572D01*
X118450000Y-109908572D02*
X118450000Y-110658572D01*
X112800000Y-109408572D02*
X112800000Y-106408572D01*
X114150000Y-109408572D02*
X114150000Y-108658572D01*
X118450000Y-109408572D02*
X114150000Y-109408572D01*
X113800000Y-109158572D02*
X112800000Y-109408572D01*
X113800000Y-108658572D02*
X113800000Y-109158572D01*
X114150000Y-108658572D02*
X113800000Y-108658572D01*
X118450000Y-108658572D02*
X118450000Y-109408572D01*
X113800000Y-107158572D02*
X114150000Y-107158572D01*
X114150000Y-107158572D02*
X114150000Y-106408572D01*
X113800000Y-106658572D02*
X113800000Y-107158572D01*
X112800000Y-106408572D02*
X113800000Y-106658572D01*
X114150000Y-106408572D02*
X118450000Y-106408572D01*
X118450000Y-106408572D02*
X118450000Y-107158572D01*
X112800000Y-105908572D02*
X112800000Y-102908572D01*
X114150000Y-105908572D02*
X114150000Y-105158572D01*
X118450000Y-105908572D02*
X114150000Y-105908572D01*
X113800000Y-105658572D02*
X112800000Y-105908572D01*
X113800000Y-105158572D02*
X113800000Y-105658572D01*
X114150000Y-105158572D02*
X113800000Y-105158572D01*
X118450000Y-105158572D02*
X118450000Y-105908572D01*
X113800000Y-103658572D02*
X114150000Y-103658572D01*
X114150000Y-103658572D02*
X114150000Y-102908572D01*
X113800000Y-103158572D02*
X113800000Y-103658572D01*
X112800000Y-102908572D02*
X113800000Y-103158572D01*
X114150000Y-102908572D02*
X118450000Y-102908572D01*
X118450000Y-102908572D02*
X118450000Y-103658572D01*
X111840000Y-101848572D02*
X111840000Y-120968572D01*
X119310000Y-101848572D02*
X111840000Y-101848572D01*
X118449845Y-117658925D02*
G75*
G03*
X118450000Y-119158572I1700155J-749647D01*
G01*
X118449845Y-114158925D02*
G75*
G03*
X118450000Y-115658572I1700155J-749647D01*
G01*
X118449845Y-110658925D02*
G75*
G03*
X118450000Y-112158572I1700155J-749647D01*
G01*
X118449845Y-107158925D02*
G75*
G03*
X118450000Y-108658572I1700155J-749647D01*
G01*
X118449845Y-103658925D02*
G75*
G03*
X118450000Y-105158572I1700155J-749647D01*
G01*
%TO.C,R14*%
X174980000Y-98300000D02*
X174030000Y-98300000D01*
X174030000Y-99220000D02*
X174030000Y-97380000D01*
X174030000Y-97380000D02*
X170190000Y-97380000D01*
X170190000Y-99220000D02*
X174030000Y-99220000D01*
X170190000Y-97380000D02*
X170190000Y-99220000D01*
X169240000Y-98300000D02*
X170190000Y-98300000D01*
%TO.C,R5*%
X140865000Y-105539136D02*
X140865000Y-105085008D01*
X142335000Y-105539136D02*
X142335000Y-105085008D01*
%TO.C,D9*%
X158510500Y-108038572D02*
X160185500Y-108038572D01*
X158510500Y-108038572D02*
X157860500Y-108038572D01*
X158510500Y-104918572D02*
X159160500Y-104918572D01*
X158510500Y-104918572D02*
X157860500Y-104918572D01*
%TO.C,SDA*%
X126550000Y-119450000D02*
X126550000Y-121350000D01*
X126550000Y-121350000D02*
X128400000Y-121350000D01*
X128400000Y-119450000D02*
X126550000Y-119450000D01*
X128400000Y-119500000D02*
X128400000Y-119450000D01*
X128400000Y-121350000D02*
X128400000Y-119500000D01*
%TO.C,Q2*%
X137936500Y-106895572D02*
X139611500Y-106895572D01*
X137936500Y-106895572D02*
X137286500Y-106895572D01*
X137936500Y-103775572D02*
X138586500Y-103775572D01*
X137936500Y-103775572D02*
X137286500Y-103775572D01*
%TO.C,C1*%
X167035000Y-107538748D02*
X167035000Y-108061252D01*
X165565000Y-107538748D02*
X165565000Y-108061252D01*
%TO.C,R12*%
X142114564Y-80635000D02*
X141660436Y-80635000D01*
X142114564Y-79165000D02*
X141660436Y-79165000D01*
%TO.C,R6*%
X140665000Y-92914564D02*
X140665000Y-92460436D01*
X142135000Y-92914564D02*
X142135000Y-92460436D01*
%TO.C,Q3*%
X139360000Y-78862500D02*
X139360000Y-77187500D01*
X139360000Y-78862500D02*
X139360000Y-79512500D01*
X136240000Y-78862500D02*
X136240000Y-78212500D01*
X136240000Y-78862500D02*
X136240000Y-79512500D01*
%TO.C,GND*%
X124051000Y-78700000D02*
G75*
G03*
X124051000Y-78700000I-1251000J0D01*
G01*
%TO.C,R13*%
X174960000Y-100900000D02*
X174010000Y-100900000D01*
X174010000Y-101820000D02*
X174010000Y-99980000D01*
X174010000Y-99980000D02*
X170170000Y-99980000D01*
X170170000Y-101820000D02*
X174010000Y-101820000D01*
X170170000Y-99980000D02*
X170170000Y-101820000D01*
X169220000Y-100900000D02*
X170170000Y-100900000D01*
%TO.C,R17*%
X153886564Y-103686572D02*
X153432436Y-103686572D01*
X153886564Y-102216572D02*
X153432436Y-102216572D01*
%TO.C,R16*%
X153886564Y-107213572D02*
X153432436Y-107213572D01*
X153886564Y-105743572D02*
X153432436Y-105743572D01*
%TO.C,Q4*%
X136290000Y-82862500D02*
X136290000Y-84537500D01*
X136290000Y-82862500D02*
X136290000Y-82212500D01*
X139410000Y-82862500D02*
X139410000Y-83512500D01*
X139410000Y-82862500D02*
X139410000Y-82212500D01*
%TO.C,R9*%
X137684436Y-94821572D02*
X138138564Y-94821572D01*
X137684436Y-96291572D02*
X138138564Y-96291572D01*
%TO.C,R11*%
X142155564Y-82635000D02*
X141701436Y-82635000D01*
X142155564Y-81165000D02*
X141701436Y-81165000D01*
%TO.C,D5*%
X181485000Y-97240000D02*
X178315000Y-97240000D01*
X178315000Y-97240000D02*
X178315000Y-103100000D01*
X181485000Y-103100000D02*
X181485000Y-97240000D01*
D10*
%TO.C,REF\u002A\u002A*%
X164699200Y-87849620D02*
X164699200Y-88299200D01*
X164699200Y-88299200D02*
X164849060Y-88700520D01*
X164849060Y-88700520D02*
X165148780Y-88850380D01*
X164899860Y-87450840D02*
X164699200Y-87849620D01*
X165148780Y-88850380D02*
X165550100Y-88850380D01*
X165349440Y-87300980D02*
X164899860Y-87450840D01*
X165550100Y-87400040D02*
X165349440Y-87300980D01*
X165550100Y-88850380D02*
X165600900Y-88299200D01*
X165600900Y-88299200D02*
X165349440Y-88200140D01*
X166299400Y-87349240D02*
X167150300Y-88850380D01*
X166299400Y-88901180D02*
X166299400Y-87349240D01*
X166350200Y-80349000D02*
X166649920Y-81250700D01*
X166401000Y-80199140D02*
X167698940Y-79851160D01*
X166449260Y-79650500D02*
X166350200Y-80349000D01*
X166500060Y-80651260D02*
X166401000Y-80199140D01*
X166550860Y-79599700D02*
X167800540Y-79200920D01*
X166649920Y-81250700D02*
X167201100Y-81751080D01*
X166850580Y-81298960D02*
X167549080Y-80001020D01*
X166898840Y-78850400D02*
X166449260Y-79650500D01*
X167150300Y-88850380D02*
X167150300Y-87349240D01*
X167201100Y-81751080D02*
X167848800Y-82000000D01*
X167300160Y-78700540D02*
X168349180Y-78949460D01*
X167350960Y-81649480D02*
X167800540Y-80498860D01*
X167500820Y-78449080D02*
X166898840Y-78850400D01*
X167549080Y-80001020D02*
X166500060Y-80651260D01*
X167599880Y-83099820D02*
X168999420Y-82551180D01*
X167650680Y-80049280D02*
X167749740Y-79399040D01*
X167698940Y-79851160D02*
X166550860Y-79599700D01*
X167749740Y-79399040D02*
X168049460Y-79150120D01*
X167800540Y-79200920D02*
X167300160Y-78700540D01*
X167800540Y-80498860D02*
X166850580Y-81298960D01*
X167848800Y-78299220D02*
X167500820Y-78449080D01*
X167848800Y-80549660D02*
X167650680Y-80049280D01*
X167848800Y-82000000D02*
X168600640Y-80801120D01*
X167848800Y-87349240D02*
X167848800Y-88499860D01*
X167848800Y-88499860D02*
X168001200Y-88748780D01*
X168001200Y-88748780D02*
X168349180Y-88901180D01*
X168049460Y-79150120D02*
X168499040Y-79000260D01*
X168100260Y-81751080D02*
X168100260Y-82350520D01*
X168100260Y-82350520D02*
X167599880Y-83099820D01*
X168250120Y-78250960D02*
X167848800Y-78299220D01*
X168300920Y-78299220D02*
X169400740Y-78799600D01*
X168300920Y-80699520D02*
X167848800Y-80549660D01*
X168349180Y-78949460D02*
X168300920Y-78299220D01*
X168349180Y-80849380D02*
X167350960Y-81649480D01*
X168349180Y-83348740D02*
X168349180Y-82850900D01*
X168349180Y-83849120D02*
X168349180Y-83348740D01*
X168349180Y-88901180D02*
X168648900Y-88748780D01*
X168399980Y-84250440D02*
X168349180Y-83849120D01*
X168450780Y-84649220D02*
X168399980Y-84250440D01*
X168499040Y-79000260D02*
X169149280Y-78850400D01*
X168549840Y-85050540D02*
X168450780Y-84649220D01*
X168600640Y-80801120D02*
X169299140Y-80150880D01*
X168600640Y-85350260D02*
X168549840Y-85050540D01*
X168648900Y-80300740D02*
X168300920Y-80699520D01*
X168648900Y-88748780D02*
X168750500Y-88449060D01*
X168750500Y-88449060D02*
X168750500Y-87349240D01*
X168849560Y-85599180D02*
X168600640Y-85350260D01*
X168900360Y-82850900D02*
X169200080Y-83300480D01*
X168999420Y-82551180D02*
X169499800Y-82200660D01*
X168999420Y-85799840D02*
X168849560Y-85599180D01*
X169050220Y-80450600D02*
X169550600Y-80150880D01*
X169101020Y-79851160D02*
X168648900Y-80300740D01*
X169101020Y-83750060D02*
X169550600Y-84049780D01*
X169149280Y-78850400D02*
X169499800Y-78901200D01*
X169200080Y-78400820D02*
X168250120Y-78250960D01*
X169200080Y-83300480D02*
X169101020Y-83750060D01*
X169250880Y-86000500D02*
X168999420Y-85799840D01*
X169299140Y-80150880D02*
X169901120Y-79698760D01*
X169349940Y-84700020D02*
X169901120Y-85098800D01*
X169349940Y-86000500D02*
X169550600Y-85949700D01*
X169499800Y-78901200D02*
X170050980Y-78649740D01*
X169499800Y-82200660D02*
X169649660Y-81250700D01*
X169550600Y-80150880D02*
X170299900Y-79800360D01*
X169550600Y-84049780D02*
X169349940Y-84700020D01*
X169649660Y-81250700D02*
X170249100Y-80699520D01*
X169700460Y-79449840D02*
X169101020Y-79851160D01*
X169700460Y-85799840D02*
X170249100Y-86249420D01*
X169850320Y-78449080D02*
X169200080Y-78400820D01*
X169901120Y-79698760D02*
X170449760Y-79650500D01*
X169901120Y-85098800D02*
X169700460Y-85799840D01*
X170050980Y-78649740D02*
X170249100Y-78299220D01*
X170099240Y-81550420D02*
X170299900Y-81799340D01*
X170099240Y-87151120D02*
X170449760Y-87499100D01*
X170200840Y-79399040D02*
X169700460Y-79449840D01*
X170200840Y-86351020D02*
X170398960Y-86749800D01*
X170249100Y-78299220D02*
X169850320Y-78449080D01*
X170249100Y-83099820D02*
X169949380Y-83049020D01*
X170299900Y-79800360D02*
X170650420Y-79800360D01*
X170299900Y-81799340D02*
X170701220Y-81799340D01*
X170350700Y-81298960D02*
X170099240Y-81550420D01*
X170398960Y-83348740D02*
X170249100Y-83099820D01*
X170398960Y-86749800D02*
X170500560Y-87049520D01*
X170398960Y-87798820D02*
X170449760Y-87951220D01*
X170449760Y-79650500D02*
X170899340Y-79851160D01*
X170449760Y-87499100D02*
X170398960Y-87798820D01*
X170500560Y-87049520D02*
X170099240Y-87151120D01*
X170500560Y-87999480D02*
X170449760Y-88101080D01*
X170548820Y-83849120D02*
X170398960Y-83348740D01*
X170701220Y-79500640D02*
X170200840Y-79399040D01*
X170701220Y-81799340D02*
X171100000Y-81601220D01*
X170749480Y-84199640D02*
X170548820Y-83849120D01*
X170800280Y-81400560D02*
X170350700Y-81298960D01*
X170800280Y-86099560D02*
X170899340Y-86300220D01*
X170899340Y-79851160D02*
X171300660Y-79950220D01*
X170899340Y-84400300D02*
X170749480Y-84199640D01*
X170899340Y-86300220D02*
X171150800Y-86500880D01*
X170950140Y-85700780D02*
X170800280Y-86099560D01*
X171000940Y-79650500D02*
X170701220Y-79500640D01*
X171000940Y-82398780D02*
X170800280Y-82449580D01*
X171100000Y-80450600D02*
X171498780Y-80300740D01*
X171150800Y-81550420D02*
X170800280Y-81400560D01*
X171150800Y-82949960D02*
X171199060Y-83348740D01*
X171150800Y-86500880D02*
X171300660Y-86699000D01*
X171199060Y-79698760D02*
X171000940Y-79650500D01*
X171199060Y-82299720D02*
X171000940Y-82398780D01*
X171199060Y-83348740D02*
X171450520Y-83501140D01*
X171199060Y-87199380D02*
X171249860Y-87750560D01*
X171249860Y-87001260D02*
X171199060Y-87199380D01*
X171249860Y-87750560D02*
X171450520Y-87951220D01*
X171300660Y-79950220D02*
X171750240Y-79800360D01*
X171300660Y-86699000D02*
X171249860Y-87001260D01*
X171348920Y-82299720D02*
X171199060Y-82299720D01*
X171348920Y-84550160D02*
X170899340Y-84400300D01*
X171348920Y-85749040D02*
X171651180Y-86048760D01*
X171450520Y-83501140D02*
X171750240Y-83501140D01*
X171498780Y-80300740D02*
X171750240Y-79950220D01*
X171549580Y-82800100D02*
X171150800Y-82949960D01*
X171549580Y-85299460D02*
X171348920Y-85749040D01*
X171651180Y-82299720D02*
X171348920Y-82299720D01*
X171651180Y-86048760D02*
X172049960Y-86249420D01*
X171699440Y-79449840D02*
X171199060Y-79698760D01*
X171699440Y-84649220D02*
X172100760Y-84900680D01*
X171750240Y-79800360D02*
X172199820Y-79899420D01*
X171750240Y-81448820D02*
X171801040Y-81900940D01*
X171750240Y-83501140D02*
X171849300Y-83399540D01*
X171801040Y-81900940D02*
X171950900Y-82299720D01*
X171849300Y-80001020D02*
X172499540Y-80199140D01*
X171849300Y-83399540D02*
X171999160Y-83150620D01*
X171849300Y-84600960D02*
X171348920Y-84550160D01*
X171849300Y-87100320D02*
X171999160Y-87349240D01*
X171950900Y-79698760D02*
X172199820Y-79749560D01*
X171950900Y-82299720D02*
X172049960Y-82449580D01*
X171950900Y-82449580D02*
X171651180Y-82299720D01*
X171999160Y-83150620D02*
X171549580Y-82800100D01*
X171999160Y-86699000D02*
X171849300Y-87100320D01*
X172049960Y-85350260D02*
X172100760Y-85550920D01*
X172049960Y-86249420D02*
X171999160Y-86699000D01*
X172100760Y-79449840D02*
X171699440Y-79449840D01*
X172100760Y-82500380D02*
X172199820Y-82650240D01*
X172100760Y-84900680D02*
X172349680Y-84900680D01*
X172100760Y-85200400D02*
X172049960Y-85350260D01*
X172100760Y-85550920D02*
X172298880Y-85749040D01*
X172199820Y-78499880D02*
X172649400Y-79099320D01*
X172199820Y-79899420D02*
X172799260Y-80199140D01*
X172199820Y-82650240D02*
X172349680Y-82800100D01*
X172250620Y-78400820D02*
X172850060Y-78649740D01*
X172298880Y-81400560D02*
X172448740Y-81050040D01*
X172298880Y-84649220D02*
X171849300Y-84600960D01*
X172298880Y-85749040D02*
X172550340Y-85949700D01*
X172349680Y-82800100D02*
X172499540Y-82800100D01*
X172349680Y-83950720D02*
X172499540Y-84301240D01*
X172349680Y-84948940D02*
X172601140Y-85050540D01*
X172400480Y-79599700D02*
X172100760Y-79449840D01*
X172400480Y-86899660D02*
X172448740Y-86899660D01*
X172448740Y-81050040D02*
X172850060Y-81149100D01*
X172499540Y-80199140D02*
X172900860Y-80399800D01*
X172499540Y-82800100D02*
X172700200Y-82701040D01*
X172499540Y-84301240D02*
X172850060Y-84499360D01*
X172550340Y-85949700D02*
X172649400Y-86300220D01*
X172550340Y-86599940D02*
X172400480Y-86899660D01*
X172601140Y-85050540D02*
X172850060Y-85050540D01*
X172649400Y-79099320D02*
X172999920Y-79200920D01*
X172649400Y-79800360D02*
X172400480Y-79599700D01*
X172649400Y-85098800D02*
X172100760Y-85200400D01*
X172649400Y-86300220D02*
X172550340Y-86599940D01*
X172700200Y-82701040D02*
X172900860Y-82701040D01*
X172751000Y-83849120D02*
X172349680Y-83950720D01*
X172799260Y-80199140D02*
X172999920Y-80450600D01*
X172850060Y-78649740D02*
X173299640Y-78550680D01*
X172850060Y-81149100D02*
X172949120Y-81349760D01*
X172850060Y-81601220D02*
X172400480Y-81499620D01*
X172850060Y-82000000D02*
X172799260Y-82650240D01*
X172850060Y-82701040D02*
X173248840Y-82701040D01*
X172850060Y-83249680D02*
X172751000Y-83399540D01*
X172850060Y-85050540D02*
X172649400Y-85098800D01*
X172900860Y-80399800D02*
X174198800Y-81250700D01*
X172900860Y-83849120D02*
X172751000Y-83849120D01*
X172900860Y-84550160D02*
X172298880Y-84649220D01*
X172949120Y-81349760D02*
X172850060Y-81601220D01*
X172999920Y-79200920D02*
X173449500Y-79200920D01*
X172999920Y-80450600D02*
X173700960Y-81550420D01*
X173098980Y-80100080D02*
X172649400Y-79800360D01*
X173149780Y-88200140D02*
X173299640Y-88649720D01*
X173200580Y-87699760D02*
X173149780Y-88200140D01*
X173248840Y-82701040D02*
X173401240Y-82850900D01*
X173299640Y-78550680D02*
X173800020Y-78299220D01*
X173299640Y-88649720D02*
X173650160Y-88799580D01*
X173401240Y-79051060D02*
X173899080Y-78350020D01*
X173401240Y-82299720D02*
X172949120Y-81900940D01*
X173401240Y-82850900D02*
X172900860Y-83849120D01*
X173449500Y-79200920D02*
X173800020Y-79249180D01*
X173449500Y-80249940D02*
X173098980Y-80100080D01*
X173500300Y-87349240D02*
X173200580Y-87699760D01*
X173650160Y-88799580D02*
X174099740Y-88700520D01*
X173700960Y-81550420D02*
X174000680Y-82200660D01*
X173749220Y-80199140D02*
X173449500Y-80249940D01*
X173800020Y-78299220D02*
X174249600Y-78250960D01*
X173800020Y-79249180D02*
X174000680Y-79650500D01*
X173800020Y-87300980D02*
X173500300Y-87349240D01*
X173899080Y-78350020D02*
X172751000Y-79051060D01*
X173949880Y-80150880D02*
X174699180Y-80849380D01*
X174000680Y-79299980D02*
X175148760Y-78850400D01*
X174000680Y-79650500D02*
X174048940Y-79950220D01*
X174000680Y-82200660D02*
X173401240Y-82299720D01*
X174048940Y-79950220D02*
X173749220Y-80199140D01*
X174048940Y-87400040D02*
X173800020Y-87300980D01*
X174099740Y-88200140D02*
X173800020Y-88200140D01*
X174099740Y-88700520D02*
X174099740Y-88200140D01*
X174198800Y-81250700D02*
X173949880Y-80150880D01*
X174249600Y-78250960D02*
X174699180Y-78499880D01*
X174249600Y-79749560D02*
X175250360Y-80001020D01*
X174549320Y-81149100D02*
X174000680Y-81550420D01*
X174699180Y-78499880D02*
X175148760Y-78799600D01*
X174699180Y-80849380D02*
X174249600Y-79749560D01*
X174749980Y-87349240D02*
X175301160Y-87300980D01*
X174749980Y-88799580D02*
X174749980Y-87349240D01*
X174998900Y-80750320D02*
X174549320Y-81149100D01*
X175148760Y-78799600D02*
X175349420Y-79350780D01*
X175148760Y-78850400D02*
X173401240Y-79051060D01*
X175250360Y-80001020D02*
X174000680Y-79299980D01*
X175250360Y-80199140D02*
X174998900Y-80750320D01*
X175301160Y-87300980D02*
X175550080Y-87499100D01*
X175349420Y-79350780D02*
X175349420Y-79800360D01*
X175349420Y-79800360D02*
X175250360Y-80199140D01*
X175349420Y-88050280D02*
X174849040Y-87999480D01*
X175550080Y-87499100D02*
X175649140Y-87900420D01*
X175649140Y-87900420D02*
X175349420Y-88050280D01*
X176299380Y-87250180D02*
X176299380Y-88850380D01*
X176299380Y-88850380D02*
X177000420Y-88850380D01*
D12*
%TO.C,J4*%
X171880000Y-114455572D02*
X173880000Y-114455572D01*
X171880000Y-115705572D02*
X171880000Y-114455572D01*
X172270000Y-114845572D02*
X172270000Y-122315572D01*
X172270000Y-122315572D02*
X187730000Y-122315572D01*
X173420000Y-115805572D02*
X176420000Y-115805572D01*
X173420000Y-117155572D02*
X174170000Y-117155572D01*
X173420000Y-121455572D02*
X173420000Y-117155572D01*
X173670000Y-116805572D02*
X173420000Y-115805572D01*
X174170000Y-116805572D02*
X173670000Y-116805572D01*
X174170000Y-117155572D02*
X174170000Y-116805572D01*
X174170000Y-121455572D02*
X173420000Y-121455572D01*
X175670000Y-116805572D02*
X175670000Y-117155572D01*
X175670000Y-117155572D02*
X176420000Y-117155572D01*
X176170000Y-116805572D02*
X175670000Y-116805572D01*
X176420000Y-115805572D02*
X176170000Y-116805572D01*
X176420000Y-117155572D02*
X176420000Y-121455572D01*
X176420000Y-121455572D02*
X175670000Y-121455572D01*
X178500000Y-115805572D02*
X181500000Y-115805572D01*
X178500000Y-117155572D02*
X179250000Y-117155572D01*
X178500000Y-121455572D02*
X178500000Y-117155572D01*
X178750000Y-116805572D02*
X178500000Y-115805572D01*
X179250000Y-116805572D02*
X178750000Y-116805572D01*
X179250000Y-117155572D02*
X179250000Y-116805572D01*
X179250000Y-121455572D02*
X178500000Y-121455572D01*
X180750000Y-116805572D02*
X180750000Y-117155572D01*
X180750000Y-117155572D02*
X181500000Y-117155572D01*
X181250000Y-116805572D02*
X180750000Y-116805572D01*
X181500000Y-115805572D02*
X181250000Y-116805572D01*
X181500000Y-117155572D02*
X181500000Y-121455572D01*
X181500000Y-121455572D02*
X180750000Y-121455572D01*
X183580000Y-115805572D02*
X186580000Y-115805572D01*
X183580000Y-117155572D02*
X184330000Y-117155572D01*
X183580000Y-121455572D02*
X183580000Y-117155572D01*
X183830000Y-116805572D02*
X183580000Y-115805572D01*
X184330000Y-116805572D02*
X183830000Y-116805572D01*
X184330000Y-117155572D02*
X184330000Y-116805572D01*
X184330000Y-121455572D02*
X183580000Y-121455572D01*
X185830000Y-116805572D02*
X185830000Y-117155572D01*
X185830000Y-117155572D02*
X186580000Y-117155572D01*
X186330000Y-116805572D02*
X185830000Y-116805572D01*
X186580000Y-115805572D02*
X186330000Y-116805572D01*
X186580000Y-117155572D02*
X186580000Y-121455572D01*
X186580000Y-121455572D02*
X185830000Y-121455572D01*
X187730000Y-114845572D02*
X172270000Y-114845572D01*
X187730000Y-122315572D02*
X187730000Y-114845572D01*
X175669647Y-121455417D02*
G75*
G03*
X174170000Y-121455572I-749647J-1700155D01*
G01*
X180749647Y-121455417D02*
G75*
G03*
X179250000Y-121455572I-749647J-1700155D01*
G01*
X185829647Y-121455417D02*
G75*
G03*
X184330000Y-121455572I-749647J-1700155D01*
G01*
%TO.C,D14*%
X126028500Y-91960000D02*
X127703500Y-91960000D01*
X126028500Y-91960000D02*
X125378500Y-91960000D01*
X126028500Y-88840000D02*
X126678500Y-88840000D01*
X126028500Y-88840000D02*
X125378500Y-88840000D01*
%TO.C,R2*%
X121485436Y-86165000D02*
X121939564Y-86165000D01*
X121485436Y-87635000D02*
X121939564Y-87635000D01*
%TO.C,D6*%
X186685000Y-105740000D02*
X183515000Y-105740000D01*
X183515000Y-105740000D02*
X183515000Y-111600000D01*
X186685000Y-111600000D02*
X186685000Y-105740000D01*
%TO.C,R7*%
X141672936Y-77065000D02*
X142127064Y-77065000D01*
X141672936Y-78535000D02*
X142127064Y-78535000D01*
%TO.C,+5V*%
X120450000Y-119450000D02*
X120450000Y-121350000D01*
X120450000Y-121350000D02*
X122300000Y-121350000D01*
X122300000Y-119450000D02*
X120450000Y-119450000D01*
X122300000Y-119500000D02*
X122300000Y-119450000D01*
X122300000Y-121350000D02*
X122300000Y-119500000D01*
%TO.C,TXD*%
X132051000Y-78700000D02*
G75*
G03*
X132051000Y-78700000I-1251000J0D01*
G01*
%TO.C,D11*%
X158510500Y-100926572D02*
X160185500Y-100926572D01*
X158510500Y-100926572D02*
X157860500Y-100926572D01*
X158510500Y-97806572D02*
X159160500Y-97806572D01*
X158510500Y-97806572D02*
X157860500Y-97806572D01*
%TO.C,R8*%
X137660436Y-85965000D02*
X138114564Y-85965000D01*
X137660436Y-87435000D02*
X138114564Y-87435000D01*
%TO.C,D10*%
X158510500Y-104482572D02*
X160185500Y-104482572D01*
X158510500Y-104482572D02*
X157860500Y-104482572D01*
X158510500Y-101362572D02*
X159160500Y-101362572D01*
X158510500Y-101362572D02*
X157860500Y-101362572D01*
%TO.C,J1*%
X111450000Y-100358572D02*
X111450000Y-98358572D01*
X112700000Y-100358572D02*
X111450000Y-100358572D01*
X111840000Y-99968572D02*
X119310000Y-99968572D01*
X119310000Y-99968572D02*
X119310000Y-80848572D01*
X112800000Y-98908572D02*
X112800000Y-95908572D01*
X114150000Y-98908572D02*
X114150000Y-98158572D01*
X118450000Y-98908572D02*
X114150000Y-98908572D01*
X113800000Y-98658572D02*
X112800000Y-98908572D01*
X113800000Y-98158572D02*
X113800000Y-98658572D01*
X114150000Y-98158572D02*
X113800000Y-98158572D01*
X118450000Y-98158572D02*
X118450000Y-98908572D01*
X113800000Y-96658572D02*
X114150000Y-96658572D01*
X114150000Y-96658572D02*
X114150000Y-95908572D01*
X113800000Y-96158572D02*
X113800000Y-96658572D01*
X112800000Y-95908572D02*
X113800000Y-96158572D01*
X114150000Y-95908572D02*
X118450000Y-95908572D01*
X118450000Y-95908572D02*
X118450000Y-96658572D01*
X112800000Y-95408572D02*
X112800000Y-92408572D01*
X114150000Y-95408572D02*
X114150000Y-94658572D01*
X118450000Y-95408572D02*
X114150000Y-95408572D01*
X113800000Y-95158572D02*
X112800000Y-95408572D01*
X113800000Y-94658572D02*
X113800000Y-95158572D01*
X114150000Y-94658572D02*
X113800000Y-94658572D01*
X118450000Y-94658572D02*
X118450000Y-95408572D01*
X113800000Y-93158572D02*
X114150000Y-93158572D01*
X114150000Y-93158572D02*
X114150000Y-92408572D01*
X113800000Y-92658572D02*
X113800000Y-93158572D01*
X112800000Y-92408572D02*
X113800000Y-92658572D01*
X114150000Y-92408572D02*
X118450000Y-92408572D01*
X118450000Y-92408572D02*
X118450000Y-93158572D01*
X112800000Y-91908572D02*
X112800000Y-88908572D01*
X114150000Y-91908572D02*
X114150000Y-91158572D01*
X118450000Y-91908572D02*
X114150000Y-91908572D01*
X113800000Y-91658572D02*
X112800000Y-91908572D01*
X113800000Y-91158572D02*
X113800000Y-91658572D01*
X114150000Y-91158572D02*
X113800000Y-91158572D01*
X118450000Y-91158572D02*
X118450000Y-91908572D01*
X113800000Y-89658572D02*
X114150000Y-89658572D01*
X114150000Y-89658572D02*
X114150000Y-88908572D01*
X113800000Y-89158572D02*
X113800000Y-89658572D01*
X112800000Y-88908572D02*
X113800000Y-89158572D01*
X114150000Y-88908572D02*
X118450000Y-88908572D01*
X118450000Y-88908572D02*
X118450000Y-89658572D01*
X112800000Y-88408572D02*
X112800000Y-85408572D01*
X114150000Y-88408572D02*
X114150000Y-87658572D01*
X118450000Y-88408572D02*
X114150000Y-88408572D01*
X113800000Y-88158572D02*
X112800000Y-88408572D01*
X113800000Y-87658572D02*
X113800000Y-88158572D01*
X114150000Y-87658572D02*
X113800000Y-87658572D01*
X118450000Y-87658572D02*
X118450000Y-88408572D01*
X113800000Y-86158572D02*
X114150000Y-86158572D01*
X114150000Y-86158572D02*
X114150000Y-85408572D01*
X113800000Y-85658572D02*
X113800000Y-86158572D01*
X112800000Y-85408572D02*
X113800000Y-85658572D01*
X114150000Y-85408572D02*
X118450000Y-85408572D01*
X118450000Y-85408572D02*
X118450000Y-86158572D01*
X112800000Y-84908572D02*
X112800000Y-81908572D01*
X114150000Y-84908572D02*
X114150000Y-84158572D01*
X118450000Y-84908572D02*
X114150000Y-84908572D01*
X113800000Y-84658572D02*
X112800000Y-84908572D01*
X113800000Y-84158572D02*
X113800000Y-84658572D01*
X114150000Y-84158572D02*
X113800000Y-84158572D01*
X118450000Y-84158572D02*
X118450000Y-84908572D01*
X113800000Y-82658572D02*
X114150000Y-82658572D01*
X114150000Y-82658572D02*
X114150000Y-81908572D01*
X113800000Y-82158572D02*
X113800000Y-82658572D01*
X112800000Y-81908572D02*
X113800000Y-82158572D01*
X114150000Y-81908572D02*
X118450000Y-81908572D01*
X118450000Y-81908572D02*
X118450000Y-82658572D01*
X111840000Y-80848572D02*
X111840000Y-99968572D01*
X119310000Y-80848572D02*
X111840000Y-80848572D01*
X118449845Y-96658925D02*
G75*
G03*
X118450000Y-98158572I1700155J-749647D01*
G01*
X118449845Y-93158925D02*
G75*
G03*
X118450000Y-94658572I1700155J-749647D01*
G01*
X118449845Y-89658925D02*
G75*
G03*
X118450000Y-91158572I1700155J-749647D01*
G01*
X118449845Y-86158925D02*
G75*
G03*
X118450000Y-87658572I1700155J-749647D01*
G01*
X118449845Y-82658925D02*
G75*
G03*
X118450000Y-84158572I1700155J-749647D01*
G01*
%TO.C,R15*%
X153886564Y-110769572D02*
X153432436Y-110769572D01*
X153886564Y-109299572D02*
X153432436Y-109299572D01*
%TO.C,C4*%
X184365000Y-102411252D02*
X184365000Y-101888748D01*
X185835000Y-102411252D02*
X185835000Y-101888748D01*
%TO.C,C2*%
X174410000Y-102250000D02*
X174410000Y-103250000D01*
X174910000Y-102750000D02*
X173910000Y-102750000D01*
X175095563Y-103490000D02*
X173410000Y-103490000D01*
X175095563Y-103490000D02*
X176160000Y-104554437D01*
X168704437Y-103490000D02*
X170390000Y-103490000D01*
X168704437Y-103490000D02*
X167640000Y-104554437D01*
X176160000Y-104554437D02*
X176160000Y-112010000D01*
X167640000Y-104554437D02*
X167640000Y-112010000D01*
X176160000Y-112010000D02*
X173410000Y-112010000D01*
X167640000Y-112010000D02*
X170390000Y-112010000D01*
%TO.C,U1*%
X151467000Y-75900000D02*
X151467000Y-96900000D01*
X151467000Y-96900000D02*
X187467000Y-96900000D01*
X183467000Y-88900000D02*
X198467000Y-88900000D01*
X183467000Y-94900000D02*
X183467000Y-88900000D01*
X187467000Y-75900000D02*
X151467000Y-75900000D01*
X187467000Y-96900000D02*
X187467000Y-75900000D01*
X198467000Y-88900000D02*
X198467000Y-94900000D01*
X198467000Y-94900000D02*
X183467000Y-94900000D01*
%TO.C,D13*%
X126028500Y-95460000D02*
X127703500Y-95460000D01*
X126028500Y-95460000D02*
X125378500Y-95460000D01*
X126028500Y-92340000D02*
X126678500Y-92340000D01*
X126028500Y-92340000D02*
X125378500Y-92340000D01*
%TO.C,GND*%
X129550000Y-119450000D02*
X129550000Y-121350000D01*
X129550000Y-121350000D02*
X131400000Y-121350000D01*
X131400000Y-119450000D02*
X129550000Y-119450000D01*
X131400000Y-119500000D02*
X131400000Y-119450000D01*
X131400000Y-121350000D02*
X131400000Y-119500000D01*
%TO.C,R4*%
X121460436Y-93165000D02*
X121914564Y-93165000D01*
X121460436Y-94635000D02*
X121914564Y-94635000D01*
%TO.C,SCL*%
X123550000Y-119450000D02*
X123550000Y-121350000D01*
X123550000Y-121350000D02*
X125400000Y-121350000D01*
X125400000Y-119450000D02*
X123550000Y-119450000D01*
X125400000Y-119500000D02*
X125400000Y-119450000D01*
X125400000Y-121350000D02*
X125400000Y-119500000D01*
%TO.C,RXD*%
X128851000Y-78700000D02*
G75*
G03*
X128851000Y-78700000I-1251000J0D01*
G01*
%TO.C,R10*%
X137585436Y-101465000D02*
X138039564Y-101465000D01*
X137585436Y-102935000D02*
X138039564Y-102935000D01*
%TO.C,R3*%
X121460436Y-89665000D02*
X121914564Y-89665000D01*
X121460436Y-91135000D02*
X121914564Y-91135000D01*
%TO.C,A1*%
X132688000Y-75995572D02*
X132688000Y-78665572D01*
X132688000Y-81205572D02*
X132688000Y-119435572D01*
X132688000Y-119435572D02*
X137768000Y-119435572D01*
X135358000Y-78665572D02*
X132688000Y-78665572D01*
X135358000Y-81205572D02*
X132688000Y-81205572D01*
X135358000Y-81205572D02*
X135358000Y-78665572D01*
X135358000Y-81205572D02*
X135358000Y-116765572D01*
X135358000Y-116765572D02*
X132688000Y-116765572D01*
X137768000Y-111555572D02*
X145648000Y-111555572D01*
X137768000Y-121975572D02*
X137768000Y-111555572D01*
X145648000Y-111555572D02*
X145648000Y-121975572D01*
X145648000Y-121975572D02*
X137768000Y-121975572D01*
X148058000Y-78665572D02*
X148058000Y-116765572D01*
X148058000Y-78665572D02*
X150728000Y-78665572D01*
X148058000Y-116765572D02*
X150728000Y-116765572D01*
X150728000Y-75995572D02*
X132688000Y-75995572D01*
X150728000Y-119435572D02*
X145648000Y-119435572D01*
X150728000Y-119435572D02*
X150728000Y-75995572D01*
%TO.C,R1*%
X121472936Y-82665000D02*
X121927064Y-82665000D01*
X121472936Y-84135000D02*
X121927064Y-84135000D01*
%TO.C,C3*%
X181485000Y-104575000D02*
X181485000Y-105200000D01*
X181797500Y-104887500D02*
X181172500Y-104887500D01*
X181495563Y-105440000D02*
X180860000Y-105440000D01*
X181495563Y-105440000D02*
X182560000Y-106504437D01*
X178104437Y-105440000D02*
X178740000Y-105440000D01*
X178104437Y-105440000D02*
X177040000Y-106504437D01*
X182560000Y-106504437D02*
X182560000Y-110960000D01*
X177040000Y-106504437D02*
X177040000Y-110960000D01*
X182560000Y-110960000D02*
X180860000Y-110960000D01*
X177040000Y-110960000D02*
X178740000Y-110960000D01*
%TD*%
M02*
