%TF.GenerationSoftware,KiCad,Pcbnew,6.99.0-unknown-492e6548ff~162~ubuntu22.04.1*%
%TF.CreationDate,2022-12-11T13:45:47+01:00*%
%TF.ProjectId,lora_dual,6c6f7261-5f64-4756-916c-2e6b69636164,rev?*%
%TF.SameCoordinates,Original*%
%TF.FileFunction,Drillmap*%
%TF.FilePolarity,Positive*%
%FSLAX45Y45*%
G04 Gerber Fmt 4.5, Leading zero omitted, Abs format (unit mm)*
G04 Created by KiCad (PCBNEW 6.99.0-unknown-492e6548ff~162~ubuntu22.04.1) date 2022-12-11 13:45:47*
%MOMM*%
%LPD*%
G01*
G04 APERTURE LIST*
%ADD10C,0.100000*%
%ADD11C,0.150000*%
%ADD12C,0.200000*%
%ADD13C,0.040000*%
%ADD14C,0.070000*%
%ADD15C,0.076200*%
%ADD16C,0.080000*%
%ADD17C,0.110000*%
%ADD18C,0.175000*%
G04 APERTURE END LIST*
D10*
X15375000Y-12595000D02*
X16120000Y-12595000D01*
X16120000Y-12595000D02*
X16120000Y-12755000D01*
X16120000Y-12755000D02*
X15375000Y-12755000D01*
X15375000Y-12755000D02*
X15375000Y-12595000D01*
X20640000Y-12600000D02*
X21385000Y-12600000D01*
X21385000Y-12600000D02*
X21385000Y-12760000D01*
X21385000Y-12760000D02*
X20640000Y-12760000D01*
X20640000Y-12760000D02*
X20640000Y-12600000D01*
X21540000Y-12600000D02*
X22285000Y-12600000D01*
X22285000Y-12600000D02*
X22285000Y-12760000D01*
X22285000Y-12760000D02*
X21540000Y-12760000D01*
X21540000Y-12760000D02*
X21540000Y-12600000D01*
X19755000Y-12600000D02*
X20500000Y-12600000D01*
X20500000Y-12600000D02*
X20500000Y-12760000D01*
X20500000Y-12760000D02*
X19755000Y-12760000D01*
X19755000Y-12760000D02*
X19755000Y-12600000D01*
D11*
X13560000Y-9525000D02*
X22350000Y-9525000D01*
X22350000Y-9525000D02*
X22350000Y-16035000D01*
X22350000Y-16035000D02*
X13560000Y-16035000D01*
X13560000Y-16035000D02*
X13560000Y-9525000D01*
D10*
X14520000Y-12595000D02*
X15265000Y-12595000D01*
X15265000Y-12595000D02*
X15265000Y-12755000D01*
X15265000Y-12755000D02*
X14520000Y-12755000D01*
X14520000Y-12755000D02*
X14520000Y-12595000D01*
X17960000Y-12600000D02*
X18705000Y-12600000D01*
X18705000Y-12600000D02*
X18705000Y-12760000D01*
X18705000Y-12760000D02*
X17960000Y-12760000D01*
X17960000Y-12760000D02*
X17960000Y-12600000D01*
X13660000Y-12595000D02*
X14405000Y-12595000D01*
X14405000Y-12595000D02*
X14405000Y-12755000D01*
X14405000Y-12755000D02*
X13660000Y-12755000D01*
X13660000Y-12755000D02*
X13660000Y-12595000D01*
X18875000Y-12600000D02*
X19620000Y-12600000D01*
X19620000Y-12600000D02*
X19620000Y-12760000D01*
X19620000Y-12760000D02*
X18875000Y-12760000D01*
X18875000Y-12760000D02*
X18875000Y-12600000D01*
X17090000Y-12600000D02*
X17835000Y-12600000D01*
X17835000Y-12600000D02*
X17835000Y-12760000D01*
X17835000Y-12760000D02*
X17090000Y-12760000D01*
X17090000Y-12760000D02*
X17090000Y-12600000D01*
X16225000Y-12600000D02*
X16970000Y-12600000D01*
X16970000Y-12600000D02*
X16970000Y-12760000D01*
X16970000Y-12760000D02*
X16225000Y-12760000D01*
X16225000Y-12760000D02*
X16225000Y-12600000D01*
D12*
D13*
X14951250Y-14843750D02*
X14991250Y-14883750D01*
X14991250Y-14843750D02*
X14951250Y-14883750D01*
X15160000Y-11845000D02*
X15200000Y-11885000D01*
X15200000Y-11845000D02*
X15160000Y-11885000D01*
X15358000Y-11425000D02*
X15398000Y-11465000D01*
X15398000Y-11425000D02*
X15358000Y-11465000D01*
X15430000Y-15187500D02*
X15470000Y-15227500D01*
X15470000Y-15187500D02*
X15430000Y-15227500D01*
X15473000Y-11425000D02*
X15513000Y-11465000D01*
X15513000Y-11425000D02*
X15473000Y-11465000D01*
X15583000Y-11425000D02*
X15623000Y-11465000D01*
X15623000Y-11425000D02*
X15583000Y-11465000D01*
X15716250Y-10726250D02*
X15756250Y-10766250D01*
X15756250Y-10726250D02*
X15716250Y-10766250D01*
X15910000Y-12150000D02*
X15950000Y-12190000D01*
X15950000Y-12150000D02*
X15910000Y-12190000D01*
X16185000Y-12115000D02*
X16225000Y-12155000D01*
X16225000Y-12115000D02*
X16185000Y-12155000D01*
X16320000Y-14630000D02*
X16360000Y-14670000D01*
X16360000Y-14630000D02*
X16320000Y-14670000D01*
X16482500Y-14630000D02*
X16522500Y-14670000D01*
X16522500Y-14630000D02*
X16482500Y-14670000D01*
X17122000Y-11752000D02*
X17162000Y-11792000D01*
X17162000Y-11752000D02*
X17122000Y-11792000D01*
X17127000Y-11552000D02*
X17167000Y-11592000D01*
X17167000Y-11552000D02*
X17127000Y-11592000D01*
X17165000Y-14375000D02*
X17205000Y-14415000D01*
X17205000Y-14375000D02*
X17165000Y-14415000D01*
X17260000Y-15160000D02*
X17300000Y-15200000D01*
X17300000Y-15160000D02*
X17260000Y-15200000D01*
X17262500Y-14652500D02*
X17302500Y-14692500D01*
X17302500Y-14652500D02*
X17262500Y-14692500D01*
X17370000Y-13482500D02*
X17410000Y-13522500D01*
X17410000Y-13482500D02*
X17370000Y-13522500D01*
X17371000Y-11710000D02*
X17411000Y-11750000D01*
X17411000Y-11710000D02*
X17371000Y-11750000D01*
X17371500Y-14782450D02*
X17411500Y-14822450D01*
X17411500Y-14782450D02*
X17371500Y-14822450D01*
X17390000Y-15450000D02*
X17430000Y-15490000D01*
X17430000Y-15450000D02*
X17390000Y-15490000D01*
X17490000Y-13770000D02*
X17530000Y-13810000D01*
X17530000Y-13770000D02*
X17490000Y-13810000D01*
X17515000Y-14110000D02*
X17555000Y-14150000D01*
X17555000Y-14110000D02*
X17515000Y-14150000D01*
X17640000Y-15020000D02*
X17680000Y-15060000D01*
X17680000Y-15020000D02*
X17640000Y-15060000D01*
X17670049Y-15544951D02*
X17710049Y-15584951D01*
X17710049Y-15544951D02*
X17670049Y-15584951D01*
X17910000Y-11835000D02*
X17950000Y-11875000D01*
X17950000Y-11835000D02*
X17910000Y-11875000D01*
X17933000Y-11153000D02*
X17973000Y-11193000D01*
X17973000Y-11153000D02*
X17933000Y-11193000D01*
X17940000Y-12100000D02*
X17980000Y-12140000D01*
X17980000Y-12100000D02*
X17940000Y-12140000D01*
X18005000Y-13640000D02*
X18045000Y-13680000D01*
X18045000Y-13640000D02*
X18005000Y-13680000D01*
X18360000Y-12020000D02*
X18400000Y-12060000D01*
X18400000Y-12020000D02*
X18360000Y-12060000D01*
X18485000Y-13640000D02*
X18525000Y-13680000D01*
X18525000Y-13640000D02*
X18485000Y-13680000D01*
X18535000Y-11592000D02*
X18575000Y-11632000D01*
X18575000Y-11592000D02*
X18535000Y-11632000D01*
X18536750Y-11325750D02*
X18576750Y-11365750D01*
X18576750Y-11325750D02*
X18536750Y-11365750D01*
D14*
X16745000Y-15705000D02*
G75*
G03*
X16745000Y-15705000I-35000J0D01*
G01*
X17252500Y-15705000D02*
G75*
G03*
X17252500Y-15705000I-35000J0D01*
G01*
X17732500Y-15722500D02*
G75*
G03*
X17732500Y-15722500I-35000J0D01*
G01*
D15*
X18147000Y-13906400D02*
X18147000Y-13982600D01*
X18108900Y-13944500D02*
X18185100Y-13944500D01*
X18147000Y-14160400D02*
X18147000Y-14236600D01*
X18108900Y-14198500D02*
X18185100Y-14198500D01*
X18147000Y-14414400D02*
X18147000Y-14490600D01*
X18108900Y-14452500D02*
X18185100Y-14452500D01*
X18147000Y-14668400D02*
X18147000Y-14744600D01*
X18108900Y-14706500D02*
X18185100Y-14706500D01*
X18147000Y-14922400D02*
X18147000Y-14998600D01*
X18108900Y-14960500D02*
X18185100Y-14960500D01*
X18147000Y-15176400D02*
X18147000Y-15252600D01*
X18108900Y-15214500D02*
X18185100Y-15214500D01*
X18147000Y-15430400D02*
X18147000Y-15506600D01*
X18108900Y-15468500D02*
X18185100Y-15468500D01*
X18159000Y-10676900D02*
X18159000Y-10753100D01*
X18120900Y-10715000D02*
X18197100Y-10715000D01*
X18159000Y-10930900D02*
X18159000Y-11007100D01*
X18120900Y-10969000D02*
X18197100Y-10969000D01*
X18159000Y-11184900D02*
X18159000Y-11261100D01*
X18120900Y-11223000D02*
X18197100Y-11223000D01*
X18159000Y-11438900D02*
X18159000Y-11515100D01*
X18120900Y-11477000D02*
X18197100Y-11477000D01*
X18159000Y-11692900D02*
X18159000Y-11769100D01*
X18120900Y-11731000D02*
X18197100Y-11731000D01*
X18159000Y-11946900D02*
X18159000Y-12023100D01*
X18120900Y-11985000D02*
X18197100Y-11985000D01*
X18159000Y-12200900D02*
X18159000Y-12277100D01*
X18120900Y-12239000D02*
X18197100Y-12239000D01*
X21997500Y-13905800D02*
X21997500Y-13982000D01*
X21959400Y-13943900D02*
X22035600Y-13943900D01*
X21997500Y-14159800D02*
X21997500Y-14236000D01*
X21959400Y-14197900D02*
X22035600Y-14197900D01*
X21997500Y-14413800D02*
X21997500Y-14490000D01*
X21959400Y-14451900D02*
X22035600Y-14451900D01*
X21997500Y-14667800D02*
X21997500Y-14744000D01*
X21959400Y-14705900D02*
X22035600Y-14705900D01*
X22009500Y-10676300D02*
X22009500Y-10752500D01*
X21971400Y-10714400D02*
X22047600Y-10714400D01*
X22009500Y-10930300D02*
X22009500Y-11006500D01*
X21971400Y-10968400D02*
X22047600Y-10968400D01*
X22009500Y-11184300D02*
X22009500Y-11260500D01*
X21971400Y-11222400D02*
X22047600Y-11222400D01*
X22009500Y-11438300D02*
X22009500Y-11514500D01*
X21971400Y-11476400D02*
X22047600Y-11476400D01*
D16*
X16528284Y-13318284D02*
X16528284Y-13261715D01*
X16471715Y-13261715D01*
X16471715Y-13318284D01*
X16528284Y-13318284D01*
X15232000Y-10603000D02*
X15272000Y-10563000D01*
X15232000Y-10523000D01*
X15192000Y-10563000D01*
X15232000Y-10603000D01*
X15232000Y-15415000D02*
X15272000Y-15375000D01*
X15232000Y-15335000D01*
X15192000Y-15375000D01*
X15232000Y-15415000D01*
X15232000Y-15730000D02*
X15272000Y-15690000D01*
X15232000Y-15650000D01*
X15192000Y-15690000D01*
X15232000Y-15730000D01*
X15486000Y-10603000D02*
X15526000Y-10563000D01*
X15486000Y-10523000D01*
X15446000Y-10563000D01*
X15486000Y-10603000D01*
X16248000Y-15415000D02*
X16288000Y-15375000D01*
X16248000Y-15335000D01*
X16208000Y-15375000D01*
X16248000Y-15415000D01*
X16248000Y-15730000D02*
X16288000Y-15690000D01*
X16248000Y-15650000D01*
X16208000Y-15690000D01*
X16248000Y-15730000D01*
X17466000Y-12410000D02*
X17506000Y-12370000D01*
X17466000Y-12330000D01*
X17426000Y-12370000D01*
X17466000Y-12410000D01*
X17720000Y-12410000D02*
X17760000Y-12370000D01*
X17720000Y-12330000D01*
X17680000Y-12370000D01*
X17720000Y-12410000D01*
X18218500Y-10259000D02*
X18258500Y-10219000D01*
X18218500Y-10179000D01*
X18178500Y-10219000D01*
X18218500Y-10259000D01*
X18472500Y-10259000D02*
X18512500Y-10219000D01*
X18472500Y-10179000D01*
X18432500Y-10219000D01*
X18472500Y-10259000D01*
D17*
X14795000Y-13307000D02*
X14905000Y-13417000D01*
X14905000Y-13307000D02*
X14795000Y-13417000D01*
X14905000Y-13362000D02*
G75*
G03*
X14905000Y-13362000I-55000J0D01*
G01*
X14795000Y-14323000D02*
X14905000Y-14433000D01*
X14905000Y-14323000D02*
X14795000Y-14433000D01*
X14905000Y-14378000D02*
G75*
G03*
X14905000Y-14378000I-55000J0D01*
G01*
X15177000Y-14995000D02*
X15287000Y-15105000D01*
X15287000Y-14995000D02*
X15177000Y-15105000D01*
X15287000Y-15050000D02*
G75*
G03*
X15287000Y-15050000I-55000J0D01*
G01*
X16193000Y-14995000D02*
X16303000Y-15105000D01*
X16303000Y-14995000D02*
X16193000Y-15105000D01*
X16303000Y-15050000D02*
G75*
G03*
X16303000Y-15050000I-55000J0D01*
G01*
D18*
X14072500Y-10894500D02*
X14247500Y-11069500D01*
X14247500Y-10894500D02*
X14072500Y-11069500D01*
X14160000Y-10894500D02*
X14160000Y-11069500D01*
X14072500Y-10982000D02*
X14247500Y-10982000D01*
X14072500Y-11282500D02*
X14247500Y-11457500D01*
X14247500Y-11282500D02*
X14072500Y-11457500D01*
X14160000Y-11282500D02*
X14160000Y-11457500D01*
X14072500Y-11370000D02*
X14247500Y-11370000D01*
X14080000Y-13942750D02*
X14255000Y-14117750D01*
X14255000Y-13942750D02*
X14080000Y-14117750D01*
X14167500Y-13942750D02*
X14167500Y-14117750D01*
X14080000Y-14030250D02*
X14255000Y-14030250D01*
X14080000Y-14330750D02*
X14255000Y-14505750D01*
X14255000Y-14330750D02*
X14080000Y-14505750D01*
X14167500Y-14330750D02*
X14167500Y-14505750D01*
X14080000Y-14418250D02*
X14255000Y-14418250D01*
X14087500Y-15114500D02*
X14262500Y-15289500D01*
X14262500Y-15114500D02*
X14087500Y-15289500D01*
X14175000Y-15114500D02*
X14175000Y-15289500D01*
X14087500Y-15202000D02*
X14262500Y-15202000D01*
X14087500Y-15502500D02*
X14262500Y-15677500D01*
X14262500Y-15502500D02*
X14087500Y-15677500D01*
X14175000Y-15502500D02*
X14175000Y-15677500D01*
X14087500Y-15590000D02*
X14262500Y-15590000D01*
D12*
X13800119Y-16335976D02*
X13800119Y-16135976D01*
X13800119Y-16135976D02*
X13847738Y-16135976D01*
X13847738Y-16135976D02*
X13876309Y-16145500D01*
X13876309Y-16145500D02*
X13895357Y-16164548D01*
X13895357Y-16164548D02*
X13904881Y-16183595D01*
X13904881Y-16183595D02*
X13914405Y-16221690D01*
X13914405Y-16221690D02*
X13914405Y-16250262D01*
X13914405Y-16250262D02*
X13904881Y-16288357D01*
X13904881Y-16288357D02*
X13895357Y-16307405D01*
X13895357Y-16307405D02*
X13876309Y-16326452D01*
X13876309Y-16326452D02*
X13847738Y-16335976D01*
X13847738Y-16335976D02*
X13800119Y-16335976D01*
X14000119Y-16335976D02*
X14000119Y-16202643D01*
X14000119Y-16240738D02*
X14009643Y-16221690D01*
X14009643Y-16221690D02*
X14019167Y-16212167D01*
X14019167Y-16212167D02*
X14038214Y-16202643D01*
X14038214Y-16202643D02*
X14057262Y-16202643D01*
X14123928Y-16335976D02*
X14123928Y-16202643D01*
X14123928Y-16135976D02*
X14114405Y-16145500D01*
X14114405Y-16145500D02*
X14123928Y-16155024D01*
X14123928Y-16155024D02*
X14133452Y-16145500D01*
X14133452Y-16145500D02*
X14123928Y-16135976D01*
X14123928Y-16135976D02*
X14123928Y-16155024D01*
X14247738Y-16335976D02*
X14228690Y-16326452D01*
X14228690Y-16326452D02*
X14219167Y-16307405D01*
X14219167Y-16307405D02*
X14219167Y-16135976D01*
X14352500Y-16335976D02*
X14333452Y-16326452D01*
X14333452Y-16326452D02*
X14323928Y-16307405D01*
X14323928Y-16307405D02*
X14323928Y-16135976D01*
X14548690Y-16335976D02*
X14548690Y-16135976D01*
X14548690Y-16135976D02*
X14615357Y-16278833D01*
X14615357Y-16278833D02*
X14682024Y-16135976D01*
X14682024Y-16135976D02*
X14682024Y-16335976D01*
X14862976Y-16335976D02*
X14862976Y-16231214D01*
X14862976Y-16231214D02*
X14853452Y-16212167D01*
X14853452Y-16212167D02*
X14834405Y-16202643D01*
X14834405Y-16202643D02*
X14796309Y-16202643D01*
X14796309Y-16202643D02*
X14777262Y-16212167D01*
X14862976Y-16326452D02*
X14843928Y-16335976D01*
X14843928Y-16335976D02*
X14796309Y-16335976D01*
X14796309Y-16335976D02*
X14777262Y-16326452D01*
X14777262Y-16326452D02*
X14767738Y-16307405D01*
X14767738Y-16307405D02*
X14767738Y-16288357D01*
X14767738Y-16288357D02*
X14777262Y-16269309D01*
X14777262Y-16269309D02*
X14796309Y-16259786D01*
X14796309Y-16259786D02*
X14843928Y-16259786D01*
X14843928Y-16259786D02*
X14862976Y-16250262D01*
X14958214Y-16202643D02*
X14958214Y-16402643D01*
X14958214Y-16212167D02*
X14977262Y-16202643D01*
X14977262Y-16202643D02*
X15015357Y-16202643D01*
X15015357Y-16202643D02*
X15034405Y-16212167D01*
X15034405Y-16212167D02*
X15043928Y-16221690D01*
X15043928Y-16221690D02*
X15053452Y-16240738D01*
X15053452Y-16240738D02*
X15053452Y-16297881D01*
X15053452Y-16297881D02*
X15043928Y-16316928D01*
X15043928Y-16316928D02*
X15034405Y-16326452D01*
X15034405Y-16326452D02*
X15015357Y-16335976D01*
X15015357Y-16335976D02*
X14977262Y-16335976D01*
X14977262Y-16335976D02*
X14958214Y-16326452D01*
X15139167Y-16316928D02*
X15148690Y-16326452D01*
X15148690Y-16326452D02*
X15139167Y-16335976D01*
X15139167Y-16335976D02*
X15129643Y-16326452D01*
X15129643Y-16326452D02*
X15139167Y-16316928D01*
X15139167Y-16316928D02*
X15139167Y-16335976D01*
X15139167Y-16212167D02*
X15148690Y-16221690D01*
X15148690Y-16221690D02*
X15139167Y-16231214D01*
X15139167Y-16231214D02*
X15129643Y-16221690D01*
X15129643Y-16221690D02*
X15139167Y-16212167D01*
X15139167Y-16212167D02*
X15139167Y-16231214D01*
D13*
X13512500Y-16662500D02*
X13552500Y-16702500D01*
X13552500Y-16662500D02*
X13512500Y-16702500D01*
D12*
X13838214Y-16555976D02*
X13857262Y-16555976D01*
X13857262Y-16555976D02*
X13876309Y-16565500D01*
X13876309Y-16565500D02*
X13885833Y-16575024D01*
X13885833Y-16575024D02*
X13895357Y-16594071D01*
X13895357Y-16594071D02*
X13904881Y-16632167D01*
X13904881Y-16632167D02*
X13904881Y-16679786D01*
X13904881Y-16679786D02*
X13895357Y-16717881D01*
X13895357Y-16717881D02*
X13885833Y-16736928D01*
X13885833Y-16736928D02*
X13876309Y-16746452D01*
X13876309Y-16746452D02*
X13857262Y-16755976D01*
X13857262Y-16755976D02*
X13838214Y-16755976D01*
X13838214Y-16755976D02*
X13819167Y-16746452D01*
X13819167Y-16746452D02*
X13809643Y-16736928D01*
X13809643Y-16736928D02*
X13800119Y-16717881D01*
X13800119Y-16717881D02*
X13790595Y-16679786D01*
X13790595Y-16679786D02*
X13790595Y-16632167D01*
X13790595Y-16632167D02*
X13800119Y-16594071D01*
X13800119Y-16594071D02*
X13809643Y-16575024D01*
X13809643Y-16575024D02*
X13819167Y-16565500D01*
X13819167Y-16565500D02*
X13838214Y-16555976D01*
X13990595Y-16736928D02*
X14000119Y-16746452D01*
X14000119Y-16746452D02*
X13990595Y-16755976D01*
X13990595Y-16755976D02*
X13981071Y-16746452D01*
X13981071Y-16746452D02*
X13990595Y-16736928D01*
X13990595Y-16736928D02*
X13990595Y-16755976D01*
X14171548Y-16622643D02*
X14171548Y-16755976D01*
X14123928Y-16546452D02*
X14076309Y-16689309D01*
X14076309Y-16689309D02*
X14200119Y-16689309D01*
X14314405Y-16555976D02*
X14333452Y-16555976D01*
X14333452Y-16555976D02*
X14352500Y-16565500D01*
X14352500Y-16565500D02*
X14362024Y-16575024D01*
X14362024Y-16575024D02*
X14371548Y-16594071D01*
X14371548Y-16594071D02*
X14381071Y-16632167D01*
X14381071Y-16632167D02*
X14381071Y-16679786D01*
X14381071Y-16679786D02*
X14371548Y-16717881D01*
X14371548Y-16717881D02*
X14362024Y-16736928D01*
X14362024Y-16736928D02*
X14352500Y-16746452D01*
X14352500Y-16746452D02*
X14333452Y-16755976D01*
X14333452Y-16755976D02*
X14314405Y-16755976D01*
X14314405Y-16755976D02*
X14295357Y-16746452D01*
X14295357Y-16746452D02*
X14285833Y-16736928D01*
X14285833Y-16736928D02*
X14276309Y-16717881D01*
X14276309Y-16717881D02*
X14266786Y-16679786D01*
X14266786Y-16679786D02*
X14266786Y-16632167D01*
X14266786Y-16632167D02*
X14276309Y-16594071D01*
X14276309Y-16594071D02*
X14285833Y-16575024D01*
X14285833Y-16575024D02*
X14295357Y-16565500D01*
X14295357Y-16565500D02*
X14314405Y-16555976D01*
X14504881Y-16555976D02*
X14523929Y-16555976D01*
X14523929Y-16555976D02*
X14542976Y-16565500D01*
X14542976Y-16565500D02*
X14552500Y-16575024D01*
X14552500Y-16575024D02*
X14562024Y-16594071D01*
X14562024Y-16594071D02*
X14571548Y-16632167D01*
X14571548Y-16632167D02*
X14571548Y-16679786D01*
X14571548Y-16679786D02*
X14562024Y-16717881D01*
X14562024Y-16717881D02*
X14552500Y-16736928D01*
X14552500Y-16736928D02*
X14542976Y-16746452D01*
X14542976Y-16746452D02*
X14523929Y-16755976D01*
X14523929Y-16755976D02*
X14504881Y-16755976D01*
X14504881Y-16755976D02*
X14485833Y-16746452D01*
X14485833Y-16746452D02*
X14476309Y-16736928D01*
X14476309Y-16736928D02*
X14466786Y-16717881D01*
X14466786Y-16717881D02*
X14457262Y-16679786D01*
X14457262Y-16679786D02*
X14457262Y-16632167D01*
X14457262Y-16632167D02*
X14466786Y-16594071D01*
X14466786Y-16594071D02*
X14476309Y-16575024D01*
X14476309Y-16575024D02*
X14485833Y-16565500D01*
X14485833Y-16565500D02*
X14504881Y-16555976D01*
X14657262Y-16755976D02*
X14657262Y-16622643D01*
X14657262Y-16641690D02*
X14666786Y-16632167D01*
X14666786Y-16632167D02*
X14685833Y-16622643D01*
X14685833Y-16622643D02*
X14714405Y-16622643D01*
X14714405Y-16622643D02*
X14733452Y-16632167D01*
X14733452Y-16632167D02*
X14742976Y-16651214D01*
X14742976Y-16651214D02*
X14742976Y-16755976D01*
X14742976Y-16651214D02*
X14752500Y-16632167D01*
X14752500Y-16632167D02*
X14771548Y-16622643D01*
X14771548Y-16622643D02*
X14800119Y-16622643D01*
X14800119Y-16622643D02*
X14819167Y-16632167D01*
X14819167Y-16632167D02*
X14828690Y-16651214D01*
X14828690Y-16651214D02*
X14828690Y-16755976D01*
X14923929Y-16755976D02*
X14923929Y-16622643D01*
X14923929Y-16641690D02*
X14933452Y-16632167D01*
X14933452Y-16632167D02*
X14952500Y-16622643D01*
X14952500Y-16622643D02*
X14981071Y-16622643D01*
X14981071Y-16622643D02*
X15000119Y-16632167D01*
X15000119Y-16632167D02*
X15009643Y-16651214D01*
X15009643Y-16651214D02*
X15009643Y-16755976D01*
X15009643Y-16651214D02*
X15019167Y-16632167D01*
X15019167Y-16632167D02*
X15038214Y-16622643D01*
X15038214Y-16622643D02*
X15066786Y-16622643D01*
X15066786Y-16622643D02*
X15085833Y-16632167D01*
X15085833Y-16632167D02*
X15095357Y-16651214D01*
X15095357Y-16651214D02*
X15095357Y-16755976D01*
X15453452Y-16546452D02*
X15282024Y-16803595D01*
X15678214Y-16555976D02*
X15697262Y-16555976D01*
X15697262Y-16555976D02*
X15716310Y-16565500D01*
X15716310Y-16565500D02*
X15725833Y-16575024D01*
X15725833Y-16575024D02*
X15735357Y-16594071D01*
X15735357Y-16594071D02*
X15744881Y-16632167D01*
X15744881Y-16632167D02*
X15744881Y-16679786D01*
X15744881Y-16679786D02*
X15735357Y-16717881D01*
X15735357Y-16717881D02*
X15725833Y-16736928D01*
X15725833Y-16736928D02*
X15716310Y-16746452D01*
X15716310Y-16746452D02*
X15697262Y-16755976D01*
X15697262Y-16755976D02*
X15678214Y-16755976D01*
X15678214Y-16755976D02*
X15659167Y-16746452D01*
X15659167Y-16746452D02*
X15649643Y-16736928D01*
X15649643Y-16736928D02*
X15640119Y-16717881D01*
X15640119Y-16717881D02*
X15630595Y-16679786D01*
X15630595Y-16679786D02*
X15630595Y-16632167D01*
X15630595Y-16632167D02*
X15640119Y-16594071D01*
X15640119Y-16594071D02*
X15649643Y-16575024D01*
X15649643Y-16575024D02*
X15659167Y-16565500D01*
X15659167Y-16565500D02*
X15678214Y-16555976D01*
X15830595Y-16736928D02*
X15840119Y-16746452D01*
X15840119Y-16746452D02*
X15830595Y-16755976D01*
X15830595Y-16755976D02*
X15821071Y-16746452D01*
X15821071Y-16746452D02*
X15830595Y-16736928D01*
X15830595Y-16736928D02*
X15830595Y-16755976D01*
X15963929Y-16555976D02*
X15982976Y-16555976D01*
X15982976Y-16555976D02*
X16002024Y-16565500D01*
X16002024Y-16565500D02*
X16011548Y-16575024D01*
X16011548Y-16575024D02*
X16021071Y-16594071D01*
X16021071Y-16594071D02*
X16030595Y-16632167D01*
X16030595Y-16632167D02*
X16030595Y-16679786D01*
X16030595Y-16679786D02*
X16021071Y-16717881D01*
X16021071Y-16717881D02*
X16011548Y-16736928D01*
X16011548Y-16736928D02*
X16002024Y-16746452D01*
X16002024Y-16746452D02*
X15982976Y-16755976D01*
X15982976Y-16755976D02*
X15963929Y-16755976D01*
X15963929Y-16755976D02*
X15944881Y-16746452D01*
X15944881Y-16746452D02*
X15935357Y-16736928D01*
X15935357Y-16736928D02*
X15925833Y-16717881D01*
X15925833Y-16717881D02*
X15916310Y-16679786D01*
X15916310Y-16679786D02*
X15916310Y-16632167D01*
X15916310Y-16632167D02*
X15925833Y-16594071D01*
X15925833Y-16594071D02*
X15935357Y-16575024D01*
X15935357Y-16575024D02*
X15944881Y-16565500D01*
X15944881Y-16565500D02*
X15963929Y-16555976D01*
X16221071Y-16755976D02*
X16106786Y-16755976D01*
X16163929Y-16755976D02*
X16163929Y-16555976D01*
X16163929Y-16555976D02*
X16144881Y-16584548D01*
X16144881Y-16584548D02*
X16125833Y-16603595D01*
X16125833Y-16603595D02*
X16106786Y-16613119D01*
X16402024Y-16555976D02*
X16306786Y-16555976D01*
X16306786Y-16555976D02*
X16297262Y-16651214D01*
X16297262Y-16651214D02*
X16306786Y-16641690D01*
X16306786Y-16641690D02*
X16325833Y-16632167D01*
X16325833Y-16632167D02*
X16373452Y-16632167D01*
X16373452Y-16632167D02*
X16392500Y-16641690D01*
X16392500Y-16641690D02*
X16402024Y-16651214D01*
X16402024Y-16651214D02*
X16411548Y-16670262D01*
X16411548Y-16670262D02*
X16411548Y-16717881D01*
X16411548Y-16717881D02*
X16402024Y-16736928D01*
X16402024Y-16736928D02*
X16392500Y-16746452D01*
X16392500Y-16746452D02*
X16373452Y-16755976D01*
X16373452Y-16755976D02*
X16325833Y-16755976D01*
X16325833Y-16755976D02*
X16306786Y-16746452D01*
X16306786Y-16746452D02*
X16297262Y-16736928D01*
X16478214Y-16555976D02*
X16611548Y-16555976D01*
X16611548Y-16555976D02*
X16525833Y-16755976D01*
X16678214Y-16555976D02*
X16678214Y-16594071D01*
X16754405Y-16555976D02*
X16754405Y-16594071D01*
X17017262Y-16832167D02*
X17007738Y-16822643D01*
X17007738Y-16822643D02*
X16988691Y-16794071D01*
X16988691Y-16794071D02*
X16979167Y-16775024D01*
X16979167Y-16775024D02*
X16969643Y-16746452D01*
X16969643Y-16746452D02*
X16960119Y-16698833D01*
X16960119Y-16698833D02*
X16960119Y-16660738D01*
X16960119Y-16660738D02*
X16969643Y-16613119D01*
X16969643Y-16613119D02*
X16979167Y-16584548D01*
X16979167Y-16584548D02*
X16988691Y-16565500D01*
X16988691Y-16565500D02*
X17007738Y-16536928D01*
X17007738Y-16536928D02*
X17017262Y-16527405D01*
X17074405Y-16555976D02*
X17198214Y-16555976D01*
X17198214Y-16555976D02*
X17131548Y-16632167D01*
X17131548Y-16632167D02*
X17160119Y-16632167D01*
X17160119Y-16632167D02*
X17179167Y-16641690D01*
X17179167Y-16641690D02*
X17188691Y-16651214D01*
X17188691Y-16651214D02*
X17198214Y-16670262D01*
X17198214Y-16670262D02*
X17198214Y-16717881D01*
X17198214Y-16717881D02*
X17188691Y-16736928D01*
X17188691Y-16736928D02*
X17179167Y-16746452D01*
X17179167Y-16746452D02*
X17160119Y-16755976D01*
X17160119Y-16755976D02*
X17102976Y-16755976D01*
X17102976Y-16755976D02*
X17083929Y-16746452D01*
X17083929Y-16746452D02*
X17074405Y-16736928D01*
X17274405Y-16575024D02*
X17283929Y-16565500D01*
X17283929Y-16565500D02*
X17302976Y-16555976D01*
X17302976Y-16555976D02*
X17350595Y-16555976D01*
X17350595Y-16555976D02*
X17369643Y-16565500D01*
X17369643Y-16565500D02*
X17379167Y-16575024D01*
X17379167Y-16575024D02*
X17388691Y-16594071D01*
X17388691Y-16594071D02*
X17388691Y-16613119D01*
X17388691Y-16613119D02*
X17379167Y-16641690D01*
X17379167Y-16641690D02*
X17264881Y-16755976D01*
X17264881Y-16755976D02*
X17388691Y-16755976D01*
X17594405Y-16755976D02*
X17594405Y-16555976D01*
X17680119Y-16755976D02*
X17680119Y-16651214D01*
X17680119Y-16651214D02*
X17670595Y-16632167D01*
X17670595Y-16632167D02*
X17651548Y-16622643D01*
X17651548Y-16622643D02*
X17622976Y-16622643D01*
X17622976Y-16622643D02*
X17603929Y-16632167D01*
X17603929Y-16632167D02*
X17594405Y-16641690D01*
X17803929Y-16755976D02*
X17784881Y-16746452D01*
X17784881Y-16746452D02*
X17775357Y-16736928D01*
X17775357Y-16736928D02*
X17765834Y-16717881D01*
X17765834Y-16717881D02*
X17765834Y-16660738D01*
X17765834Y-16660738D02*
X17775357Y-16641690D01*
X17775357Y-16641690D02*
X17784881Y-16632167D01*
X17784881Y-16632167D02*
X17803929Y-16622643D01*
X17803929Y-16622643D02*
X17832500Y-16622643D01*
X17832500Y-16622643D02*
X17851548Y-16632167D01*
X17851548Y-16632167D02*
X17861072Y-16641690D01*
X17861072Y-16641690D02*
X17870595Y-16660738D01*
X17870595Y-16660738D02*
X17870595Y-16717881D01*
X17870595Y-16717881D02*
X17861072Y-16736928D01*
X17861072Y-16736928D02*
X17851548Y-16746452D01*
X17851548Y-16746452D02*
X17832500Y-16755976D01*
X17832500Y-16755976D02*
X17803929Y-16755976D01*
X17984881Y-16755976D02*
X17965834Y-16746452D01*
X17965834Y-16746452D02*
X17956310Y-16727405D01*
X17956310Y-16727405D02*
X17956310Y-16555976D01*
X18137262Y-16746452D02*
X18118215Y-16755976D01*
X18118215Y-16755976D02*
X18080119Y-16755976D01*
X18080119Y-16755976D02*
X18061072Y-16746452D01*
X18061072Y-16746452D02*
X18051548Y-16727405D01*
X18051548Y-16727405D02*
X18051548Y-16651214D01*
X18051548Y-16651214D02*
X18061072Y-16632167D01*
X18061072Y-16632167D02*
X18080119Y-16622643D01*
X18080119Y-16622643D02*
X18118215Y-16622643D01*
X18118215Y-16622643D02*
X18137262Y-16632167D01*
X18137262Y-16632167D02*
X18146786Y-16651214D01*
X18146786Y-16651214D02*
X18146786Y-16670262D01*
X18146786Y-16670262D02*
X18051548Y-16689309D01*
X18222976Y-16746452D02*
X18242024Y-16755976D01*
X18242024Y-16755976D02*
X18280119Y-16755976D01*
X18280119Y-16755976D02*
X18299167Y-16746452D01*
X18299167Y-16746452D02*
X18308691Y-16727405D01*
X18308691Y-16727405D02*
X18308691Y-16717881D01*
X18308691Y-16717881D02*
X18299167Y-16698833D01*
X18299167Y-16698833D02*
X18280119Y-16689309D01*
X18280119Y-16689309D02*
X18251548Y-16689309D01*
X18251548Y-16689309D02*
X18232500Y-16679786D01*
X18232500Y-16679786D02*
X18222976Y-16660738D01*
X18222976Y-16660738D02*
X18222976Y-16651214D01*
X18222976Y-16651214D02*
X18232500Y-16632167D01*
X18232500Y-16632167D02*
X18251548Y-16622643D01*
X18251548Y-16622643D02*
X18280119Y-16622643D01*
X18280119Y-16622643D02*
X18299167Y-16632167D01*
X18375357Y-16832167D02*
X18384881Y-16822643D01*
X18384881Y-16822643D02*
X18403929Y-16794071D01*
X18403929Y-16794071D02*
X18413453Y-16775024D01*
X18413453Y-16775024D02*
X18422976Y-16746452D01*
X18422976Y-16746452D02*
X18432500Y-16698833D01*
X18432500Y-16698833D02*
X18432500Y-16660738D01*
X18432500Y-16660738D02*
X18422976Y-16613119D01*
X18422976Y-16613119D02*
X18413453Y-16584548D01*
X18413453Y-16584548D02*
X18403929Y-16565500D01*
X18403929Y-16565500D02*
X18384881Y-16536928D01*
X18384881Y-16536928D02*
X18375357Y-16527405D01*
D14*
X13552500Y-16946500D02*
G75*
G03*
X13552500Y-16946500I-35000J0D01*
G01*
D12*
X13838214Y-16819976D02*
X13857262Y-16819976D01*
X13857262Y-16819976D02*
X13876309Y-16829500D01*
X13876309Y-16829500D02*
X13885833Y-16839024D01*
X13885833Y-16839024D02*
X13895357Y-16858071D01*
X13895357Y-16858071D02*
X13904881Y-16896167D01*
X13904881Y-16896167D02*
X13904881Y-16943786D01*
X13904881Y-16943786D02*
X13895357Y-16981881D01*
X13895357Y-16981881D02*
X13885833Y-17000929D01*
X13885833Y-17000929D02*
X13876309Y-17010452D01*
X13876309Y-17010452D02*
X13857262Y-17019976D01*
X13857262Y-17019976D02*
X13838214Y-17019976D01*
X13838214Y-17019976D02*
X13819167Y-17010452D01*
X13819167Y-17010452D02*
X13809643Y-17000929D01*
X13809643Y-17000929D02*
X13800119Y-16981881D01*
X13800119Y-16981881D02*
X13790595Y-16943786D01*
X13790595Y-16943786D02*
X13790595Y-16896167D01*
X13790595Y-16896167D02*
X13800119Y-16858071D01*
X13800119Y-16858071D02*
X13809643Y-16839024D01*
X13809643Y-16839024D02*
X13819167Y-16829500D01*
X13819167Y-16829500D02*
X13838214Y-16819976D01*
X13990595Y-17000929D02*
X14000119Y-17010452D01*
X14000119Y-17010452D02*
X13990595Y-17019976D01*
X13990595Y-17019976D02*
X13981071Y-17010452D01*
X13981071Y-17010452D02*
X13990595Y-17000929D01*
X13990595Y-17000929D02*
X13990595Y-17019976D01*
X14066786Y-16819976D02*
X14200119Y-16819976D01*
X14200119Y-16819976D02*
X14114405Y-17019976D01*
X14314405Y-16819976D02*
X14333452Y-16819976D01*
X14333452Y-16819976D02*
X14352500Y-16829500D01*
X14352500Y-16829500D02*
X14362024Y-16839024D01*
X14362024Y-16839024D02*
X14371548Y-16858071D01*
X14371548Y-16858071D02*
X14381071Y-16896167D01*
X14381071Y-16896167D02*
X14381071Y-16943786D01*
X14381071Y-16943786D02*
X14371548Y-16981881D01*
X14371548Y-16981881D02*
X14362024Y-17000929D01*
X14362024Y-17000929D02*
X14352500Y-17010452D01*
X14352500Y-17010452D02*
X14333452Y-17019976D01*
X14333452Y-17019976D02*
X14314405Y-17019976D01*
X14314405Y-17019976D02*
X14295357Y-17010452D01*
X14295357Y-17010452D02*
X14285833Y-17000929D01*
X14285833Y-17000929D02*
X14276309Y-16981881D01*
X14276309Y-16981881D02*
X14266786Y-16943786D01*
X14266786Y-16943786D02*
X14266786Y-16896167D01*
X14266786Y-16896167D02*
X14276309Y-16858071D01*
X14276309Y-16858071D02*
X14285833Y-16839024D01*
X14285833Y-16839024D02*
X14295357Y-16829500D01*
X14295357Y-16829500D02*
X14314405Y-16819976D01*
X14504881Y-16819976D02*
X14523929Y-16819976D01*
X14523929Y-16819976D02*
X14542976Y-16829500D01*
X14542976Y-16829500D02*
X14552500Y-16839024D01*
X14552500Y-16839024D02*
X14562024Y-16858071D01*
X14562024Y-16858071D02*
X14571548Y-16896167D01*
X14571548Y-16896167D02*
X14571548Y-16943786D01*
X14571548Y-16943786D02*
X14562024Y-16981881D01*
X14562024Y-16981881D02*
X14552500Y-17000929D01*
X14552500Y-17000929D02*
X14542976Y-17010452D01*
X14542976Y-17010452D02*
X14523929Y-17019976D01*
X14523929Y-17019976D02*
X14504881Y-17019976D01*
X14504881Y-17019976D02*
X14485833Y-17010452D01*
X14485833Y-17010452D02*
X14476309Y-17000929D01*
X14476309Y-17000929D02*
X14466786Y-16981881D01*
X14466786Y-16981881D02*
X14457262Y-16943786D01*
X14457262Y-16943786D02*
X14457262Y-16896167D01*
X14457262Y-16896167D02*
X14466786Y-16858071D01*
X14466786Y-16858071D02*
X14476309Y-16839024D01*
X14476309Y-16839024D02*
X14485833Y-16829500D01*
X14485833Y-16829500D02*
X14504881Y-16819976D01*
X14657262Y-17019976D02*
X14657262Y-16886643D01*
X14657262Y-16905690D02*
X14666786Y-16896167D01*
X14666786Y-16896167D02*
X14685833Y-16886643D01*
X14685833Y-16886643D02*
X14714405Y-16886643D01*
X14714405Y-16886643D02*
X14733452Y-16896167D01*
X14733452Y-16896167D02*
X14742976Y-16915214D01*
X14742976Y-16915214D02*
X14742976Y-17019976D01*
X14742976Y-16915214D02*
X14752500Y-16896167D01*
X14752500Y-16896167D02*
X14771548Y-16886643D01*
X14771548Y-16886643D02*
X14800119Y-16886643D01*
X14800119Y-16886643D02*
X14819167Y-16896167D01*
X14819167Y-16896167D02*
X14828690Y-16915214D01*
X14828690Y-16915214D02*
X14828690Y-17019976D01*
X14923929Y-17019976D02*
X14923929Y-16886643D01*
X14923929Y-16905690D02*
X14933452Y-16896167D01*
X14933452Y-16896167D02*
X14952500Y-16886643D01*
X14952500Y-16886643D02*
X14981071Y-16886643D01*
X14981071Y-16886643D02*
X15000119Y-16896167D01*
X15000119Y-16896167D02*
X15009643Y-16915214D01*
X15009643Y-16915214D02*
X15009643Y-17019976D01*
X15009643Y-16915214D02*
X15019167Y-16896167D01*
X15019167Y-16896167D02*
X15038214Y-16886643D01*
X15038214Y-16886643D02*
X15066786Y-16886643D01*
X15066786Y-16886643D02*
X15085833Y-16896167D01*
X15085833Y-16896167D02*
X15095357Y-16915214D01*
X15095357Y-16915214D02*
X15095357Y-17019976D01*
X15453452Y-16810452D02*
X15282024Y-17067595D01*
X15678214Y-16819976D02*
X15697262Y-16819976D01*
X15697262Y-16819976D02*
X15716310Y-16829500D01*
X15716310Y-16829500D02*
X15725833Y-16839024D01*
X15725833Y-16839024D02*
X15735357Y-16858071D01*
X15735357Y-16858071D02*
X15744881Y-16896167D01*
X15744881Y-16896167D02*
X15744881Y-16943786D01*
X15744881Y-16943786D02*
X15735357Y-16981881D01*
X15735357Y-16981881D02*
X15725833Y-17000929D01*
X15725833Y-17000929D02*
X15716310Y-17010452D01*
X15716310Y-17010452D02*
X15697262Y-17019976D01*
X15697262Y-17019976D02*
X15678214Y-17019976D01*
X15678214Y-17019976D02*
X15659167Y-17010452D01*
X15659167Y-17010452D02*
X15649643Y-17000929D01*
X15649643Y-17000929D02*
X15640119Y-16981881D01*
X15640119Y-16981881D02*
X15630595Y-16943786D01*
X15630595Y-16943786D02*
X15630595Y-16896167D01*
X15630595Y-16896167D02*
X15640119Y-16858071D01*
X15640119Y-16858071D02*
X15649643Y-16839024D01*
X15649643Y-16839024D02*
X15659167Y-16829500D01*
X15659167Y-16829500D02*
X15678214Y-16819976D01*
X15830595Y-17000929D02*
X15840119Y-17010452D01*
X15840119Y-17010452D02*
X15830595Y-17019976D01*
X15830595Y-17019976D02*
X15821071Y-17010452D01*
X15821071Y-17010452D02*
X15830595Y-17000929D01*
X15830595Y-17000929D02*
X15830595Y-17019976D01*
X15963929Y-16819976D02*
X15982976Y-16819976D01*
X15982976Y-16819976D02*
X16002024Y-16829500D01*
X16002024Y-16829500D02*
X16011548Y-16839024D01*
X16011548Y-16839024D02*
X16021071Y-16858071D01*
X16021071Y-16858071D02*
X16030595Y-16896167D01*
X16030595Y-16896167D02*
X16030595Y-16943786D01*
X16030595Y-16943786D02*
X16021071Y-16981881D01*
X16021071Y-16981881D02*
X16011548Y-17000929D01*
X16011548Y-17000929D02*
X16002024Y-17010452D01*
X16002024Y-17010452D02*
X15982976Y-17019976D01*
X15982976Y-17019976D02*
X15963929Y-17019976D01*
X15963929Y-17019976D02*
X15944881Y-17010452D01*
X15944881Y-17010452D02*
X15935357Y-17000929D01*
X15935357Y-17000929D02*
X15925833Y-16981881D01*
X15925833Y-16981881D02*
X15916310Y-16943786D01*
X15916310Y-16943786D02*
X15916310Y-16896167D01*
X15916310Y-16896167D02*
X15925833Y-16858071D01*
X15925833Y-16858071D02*
X15935357Y-16839024D01*
X15935357Y-16839024D02*
X15944881Y-16829500D01*
X15944881Y-16829500D02*
X15963929Y-16819976D01*
X16106786Y-16839024D02*
X16116310Y-16829500D01*
X16116310Y-16829500D02*
X16135357Y-16819976D01*
X16135357Y-16819976D02*
X16182976Y-16819976D01*
X16182976Y-16819976D02*
X16202024Y-16829500D01*
X16202024Y-16829500D02*
X16211548Y-16839024D01*
X16211548Y-16839024D02*
X16221071Y-16858071D01*
X16221071Y-16858071D02*
X16221071Y-16877119D01*
X16221071Y-16877119D02*
X16211548Y-16905690D01*
X16211548Y-16905690D02*
X16097262Y-17019976D01*
X16097262Y-17019976D02*
X16221071Y-17019976D01*
X16287738Y-16819976D02*
X16421071Y-16819976D01*
X16421071Y-16819976D02*
X16335357Y-17019976D01*
X16582976Y-16819976D02*
X16544881Y-16819976D01*
X16544881Y-16819976D02*
X16525833Y-16829500D01*
X16525833Y-16829500D02*
X16516310Y-16839024D01*
X16516310Y-16839024D02*
X16497262Y-16867595D01*
X16497262Y-16867595D02*
X16487738Y-16905690D01*
X16487738Y-16905690D02*
X16487738Y-16981881D01*
X16487738Y-16981881D02*
X16497262Y-17000929D01*
X16497262Y-17000929D02*
X16506786Y-17010452D01*
X16506786Y-17010452D02*
X16525833Y-17019976D01*
X16525833Y-17019976D02*
X16563929Y-17019976D01*
X16563929Y-17019976D02*
X16582976Y-17010452D01*
X16582976Y-17010452D02*
X16592500Y-17000929D01*
X16592500Y-17000929D02*
X16602024Y-16981881D01*
X16602024Y-16981881D02*
X16602024Y-16934262D01*
X16602024Y-16934262D02*
X16592500Y-16915214D01*
X16592500Y-16915214D02*
X16582976Y-16905690D01*
X16582976Y-16905690D02*
X16563929Y-16896167D01*
X16563929Y-16896167D02*
X16525833Y-16896167D01*
X16525833Y-16896167D02*
X16506786Y-16905690D01*
X16506786Y-16905690D02*
X16497262Y-16915214D01*
X16497262Y-16915214D02*
X16487738Y-16934262D01*
X16678214Y-16819976D02*
X16678214Y-16858071D01*
X16754405Y-16819976D02*
X16754405Y-16858071D01*
X17017262Y-17096167D02*
X17007738Y-17086643D01*
X17007738Y-17086643D02*
X16988691Y-17058071D01*
X16988691Y-17058071D02*
X16979167Y-17039024D01*
X16979167Y-17039024D02*
X16969643Y-17010452D01*
X16969643Y-17010452D02*
X16960119Y-16962833D01*
X16960119Y-16962833D02*
X16960119Y-16924738D01*
X16960119Y-16924738D02*
X16969643Y-16877119D01*
X16969643Y-16877119D02*
X16979167Y-16848548D01*
X16979167Y-16848548D02*
X16988691Y-16829500D01*
X16988691Y-16829500D02*
X17007738Y-16800929D01*
X17007738Y-16800929D02*
X17017262Y-16791405D01*
X17074405Y-16819976D02*
X17198214Y-16819976D01*
X17198214Y-16819976D02*
X17131548Y-16896167D01*
X17131548Y-16896167D02*
X17160119Y-16896167D01*
X17160119Y-16896167D02*
X17179167Y-16905690D01*
X17179167Y-16905690D02*
X17188691Y-16915214D01*
X17188691Y-16915214D02*
X17198214Y-16934262D01*
X17198214Y-16934262D02*
X17198214Y-16981881D01*
X17198214Y-16981881D02*
X17188691Y-17000929D01*
X17188691Y-17000929D02*
X17179167Y-17010452D01*
X17179167Y-17010452D02*
X17160119Y-17019976D01*
X17160119Y-17019976D02*
X17102976Y-17019976D01*
X17102976Y-17019976D02*
X17083929Y-17010452D01*
X17083929Y-17010452D02*
X17074405Y-17000929D01*
X17403929Y-17019976D02*
X17403929Y-16819976D01*
X17489643Y-17019976D02*
X17489643Y-16915214D01*
X17489643Y-16915214D02*
X17480119Y-16896167D01*
X17480119Y-16896167D02*
X17461072Y-16886643D01*
X17461072Y-16886643D02*
X17432500Y-16886643D01*
X17432500Y-16886643D02*
X17413453Y-16896167D01*
X17413453Y-16896167D02*
X17403929Y-16905690D01*
X17613453Y-17019976D02*
X17594405Y-17010452D01*
X17594405Y-17010452D02*
X17584881Y-17000929D01*
X17584881Y-17000929D02*
X17575357Y-16981881D01*
X17575357Y-16981881D02*
X17575357Y-16924738D01*
X17575357Y-16924738D02*
X17584881Y-16905690D01*
X17584881Y-16905690D02*
X17594405Y-16896167D01*
X17594405Y-16896167D02*
X17613453Y-16886643D01*
X17613453Y-16886643D02*
X17642024Y-16886643D01*
X17642024Y-16886643D02*
X17661072Y-16896167D01*
X17661072Y-16896167D02*
X17670595Y-16905690D01*
X17670595Y-16905690D02*
X17680119Y-16924738D01*
X17680119Y-16924738D02*
X17680119Y-16981881D01*
X17680119Y-16981881D02*
X17670595Y-17000929D01*
X17670595Y-17000929D02*
X17661072Y-17010452D01*
X17661072Y-17010452D02*
X17642024Y-17019976D01*
X17642024Y-17019976D02*
X17613453Y-17019976D01*
X17794405Y-17019976D02*
X17775357Y-17010452D01*
X17775357Y-17010452D02*
X17765834Y-16991405D01*
X17765834Y-16991405D02*
X17765834Y-16819976D01*
X17946786Y-17010452D02*
X17927738Y-17019976D01*
X17927738Y-17019976D02*
X17889643Y-17019976D01*
X17889643Y-17019976D02*
X17870595Y-17010452D01*
X17870595Y-17010452D02*
X17861072Y-16991405D01*
X17861072Y-16991405D02*
X17861072Y-16915214D01*
X17861072Y-16915214D02*
X17870595Y-16896167D01*
X17870595Y-16896167D02*
X17889643Y-16886643D01*
X17889643Y-16886643D02*
X17927738Y-16886643D01*
X17927738Y-16886643D02*
X17946786Y-16896167D01*
X17946786Y-16896167D02*
X17956310Y-16915214D01*
X17956310Y-16915214D02*
X17956310Y-16934262D01*
X17956310Y-16934262D02*
X17861072Y-16953310D01*
X18032500Y-17010452D02*
X18051548Y-17019976D01*
X18051548Y-17019976D02*
X18089643Y-17019976D01*
X18089643Y-17019976D02*
X18108691Y-17010452D01*
X18108691Y-17010452D02*
X18118215Y-16991405D01*
X18118215Y-16991405D02*
X18118215Y-16981881D01*
X18118215Y-16981881D02*
X18108691Y-16962833D01*
X18108691Y-16962833D02*
X18089643Y-16953310D01*
X18089643Y-16953310D02*
X18061072Y-16953310D01*
X18061072Y-16953310D02*
X18042024Y-16943786D01*
X18042024Y-16943786D02*
X18032500Y-16924738D01*
X18032500Y-16924738D02*
X18032500Y-16915214D01*
X18032500Y-16915214D02*
X18042024Y-16896167D01*
X18042024Y-16896167D02*
X18061072Y-16886643D01*
X18061072Y-16886643D02*
X18089643Y-16886643D01*
X18089643Y-16886643D02*
X18108691Y-16896167D01*
X18184881Y-17096167D02*
X18194405Y-17086643D01*
X18194405Y-17086643D02*
X18213453Y-17058071D01*
X18213453Y-17058071D02*
X18222976Y-17039024D01*
X18222976Y-17039024D02*
X18232500Y-17010452D01*
X18232500Y-17010452D02*
X18242024Y-16962833D01*
X18242024Y-16962833D02*
X18242024Y-16924738D01*
X18242024Y-16924738D02*
X18232500Y-16877119D01*
X18232500Y-16877119D02*
X18222976Y-16848548D01*
X18222976Y-16848548D02*
X18213453Y-16829500D01*
X18213453Y-16829500D02*
X18194405Y-16800929D01*
X18194405Y-16800929D02*
X18184881Y-16791405D01*
D15*
X13514400Y-17172400D02*
X13514400Y-17248600D01*
X13476300Y-17210500D02*
X13552500Y-17210500D01*
D12*
X13838214Y-17083976D02*
X13857262Y-17083976D01*
X13857262Y-17083976D02*
X13876309Y-17093500D01*
X13876309Y-17093500D02*
X13885833Y-17103024D01*
X13885833Y-17103024D02*
X13895357Y-17122071D01*
X13895357Y-17122071D02*
X13904881Y-17160167D01*
X13904881Y-17160167D02*
X13904881Y-17207786D01*
X13904881Y-17207786D02*
X13895357Y-17245881D01*
X13895357Y-17245881D02*
X13885833Y-17264929D01*
X13885833Y-17264929D02*
X13876309Y-17274452D01*
X13876309Y-17274452D02*
X13857262Y-17283976D01*
X13857262Y-17283976D02*
X13838214Y-17283976D01*
X13838214Y-17283976D02*
X13819167Y-17274452D01*
X13819167Y-17274452D02*
X13809643Y-17264929D01*
X13809643Y-17264929D02*
X13800119Y-17245881D01*
X13800119Y-17245881D02*
X13790595Y-17207786D01*
X13790595Y-17207786D02*
X13790595Y-17160167D01*
X13790595Y-17160167D02*
X13800119Y-17122071D01*
X13800119Y-17122071D02*
X13809643Y-17103024D01*
X13809643Y-17103024D02*
X13819167Y-17093500D01*
X13819167Y-17093500D02*
X13838214Y-17083976D01*
X13990595Y-17264929D02*
X14000119Y-17274452D01*
X14000119Y-17274452D02*
X13990595Y-17283976D01*
X13990595Y-17283976D02*
X13981071Y-17274452D01*
X13981071Y-17274452D02*
X13990595Y-17264929D01*
X13990595Y-17264929D02*
X13990595Y-17283976D01*
X14066786Y-17083976D02*
X14200119Y-17083976D01*
X14200119Y-17083976D02*
X14114405Y-17283976D01*
X14362024Y-17083976D02*
X14323928Y-17083976D01*
X14323928Y-17083976D02*
X14304881Y-17093500D01*
X14304881Y-17093500D02*
X14295357Y-17103024D01*
X14295357Y-17103024D02*
X14276309Y-17131595D01*
X14276309Y-17131595D02*
X14266786Y-17169690D01*
X14266786Y-17169690D02*
X14266786Y-17245881D01*
X14266786Y-17245881D02*
X14276309Y-17264929D01*
X14276309Y-17264929D02*
X14285833Y-17274452D01*
X14285833Y-17274452D02*
X14304881Y-17283976D01*
X14304881Y-17283976D02*
X14342976Y-17283976D01*
X14342976Y-17283976D02*
X14362024Y-17274452D01*
X14362024Y-17274452D02*
X14371548Y-17264929D01*
X14371548Y-17264929D02*
X14381071Y-17245881D01*
X14381071Y-17245881D02*
X14381071Y-17198262D01*
X14381071Y-17198262D02*
X14371548Y-17179214D01*
X14371548Y-17179214D02*
X14362024Y-17169690D01*
X14362024Y-17169690D02*
X14342976Y-17160167D01*
X14342976Y-17160167D02*
X14304881Y-17160167D01*
X14304881Y-17160167D02*
X14285833Y-17169690D01*
X14285833Y-17169690D02*
X14276309Y-17179214D01*
X14276309Y-17179214D02*
X14266786Y-17198262D01*
X14457262Y-17103024D02*
X14466786Y-17093500D01*
X14466786Y-17093500D02*
X14485833Y-17083976D01*
X14485833Y-17083976D02*
X14533452Y-17083976D01*
X14533452Y-17083976D02*
X14552500Y-17093500D01*
X14552500Y-17093500D02*
X14562024Y-17103024D01*
X14562024Y-17103024D02*
X14571548Y-17122071D01*
X14571548Y-17122071D02*
X14571548Y-17141119D01*
X14571548Y-17141119D02*
X14562024Y-17169690D01*
X14562024Y-17169690D02*
X14447738Y-17283976D01*
X14447738Y-17283976D02*
X14571548Y-17283976D01*
X14657262Y-17283976D02*
X14657262Y-17150643D01*
X14657262Y-17169690D02*
X14666786Y-17160167D01*
X14666786Y-17160167D02*
X14685833Y-17150643D01*
X14685833Y-17150643D02*
X14714405Y-17150643D01*
X14714405Y-17150643D02*
X14733452Y-17160167D01*
X14733452Y-17160167D02*
X14742976Y-17179214D01*
X14742976Y-17179214D02*
X14742976Y-17283976D01*
X14742976Y-17179214D02*
X14752500Y-17160167D01*
X14752500Y-17160167D02*
X14771548Y-17150643D01*
X14771548Y-17150643D02*
X14800119Y-17150643D01*
X14800119Y-17150643D02*
X14819167Y-17160167D01*
X14819167Y-17160167D02*
X14828690Y-17179214D01*
X14828690Y-17179214D02*
X14828690Y-17283976D01*
X14923929Y-17283976D02*
X14923929Y-17150643D01*
X14923929Y-17169690D02*
X14933452Y-17160167D01*
X14933452Y-17160167D02*
X14952500Y-17150643D01*
X14952500Y-17150643D02*
X14981071Y-17150643D01*
X14981071Y-17150643D02*
X15000119Y-17160167D01*
X15000119Y-17160167D02*
X15009643Y-17179214D01*
X15009643Y-17179214D02*
X15009643Y-17283976D01*
X15009643Y-17179214D02*
X15019167Y-17160167D01*
X15019167Y-17160167D02*
X15038214Y-17150643D01*
X15038214Y-17150643D02*
X15066786Y-17150643D01*
X15066786Y-17150643D02*
X15085833Y-17160167D01*
X15085833Y-17160167D02*
X15095357Y-17179214D01*
X15095357Y-17179214D02*
X15095357Y-17283976D01*
X15453452Y-17074452D02*
X15282024Y-17331595D01*
X15678214Y-17083976D02*
X15697262Y-17083976D01*
X15697262Y-17083976D02*
X15716310Y-17093500D01*
X15716310Y-17093500D02*
X15725833Y-17103024D01*
X15725833Y-17103024D02*
X15735357Y-17122071D01*
X15735357Y-17122071D02*
X15744881Y-17160167D01*
X15744881Y-17160167D02*
X15744881Y-17207786D01*
X15744881Y-17207786D02*
X15735357Y-17245881D01*
X15735357Y-17245881D02*
X15725833Y-17264929D01*
X15725833Y-17264929D02*
X15716310Y-17274452D01*
X15716310Y-17274452D02*
X15697262Y-17283976D01*
X15697262Y-17283976D02*
X15678214Y-17283976D01*
X15678214Y-17283976D02*
X15659167Y-17274452D01*
X15659167Y-17274452D02*
X15649643Y-17264929D01*
X15649643Y-17264929D02*
X15640119Y-17245881D01*
X15640119Y-17245881D02*
X15630595Y-17207786D01*
X15630595Y-17207786D02*
X15630595Y-17160167D01*
X15630595Y-17160167D02*
X15640119Y-17122071D01*
X15640119Y-17122071D02*
X15649643Y-17103024D01*
X15649643Y-17103024D02*
X15659167Y-17093500D01*
X15659167Y-17093500D02*
X15678214Y-17083976D01*
X15830595Y-17264929D02*
X15840119Y-17274452D01*
X15840119Y-17274452D02*
X15830595Y-17283976D01*
X15830595Y-17283976D02*
X15821071Y-17274452D01*
X15821071Y-17274452D02*
X15830595Y-17264929D01*
X15830595Y-17264929D02*
X15830595Y-17283976D01*
X15963929Y-17083976D02*
X15982976Y-17083976D01*
X15982976Y-17083976D02*
X16002024Y-17093500D01*
X16002024Y-17093500D02*
X16011548Y-17103024D01*
X16011548Y-17103024D02*
X16021071Y-17122071D01*
X16021071Y-17122071D02*
X16030595Y-17160167D01*
X16030595Y-17160167D02*
X16030595Y-17207786D01*
X16030595Y-17207786D02*
X16021071Y-17245881D01*
X16021071Y-17245881D02*
X16011548Y-17264929D01*
X16011548Y-17264929D02*
X16002024Y-17274452D01*
X16002024Y-17274452D02*
X15982976Y-17283976D01*
X15982976Y-17283976D02*
X15963929Y-17283976D01*
X15963929Y-17283976D02*
X15944881Y-17274452D01*
X15944881Y-17274452D02*
X15935357Y-17264929D01*
X15935357Y-17264929D02*
X15925833Y-17245881D01*
X15925833Y-17245881D02*
X15916310Y-17207786D01*
X15916310Y-17207786D02*
X15916310Y-17160167D01*
X15916310Y-17160167D02*
X15925833Y-17122071D01*
X15925833Y-17122071D02*
X15935357Y-17103024D01*
X15935357Y-17103024D02*
X15944881Y-17093500D01*
X15944881Y-17093500D02*
X15963929Y-17083976D01*
X16097262Y-17083976D02*
X16221071Y-17083976D01*
X16221071Y-17083976D02*
X16154405Y-17160167D01*
X16154405Y-17160167D02*
X16182976Y-17160167D01*
X16182976Y-17160167D02*
X16202024Y-17169690D01*
X16202024Y-17169690D02*
X16211548Y-17179214D01*
X16211548Y-17179214D02*
X16221071Y-17198262D01*
X16221071Y-17198262D02*
X16221071Y-17245881D01*
X16221071Y-17245881D02*
X16211548Y-17264929D01*
X16211548Y-17264929D02*
X16202024Y-17274452D01*
X16202024Y-17274452D02*
X16182976Y-17283976D01*
X16182976Y-17283976D02*
X16125833Y-17283976D01*
X16125833Y-17283976D02*
X16106786Y-17274452D01*
X16106786Y-17274452D02*
X16097262Y-17264929D01*
X16344881Y-17083976D02*
X16363929Y-17083976D01*
X16363929Y-17083976D02*
X16382976Y-17093500D01*
X16382976Y-17093500D02*
X16392500Y-17103024D01*
X16392500Y-17103024D02*
X16402024Y-17122071D01*
X16402024Y-17122071D02*
X16411548Y-17160167D01*
X16411548Y-17160167D02*
X16411548Y-17207786D01*
X16411548Y-17207786D02*
X16402024Y-17245881D01*
X16402024Y-17245881D02*
X16392500Y-17264929D01*
X16392500Y-17264929D02*
X16382976Y-17274452D01*
X16382976Y-17274452D02*
X16363929Y-17283976D01*
X16363929Y-17283976D02*
X16344881Y-17283976D01*
X16344881Y-17283976D02*
X16325833Y-17274452D01*
X16325833Y-17274452D02*
X16316310Y-17264929D01*
X16316310Y-17264929D02*
X16306786Y-17245881D01*
X16306786Y-17245881D02*
X16297262Y-17207786D01*
X16297262Y-17207786D02*
X16297262Y-17160167D01*
X16297262Y-17160167D02*
X16306786Y-17122071D01*
X16306786Y-17122071D02*
X16316310Y-17103024D01*
X16316310Y-17103024D02*
X16325833Y-17093500D01*
X16325833Y-17093500D02*
X16344881Y-17083976D01*
X16535357Y-17083976D02*
X16554405Y-17083976D01*
X16554405Y-17083976D02*
X16573452Y-17093500D01*
X16573452Y-17093500D02*
X16582976Y-17103024D01*
X16582976Y-17103024D02*
X16592500Y-17122071D01*
X16592500Y-17122071D02*
X16602024Y-17160167D01*
X16602024Y-17160167D02*
X16602024Y-17207786D01*
X16602024Y-17207786D02*
X16592500Y-17245881D01*
X16592500Y-17245881D02*
X16582976Y-17264929D01*
X16582976Y-17264929D02*
X16573452Y-17274452D01*
X16573452Y-17274452D02*
X16554405Y-17283976D01*
X16554405Y-17283976D02*
X16535357Y-17283976D01*
X16535357Y-17283976D02*
X16516310Y-17274452D01*
X16516310Y-17274452D02*
X16506786Y-17264929D01*
X16506786Y-17264929D02*
X16497262Y-17245881D01*
X16497262Y-17245881D02*
X16487738Y-17207786D01*
X16487738Y-17207786D02*
X16487738Y-17160167D01*
X16487738Y-17160167D02*
X16497262Y-17122071D01*
X16497262Y-17122071D02*
X16506786Y-17103024D01*
X16506786Y-17103024D02*
X16516310Y-17093500D01*
X16516310Y-17093500D02*
X16535357Y-17083976D01*
X16678214Y-17083976D02*
X16678214Y-17122071D01*
X16754405Y-17083976D02*
X16754405Y-17122071D01*
X17017262Y-17360167D02*
X17007738Y-17350643D01*
X17007738Y-17350643D02*
X16988691Y-17322071D01*
X16988691Y-17322071D02*
X16979167Y-17303024D01*
X16979167Y-17303024D02*
X16969643Y-17274452D01*
X16969643Y-17274452D02*
X16960119Y-17226833D01*
X16960119Y-17226833D02*
X16960119Y-17188738D01*
X16960119Y-17188738D02*
X16969643Y-17141119D01*
X16969643Y-17141119D02*
X16979167Y-17112548D01*
X16979167Y-17112548D02*
X16988691Y-17093500D01*
X16988691Y-17093500D02*
X17007738Y-17064929D01*
X17007738Y-17064929D02*
X17017262Y-17055405D01*
X17083929Y-17103024D02*
X17093453Y-17093500D01*
X17093453Y-17093500D02*
X17112500Y-17083976D01*
X17112500Y-17083976D02*
X17160119Y-17083976D01*
X17160119Y-17083976D02*
X17179167Y-17093500D01*
X17179167Y-17093500D02*
X17188691Y-17103024D01*
X17188691Y-17103024D02*
X17198214Y-17122071D01*
X17198214Y-17122071D02*
X17198214Y-17141119D01*
X17198214Y-17141119D02*
X17188691Y-17169690D01*
X17188691Y-17169690D02*
X17074405Y-17283976D01*
X17074405Y-17283976D02*
X17198214Y-17283976D01*
X17274405Y-17103024D02*
X17283929Y-17093500D01*
X17283929Y-17093500D02*
X17302976Y-17083976D01*
X17302976Y-17083976D02*
X17350595Y-17083976D01*
X17350595Y-17083976D02*
X17369643Y-17093500D01*
X17369643Y-17093500D02*
X17379167Y-17103024D01*
X17379167Y-17103024D02*
X17388691Y-17122071D01*
X17388691Y-17122071D02*
X17388691Y-17141119D01*
X17388691Y-17141119D02*
X17379167Y-17169690D01*
X17379167Y-17169690D02*
X17264881Y-17283976D01*
X17264881Y-17283976D02*
X17388691Y-17283976D01*
X17594405Y-17283976D02*
X17594405Y-17083976D01*
X17680119Y-17283976D02*
X17680119Y-17179214D01*
X17680119Y-17179214D02*
X17670595Y-17160167D01*
X17670595Y-17160167D02*
X17651548Y-17150643D01*
X17651548Y-17150643D02*
X17622976Y-17150643D01*
X17622976Y-17150643D02*
X17603929Y-17160167D01*
X17603929Y-17160167D02*
X17594405Y-17169690D01*
X17803929Y-17283976D02*
X17784881Y-17274452D01*
X17784881Y-17274452D02*
X17775357Y-17264929D01*
X17775357Y-17264929D02*
X17765834Y-17245881D01*
X17765834Y-17245881D02*
X17765834Y-17188738D01*
X17765834Y-17188738D02*
X17775357Y-17169690D01*
X17775357Y-17169690D02*
X17784881Y-17160167D01*
X17784881Y-17160167D02*
X17803929Y-17150643D01*
X17803929Y-17150643D02*
X17832500Y-17150643D01*
X17832500Y-17150643D02*
X17851548Y-17160167D01*
X17851548Y-17160167D02*
X17861072Y-17169690D01*
X17861072Y-17169690D02*
X17870595Y-17188738D01*
X17870595Y-17188738D02*
X17870595Y-17245881D01*
X17870595Y-17245881D02*
X17861072Y-17264929D01*
X17861072Y-17264929D02*
X17851548Y-17274452D01*
X17851548Y-17274452D02*
X17832500Y-17283976D01*
X17832500Y-17283976D02*
X17803929Y-17283976D01*
X17984881Y-17283976D02*
X17965834Y-17274452D01*
X17965834Y-17274452D02*
X17956310Y-17255405D01*
X17956310Y-17255405D02*
X17956310Y-17083976D01*
X18137262Y-17274452D02*
X18118215Y-17283976D01*
X18118215Y-17283976D02*
X18080119Y-17283976D01*
X18080119Y-17283976D02*
X18061072Y-17274452D01*
X18061072Y-17274452D02*
X18051548Y-17255405D01*
X18051548Y-17255405D02*
X18051548Y-17179214D01*
X18051548Y-17179214D02*
X18061072Y-17160167D01*
X18061072Y-17160167D02*
X18080119Y-17150643D01*
X18080119Y-17150643D02*
X18118215Y-17150643D01*
X18118215Y-17150643D02*
X18137262Y-17160167D01*
X18137262Y-17160167D02*
X18146786Y-17179214D01*
X18146786Y-17179214D02*
X18146786Y-17198262D01*
X18146786Y-17198262D02*
X18051548Y-17217310D01*
X18222976Y-17274452D02*
X18242024Y-17283976D01*
X18242024Y-17283976D02*
X18280119Y-17283976D01*
X18280119Y-17283976D02*
X18299167Y-17274452D01*
X18299167Y-17274452D02*
X18308691Y-17255405D01*
X18308691Y-17255405D02*
X18308691Y-17245881D01*
X18308691Y-17245881D02*
X18299167Y-17226833D01*
X18299167Y-17226833D02*
X18280119Y-17217310D01*
X18280119Y-17217310D02*
X18251548Y-17217310D01*
X18251548Y-17217310D02*
X18232500Y-17207786D01*
X18232500Y-17207786D02*
X18222976Y-17188738D01*
X18222976Y-17188738D02*
X18222976Y-17179214D01*
X18222976Y-17179214D02*
X18232500Y-17160167D01*
X18232500Y-17160167D02*
X18251548Y-17150643D01*
X18251548Y-17150643D02*
X18280119Y-17150643D01*
X18280119Y-17150643D02*
X18299167Y-17160167D01*
X18375357Y-17360167D02*
X18384881Y-17350643D01*
X18384881Y-17350643D02*
X18403929Y-17322071D01*
X18403929Y-17322071D02*
X18413453Y-17303024D01*
X18413453Y-17303024D02*
X18422976Y-17274452D01*
X18422976Y-17274452D02*
X18432500Y-17226833D01*
X18432500Y-17226833D02*
X18432500Y-17188738D01*
X18432500Y-17188738D02*
X18422976Y-17141119D01*
X18422976Y-17141119D02*
X18413453Y-17112548D01*
X18413453Y-17112548D02*
X18403929Y-17093500D01*
X18403929Y-17093500D02*
X18384881Y-17064929D01*
X18384881Y-17064929D02*
X18375357Y-17055405D01*
D16*
X13540784Y-17502785D02*
X13540784Y-17446216D01*
X13484215Y-17446216D01*
X13484215Y-17502785D01*
X13540784Y-17502785D01*
D12*
X13838214Y-17347976D02*
X13857262Y-17347976D01*
X13857262Y-17347976D02*
X13876309Y-17357500D01*
X13876309Y-17357500D02*
X13885833Y-17367024D01*
X13885833Y-17367024D02*
X13895357Y-17386071D01*
X13895357Y-17386071D02*
X13904881Y-17424167D01*
X13904881Y-17424167D02*
X13904881Y-17471786D01*
X13904881Y-17471786D02*
X13895357Y-17509881D01*
X13895357Y-17509881D02*
X13885833Y-17528929D01*
X13885833Y-17528929D02*
X13876309Y-17538452D01*
X13876309Y-17538452D02*
X13857262Y-17547976D01*
X13857262Y-17547976D02*
X13838214Y-17547976D01*
X13838214Y-17547976D02*
X13819167Y-17538452D01*
X13819167Y-17538452D02*
X13809643Y-17528929D01*
X13809643Y-17528929D02*
X13800119Y-17509881D01*
X13800119Y-17509881D02*
X13790595Y-17471786D01*
X13790595Y-17471786D02*
X13790595Y-17424167D01*
X13790595Y-17424167D02*
X13800119Y-17386071D01*
X13800119Y-17386071D02*
X13809643Y-17367024D01*
X13809643Y-17367024D02*
X13819167Y-17357500D01*
X13819167Y-17357500D02*
X13838214Y-17347976D01*
X13990595Y-17528929D02*
X14000119Y-17538452D01*
X14000119Y-17538452D02*
X13990595Y-17547976D01*
X13990595Y-17547976D02*
X13981071Y-17538452D01*
X13981071Y-17538452D02*
X13990595Y-17528929D01*
X13990595Y-17528929D02*
X13990595Y-17547976D01*
X14114405Y-17433690D02*
X14095357Y-17424167D01*
X14095357Y-17424167D02*
X14085833Y-17414643D01*
X14085833Y-17414643D02*
X14076309Y-17395595D01*
X14076309Y-17395595D02*
X14076309Y-17386071D01*
X14076309Y-17386071D02*
X14085833Y-17367024D01*
X14085833Y-17367024D02*
X14095357Y-17357500D01*
X14095357Y-17357500D02*
X14114405Y-17347976D01*
X14114405Y-17347976D02*
X14152500Y-17347976D01*
X14152500Y-17347976D02*
X14171548Y-17357500D01*
X14171548Y-17357500D02*
X14181071Y-17367024D01*
X14181071Y-17367024D02*
X14190595Y-17386071D01*
X14190595Y-17386071D02*
X14190595Y-17395595D01*
X14190595Y-17395595D02*
X14181071Y-17414643D01*
X14181071Y-17414643D02*
X14171548Y-17424167D01*
X14171548Y-17424167D02*
X14152500Y-17433690D01*
X14152500Y-17433690D02*
X14114405Y-17433690D01*
X14114405Y-17433690D02*
X14095357Y-17443214D01*
X14095357Y-17443214D02*
X14085833Y-17452738D01*
X14085833Y-17452738D02*
X14076309Y-17471786D01*
X14076309Y-17471786D02*
X14076309Y-17509881D01*
X14076309Y-17509881D02*
X14085833Y-17528929D01*
X14085833Y-17528929D02*
X14095357Y-17538452D01*
X14095357Y-17538452D02*
X14114405Y-17547976D01*
X14114405Y-17547976D02*
X14152500Y-17547976D01*
X14152500Y-17547976D02*
X14171548Y-17538452D01*
X14171548Y-17538452D02*
X14181071Y-17528929D01*
X14181071Y-17528929D02*
X14190595Y-17509881D01*
X14190595Y-17509881D02*
X14190595Y-17471786D01*
X14190595Y-17471786D02*
X14181071Y-17452738D01*
X14181071Y-17452738D02*
X14171548Y-17443214D01*
X14171548Y-17443214D02*
X14152500Y-17433690D01*
X14314405Y-17347976D02*
X14333452Y-17347976D01*
X14333452Y-17347976D02*
X14352500Y-17357500D01*
X14352500Y-17357500D02*
X14362024Y-17367024D01*
X14362024Y-17367024D02*
X14371548Y-17386071D01*
X14371548Y-17386071D02*
X14381071Y-17424167D01*
X14381071Y-17424167D02*
X14381071Y-17471786D01*
X14381071Y-17471786D02*
X14371548Y-17509881D01*
X14371548Y-17509881D02*
X14362024Y-17528929D01*
X14362024Y-17528929D02*
X14352500Y-17538452D01*
X14352500Y-17538452D02*
X14333452Y-17547976D01*
X14333452Y-17547976D02*
X14314405Y-17547976D01*
X14314405Y-17547976D02*
X14295357Y-17538452D01*
X14295357Y-17538452D02*
X14285833Y-17528929D01*
X14285833Y-17528929D02*
X14276309Y-17509881D01*
X14276309Y-17509881D02*
X14266786Y-17471786D01*
X14266786Y-17471786D02*
X14266786Y-17424167D01*
X14266786Y-17424167D02*
X14276309Y-17386071D01*
X14276309Y-17386071D02*
X14285833Y-17367024D01*
X14285833Y-17367024D02*
X14295357Y-17357500D01*
X14295357Y-17357500D02*
X14314405Y-17347976D01*
X14504881Y-17347976D02*
X14523929Y-17347976D01*
X14523929Y-17347976D02*
X14542976Y-17357500D01*
X14542976Y-17357500D02*
X14552500Y-17367024D01*
X14552500Y-17367024D02*
X14562024Y-17386071D01*
X14562024Y-17386071D02*
X14571548Y-17424167D01*
X14571548Y-17424167D02*
X14571548Y-17471786D01*
X14571548Y-17471786D02*
X14562024Y-17509881D01*
X14562024Y-17509881D02*
X14552500Y-17528929D01*
X14552500Y-17528929D02*
X14542976Y-17538452D01*
X14542976Y-17538452D02*
X14523929Y-17547976D01*
X14523929Y-17547976D02*
X14504881Y-17547976D01*
X14504881Y-17547976D02*
X14485833Y-17538452D01*
X14485833Y-17538452D02*
X14476309Y-17528929D01*
X14476309Y-17528929D02*
X14466786Y-17509881D01*
X14466786Y-17509881D02*
X14457262Y-17471786D01*
X14457262Y-17471786D02*
X14457262Y-17424167D01*
X14457262Y-17424167D02*
X14466786Y-17386071D01*
X14466786Y-17386071D02*
X14476309Y-17367024D01*
X14476309Y-17367024D02*
X14485833Y-17357500D01*
X14485833Y-17357500D02*
X14504881Y-17347976D01*
X14657262Y-17547976D02*
X14657262Y-17414643D01*
X14657262Y-17433690D02*
X14666786Y-17424167D01*
X14666786Y-17424167D02*
X14685833Y-17414643D01*
X14685833Y-17414643D02*
X14714405Y-17414643D01*
X14714405Y-17414643D02*
X14733452Y-17424167D01*
X14733452Y-17424167D02*
X14742976Y-17443214D01*
X14742976Y-17443214D02*
X14742976Y-17547976D01*
X14742976Y-17443214D02*
X14752500Y-17424167D01*
X14752500Y-17424167D02*
X14771548Y-17414643D01*
X14771548Y-17414643D02*
X14800119Y-17414643D01*
X14800119Y-17414643D02*
X14819167Y-17424167D01*
X14819167Y-17424167D02*
X14828690Y-17443214D01*
X14828690Y-17443214D02*
X14828690Y-17547976D01*
X14923929Y-17547976D02*
X14923929Y-17414643D01*
X14923929Y-17433690D02*
X14933452Y-17424167D01*
X14933452Y-17424167D02*
X14952500Y-17414643D01*
X14952500Y-17414643D02*
X14981071Y-17414643D01*
X14981071Y-17414643D02*
X15000119Y-17424167D01*
X15000119Y-17424167D02*
X15009643Y-17443214D01*
X15009643Y-17443214D02*
X15009643Y-17547976D01*
X15009643Y-17443214D02*
X15019167Y-17424167D01*
X15019167Y-17424167D02*
X15038214Y-17414643D01*
X15038214Y-17414643D02*
X15066786Y-17414643D01*
X15066786Y-17414643D02*
X15085833Y-17424167D01*
X15085833Y-17424167D02*
X15095357Y-17443214D01*
X15095357Y-17443214D02*
X15095357Y-17547976D01*
X15453452Y-17338452D02*
X15282024Y-17595595D01*
X15678214Y-17347976D02*
X15697262Y-17347976D01*
X15697262Y-17347976D02*
X15716310Y-17357500D01*
X15716310Y-17357500D02*
X15725833Y-17367024D01*
X15725833Y-17367024D02*
X15735357Y-17386071D01*
X15735357Y-17386071D02*
X15744881Y-17424167D01*
X15744881Y-17424167D02*
X15744881Y-17471786D01*
X15744881Y-17471786D02*
X15735357Y-17509881D01*
X15735357Y-17509881D02*
X15725833Y-17528929D01*
X15725833Y-17528929D02*
X15716310Y-17538452D01*
X15716310Y-17538452D02*
X15697262Y-17547976D01*
X15697262Y-17547976D02*
X15678214Y-17547976D01*
X15678214Y-17547976D02*
X15659167Y-17538452D01*
X15659167Y-17538452D02*
X15649643Y-17528929D01*
X15649643Y-17528929D02*
X15640119Y-17509881D01*
X15640119Y-17509881D02*
X15630595Y-17471786D01*
X15630595Y-17471786D02*
X15630595Y-17424167D01*
X15630595Y-17424167D02*
X15640119Y-17386071D01*
X15640119Y-17386071D02*
X15649643Y-17367024D01*
X15649643Y-17367024D02*
X15659167Y-17357500D01*
X15659167Y-17357500D02*
X15678214Y-17347976D01*
X15830595Y-17528929D02*
X15840119Y-17538452D01*
X15840119Y-17538452D02*
X15830595Y-17547976D01*
X15830595Y-17547976D02*
X15821071Y-17538452D01*
X15821071Y-17538452D02*
X15830595Y-17528929D01*
X15830595Y-17528929D02*
X15830595Y-17547976D01*
X15963929Y-17347976D02*
X15982976Y-17347976D01*
X15982976Y-17347976D02*
X16002024Y-17357500D01*
X16002024Y-17357500D02*
X16011548Y-17367024D01*
X16011548Y-17367024D02*
X16021071Y-17386071D01*
X16021071Y-17386071D02*
X16030595Y-17424167D01*
X16030595Y-17424167D02*
X16030595Y-17471786D01*
X16030595Y-17471786D02*
X16021071Y-17509881D01*
X16021071Y-17509881D02*
X16011548Y-17528929D01*
X16011548Y-17528929D02*
X16002024Y-17538452D01*
X16002024Y-17538452D02*
X15982976Y-17547976D01*
X15982976Y-17547976D02*
X15963929Y-17547976D01*
X15963929Y-17547976D02*
X15944881Y-17538452D01*
X15944881Y-17538452D02*
X15935357Y-17528929D01*
X15935357Y-17528929D02*
X15925833Y-17509881D01*
X15925833Y-17509881D02*
X15916310Y-17471786D01*
X15916310Y-17471786D02*
X15916310Y-17424167D01*
X15916310Y-17424167D02*
X15925833Y-17386071D01*
X15925833Y-17386071D02*
X15935357Y-17367024D01*
X15935357Y-17367024D02*
X15944881Y-17357500D01*
X15944881Y-17357500D02*
X15963929Y-17347976D01*
X16097262Y-17347976D02*
X16221071Y-17347976D01*
X16221071Y-17347976D02*
X16154405Y-17424167D01*
X16154405Y-17424167D02*
X16182976Y-17424167D01*
X16182976Y-17424167D02*
X16202024Y-17433690D01*
X16202024Y-17433690D02*
X16211548Y-17443214D01*
X16211548Y-17443214D02*
X16221071Y-17462262D01*
X16221071Y-17462262D02*
X16221071Y-17509881D01*
X16221071Y-17509881D02*
X16211548Y-17528929D01*
X16211548Y-17528929D02*
X16202024Y-17538452D01*
X16202024Y-17538452D02*
X16182976Y-17547976D01*
X16182976Y-17547976D02*
X16125833Y-17547976D01*
X16125833Y-17547976D02*
X16106786Y-17538452D01*
X16106786Y-17538452D02*
X16097262Y-17528929D01*
X16411548Y-17547976D02*
X16297262Y-17547976D01*
X16354405Y-17547976D02*
X16354405Y-17347976D01*
X16354405Y-17347976D02*
X16335357Y-17376548D01*
X16335357Y-17376548D02*
X16316310Y-17395595D01*
X16316310Y-17395595D02*
X16297262Y-17405119D01*
X16592500Y-17347976D02*
X16497262Y-17347976D01*
X16497262Y-17347976D02*
X16487738Y-17443214D01*
X16487738Y-17443214D02*
X16497262Y-17433690D01*
X16497262Y-17433690D02*
X16516310Y-17424167D01*
X16516310Y-17424167D02*
X16563929Y-17424167D01*
X16563929Y-17424167D02*
X16582976Y-17433690D01*
X16582976Y-17433690D02*
X16592500Y-17443214D01*
X16592500Y-17443214D02*
X16602024Y-17462262D01*
X16602024Y-17462262D02*
X16602024Y-17509881D01*
X16602024Y-17509881D02*
X16592500Y-17528929D01*
X16592500Y-17528929D02*
X16582976Y-17538452D01*
X16582976Y-17538452D02*
X16563929Y-17547976D01*
X16563929Y-17547976D02*
X16516310Y-17547976D01*
X16516310Y-17547976D02*
X16497262Y-17538452D01*
X16497262Y-17538452D02*
X16487738Y-17528929D01*
X16678214Y-17347976D02*
X16678214Y-17386071D01*
X16754405Y-17347976D02*
X16754405Y-17386071D01*
X17017262Y-17624167D02*
X17007738Y-17614643D01*
X17007738Y-17614643D02*
X16988691Y-17586071D01*
X16988691Y-17586071D02*
X16979167Y-17567024D01*
X16979167Y-17567024D02*
X16969643Y-17538452D01*
X16969643Y-17538452D02*
X16960119Y-17490833D01*
X16960119Y-17490833D02*
X16960119Y-17452738D01*
X16960119Y-17452738D02*
X16969643Y-17405119D01*
X16969643Y-17405119D02*
X16979167Y-17376548D01*
X16979167Y-17376548D02*
X16988691Y-17357500D01*
X16988691Y-17357500D02*
X17007738Y-17328929D01*
X17007738Y-17328929D02*
X17017262Y-17319405D01*
X17198214Y-17547976D02*
X17083929Y-17547976D01*
X17141072Y-17547976D02*
X17141072Y-17347976D01*
X17141072Y-17347976D02*
X17122024Y-17376548D01*
X17122024Y-17376548D02*
X17102976Y-17395595D01*
X17102976Y-17395595D02*
X17083929Y-17405119D01*
X17403929Y-17547976D02*
X17403929Y-17347976D01*
X17489643Y-17547976D02*
X17489643Y-17443214D01*
X17489643Y-17443214D02*
X17480119Y-17424167D01*
X17480119Y-17424167D02*
X17461072Y-17414643D01*
X17461072Y-17414643D02*
X17432500Y-17414643D01*
X17432500Y-17414643D02*
X17413453Y-17424167D01*
X17413453Y-17424167D02*
X17403929Y-17433690D01*
X17613453Y-17547976D02*
X17594405Y-17538452D01*
X17594405Y-17538452D02*
X17584881Y-17528929D01*
X17584881Y-17528929D02*
X17575357Y-17509881D01*
X17575357Y-17509881D02*
X17575357Y-17452738D01*
X17575357Y-17452738D02*
X17584881Y-17433690D01*
X17584881Y-17433690D02*
X17594405Y-17424167D01*
X17594405Y-17424167D02*
X17613453Y-17414643D01*
X17613453Y-17414643D02*
X17642024Y-17414643D01*
X17642024Y-17414643D02*
X17661072Y-17424167D01*
X17661072Y-17424167D02*
X17670595Y-17433690D01*
X17670595Y-17433690D02*
X17680119Y-17452738D01*
X17680119Y-17452738D02*
X17680119Y-17509881D01*
X17680119Y-17509881D02*
X17670595Y-17528929D01*
X17670595Y-17528929D02*
X17661072Y-17538452D01*
X17661072Y-17538452D02*
X17642024Y-17547976D01*
X17642024Y-17547976D02*
X17613453Y-17547976D01*
X17794405Y-17547976D02*
X17775357Y-17538452D01*
X17775357Y-17538452D02*
X17765834Y-17519405D01*
X17765834Y-17519405D02*
X17765834Y-17347976D01*
X17946786Y-17538452D02*
X17927738Y-17547976D01*
X17927738Y-17547976D02*
X17889643Y-17547976D01*
X17889643Y-17547976D02*
X17870595Y-17538452D01*
X17870595Y-17538452D02*
X17861072Y-17519405D01*
X17861072Y-17519405D02*
X17861072Y-17443214D01*
X17861072Y-17443214D02*
X17870595Y-17424167D01*
X17870595Y-17424167D02*
X17889643Y-17414643D01*
X17889643Y-17414643D02*
X17927738Y-17414643D01*
X17927738Y-17414643D02*
X17946786Y-17424167D01*
X17946786Y-17424167D02*
X17956310Y-17443214D01*
X17956310Y-17443214D02*
X17956310Y-17462262D01*
X17956310Y-17462262D02*
X17861072Y-17481310D01*
X18022976Y-17624167D02*
X18032500Y-17614643D01*
X18032500Y-17614643D02*
X18051548Y-17586071D01*
X18051548Y-17586071D02*
X18061072Y-17567024D01*
X18061072Y-17567024D02*
X18070595Y-17538452D01*
X18070595Y-17538452D02*
X18080119Y-17490833D01*
X18080119Y-17490833D02*
X18080119Y-17452738D01*
X18080119Y-17452738D02*
X18070595Y-17405119D01*
X18070595Y-17405119D02*
X18061072Y-17376548D01*
X18061072Y-17376548D02*
X18051548Y-17357500D01*
X18051548Y-17357500D02*
X18032500Y-17328929D01*
X18032500Y-17328929D02*
X18022976Y-17319405D01*
D16*
X13512500Y-17778500D02*
X13552500Y-17738500D01*
X13512500Y-17698500D01*
X13472500Y-17738500D01*
X13512500Y-17778500D01*
D12*
X13838214Y-17611976D02*
X13857262Y-17611976D01*
X13857262Y-17611976D02*
X13876309Y-17621500D01*
X13876309Y-17621500D02*
X13885833Y-17631024D01*
X13885833Y-17631024D02*
X13895357Y-17650071D01*
X13895357Y-17650071D02*
X13904881Y-17688167D01*
X13904881Y-17688167D02*
X13904881Y-17735786D01*
X13904881Y-17735786D02*
X13895357Y-17773881D01*
X13895357Y-17773881D02*
X13885833Y-17792929D01*
X13885833Y-17792929D02*
X13876309Y-17802452D01*
X13876309Y-17802452D02*
X13857262Y-17811976D01*
X13857262Y-17811976D02*
X13838214Y-17811976D01*
X13838214Y-17811976D02*
X13819167Y-17802452D01*
X13819167Y-17802452D02*
X13809643Y-17792929D01*
X13809643Y-17792929D02*
X13800119Y-17773881D01*
X13800119Y-17773881D02*
X13790595Y-17735786D01*
X13790595Y-17735786D02*
X13790595Y-17688167D01*
X13790595Y-17688167D02*
X13800119Y-17650071D01*
X13800119Y-17650071D02*
X13809643Y-17631024D01*
X13809643Y-17631024D02*
X13819167Y-17621500D01*
X13819167Y-17621500D02*
X13838214Y-17611976D01*
X13990595Y-17792929D02*
X14000119Y-17802452D01*
X14000119Y-17802452D02*
X13990595Y-17811976D01*
X13990595Y-17811976D02*
X13981071Y-17802452D01*
X13981071Y-17802452D02*
X13990595Y-17792929D01*
X13990595Y-17792929D02*
X13990595Y-17811976D01*
X14114405Y-17697690D02*
X14095357Y-17688167D01*
X14095357Y-17688167D02*
X14085833Y-17678643D01*
X14085833Y-17678643D02*
X14076309Y-17659595D01*
X14076309Y-17659595D02*
X14076309Y-17650071D01*
X14076309Y-17650071D02*
X14085833Y-17631024D01*
X14085833Y-17631024D02*
X14095357Y-17621500D01*
X14095357Y-17621500D02*
X14114405Y-17611976D01*
X14114405Y-17611976D02*
X14152500Y-17611976D01*
X14152500Y-17611976D02*
X14171548Y-17621500D01*
X14171548Y-17621500D02*
X14181071Y-17631024D01*
X14181071Y-17631024D02*
X14190595Y-17650071D01*
X14190595Y-17650071D02*
X14190595Y-17659595D01*
X14190595Y-17659595D02*
X14181071Y-17678643D01*
X14181071Y-17678643D02*
X14171548Y-17688167D01*
X14171548Y-17688167D02*
X14152500Y-17697690D01*
X14152500Y-17697690D02*
X14114405Y-17697690D01*
X14114405Y-17697690D02*
X14095357Y-17707214D01*
X14095357Y-17707214D02*
X14085833Y-17716738D01*
X14085833Y-17716738D02*
X14076309Y-17735786D01*
X14076309Y-17735786D02*
X14076309Y-17773881D01*
X14076309Y-17773881D02*
X14085833Y-17792929D01*
X14085833Y-17792929D02*
X14095357Y-17802452D01*
X14095357Y-17802452D02*
X14114405Y-17811976D01*
X14114405Y-17811976D02*
X14152500Y-17811976D01*
X14152500Y-17811976D02*
X14171548Y-17802452D01*
X14171548Y-17802452D02*
X14181071Y-17792929D01*
X14181071Y-17792929D02*
X14190595Y-17773881D01*
X14190595Y-17773881D02*
X14190595Y-17735786D01*
X14190595Y-17735786D02*
X14181071Y-17716738D01*
X14181071Y-17716738D02*
X14171548Y-17707214D01*
X14171548Y-17707214D02*
X14152500Y-17697690D01*
X14314405Y-17611976D02*
X14333452Y-17611976D01*
X14333452Y-17611976D02*
X14352500Y-17621500D01*
X14352500Y-17621500D02*
X14362024Y-17631024D01*
X14362024Y-17631024D02*
X14371548Y-17650071D01*
X14371548Y-17650071D02*
X14381071Y-17688167D01*
X14381071Y-17688167D02*
X14381071Y-17735786D01*
X14381071Y-17735786D02*
X14371548Y-17773881D01*
X14371548Y-17773881D02*
X14362024Y-17792929D01*
X14362024Y-17792929D02*
X14352500Y-17802452D01*
X14352500Y-17802452D02*
X14333452Y-17811976D01*
X14333452Y-17811976D02*
X14314405Y-17811976D01*
X14314405Y-17811976D02*
X14295357Y-17802452D01*
X14295357Y-17802452D02*
X14285833Y-17792929D01*
X14285833Y-17792929D02*
X14276309Y-17773881D01*
X14276309Y-17773881D02*
X14266786Y-17735786D01*
X14266786Y-17735786D02*
X14266786Y-17688167D01*
X14266786Y-17688167D02*
X14276309Y-17650071D01*
X14276309Y-17650071D02*
X14285833Y-17631024D01*
X14285833Y-17631024D02*
X14295357Y-17621500D01*
X14295357Y-17621500D02*
X14314405Y-17611976D01*
X14504881Y-17611976D02*
X14523929Y-17611976D01*
X14523929Y-17611976D02*
X14542976Y-17621500D01*
X14542976Y-17621500D02*
X14552500Y-17631024D01*
X14552500Y-17631024D02*
X14562024Y-17650071D01*
X14562024Y-17650071D02*
X14571548Y-17688167D01*
X14571548Y-17688167D02*
X14571548Y-17735786D01*
X14571548Y-17735786D02*
X14562024Y-17773881D01*
X14562024Y-17773881D02*
X14552500Y-17792929D01*
X14552500Y-17792929D02*
X14542976Y-17802452D01*
X14542976Y-17802452D02*
X14523929Y-17811976D01*
X14523929Y-17811976D02*
X14504881Y-17811976D01*
X14504881Y-17811976D02*
X14485833Y-17802452D01*
X14485833Y-17802452D02*
X14476309Y-17792929D01*
X14476309Y-17792929D02*
X14466786Y-17773881D01*
X14466786Y-17773881D02*
X14457262Y-17735786D01*
X14457262Y-17735786D02*
X14457262Y-17688167D01*
X14457262Y-17688167D02*
X14466786Y-17650071D01*
X14466786Y-17650071D02*
X14476309Y-17631024D01*
X14476309Y-17631024D02*
X14485833Y-17621500D01*
X14485833Y-17621500D02*
X14504881Y-17611976D01*
X14657262Y-17811976D02*
X14657262Y-17678643D01*
X14657262Y-17697690D02*
X14666786Y-17688167D01*
X14666786Y-17688167D02*
X14685833Y-17678643D01*
X14685833Y-17678643D02*
X14714405Y-17678643D01*
X14714405Y-17678643D02*
X14733452Y-17688167D01*
X14733452Y-17688167D02*
X14742976Y-17707214D01*
X14742976Y-17707214D02*
X14742976Y-17811976D01*
X14742976Y-17707214D02*
X14752500Y-17688167D01*
X14752500Y-17688167D02*
X14771548Y-17678643D01*
X14771548Y-17678643D02*
X14800119Y-17678643D01*
X14800119Y-17678643D02*
X14819167Y-17688167D01*
X14819167Y-17688167D02*
X14828690Y-17707214D01*
X14828690Y-17707214D02*
X14828690Y-17811976D01*
X14923929Y-17811976D02*
X14923929Y-17678643D01*
X14923929Y-17697690D02*
X14933452Y-17688167D01*
X14933452Y-17688167D02*
X14952500Y-17678643D01*
X14952500Y-17678643D02*
X14981071Y-17678643D01*
X14981071Y-17678643D02*
X15000119Y-17688167D01*
X15000119Y-17688167D02*
X15009643Y-17707214D01*
X15009643Y-17707214D02*
X15009643Y-17811976D01*
X15009643Y-17707214D02*
X15019167Y-17688167D01*
X15019167Y-17688167D02*
X15038214Y-17678643D01*
X15038214Y-17678643D02*
X15066786Y-17678643D01*
X15066786Y-17678643D02*
X15085833Y-17688167D01*
X15085833Y-17688167D02*
X15095357Y-17707214D01*
X15095357Y-17707214D02*
X15095357Y-17811976D01*
X15453452Y-17602452D02*
X15282024Y-17859595D01*
X15678214Y-17611976D02*
X15697262Y-17611976D01*
X15697262Y-17611976D02*
X15716310Y-17621500D01*
X15716310Y-17621500D02*
X15725833Y-17631024D01*
X15725833Y-17631024D02*
X15735357Y-17650071D01*
X15735357Y-17650071D02*
X15744881Y-17688167D01*
X15744881Y-17688167D02*
X15744881Y-17735786D01*
X15744881Y-17735786D02*
X15735357Y-17773881D01*
X15735357Y-17773881D02*
X15725833Y-17792929D01*
X15725833Y-17792929D02*
X15716310Y-17802452D01*
X15716310Y-17802452D02*
X15697262Y-17811976D01*
X15697262Y-17811976D02*
X15678214Y-17811976D01*
X15678214Y-17811976D02*
X15659167Y-17802452D01*
X15659167Y-17802452D02*
X15649643Y-17792929D01*
X15649643Y-17792929D02*
X15640119Y-17773881D01*
X15640119Y-17773881D02*
X15630595Y-17735786D01*
X15630595Y-17735786D02*
X15630595Y-17688167D01*
X15630595Y-17688167D02*
X15640119Y-17650071D01*
X15640119Y-17650071D02*
X15649643Y-17631024D01*
X15649643Y-17631024D02*
X15659167Y-17621500D01*
X15659167Y-17621500D02*
X15678214Y-17611976D01*
X15830595Y-17792929D02*
X15840119Y-17802452D01*
X15840119Y-17802452D02*
X15830595Y-17811976D01*
X15830595Y-17811976D02*
X15821071Y-17802452D01*
X15821071Y-17802452D02*
X15830595Y-17792929D01*
X15830595Y-17792929D02*
X15830595Y-17811976D01*
X15963929Y-17611976D02*
X15982976Y-17611976D01*
X15982976Y-17611976D02*
X16002024Y-17621500D01*
X16002024Y-17621500D02*
X16011548Y-17631024D01*
X16011548Y-17631024D02*
X16021071Y-17650071D01*
X16021071Y-17650071D02*
X16030595Y-17688167D01*
X16030595Y-17688167D02*
X16030595Y-17735786D01*
X16030595Y-17735786D02*
X16021071Y-17773881D01*
X16021071Y-17773881D02*
X16011548Y-17792929D01*
X16011548Y-17792929D02*
X16002024Y-17802452D01*
X16002024Y-17802452D02*
X15982976Y-17811976D01*
X15982976Y-17811976D02*
X15963929Y-17811976D01*
X15963929Y-17811976D02*
X15944881Y-17802452D01*
X15944881Y-17802452D02*
X15935357Y-17792929D01*
X15935357Y-17792929D02*
X15925833Y-17773881D01*
X15925833Y-17773881D02*
X15916310Y-17735786D01*
X15916310Y-17735786D02*
X15916310Y-17688167D01*
X15916310Y-17688167D02*
X15925833Y-17650071D01*
X15925833Y-17650071D02*
X15935357Y-17631024D01*
X15935357Y-17631024D02*
X15944881Y-17621500D01*
X15944881Y-17621500D02*
X15963929Y-17611976D01*
X16097262Y-17611976D02*
X16221071Y-17611976D01*
X16221071Y-17611976D02*
X16154405Y-17688167D01*
X16154405Y-17688167D02*
X16182976Y-17688167D01*
X16182976Y-17688167D02*
X16202024Y-17697690D01*
X16202024Y-17697690D02*
X16211548Y-17707214D01*
X16211548Y-17707214D02*
X16221071Y-17726262D01*
X16221071Y-17726262D02*
X16221071Y-17773881D01*
X16221071Y-17773881D02*
X16211548Y-17792929D01*
X16211548Y-17792929D02*
X16202024Y-17802452D01*
X16202024Y-17802452D02*
X16182976Y-17811976D01*
X16182976Y-17811976D02*
X16125833Y-17811976D01*
X16125833Y-17811976D02*
X16106786Y-17802452D01*
X16106786Y-17802452D02*
X16097262Y-17792929D01*
X16411548Y-17811976D02*
X16297262Y-17811976D01*
X16354405Y-17811976D02*
X16354405Y-17611976D01*
X16354405Y-17611976D02*
X16335357Y-17640548D01*
X16335357Y-17640548D02*
X16316310Y-17659595D01*
X16316310Y-17659595D02*
X16297262Y-17669119D01*
X16592500Y-17611976D02*
X16497262Y-17611976D01*
X16497262Y-17611976D02*
X16487738Y-17707214D01*
X16487738Y-17707214D02*
X16497262Y-17697690D01*
X16497262Y-17697690D02*
X16516310Y-17688167D01*
X16516310Y-17688167D02*
X16563929Y-17688167D01*
X16563929Y-17688167D02*
X16582976Y-17697690D01*
X16582976Y-17697690D02*
X16592500Y-17707214D01*
X16592500Y-17707214D02*
X16602024Y-17726262D01*
X16602024Y-17726262D02*
X16602024Y-17773881D01*
X16602024Y-17773881D02*
X16592500Y-17792929D01*
X16592500Y-17792929D02*
X16582976Y-17802452D01*
X16582976Y-17802452D02*
X16563929Y-17811976D01*
X16563929Y-17811976D02*
X16516310Y-17811976D01*
X16516310Y-17811976D02*
X16497262Y-17802452D01*
X16497262Y-17802452D02*
X16487738Y-17792929D01*
X16678214Y-17611976D02*
X16678214Y-17650071D01*
X16754405Y-17611976D02*
X16754405Y-17650071D01*
X17017262Y-17888167D02*
X17007738Y-17878643D01*
X17007738Y-17878643D02*
X16988691Y-17850071D01*
X16988691Y-17850071D02*
X16979167Y-17831024D01*
X16979167Y-17831024D02*
X16969643Y-17802452D01*
X16969643Y-17802452D02*
X16960119Y-17754833D01*
X16960119Y-17754833D02*
X16960119Y-17716738D01*
X16960119Y-17716738D02*
X16969643Y-17669119D01*
X16969643Y-17669119D02*
X16979167Y-17640548D01*
X16979167Y-17640548D02*
X16988691Y-17621500D01*
X16988691Y-17621500D02*
X17007738Y-17592929D01*
X17007738Y-17592929D02*
X17017262Y-17583405D01*
X17198214Y-17811976D02*
X17083929Y-17811976D01*
X17141072Y-17811976D02*
X17141072Y-17611976D01*
X17141072Y-17611976D02*
X17122024Y-17640548D01*
X17122024Y-17640548D02*
X17102976Y-17659595D01*
X17102976Y-17659595D02*
X17083929Y-17669119D01*
X17322024Y-17611976D02*
X17341072Y-17611976D01*
X17341072Y-17611976D02*
X17360119Y-17621500D01*
X17360119Y-17621500D02*
X17369643Y-17631024D01*
X17369643Y-17631024D02*
X17379167Y-17650071D01*
X17379167Y-17650071D02*
X17388691Y-17688167D01*
X17388691Y-17688167D02*
X17388691Y-17735786D01*
X17388691Y-17735786D02*
X17379167Y-17773881D01*
X17379167Y-17773881D02*
X17369643Y-17792929D01*
X17369643Y-17792929D02*
X17360119Y-17802452D01*
X17360119Y-17802452D02*
X17341072Y-17811976D01*
X17341072Y-17811976D02*
X17322024Y-17811976D01*
X17322024Y-17811976D02*
X17302976Y-17802452D01*
X17302976Y-17802452D02*
X17293453Y-17792929D01*
X17293453Y-17792929D02*
X17283929Y-17773881D01*
X17283929Y-17773881D02*
X17274405Y-17735786D01*
X17274405Y-17735786D02*
X17274405Y-17688167D01*
X17274405Y-17688167D02*
X17283929Y-17650071D01*
X17283929Y-17650071D02*
X17293453Y-17631024D01*
X17293453Y-17631024D02*
X17302976Y-17621500D01*
X17302976Y-17621500D02*
X17322024Y-17611976D01*
X17594405Y-17811976D02*
X17594405Y-17611976D01*
X17680119Y-17811976D02*
X17680119Y-17707214D01*
X17680119Y-17707214D02*
X17670595Y-17688167D01*
X17670595Y-17688167D02*
X17651548Y-17678643D01*
X17651548Y-17678643D02*
X17622976Y-17678643D01*
X17622976Y-17678643D02*
X17603929Y-17688167D01*
X17603929Y-17688167D02*
X17594405Y-17697690D01*
X17803929Y-17811976D02*
X17784881Y-17802452D01*
X17784881Y-17802452D02*
X17775357Y-17792929D01*
X17775357Y-17792929D02*
X17765834Y-17773881D01*
X17765834Y-17773881D02*
X17765834Y-17716738D01*
X17765834Y-17716738D02*
X17775357Y-17697690D01*
X17775357Y-17697690D02*
X17784881Y-17688167D01*
X17784881Y-17688167D02*
X17803929Y-17678643D01*
X17803929Y-17678643D02*
X17832500Y-17678643D01*
X17832500Y-17678643D02*
X17851548Y-17688167D01*
X17851548Y-17688167D02*
X17861072Y-17697690D01*
X17861072Y-17697690D02*
X17870595Y-17716738D01*
X17870595Y-17716738D02*
X17870595Y-17773881D01*
X17870595Y-17773881D02*
X17861072Y-17792929D01*
X17861072Y-17792929D02*
X17851548Y-17802452D01*
X17851548Y-17802452D02*
X17832500Y-17811976D01*
X17832500Y-17811976D02*
X17803929Y-17811976D01*
X17984881Y-17811976D02*
X17965834Y-17802452D01*
X17965834Y-17802452D02*
X17956310Y-17783405D01*
X17956310Y-17783405D02*
X17956310Y-17611976D01*
X18137262Y-17802452D02*
X18118215Y-17811976D01*
X18118215Y-17811976D02*
X18080119Y-17811976D01*
X18080119Y-17811976D02*
X18061072Y-17802452D01*
X18061072Y-17802452D02*
X18051548Y-17783405D01*
X18051548Y-17783405D02*
X18051548Y-17707214D01*
X18051548Y-17707214D02*
X18061072Y-17688167D01*
X18061072Y-17688167D02*
X18080119Y-17678643D01*
X18080119Y-17678643D02*
X18118215Y-17678643D01*
X18118215Y-17678643D02*
X18137262Y-17688167D01*
X18137262Y-17688167D02*
X18146786Y-17707214D01*
X18146786Y-17707214D02*
X18146786Y-17726262D01*
X18146786Y-17726262D02*
X18051548Y-17745310D01*
X18222976Y-17802452D02*
X18242024Y-17811976D01*
X18242024Y-17811976D02*
X18280119Y-17811976D01*
X18280119Y-17811976D02*
X18299167Y-17802452D01*
X18299167Y-17802452D02*
X18308691Y-17783405D01*
X18308691Y-17783405D02*
X18308691Y-17773881D01*
X18308691Y-17773881D02*
X18299167Y-17754833D01*
X18299167Y-17754833D02*
X18280119Y-17745310D01*
X18280119Y-17745310D02*
X18251548Y-17745310D01*
X18251548Y-17745310D02*
X18232500Y-17735786D01*
X18232500Y-17735786D02*
X18222976Y-17716738D01*
X18222976Y-17716738D02*
X18222976Y-17707214D01*
X18222976Y-17707214D02*
X18232500Y-17688167D01*
X18232500Y-17688167D02*
X18251548Y-17678643D01*
X18251548Y-17678643D02*
X18280119Y-17678643D01*
X18280119Y-17678643D02*
X18299167Y-17688167D01*
X18375357Y-17888167D02*
X18384881Y-17878643D01*
X18384881Y-17878643D02*
X18403929Y-17850071D01*
X18403929Y-17850071D02*
X18413453Y-17831024D01*
X18413453Y-17831024D02*
X18422976Y-17802452D01*
X18422976Y-17802452D02*
X18432500Y-17754833D01*
X18432500Y-17754833D02*
X18432500Y-17716738D01*
X18432500Y-17716738D02*
X18422976Y-17669119D01*
X18422976Y-17669119D02*
X18413453Y-17640548D01*
X18413453Y-17640548D02*
X18403929Y-17621500D01*
X18403929Y-17621500D02*
X18384881Y-17592929D01*
X18384881Y-17592929D02*
X18375357Y-17583405D01*
D17*
X13442500Y-17947500D02*
X13552500Y-18057500D01*
X13552500Y-17947500D02*
X13442500Y-18057500D01*
X13552500Y-18002500D02*
G75*
G03*
X13552500Y-18002500I-55000J0D01*
G01*
D12*
X13904881Y-18075976D02*
X13790595Y-18075976D01*
X13847738Y-18075976D02*
X13847738Y-17875976D01*
X13847738Y-17875976D02*
X13828690Y-17904548D01*
X13828690Y-17904548D02*
X13809643Y-17923595D01*
X13809643Y-17923595D02*
X13790595Y-17933119D01*
X13990595Y-18056929D02*
X14000119Y-18066452D01*
X14000119Y-18066452D02*
X13990595Y-18075976D01*
X13990595Y-18075976D02*
X13981071Y-18066452D01*
X13981071Y-18066452D02*
X13990595Y-18056929D01*
X13990595Y-18056929D02*
X13990595Y-18075976D01*
X14190595Y-18075976D02*
X14076309Y-18075976D01*
X14133452Y-18075976D02*
X14133452Y-17875976D01*
X14133452Y-17875976D02*
X14114405Y-17904548D01*
X14114405Y-17904548D02*
X14095357Y-17923595D01*
X14095357Y-17923595D02*
X14076309Y-17933119D01*
X14314405Y-17875976D02*
X14333452Y-17875976D01*
X14333452Y-17875976D02*
X14352500Y-17885500D01*
X14352500Y-17885500D02*
X14362024Y-17895024D01*
X14362024Y-17895024D02*
X14371548Y-17914071D01*
X14371548Y-17914071D02*
X14381071Y-17952167D01*
X14381071Y-17952167D02*
X14381071Y-17999786D01*
X14381071Y-17999786D02*
X14371548Y-18037881D01*
X14371548Y-18037881D02*
X14362024Y-18056929D01*
X14362024Y-18056929D02*
X14352500Y-18066452D01*
X14352500Y-18066452D02*
X14333452Y-18075976D01*
X14333452Y-18075976D02*
X14314405Y-18075976D01*
X14314405Y-18075976D02*
X14295357Y-18066452D01*
X14295357Y-18066452D02*
X14285833Y-18056929D01*
X14285833Y-18056929D02*
X14276309Y-18037881D01*
X14276309Y-18037881D02*
X14266786Y-17999786D01*
X14266786Y-17999786D02*
X14266786Y-17952167D01*
X14266786Y-17952167D02*
X14276309Y-17914071D01*
X14276309Y-17914071D02*
X14285833Y-17895024D01*
X14285833Y-17895024D02*
X14295357Y-17885500D01*
X14295357Y-17885500D02*
X14314405Y-17875976D01*
X14504881Y-17875976D02*
X14523929Y-17875976D01*
X14523929Y-17875976D02*
X14542976Y-17885500D01*
X14542976Y-17885500D02*
X14552500Y-17895024D01*
X14552500Y-17895024D02*
X14562024Y-17914071D01*
X14562024Y-17914071D02*
X14571548Y-17952167D01*
X14571548Y-17952167D02*
X14571548Y-17999786D01*
X14571548Y-17999786D02*
X14562024Y-18037881D01*
X14562024Y-18037881D02*
X14552500Y-18056929D01*
X14552500Y-18056929D02*
X14542976Y-18066452D01*
X14542976Y-18066452D02*
X14523929Y-18075976D01*
X14523929Y-18075976D02*
X14504881Y-18075976D01*
X14504881Y-18075976D02*
X14485833Y-18066452D01*
X14485833Y-18066452D02*
X14476309Y-18056929D01*
X14476309Y-18056929D02*
X14466786Y-18037881D01*
X14466786Y-18037881D02*
X14457262Y-17999786D01*
X14457262Y-17999786D02*
X14457262Y-17952167D01*
X14457262Y-17952167D02*
X14466786Y-17914071D01*
X14466786Y-17914071D02*
X14476309Y-17895024D01*
X14476309Y-17895024D02*
X14485833Y-17885500D01*
X14485833Y-17885500D02*
X14504881Y-17875976D01*
X14657262Y-18075976D02*
X14657262Y-17942643D01*
X14657262Y-17961690D02*
X14666786Y-17952167D01*
X14666786Y-17952167D02*
X14685833Y-17942643D01*
X14685833Y-17942643D02*
X14714405Y-17942643D01*
X14714405Y-17942643D02*
X14733452Y-17952167D01*
X14733452Y-17952167D02*
X14742976Y-17971214D01*
X14742976Y-17971214D02*
X14742976Y-18075976D01*
X14742976Y-17971214D02*
X14752500Y-17952167D01*
X14752500Y-17952167D02*
X14771548Y-17942643D01*
X14771548Y-17942643D02*
X14800119Y-17942643D01*
X14800119Y-17942643D02*
X14819167Y-17952167D01*
X14819167Y-17952167D02*
X14828690Y-17971214D01*
X14828690Y-17971214D02*
X14828690Y-18075976D01*
X14923929Y-18075976D02*
X14923929Y-17942643D01*
X14923929Y-17961690D02*
X14933452Y-17952167D01*
X14933452Y-17952167D02*
X14952500Y-17942643D01*
X14952500Y-17942643D02*
X14981071Y-17942643D01*
X14981071Y-17942643D02*
X15000119Y-17952167D01*
X15000119Y-17952167D02*
X15009643Y-17971214D01*
X15009643Y-17971214D02*
X15009643Y-18075976D01*
X15009643Y-17971214D02*
X15019167Y-17952167D01*
X15019167Y-17952167D02*
X15038214Y-17942643D01*
X15038214Y-17942643D02*
X15066786Y-17942643D01*
X15066786Y-17942643D02*
X15085833Y-17952167D01*
X15085833Y-17952167D02*
X15095357Y-17971214D01*
X15095357Y-17971214D02*
X15095357Y-18075976D01*
X15453452Y-17866452D02*
X15282024Y-18123595D01*
X15678214Y-17875976D02*
X15697262Y-17875976D01*
X15697262Y-17875976D02*
X15716310Y-17885500D01*
X15716310Y-17885500D02*
X15725833Y-17895024D01*
X15725833Y-17895024D02*
X15735357Y-17914071D01*
X15735357Y-17914071D02*
X15744881Y-17952167D01*
X15744881Y-17952167D02*
X15744881Y-17999786D01*
X15744881Y-17999786D02*
X15735357Y-18037881D01*
X15735357Y-18037881D02*
X15725833Y-18056929D01*
X15725833Y-18056929D02*
X15716310Y-18066452D01*
X15716310Y-18066452D02*
X15697262Y-18075976D01*
X15697262Y-18075976D02*
X15678214Y-18075976D01*
X15678214Y-18075976D02*
X15659167Y-18066452D01*
X15659167Y-18066452D02*
X15649643Y-18056929D01*
X15649643Y-18056929D02*
X15640119Y-18037881D01*
X15640119Y-18037881D02*
X15630595Y-17999786D01*
X15630595Y-17999786D02*
X15630595Y-17952167D01*
X15630595Y-17952167D02*
X15640119Y-17914071D01*
X15640119Y-17914071D02*
X15649643Y-17895024D01*
X15649643Y-17895024D02*
X15659167Y-17885500D01*
X15659167Y-17885500D02*
X15678214Y-17875976D01*
X15830595Y-18056929D02*
X15840119Y-18066452D01*
X15840119Y-18066452D02*
X15830595Y-18075976D01*
X15830595Y-18075976D02*
X15821071Y-18066452D01*
X15821071Y-18066452D02*
X15830595Y-18056929D01*
X15830595Y-18056929D02*
X15830595Y-18075976D01*
X15963929Y-17875976D02*
X15982976Y-17875976D01*
X15982976Y-17875976D02*
X16002024Y-17885500D01*
X16002024Y-17885500D02*
X16011548Y-17895024D01*
X16011548Y-17895024D02*
X16021071Y-17914071D01*
X16021071Y-17914071D02*
X16030595Y-17952167D01*
X16030595Y-17952167D02*
X16030595Y-17999786D01*
X16030595Y-17999786D02*
X16021071Y-18037881D01*
X16021071Y-18037881D02*
X16011548Y-18056929D01*
X16011548Y-18056929D02*
X16002024Y-18066452D01*
X16002024Y-18066452D02*
X15982976Y-18075976D01*
X15982976Y-18075976D02*
X15963929Y-18075976D01*
X15963929Y-18075976D02*
X15944881Y-18066452D01*
X15944881Y-18066452D02*
X15935357Y-18056929D01*
X15935357Y-18056929D02*
X15925833Y-18037881D01*
X15925833Y-18037881D02*
X15916310Y-17999786D01*
X15916310Y-17999786D02*
X15916310Y-17952167D01*
X15916310Y-17952167D02*
X15925833Y-17914071D01*
X15925833Y-17914071D02*
X15935357Y-17895024D01*
X15935357Y-17895024D02*
X15944881Y-17885500D01*
X15944881Y-17885500D02*
X15963929Y-17875976D01*
X16202024Y-17942643D02*
X16202024Y-18075976D01*
X16154405Y-17866452D02*
X16106786Y-18009310D01*
X16106786Y-18009310D02*
X16230595Y-18009310D01*
X16287738Y-17875976D02*
X16411548Y-17875976D01*
X16411548Y-17875976D02*
X16344881Y-17952167D01*
X16344881Y-17952167D02*
X16373452Y-17952167D01*
X16373452Y-17952167D02*
X16392500Y-17961690D01*
X16392500Y-17961690D02*
X16402024Y-17971214D01*
X16402024Y-17971214D02*
X16411548Y-17990262D01*
X16411548Y-17990262D02*
X16411548Y-18037881D01*
X16411548Y-18037881D02*
X16402024Y-18056929D01*
X16402024Y-18056929D02*
X16392500Y-18066452D01*
X16392500Y-18066452D02*
X16373452Y-18075976D01*
X16373452Y-18075976D02*
X16316310Y-18075976D01*
X16316310Y-18075976D02*
X16297262Y-18066452D01*
X16297262Y-18066452D02*
X16287738Y-18056929D01*
X16478214Y-17875976D02*
X16602024Y-17875976D01*
X16602024Y-17875976D02*
X16535357Y-17952167D01*
X16535357Y-17952167D02*
X16563929Y-17952167D01*
X16563929Y-17952167D02*
X16582976Y-17961690D01*
X16582976Y-17961690D02*
X16592500Y-17971214D01*
X16592500Y-17971214D02*
X16602024Y-17990262D01*
X16602024Y-17990262D02*
X16602024Y-18037881D01*
X16602024Y-18037881D02*
X16592500Y-18056929D01*
X16592500Y-18056929D02*
X16582976Y-18066452D01*
X16582976Y-18066452D02*
X16563929Y-18075976D01*
X16563929Y-18075976D02*
X16506786Y-18075976D01*
X16506786Y-18075976D02*
X16487738Y-18066452D01*
X16487738Y-18066452D02*
X16478214Y-18056929D01*
X16678214Y-17875976D02*
X16678214Y-17914071D01*
X16754405Y-17875976D02*
X16754405Y-17914071D01*
X17017262Y-18152167D02*
X17007738Y-18142643D01*
X17007738Y-18142643D02*
X16988691Y-18114071D01*
X16988691Y-18114071D02*
X16979167Y-18095024D01*
X16979167Y-18095024D02*
X16969643Y-18066452D01*
X16969643Y-18066452D02*
X16960119Y-18018833D01*
X16960119Y-18018833D02*
X16960119Y-17980738D01*
X16960119Y-17980738D02*
X16969643Y-17933119D01*
X16969643Y-17933119D02*
X16979167Y-17904548D01*
X16979167Y-17904548D02*
X16988691Y-17885500D01*
X16988691Y-17885500D02*
X17007738Y-17856929D01*
X17007738Y-17856929D02*
X17017262Y-17847405D01*
X17179167Y-17942643D02*
X17179167Y-18075976D01*
X17131548Y-17866452D02*
X17083929Y-18009310D01*
X17083929Y-18009310D02*
X17207738Y-18009310D01*
X17403929Y-18075976D02*
X17403929Y-17875976D01*
X17489643Y-18075976D02*
X17489643Y-17971214D01*
X17489643Y-17971214D02*
X17480119Y-17952167D01*
X17480119Y-17952167D02*
X17461072Y-17942643D01*
X17461072Y-17942643D02*
X17432500Y-17942643D01*
X17432500Y-17942643D02*
X17413453Y-17952167D01*
X17413453Y-17952167D02*
X17403929Y-17961690D01*
X17613453Y-18075976D02*
X17594405Y-18066452D01*
X17594405Y-18066452D02*
X17584881Y-18056929D01*
X17584881Y-18056929D02*
X17575357Y-18037881D01*
X17575357Y-18037881D02*
X17575357Y-17980738D01*
X17575357Y-17980738D02*
X17584881Y-17961690D01*
X17584881Y-17961690D02*
X17594405Y-17952167D01*
X17594405Y-17952167D02*
X17613453Y-17942643D01*
X17613453Y-17942643D02*
X17642024Y-17942643D01*
X17642024Y-17942643D02*
X17661072Y-17952167D01*
X17661072Y-17952167D02*
X17670595Y-17961690D01*
X17670595Y-17961690D02*
X17680119Y-17980738D01*
X17680119Y-17980738D02*
X17680119Y-18037881D01*
X17680119Y-18037881D02*
X17670595Y-18056929D01*
X17670595Y-18056929D02*
X17661072Y-18066452D01*
X17661072Y-18066452D02*
X17642024Y-18075976D01*
X17642024Y-18075976D02*
X17613453Y-18075976D01*
X17794405Y-18075976D02*
X17775357Y-18066452D01*
X17775357Y-18066452D02*
X17765834Y-18047405D01*
X17765834Y-18047405D02*
X17765834Y-17875976D01*
X17946786Y-18066452D02*
X17927738Y-18075976D01*
X17927738Y-18075976D02*
X17889643Y-18075976D01*
X17889643Y-18075976D02*
X17870595Y-18066452D01*
X17870595Y-18066452D02*
X17861072Y-18047405D01*
X17861072Y-18047405D02*
X17861072Y-17971214D01*
X17861072Y-17971214D02*
X17870595Y-17952167D01*
X17870595Y-17952167D02*
X17889643Y-17942643D01*
X17889643Y-17942643D02*
X17927738Y-17942643D01*
X17927738Y-17942643D02*
X17946786Y-17952167D01*
X17946786Y-17952167D02*
X17956310Y-17971214D01*
X17956310Y-17971214D02*
X17956310Y-17990262D01*
X17956310Y-17990262D02*
X17861072Y-18009310D01*
X18032500Y-18066452D02*
X18051548Y-18075976D01*
X18051548Y-18075976D02*
X18089643Y-18075976D01*
X18089643Y-18075976D02*
X18108691Y-18066452D01*
X18108691Y-18066452D02*
X18118215Y-18047405D01*
X18118215Y-18047405D02*
X18118215Y-18037881D01*
X18118215Y-18037881D02*
X18108691Y-18018833D01*
X18108691Y-18018833D02*
X18089643Y-18009310D01*
X18089643Y-18009310D02*
X18061072Y-18009310D01*
X18061072Y-18009310D02*
X18042024Y-17999786D01*
X18042024Y-17999786D02*
X18032500Y-17980738D01*
X18032500Y-17980738D02*
X18032500Y-17971214D01*
X18032500Y-17971214D02*
X18042024Y-17952167D01*
X18042024Y-17952167D02*
X18061072Y-17942643D01*
X18061072Y-17942643D02*
X18089643Y-17942643D01*
X18089643Y-17942643D02*
X18108691Y-17952167D01*
X18184881Y-18152167D02*
X18194405Y-18142643D01*
X18194405Y-18142643D02*
X18213453Y-18114071D01*
X18213453Y-18114071D02*
X18222976Y-18095024D01*
X18222976Y-18095024D02*
X18232500Y-18066452D01*
X18232500Y-18066452D02*
X18242024Y-18018833D01*
X18242024Y-18018833D02*
X18242024Y-17980738D01*
X18242024Y-17980738D02*
X18232500Y-17933119D01*
X18232500Y-17933119D02*
X18222976Y-17904548D01*
X18222976Y-17904548D02*
X18213453Y-17885500D01*
X18213453Y-17885500D02*
X18194405Y-17856929D01*
X18194405Y-17856929D02*
X18184881Y-17847405D01*
D18*
X13377500Y-18179000D02*
X13552500Y-18354000D01*
X13552500Y-18179000D02*
X13377500Y-18354000D01*
X13465000Y-18179000D02*
X13465000Y-18354000D01*
X13377500Y-18266500D02*
X13552500Y-18266500D01*
D12*
X13904881Y-18339976D02*
X13790595Y-18339976D01*
X13847738Y-18339976D02*
X13847738Y-18139976D01*
X13847738Y-18139976D02*
X13828690Y-18168548D01*
X13828690Y-18168548D02*
X13809643Y-18187595D01*
X13809643Y-18187595D02*
X13790595Y-18197119D01*
X13990595Y-18320929D02*
X14000119Y-18330452D01*
X14000119Y-18330452D02*
X13990595Y-18339976D01*
X13990595Y-18339976D02*
X13981071Y-18330452D01*
X13981071Y-18330452D02*
X13990595Y-18320929D01*
X13990595Y-18320929D02*
X13990595Y-18339976D01*
X14066786Y-18139976D02*
X14200119Y-18139976D01*
X14200119Y-18139976D02*
X14114405Y-18339976D01*
X14371548Y-18139976D02*
X14276309Y-18139976D01*
X14276309Y-18139976D02*
X14266786Y-18235214D01*
X14266786Y-18235214D02*
X14276309Y-18225690D01*
X14276309Y-18225690D02*
X14295357Y-18216167D01*
X14295357Y-18216167D02*
X14342976Y-18216167D01*
X14342976Y-18216167D02*
X14362024Y-18225690D01*
X14362024Y-18225690D02*
X14371548Y-18235214D01*
X14371548Y-18235214D02*
X14381071Y-18254262D01*
X14381071Y-18254262D02*
X14381071Y-18301881D01*
X14381071Y-18301881D02*
X14371548Y-18320929D01*
X14371548Y-18320929D02*
X14362024Y-18330452D01*
X14362024Y-18330452D02*
X14342976Y-18339976D01*
X14342976Y-18339976D02*
X14295357Y-18339976D01*
X14295357Y-18339976D02*
X14276309Y-18330452D01*
X14276309Y-18330452D02*
X14266786Y-18320929D01*
X14504881Y-18139976D02*
X14523929Y-18139976D01*
X14523929Y-18139976D02*
X14542976Y-18149500D01*
X14542976Y-18149500D02*
X14552500Y-18159024D01*
X14552500Y-18159024D02*
X14562024Y-18178071D01*
X14562024Y-18178071D02*
X14571548Y-18216167D01*
X14571548Y-18216167D02*
X14571548Y-18263786D01*
X14571548Y-18263786D02*
X14562024Y-18301881D01*
X14562024Y-18301881D02*
X14552500Y-18320929D01*
X14552500Y-18320929D02*
X14542976Y-18330452D01*
X14542976Y-18330452D02*
X14523929Y-18339976D01*
X14523929Y-18339976D02*
X14504881Y-18339976D01*
X14504881Y-18339976D02*
X14485833Y-18330452D01*
X14485833Y-18330452D02*
X14476309Y-18320929D01*
X14476309Y-18320929D02*
X14466786Y-18301881D01*
X14466786Y-18301881D02*
X14457262Y-18263786D01*
X14457262Y-18263786D02*
X14457262Y-18216167D01*
X14457262Y-18216167D02*
X14466786Y-18178071D01*
X14466786Y-18178071D02*
X14476309Y-18159024D01*
X14476309Y-18159024D02*
X14485833Y-18149500D01*
X14485833Y-18149500D02*
X14504881Y-18139976D01*
X14657262Y-18339976D02*
X14657262Y-18206643D01*
X14657262Y-18225690D02*
X14666786Y-18216167D01*
X14666786Y-18216167D02*
X14685833Y-18206643D01*
X14685833Y-18206643D02*
X14714405Y-18206643D01*
X14714405Y-18206643D02*
X14733452Y-18216167D01*
X14733452Y-18216167D02*
X14742976Y-18235214D01*
X14742976Y-18235214D02*
X14742976Y-18339976D01*
X14742976Y-18235214D02*
X14752500Y-18216167D01*
X14752500Y-18216167D02*
X14771548Y-18206643D01*
X14771548Y-18206643D02*
X14800119Y-18206643D01*
X14800119Y-18206643D02*
X14819167Y-18216167D01*
X14819167Y-18216167D02*
X14828690Y-18235214D01*
X14828690Y-18235214D02*
X14828690Y-18339976D01*
X14923929Y-18339976D02*
X14923929Y-18206643D01*
X14923929Y-18225690D02*
X14933452Y-18216167D01*
X14933452Y-18216167D02*
X14952500Y-18206643D01*
X14952500Y-18206643D02*
X14981071Y-18206643D01*
X14981071Y-18206643D02*
X15000119Y-18216167D01*
X15000119Y-18216167D02*
X15009643Y-18235214D01*
X15009643Y-18235214D02*
X15009643Y-18339976D01*
X15009643Y-18235214D02*
X15019167Y-18216167D01*
X15019167Y-18216167D02*
X15038214Y-18206643D01*
X15038214Y-18206643D02*
X15066786Y-18206643D01*
X15066786Y-18206643D02*
X15085833Y-18216167D01*
X15085833Y-18216167D02*
X15095357Y-18235214D01*
X15095357Y-18235214D02*
X15095357Y-18339976D01*
X15453452Y-18130452D02*
X15282024Y-18387595D01*
X15678214Y-18139976D02*
X15697262Y-18139976D01*
X15697262Y-18139976D02*
X15716310Y-18149500D01*
X15716310Y-18149500D02*
X15725833Y-18159024D01*
X15725833Y-18159024D02*
X15735357Y-18178071D01*
X15735357Y-18178071D02*
X15744881Y-18216167D01*
X15744881Y-18216167D02*
X15744881Y-18263786D01*
X15744881Y-18263786D02*
X15735357Y-18301881D01*
X15735357Y-18301881D02*
X15725833Y-18320929D01*
X15725833Y-18320929D02*
X15716310Y-18330452D01*
X15716310Y-18330452D02*
X15697262Y-18339976D01*
X15697262Y-18339976D02*
X15678214Y-18339976D01*
X15678214Y-18339976D02*
X15659167Y-18330452D01*
X15659167Y-18330452D02*
X15649643Y-18320929D01*
X15649643Y-18320929D02*
X15640119Y-18301881D01*
X15640119Y-18301881D02*
X15630595Y-18263786D01*
X15630595Y-18263786D02*
X15630595Y-18216167D01*
X15630595Y-18216167D02*
X15640119Y-18178071D01*
X15640119Y-18178071D02*
X15649643Y-18159024D01*
X15649643Y-18159024D02*
X15659167Y-18149500D01*
X15659167Y-18149500D02*
X15678214Y-18139976D01*
X15830595Y-18320929D02*
X15840119Y-18330452D01*
X15840119Y-18330452D02*
X15830595Y-18339976D01*
X15830595Y-18339976D02*
X15821071Y-18330452D01*
X15821071Y-18330452D02*
X15830595Y-18320929D01*
X15830595Y-18320929D02*
X15830595Y-18339976D01*
X15963929Y-18139976D02*
X15982976Y-18139976D01*
X15982976Y-18139976D02*
X16002024Y-18149500D01*
X16002024Y-18149500D02*
X16011548Y-18159024D01*
X16011548Y-18159024D02*
X16021071Y-18178071D01*
X16021071Y-18178071D02*
X16030595Y-18216167D01*
X16030595Y-18216167D02*
X16030595Y-18263786D01*
X16030595Y-18263786D02*
X16021071Y-18301881D01*
X16021071Y-18301881D02*
X16011548Y-18320929D01*
X16011548Y-18320929D02*
X16002024Y-18330452D01*
X16002024Y-18330452D02*
X15982976Y-18339976D01*
X15982976Y-18339976D02*
X15963929Y-18339976D01*
X15963929Y-18339976D02*
X15944881Y-18330452D01*
X15944881Y-18330452D02*
X15935357Y-18320929D01*
X15935357Y-18320929D02*
X15925833Y-18301881D01*
X15925833Y-18301881D02*
X15916310Y-18263786D01*
X15916310Y-18263786D02*
X15916310Y-18216167D01*
X15916310Y-18216167D02*
X15925833Y-18178071D01*
X15925833Y-18178071D02*
X15935357Y-18159024D01*
X15935357Y-18159024D02*
X15944881Y-18149500D01*
X15944881Y-18149500D02*
X15963929Y-18139976D01*
X16202024Y-18139976D02*
X16163929Y-18139976D01*
X16163929Y-18139976D02*
X16144881Y-18149500D01*
X16144881Y-18149500D02*
X16135357Y-18159024D01*
X16135357Y-18159024D02*
X16116310Y-18187595D01*
X16116310Y-18187595D02*
X16106786Y-18225690D01*
X16106786Y-18225690D02*
X16106786Y-18301881D01*
X16106786Y-18301881D02*
X16116310Y-18320929D01*
X16116310Y-18320929D02*
X16125833Y-18330452D01*
X16125833Y-18330452D02*
X16144881Y-18339976D01*
X16144881Y-18339976D02*
X16182976Y-18339976D01*
X16182976Y-18339976D02*
X16202024Y-18330452D01*
X16202024Y-18330452D02*
X16211548Y-18320929D01*
X16211548Y-18320929D02*
X16221071Y-18301881D01*
X16221071Y-18301881D02*
X16221071Y-18254262D01*
X16221071Y-18254262D02*
X16211548Y-18235214D01*
X16211548Y-18235214D02*
X16202024Y-18225690D01*
X16202024Y-18225690D02*
X16182976Y-18216167D01*
X16182976Y-18216167D02*
X16144881Y-18216167D01*
X16144881Y-18216167D02*
X16125833Y-18225690D01*
X16125833Y-18225690D02*
X16116310Y-18235214D01*
X16116310Y-18235214D02*
X16106786Y-18254262D01*
X16335357Y-18225690D02*
X16316310Y-18216167D01*
X16316310Y-18216167D02*
X16306786Y-18206643D01*
X16306786Y-18206643D02*
X16297262Y-18187595D01*
X16297262Y-18187595D02*
X16297262Y-18178071D01*
X16297262Y-18178071D02*
X16306786Y-18159024D01*
X16306786Y-18159024D02*
X16316310Y-18149500D01*
X16316310Y-18149500D02*
X16335357Y-18139976D01*
X16335357Y-18139976D02*
X16373452Y-18139976D01*
X16373452Y-18139976D02*
X16392500Y-18149500D01*
X16392500Y-18149500D02*
X16402024Y-18159024D01*
X16402024Y-18159024D02*
X16411548Y-18178071D01*
X16411548Y-18178071D02*
X16411548Y-18187595D01*
X16411548Y-18187595D02*
X16402024Y-18206643D01*
X16402024Y-18206643D02*
X16392500Y-18216167D01*
X16392500Y-18216167D02*
X16373452Y-18225690D01*
X16373452Y-18225690D02*
X16335357Y-18225690D01*
X16335357Y-18225690D02*
X16316310Y-18235214D01*
X16316310Y-18235214D02*
X16306786Y-18244738D01*
X16306786Y-18244738D02*
X16297262Y-18263786D01*
X16297262Y-18263786D02*
X16297262Y-18301881D01*
X16297262Y-18301881D02*
X16306786Y-18320929D01*
X16306786Y-18320929D02*
X16316310Y-18330452D01*
X16316310Y-18330452D02*
X16335357Y-18339976D01*
X16335357Y-18339976D02*
X16373452Y-18339976D01*
X16373452Y-18339976D02*
X16392500Y-18330452D01*
X16392500Y-18330452D02*
X16402024Y-18320929D01*
X16402024Y-18320929D02*
X16411548Y-18301881D01*
X16411548Y-18301881D02*
X16411548Y-18263786D01*
X16411548Y-18263786D02*
X16402024Y-18244738D01*
X16402024Y-18244738D02*
X16392500Y-18235214D01*
X16392500Y-18235214D02*
X16373452Y-18225690D01*
X16506786Y-18339976D02*
X16544881Y-18339976D01*
X16544881Y-18339976D02*
X16563929Y-18330452D01*
X16563929Y-18330452D02*
X16573452Y-18320929D01*
X16573452Y-18320929D02*
X16592500Y-18292357D01*
X16592500Y-18292357D02*
X16602024Y-18254262D01*
X16602024Y-18254262D02*
X16602024Y-18178071D01*
X16602024Y-18178071D02*
X16592500Y-18159024D01*
X16592500Y-18159024D02*
X16582976Y-18149500D01*
X16582976Y-18149500D02*
X16563929Y-18139976D01*
X16563929Y-18139976D02*
X16525833Y-18139976D01*
X16525833Y-18139976D02*
X16506786Y-18149500D01*
X16506786Y-18149500D02*
X16497262Y-18159024D01*
X16497262Y-18159024D02*
X16487738Y-18178071D01*
X16487738Y-18178071D02*
X16487738Y-18225690D01*
X16487738Y-18225690D02*
X16497262Y-18244738D01*
X16497262Y-18244738D02*
X16506786Y-18254262D01*
X16506786Y-18254262D02*
X16525833Y-18263786D01*
X16525833Y-18263786D02*
X16563929Y-18263786D01*
X16563929Y-18263786D02*
X16582976Y-18254262D01*
X16582976Y-18254262D02*
X16592500Y-18244738D01*
X16592500Y-18244738D02*
X16602024Y-18225690D01*
X16678214Y-18139976D02*
X16678214Y-18178071D01*
X16754405Y-18139976D02*
X16754405Y-18178071D01*
X17017262Y-18416167D02*
X17007738Y-18406643D01*
X17007738Y-18406643D02*
X16988691Y-18378071D01*
X16988691Y-18378071D02*
X16979167Y-18359024D01*
X16979167Y-18359024D02*
X16969643Y-18330452D01*
X16969643Y-18330452D02*
X16960119Y-18282833D01*
X16960119Y-18282833D02*
X16960119Y-18244738D01*
X16960119Y-18244738D02*
X16969643Y-18197119D01*
X16969643Y-18197119D02*
X16979167Y-18168548D01*
X16979167Y-18168548D02*
X16988691Y-18149500D01*
X16988691Y-18149500D02*
X17007738Y-18120929D01*
X17007738Y-18120929D02*
X17017262Y-18111405D01*
X17179167Y-18139976D02*
X17141072Y-18139976D01*
X17141072Y-18139976D02*
X17122024Y-18149500D01*
X17122024Y-18149500D02*
X17112500Y-18159024D01*
X17112500Y-18159024D02*
X17093453Y-18187595D01*
X17093453Y-18187595D02*
X17083929Y-18225690D01*
X17083929Y-18225690D02*
X17083929Y-18301881D01*
X17083929Y-18301881D02*
X17093453Y-18320929D01*
X17093453Y-18320929D02*
X17102976Y-18330452D01*
X17102976Y-18330452D02*
X17122024Y-18339976D01*
X17122024Y-18339976D02*
X17160119Y-18339976D01*
X17160119Y-18339976D02*
X17179167Y-18330452D01*
X17179167Y-18330452D02*
X17188691Y-18320929D01*
X17188691Y-18320929D02*
X17198214Y-18301881D01*
X17198214Y-18301881D02*
X17198214Y-18254262D01*
X17198214Y-18254262D02*
X17188691Y-18235214D01*
X17188691Y-18235214D02*
X17179167Y-18225690D01*
X17179167Y-18225690D02*
X17160119Y-18216167D01*
X17160119Y-18216167D02*
X17122024Y-18216167D01*
X17122024Y-18216167D02*
X17102976Y-18225690D01*
X17102976Y-18225690D02*
X17093453Y-18235214D01*
X17093453Y-18235214D02*
X17083929Y-18254262D01*
X17403929Y-18339976D02*
X17403929Y-18139976D01*
X17489643Y-18339976D02*
X17489643Y-18235214D01*
X17489643Y-18235214D02*
X17480119Y-18216167D01*
X17480119Y-18216167D02*
X17461072Y-18206643D01*
X17461072Y-18206643D02*
X17432500Y-18206643D01*
X17432500Y-18206643D02*
X17413453Y-18216167D01*
X17413453Y-18216167D02*
X17403929Y-18225690D01*
X17613453Y-18339976D02*
X17594405Y-18330452D01*
X17594405Y-18330452D02*
X17584881Y-18320929D01*
X17584881Y-18320929D02*
X17575357Y-18301881D01*
X17575357Y-18301881D02*
X17575357Y-18244738D01*
X17575357Y-18244738D02*
X17584881Y-18225690D01*
X17584881Y-18225690D02*
X17594405Y-18216167D01*
X17594405Y-18216167D02*
X17613453Y-18206643D01*
X17613453Y-18206643D02*
X17642024Y-18206643D01*
X17642024Y-18206643D02*
X17661072Y-18216167D01*
X17661072Y-18216167D02*
X17670595Y-18225690D01*
X17670595Y-18225690D02*
X17680119Y-18244738D01*
X17680119Y-18244738D02*
X17680119Y-18301881D01*
X17680119Y-18301881D02*
X17670595Y-18320929D01*
X17670595Y-18320929D02*
X17661072Y-18330452D01*
X17661072Y-18330452D02*
X17642024Y-18339976D01*
X17642024Y-18339976D02*
X17613453Y-18339976D01*
X17794405Y-18339976D02*
X17775357Y-18330452D01*
X17775357Y-18330452D02*
X17765834Y-18311405D01*
X17765834Y-18311405D02*
X17765834Y-18139976D01*
X17946786Y-18330452D02*
X17927738Y-18339976D01*
X17927738Y-18339976D02*
X17889643Y-18339976D01*
X17889643Y-18339976D02*
X17870595Y-18330452D01*
X17870595Y-18330452D02*
X17861072Y-18311405D01*
X17861072Y-18311405D02*
X17861072Y-18235214D01*
X17861072Y-18235214D02*
X17870595Y-18216167D01*
X17870595Y-18216167D02*
X17889643Y-18206643D01*
X17889643Y-18206643D02*
X17927738Y-18206643D01*
X17927738Y-18206643D02*
X17946786Y-18216167D01*
X17946786Y-18216167D02*
X17956310Y-18235214D01*
X17956310Y-18235214D02*
X17956310Y-18254262D01*
X17956310Y-18254262D02*
X17861072Y-18273310D01*
X18032500Y-18330452D02*
X18051548Y-18339976D01*
X18051548Y-18339976D02*
X18089643Y-18339976D01*
X18089643Y-18339976D02*
X18108691Y-18330452D01*
X18108691Y-18330452D02*
X18118215Y-18311405D01*
X18118215Y-18311405D02*
X18118215Y-18301881D01*
X18118215Y-18301881D02*
X18108691Y-18282833D01*
X18108691Y-18282833D02*
X18089643Y-18273310D01*
X18089643Y-18273310D02*
X18061072Y-18273310D01*
X18061072Y-18273310D02*
X18042024Y-18263786D01*
X18042024Y-18263786D02*
X18032500Y-18244738D01*
X18032500Y-18244738D02*
X18032500Y-18235214D01*
X18032500Y-18235214D02*
X18042024Y-18216167D01*
X18042024Y-18216167D02*
X18061072Y-18206643D01*
X18061072Y-18206643D02*
X18089643Y-18206643D01*
X18089643Y-18206643D02*
X18108691Y-18216167D01*
X18184881Y-18416167D02*
X18194405Y-18406643D01*
X18194405Y-18406643D02*
X18213453Y-18378071D01*
X18213453Y-18378071D02*
X18222976Y-18359024D01*
X18222976Y-18359024D02*
X18232500Y-18330452D01*
X18232500Y-18330452D02*
X18242024Y-18282833D01*
X18242024Y-18282833D02*
X18242024Y-18244738D01*
X18242024Y-18244738D02*
X18232500Y-18197119D01*
X18232500Y-18197119D02*
X18222976Y-18168548D01*
X18222976Y-18168548D02*
X18213453Y-18149500D01*
X18213453Y-18149500D02*
X18194405Y-18120929D01*
X18194405Y-18120929D02*
X18184881Y-18111405D01*
M02*
