%TF.GenerationSoftware,KiCad,Pcbnew,6.99.0-unknown-492e6548ff~162~ubuntu22.04.1*%
%TF.CreationDate,2022-12-11T13:45:44+01:00*%
%TF.ProjectId,lora_dual,6c6f7261-5f64-4756-916c-2e6b69636164,rev?*%
%TF.SameCoordinates,Original*%
%TF.FileFunction,Profile,NP*%
%FSLAX46Y46*%
G04 Gerber Fmt 4.6, Leading zero omitted, Abs format (unit mm)*
G04 Created by KiCad (PCBNEW 6.99.0-unknown-492e6548ff~162~ubuntu22.04.1) date 2022-12-11 13:45:44*
%MOMM*%
%LPD*%
G01*
G04 APERTURE LIST*
%TA.AperFunction,Profile*%
%ADD10C,0.100000*%
%TD*%
%TA.AperFunction,Profile*%
%ADD11C,0.150000*%
%TD*%
G04 APERTURE END LIST*
D10*
X153750000Y-125950000D02*
X161200000Y-125950000D01*
X161200000Y-125950000D02*
X161200000Y-127550000D01*
X161200000Y-127550000D02*
X153750000Y-127550000D01*
X153750000Y-127550000D02*
X153750000Y-125950000D01*
X206400000Y-126000000D02*
X213850000Y-126000000D01*
X213850000Y-126000000D02*
X213850000Y-127600000D01*
X213850000Y-127600000D02*
X206400000Y-127600000D01*
X206400000Y-127600000D02*
X206400000Y-126000000D01*
X215400000Y-126000000D02*
X222850000Y-126000000D01*
X222850000Y-126000000D02*
X222850000Y-127600000D01*
X222850000Y-127600000D02*
X215400000Y-127600000D01*
X215400000Y-127600000D02*
X215400000Y-126000000D01*
X197550000Y-126000000D02*
X205000000Y-126000000D01*
X205000000Y-126000000D02*
X205000000Y-127600000D01*
X205000000Y-127600000D02*
X197550000Y-127600000D01*
X197550000Y-127600000D02*
X197550000Y-126000000D01*
D11*
X135600000Y-95250000D02*
X223500000Y-95250000D01*
X223500000Y-95250000D02*
X223500000Y-160350000D01*
X223500000Y-160350000D02*
X135600000Y-160350000D01*
X135600000Y-160350000D02*
X135600000Y-95250000D01*
D10*
X145200000Y-125950000D02*
X152650000Y-125950000D01*
X152650000Y-125950000D02*
X152650000Y-127550000D01*
X152650000Y-127550000D02*
X145200000Y-127550000D01*
X145200000Y-127550000D02*
X145200000Y-125950000D01*
X179600000Y-126000000D02*
X187050000Y-126000000D01*
X187050000Y-126000000D02*
X187050000Y-127600000D01*
X187050000Y-127600000D02*
X179600000Y-127600000D01*
X179600000Y-127600000D02*
X179600000Y-126000000D01*
X136600000Y-125950000D02*
X144050000Y-125950000D01*
X144050000Y-125950000D02*
X144050000Y-127550000D01*
X144050000Y-127550000D02*
X136600000Y-127550000D01*
X136600000Y-127550000D02*
X136600000Y-125950000D01*
X188750000Y-126000000D02*
X196200000Y-126000000D01*
X196200000Y-126000000D02*
X196200000Y-127600000D01*
X196200000Y-127600000D02*
X188750000Y-127600000D01*
X188750000Y-127600000D02*
X188750000Y-126000000D01*
X170900000Y-126000000D02*
X178350000Y-126000000D01*
X178350000Y-126000000D02*
X178350000Y-127600000D01*
X178350000Y-127600000D02*
X170900000Y-127600000D01*
X170900000Y-127600000D02*
X170900000Y-126000000D01*
X162250000Y-126000000D02*
X169700000Y-126000000D01*
X169700000Y-126000000D02*
X169700000Y-127600000D01*
X169700000Y-127600000D02*
X162250000Y-127600000D01*
X162250000Y-127600000D02*
X162250000Y-126000000D01*
M02*
