%TF.GenerationSoftware,KiCad,Pcbnew,6.99.0-unknown-492e6548ff~162~ubuntu22.04.1*%
%TF.CreationDate,2022-12-11T13:45:44+01:00*%
%TF.ProjectId,lora_dual,6c6f7261-5f64-4756-916c-2e6b69636164,rev?*%
%TF.SameCoordinates,Original*%
%TF.FileFunction,Paste,Top*%
%TF.FilePolarity,Positive*%
%FSLAX46Y46*%
G04 Gerber Fmt 4.6, Leading zero omitted, Abs format (unit mm)*
G04 Created by KiCad (PCBNEW 6.99.0-unknown-492e6548ff~162~ubuntu22.04.1) date 2022-12-11 13:45:44*
%MOMM*%
%LPD*%
G01*
G04 APERTURE LIST*
G04 Aperture macros list*
%AMRoundRect*
0 Rectangle with rounded corners*
0 $1 Rounding radius*
0 $2 $3 $4 $5 $6 $7 $8 $9 X,Y pos of 4 corners*
0 Add a 4 corners polygon primitive as box body*
4,1,4,$2,$3,$4,$5,$6,$7,$8,$9,$2,$3,0*
0 Add four circle primitives for the rounded corners*
1,1,$1+$1,$2,$3*
1,1,$1+$1,$4,$5*
1,1,$1+$1,$6,$7*
1,1,$1+$1,$8,$9*
0 Add four rect primitives between the rounded corners*
20,1,$1+$1,$2,$3,$4,$5,0*
20,1,$1+$1,$4,$5,$6,$7,0*
20,1,$1+$1,$6,$7,$8,$9,0*
20,1,$1+$1,$8,$9,$2,$3,0*%
G04 Aperture macros list end*
%ADD10RoundRect,0.250000X-0.550000X1.500000X-0.550000X-1.500000X0.550000X-1.500000X0.550000X1.500000X0*%
%ADD11RoundRect,0.250000X-0.262500X-0.450000X0.262500X-0.450000X0.262500X0.450000X-0.262500X0.450000X0*%
%ADD12RoundRect,0.150000X-0.825000X-0.150000X0.825000X-0.150000X0.825000X0.150000X-0.825000X0.150000X0*%
%ADD13R,2.500000X1.000000*%
%ADD14R,1.000000X1.800000*%
%ADD15RoundRect,0.250000X-1.050000X-0.550000X1.050000X-0.550000X1.050000X0.550000X-1.050000X0.550000X0*%
%ADD16RoundRect,0.250000X0.262500X0.450000X-0.262500X0.450000X-0.262500X-0.450000X0.262500X-0.450000X0*%
%ADD17R,2.000000X1.500000*%
%ADD18R,2.000000X3.800000*%
%ADD19RoundRect,0.250000X0.250000X0.475000X-0.250000X0.475000X-0.250000X-0.475000X0.250000X-0.475000X0*%
%ADD20RoundRect,0.250000X-0.250000X-0.475000X0.250000X-0.475000X0.250000X0.475000X-0.250000X0.475000X0*%
%ADD21R,1.060000X0.650000*%
%ADD22RoundRect,0.250000X-0.450000X0.262500X-0.450000X-0.262500X0.450000X-0.262500X0.450000X0.262500X0*%
%ADD23RoundRect,0.250000X1.500000X0.550000X-1.500000X0.550000X-1.500000X-0.550000X1.500000X-0.550000X0*%
%ADD24RoundRect,0.150000X0.150000X-0.825000X0.150000X0.825000X-0.150000X0.825000X-0.150000X-0.825000X0*%
%ADD25RoundRect,0.250000X0.450000X-0.262500X0.450000X0.262500X-0.450000X0.262500X-0.450000X-0.262500X0*%
%ADD26R,0.900000X0.800000*%
%ADD27RoundRect,0.250000X-0.475000X0.250000X-0.475000X-0.250000X0.475000X-0.250000X0.475000X0.250000X0*%
%ADD28R,2.400000X3.400000*%
%ADD29RoundRect,0.218750X-0.256250X0.218750X-0.256250X-0.218750X0.256250X-0.218750X0.256250X0.218750X0*%
%ADD30R,1.600000X2.200000*%
G04 APERTURE END LIST*
D10*
%TO.C,C6*%
X167625000Y-132900000D03*
X167625000Y-138300000D03*
%TD*%
D11*
%TO.C,R7*%
X183752500Y-114800000D03*
X185577500Y-114800000D03*
%TD*%
D12*
%TO.C,U5*%
X170225000Y-145395000D03*
X170225000Y-146665000D03*
X170225000Y-147935000D03*
X170225000Y-149205000D03*
X175175000Y-149205000D03*
X175175000Y-147935000D03*
X175175000Y-146665000D03*
X175175000Y-145395000D03*
%TD*%
D11*
%TO.C,R11*%
X164100000Y-123600000D03*
X165925000Y-123600000D03*
%TD*%
%TO.C,R2*%
X147887500Y-149925000D03*
X149712500Y-149925000D03*
%TD*%
%TO.C,R16*%
X183525000Y-149000000D03*
X185350000Y-149000000D03*
%TD*%
D13*
%TO.C,U6*%
X162049999Y-105719999D03*
X162049999Y-107719999D03*
X162049999Y-109719999D03*
X162049999Y-111719999D03*
X162049999Y-113719999D03*
X162049999Y-115719999D03*
X162049999Y-117719999D03*
X162049999Y-119719999D03*
D14*
X164649999Y-121219999D03*
X166649999Y-121219999D03*
X168649999Y-121219999D03*
X170649999Y-121219999D03*
X172649999Y-121219999D03*
X174649999Y-121219999D03*
D13*
X177249999Y-119719999D03*
X177249999Y-117719999D03*
X177249999Y-115719999D03*
X177249999Y-113719999D03*
X177249999Y-111719999D03*
X177249999Y-109719999D03*
X177249999Y-107719999D03*
X177249999Y-105719999D03*
%TD*%
D10*
%TO.C,C2*%
X153800000Y-141375000D03*
X153800000Y-146775000D03*
%TD*%
D15*
%TO.C,C3*%
X141600000Y-104550000D03*
X145200000Y-104550000D03*
%TD*%
D16*
%TO.C,R3*%
X149725000Y-151975000D03*
X147900000Y-151975000D03*
%TD*%
D17*
%TO.C,U2*%
X151849999Y-112149999D03*
X151849999Y-114449999D03*
D18*
X158149999Y-114449999D03*
D17*
X151849999Y-116749999D03*
%TD*%
D11*
%TO.C,R8*%
X183725000Y-117290000D03*
X185550000Y-117290000D03*
%TD*%
D19*
%TO.C,C8*%
X170200000Y-143300000D03*
X168300000Y-143300000D03*
%TD*%
D20*
%TO.C,C4*%
X160200000Y-123580000D03*
X162100000Y-123580000D03*
%TD*%
D16*
%TO.C,R12*%
X153592500Y-108580000D03*
X151767500Y-108580000D03*
%TD*%
D21*
%TO.C,U3*%
X171849999Y-140349999D03*
X171849999Y-141299999D03*
X171849999Y-142249999D03*
X174049999Y-142249999D03*
X174049999Y-141299999D03*
X174049999Y-140349999D03*
%TD*%
D11*
%TO.C,R9*%
X183750000Y-119350000D03*
X185575000Y-119350000D03*
%TD*%
%TO.C,R15*%
X157315000Y-109720000D03*
X159140000Y-109720000D03*
%TD*%
D22*
%TO.C,R14*%
X158600000Y-105637500D03*
X158600000Y-107462500D03*
%TD*%
D11*
%TO.C,R6*%
X183742500Y-112140000D03*
X185567500Y-112140000D03*
%TD*%
D23*
%TO.C,C5*%
X156750000Y-121700000D03*
X151350000Y-121700000D03*
%TD*%
D24*
%TO.C,U1*%
X158245000Y-146500000D03*
X159515000Y-146500000D03*
X160785000Y-146500000D03*
X162055000Y-146500000D03*
X162055000Y-141550000D03*
X160785000Y-141550000D03*
X159515000Y-141550000D03*
X158245000Y-141550000D03*
%TD*%
D25*
%TO.C,R13*%
X178200000Y-150500000D03*
X178200000Y-148675000D03*
%TD*%
D26*
%TO.C,Q1*%
X185474999Y-146749999D03*
X185474999Y-144849999D03*
X183474999Y-145799999D03*
%TD*%
D27*
%TO.C,C1*%
X148150000Y-110500000D03*
X148150000Y-112400000D03*
%TD*%
D28*
%TO.C,L1*%
X153699999Y-133599999D03*
X161899999Y-133599999D03*
%TD*%
D16*
%TO.C,R10*%
X166900000Y-147950000D03*
X165075000Y-147950000D03*
%TD*%
D29*
%TO.C,D3*%
X155300000Y-108262500D03*
X155300000Y-109837500D03*
%TD*%
D16*
%TO.C,R5*%
X166875000Y-150550000D03*
X165050000Y-150550000D03*
%TD*%
D30*
%TO.C,C7*%
X148724999Y-154899999D03*
X148724999Y-157899999D03*
%TD*%
M02*
