M48
; DRILL file {KiCad 6.99.0-unknown-492e6548ff~162~ubuntu22.04.1} date dom 11 dic 2022 13:45:46
; FORMAT={-:-/ absolute / inch / decimal}
; #@! TF.CreationDate,2022-12-11T13:45:46+01:00
; #@! TF.GenerationSoftware,Kicad,Pcbnew,6.99.0-unknown-492e6548ff~162~ubuntu22.04.1
; #@! TF.FileFunction,Plated,1,2,PTH
FMAT,2
INCH
; #@! TA.AperFunction,Plated,PTH,ViaDrill
T1C0.0157
; #@! TA.AperFunction,Plated,PTH,ComponentDrill
T2C0.0276
; #@! TA.AperFunction,Plated,PTH,ComponentDrill
T3C0.0300
; #@! TA.AperFunction,Plated,PTH,ViaDrill
T4C0.0315
; #@! TA.AperFunction,Plated,PTH,ComponentDrill
T5C0.0315
; #@! TA.AperFunction,Plated,PTH,ComponentDrill
T6C0.0433
; #@! TA.AperFunction,Plated,PTH,ComponentDrill
T7C0.0689
%
G90
G05
T1
X5.8942Y-5.8519
X5.9764Y-4.6713
X6.0543Y-4.5059
X6.0827Y-5.9872
X6.0996Y-4.5059
X6.1429Y-4.5059
X6.1954Y-4.2308
X6.2717Y-4.7913
X6.3799Y-4.7776
X6.4331Y-5.7677
X6.497Y-5.7677
X6.7488Y-4.6346
X6.7508Y-4.5559
X6.7657Y-5.6673
X6.8031Y-5.9764
X6.8041Y-5.7766
X6.8465Y-5.3159
X6.8469Y-4.6181
X6.847Y-5.8277
X6.8543Y-6.0906
X6.8937Y-5.4291
X6.9035Y-5.563
X6.9528Y-5.9213
X6.9646Y-6.1279
X7.0591Y-4.6673
X7.0681Y-4.3988
X7.0709Y-4.7717
X7.0965Y-5.378
X7.2362Y-4.7402
X7.2854Y-5.378
X7.3051Y-4.5717
X7.3058Y-4.4668
T2
X6.5787Y-6.1831
X6.7785Y-6.1831
X6.9675Y-6.19
T3
X7.1445Y-5.49
X7.1445Y-5.59
X7.1445Y-5.69
X7.1445Y-5.79
X7.1445Y-5.89
X7.1445Y-5.99
X7.1445Y-6.09
X7.1492Y-4.2185
X7.1492Y-4.3185
X7.1492Y-4.4185
X7.1492Y-4.5185
X7.1492Y-4.6185
X7.1492Y-4.7185
X7.1492Y-4.8185
X8.6604Y-5.4897
X8.6604Y-5.5897
X8.6604Y-5.6897
X8.6604Y-5.7897
X8.6652Y-4.2183
X8.6652Y-4.3183
X8.6652Y-4.4183
X8.6652Y-4.5183
T4
X6.4961Y-5.2323
T5
X5.9969Y-4.1587
X5.9969Y-6.0531
X5.9969Y-6.1772
X6.0969Y-4.1587
X6.3969Y-6.0531
X6.3969Y-6.1772
X6.8764Y-4.8701
X6.9764Y-4.8701
X7.1726Y-4.0232
X7.2726Y-4.0232
T6
X5.8465Y-5.2606
X5.8465Y-5.6606
X5.9969Y-5.9252
X6.3969Y-5.9252
T7
X5.5748Y-4.3236
X5.5748Y-4.4764
X5.5778Y-5.5237
X5.5778Y-5.6765
X5.5807Y-5.985
X5.5807Y-6.1378
T0
M30
