%TF.GenerationSoftware,KiCad,Pcbnew,6.99.0-unknown-492e6548ff~162~ubuntu22.04.1*%
%TF.CreationDate,2022-12-11T13:45:44+01:00*%
%TF.ProjectId,lora_dual,6c6f7261-5f64-4756-916c-2e6b69636164,rev?*%
%TF.SameCoordinates,Original*%
%TF.FileFunction,Legend,Bot*%
%TF.FilePolarity,Positive*%
%FSLAX46Y46*%
G04 Gerber Fmt 4.6, Leading zero omitted, Abs format (unit mm)*
G04 Created by KiCad (PCBNEW 6.99.0-unknown-492e6548ff~162~ubuntu22.04.1) date 2022-12-11 13:45:44*
%MOMM*%
%LPD*%
G01*
G04 APERTURE LIST*
%ADD10C,0.150000*%
G04 APERTURE END LIST*
D10*
X187600000Y-144917380D02*
X187933333Y-144441190D01*
X188171428Y-144917380D02*
X188171428Y-143917380D01*
X188171428Y-143917380D02*
X187790476Y-143917380D01*
X187790476Y-143917380D02*
X187695238Y-143965000D01*
X187695238Y-143965000D02*
X187647619Y-144012619D01*
X187647619Y-144012619D02*
X187600000Y-144107857D01*
X187600000Y-144107857D02*
X187600000Y-144250714D01*
X187600000Y-144250714D02*
X187647619Y-144345952D01*
X187647619Y-144345952D02*
X187695238Y-144393571D01*
X187695238Y-144393571D02*
X187790476Y-144441190D01*
X187790476Y-144441190D02*
X188171428Y-144441190D01*
X187266666Y-143917380D02*
X186600000Y-144917380D01*
X186600000Y-143917380D02*
X187266666Y-144917380D01*
X186219047Y-144917380D02*
X186219047Y-143917380D01*
X186219047Y-143917380D02*
X185980952Y-143917380D01*
X185980952Y-143917380D02*
X185838095Y-143965000D01*
X185838095Y-143965000D02*
X185742857Y-144060238D01*
X185742857Y-144060238D02*
X185695238Y-144155476D01*
X185695238Y-144155476D02*
X185647619Y-144345952D01*
X185647619Y-144345952D02*
X185647619Y-144488809D01*
X185647619Y-144488809D02*
X185695238Y-144679285D01*
X185695238Y-144679285D02*
X185742857Y-144774523D01*
X185742857Y-144774523D02*
X185838095Y-144869761D01*
X185838095Y-144869761D02*
X185980952Y-144917380D01*
X185980952Y-144917380D02*
X186219047Y-144917380D01*
X184714285Y-143917380D02*
X184095238Y-143917380D01*
X184095238Y-143917380D02*
X184428571Y-144298333D01*
X184428571Y-144298333D02*
X184285714Y-144298333D01*
X184285714Y-144298333D02*
X184190476Y-144345952D01*
X184190476Y-144345952D02*
X184142857Y-144393571D01*
X184142857Y-144393571D02*
X184095238Y-144488809D01*
X184095238Y-144488809D02*
X184095238Y-144726904D01*
X184095238Y-144726904D02*
X184142857Y-144822142D01*
X184142857Y-144822142D02*
X184190476Y-144869761D01*
X184190476Y-144869761D02*
X184285714Y-144917380D01*
X184285714Y-144917380D02*
X184571428Y-144917380D01*
X184571428Y-144917380D02*
X184666666Y-144869761D01*
X184666666Y-144869761D02*
X184714285Y-144822142D01*
X183761904Y-144250714D02*
X183523809Y-144917380D01*
X183523809Y-144917380D02*
X183285714Y-144250714D01*
X182999999Y-143917380D02*
X182380952Y-143917380D01*
X182380952Y-143917380D02*
X182714285Y-144298333D01*
X182714285Y-144298333D02*
X182571428Y-144298333D01*
X182571428Y-144298333D02*
X182476190Y-144345952D01*
X182476190Y-144345952D02*
X182428571Y-144393571D01*
X182428571Y-144393571D02*
X182380952Y-144488809D01*
X182380952Y-144488809D02*
X182380952Y-144726904D01*
X182380952Y-144726904D02*
X182428571Y-144822142D01*
X182428571Y-144822142D02*
X182476190Y-144869761D01*
X182476190Y-144869761D02*
X182571428Y-144917380D01*
X182571428Y-144917380D02*
X182857142Y-144917380D01*
X182857142Y-144917380D02*
X182952380Y-144869761D01*
X182952380Y-144869761D02*
X182999999Y-144822142D01*
X184459523Y-110167380D02*
X184459523Y-109167380D01*
X184459523Y-109167380D02*
X184126190Y-109881666D01*
X184126190Y-109881666D02*
X183792857Y-109167380D01*
X183792857Y-109167380D02*
X183792857Y-110167380D01*
X182792857Y-110167380D02*
X183364285Y-110167380D01*
X183078571Y-110167380D02*
X183078571Y-109167380D01*
X183078571Y-109167380D02*
X183173809Y-109310238D01*
X183173809Y-109310238D02*
X183269047Y-109405476D01*
X183269047Y-109405476D02*
X183364285Y-109453095D01*
X185438094Y-149781666D02*
X184961904Y-149781666D01*
X185533332Y-150067380D02*
X185199999Y-149067380D01*
X185199999Y-149067380D02*
X184866666Y-150067380D01*
X184533332Y-149067380D02*
X184533332Y-149876904D01*
X184533332Y-149876904D02*
X184485713Y-149972142D01*
X184485713Y-149972142D02*
X184438094Y-150019761D01*
X184438094Y-150019761D02*
X184342856Y-150067380D01*
X184342856Y-150067380D02*
X184152380Y-150067380D01*
X184152380Y-150067380D02*
X184057142Y-150019761D01*
X184057142Y-150019761D02*
X184009523Y-149972142D01*
X184009523Y-149972142D02*
X183961904Y-149876904D01*
X183961904Y-149876904D02*
X183961904Y-149067380D01*
X183580951Y-149067380D02*
X182914285Y-150067380D01*
X182914285Y-149067380D02*
X183580951Y-150067380D01*
X185488094Y-117531666D02*
X185011904Y-117531666D01*
X185583332Y-117817380D02*
X185249999Y-116817380D01*
X185249999Y-116817380D02*
X184916666Y-117817380D01*
X184583332Y-116817380D02*
X184583332Y-117626904D01*
X184583332Y-117626904D02*
X184535713Y-117722142D01*
X184535713Y-117722142D02*
X184488094Y-117769761D01*
X184488094Y-117769761D02*
X184392856Y-117817380D01*
X184392856Y-117817380D02*
X184202380Y-117817380D01*
X184202380Y-117817380D02*
X184107142Y-117769761D01*
X184107142Y-117769761D02*
X184059523Y-117722142D01*
X184059523Y-117722142D02*
X184011904Y-117626904D01*
X184011904Y-117626904D02*
X184011904Y-116817380D01*
X183630951Y-116817380D02*
X182964285Y-117817380D01*
X182964285Y-116817380D02*
X183630951Y-117817380D01*
X184559523Y-142317380D02*
X184559523Y-141317380D01*
X184559523Y-141317380D02*
X184226190Y-142031666D01*
X184226190Y-142031666D02*
X183892857Y-141317380D01*
X183892857Y-141317380D02*
X183892857Y-142317380D01*
X182892857Y-142317380D02*
X183464285Y-142317380D01*
X183178571Y-142317380D02*
X183178571Y-141317380D01*
X183178571Y-141317380D02*
X183273809Y-141460238D01*
X183273809Y-141460238D02*
X183369047Y-141555476D01*
X183369047Y-141555476D02*
X183464285Y-141603095D01*
X188495237Y-114267380D02*
X187923809Y-114267380D01*
X188209523Y-115267380D02*
X188209523Y-114267380D01*
X187685713Y-114267380D02*
X187019047Y-115267380D01*
X187019047Y-114267380D02*
X187685713Y-115267380D01*
X186638094Y-115267380D02*
X186638094Y-114267380D01*
X186638094Y-114267380D02*
X186399999Y-114267380D01*
X186399999Y-114267380D02*
X186257142Y-114315000D01*
X186257142Y-114315000D02*
X186161904Y-114410238D01*
X186161904Y-114410238D02*
X186114285Y-114505476D01*
X186114285Y-114505476D02*
X186066666Y-114695952D01*
X186066666Y-114695952D02*
X186066666Y-114838809D01*
X186066666Y-114838809D02*
X186114285Y-115029285D01*
X186114285Y-115029285D02*
X186161904Y-115124523D01*
X186161904Y-115124523D02*
X186257142Y-115219761D01*
X186257142Y-115219761D02*
X186399999Y-115267380D01*
X186399999Y-115267380D02*
X186638094Y-115267380D01*
X185133332Y-114267380D02*
X184514285Y-114267380D01*
X184514285Y-114267380D02*
X184847618Y-114648333D01*
X184847618Y-114648333D02*
X184704761Y-114648333D01*
X184704761Y-114648333D02*
X184609523Y-114695952D01*
X184609523Y-114695952D02*
X184561904Y-114743571D01*
X184561904Y-114743571D02*
X184514285Y-114838809D01*
X184514285Y-114838809D02*
X184514285Y-115076904D01*
X184514285Y-115076904D02*
X184561904Y-115172142D01*
X184561904Y-115172142D02*
X184609523Y-115219761D01*
X184609523Y-115219761D02*
X184704761Y-115267380D01*
X184704761Y-115267380D02*
X184990475Y-115267380D01*
X184990475Y-115267380D02*
X185085713Y-115219761D01*
X185085713Y-115219761D02*
X185133332Y-115172142D01*
X184180951Y-114600714D02*
X183942856Y-115267380D01*
X183942856Y-115267380D02*
X183704761Y-114600714D01*
X183419046Y-114267380D02*
X182799999Y-114267380D01*
X182799999Y-114267380D02*
X183133332Y-114648333D01*
X183133332Y-114648333D02*
X182990475Y-114648333D01*
X182990475Y-114648333D02*
X182895237Y-114695952D01*
X182895237Y-114695952D02*
X182847618Y-114743571D01*
X182847618Y-114743571D02*
X182799999Y-114838809D01*
X182799999Y-114838809D02*
X182799999Y-115076904D01*
X182799999Y-115076904D02*
X182847618Y-115172142D01*
X182847618Y-115172142D02*
X182895237Y-115219761D01*
X182895237Y-115219761D02*
X182990475Y-115267380D01*
X182990475Y-115267380D02*
X183276189Y-115267380D01*
X183276189Y-115267380D02*
X183371427Y-115219761D01*
X183371427Y-115219761D02*
X183419046Y-115172142D01*
X188000000Y-112817380D02*
X188333333Y-112341190D01*
X188571428Y-112817380D02*
X188571428Y-111817380D01*
X188571428Y-111817380D02*
X188190476Y-111817380D01*
X188190476Y-111817380D02*
X188095238Y-111865000D01*
X188095238Y-111865000D02*
X188047619Y-111912619D01*
X188047619Y-111912619D02*
X188000000Y-112007857D01*
X188000000Y-112007857D02*
X188000000Y-112150714D01*
X188000000Y-112150714D02*
X188047619Y-112245952D01*
X188047619Y-112245952D02*
X188095238Y-112293571D01*
X188095238Y-112293571D02*
X188190476Y-112341190D01*
X188190476Y-112341190D02*
X188571428Y-112341190D01*
X187666666Y-111817380D02*
X187000000Y-112817380D01*
X187000000Y-111817380D02*
X187666666Y-112817380D01*
X186619047Y-112817380D02*
X186619047Y-111817380D01*
X186619047Y-111817380D02*
X186380952Y-111817380D01*
X186380952Y-111817380D02*
X186238095Y-111865000D01*
X186238095Y-111865000D02*
X186142857Y-111960238D01*
X186142857Y-111960238D02*
X186095238Y-112055476D01*
X186095238Y-112055476D02*
X186047619Y-112245952D01*
X186047619Y-112245952D02*
X186047619Y-112388809D01*
X186047619Y-112388809D02*
X186095238Y-112579285D01*
X186095238Y-112579285D02*
X186142857Y-112674523D01*
X186142857Y-112674523D02*
X186238095Y-112769761D01*
X186238095Y-112769761D02*
X186380952Y-112817380D01*
X186380952Y-112817380D02*
X186619047Y-112817380D01*
X185114285Y-111817380D02*
X184495238Y-111817380D01*
X184495238Y-111817380D02*
X184828571Y-112198333D01*
X184828571Y-112198333D02*
X184685714Y-112198333D01*
X184685714Y-112198333D02*
X184590476Y-112245952D01*
X184590476Y-112245952D02*
X184542857Y-112293571D01*
X184542857Y-112293571D02*
X184495238Y-112388809D01*
X184495238Y-112388809D02*
X184495238Y-112626904D01*
X184495238Y-112626904D02*
X184542857Y-112722142D01*
X184542857Y-112722142D02*
X184590476Y-112769761D01*
X184590476Y-112769761D02*
X184685714Y-112817380D01*
X184685714Y-112817380D02*
X184971428Y-112817380D01*
X184971428Y-112817380D02*
X185066666Y-112769761D01*
X185066666Y-112769761D02*
X185114285Y-112722142D01*
X184161904Y-112150714D02*
X183923809Y-112817380D01*
X183923809Y-112817380D02*
X183685714Y-112150714D01*
X183399999Y-111817380D02*
X182780952Y-111817380D01*
X182780952Y-111817380D02*
X183114285Y-112198333D01*
X183114285Y-112198333D02*
X182971428Y-112198333D01*
X182971428Y-112198333D02*
X182876190Y-112245952D01*
X182876190Y-112245952D02*
X182828571Y-112293571D01*
X182828571Y-112293571D02*
X182780952Y-112388809D01*
X182780952Y-112388809D02*
X182780952Y-112626904D01*
X182780952Y-112626904D02*
X182828571Y-112722142D01*
X182828571Y-112722142D02*
X182876190Y-112769761D01*
X182876190Y-112769761D02*
X182971428Y-112817380D01*
X182971428Y-112817380D02*
X183257142Y-112817380D01*
X183257142Y-112817380D02*
X183352380Y-112769761D01*
X183352380Y-112769761D02*
X183399999Y-112722142D01*
X185835713Y-119986428D02*
X185073809Y-119986428D01*
X185454761Y-120367380D02*
X185454761Y-119605476D01*
X184121428Y-119367380D02*
X184597618Y-119367380D01*
X184597618Y-119367380D02*
X184645237Y-119843571D01*
X184645237Y-119843571D02*
X184597618Y-119795952D01*
X184597618Y-119795952D02*
X184502380Y-119748333D01*
X184502380Y-119748333D02*
X184264285Y-119748333D01*
X184264285Y-119748333D02*
X184169047Y-119795952D01*
X184169047Y-119795952D02*
X184121428Y-119843571D01*
X184121428Y-119843571D02*
X184073809Y-119938809D01*
X184073809Y-119938809D02*
X184073809Y-120176904D01*
X184073809Y-120176904D02*
X184121428Y-120272142D01*
X184121428Y-120272142D02*
X184169047Y-120319761D01*
X184169047Y-120319761D02*
X184264285Y-120367380D01*
X184264285Y-120367380D02*
X184502380Y-120367380D01*
X184502380Y-120367380D02*
X184597618Y-120319761D01*
X184597618Y-120319761D02*
X184645237Y-120272142D01*
X183788094Y-119367380D02*
X183454761Y-120367380D01*
X183454761Y-120367380D02*
X183121428Y-119367380D01*
X188345237Y-146567380D02*
X187773809Y-146567380D01*
X188059523Y-147567380D02*
X188059523Y-146567380D01*
X187535713Y-146567380D02*
X186869047Y-147567380D01*
X186869047Y-146567380D02*
X187535713Y-147567380D01*
X186488094Y-147567380D02*
X186488094Y-146567380D01*
X186488094Y-146567380D02*
X186249999Y-146567380D01*
X186249999Y-146567380D02*
X186107142Y-146615000D01*
X186107142Y-146615000D02*
X186011904Y-146710238D01*
X186011904Y-146710238D02*
X185964285Y-146805476D01*
X185964285Y-146805476D02*
X185916666Y-146995952D01*
X185916666Y-146995952D02*
X185916666Y-147138809D01*
X185916666Y-147138809D02*
X185964285Y-147329285D01*
X185964285Y-147329285D02*
X186011904Y-147424523D01*
X186011904Y-147424523D02*
X186107142Y-147519761D01*
X186107142Y-147519761D02*
X186249999Y-147567380D01*
X186249999Y-147567380D02*
X186488094Y-147567380D01*
X184983332Y-146567380D02*
X184364285Y-146567380D01*
X184364285Y-146567380D02*
X184697618Y-146948333D01*
X184697618Y-146948333D02*
X184554761Y-146948333D01*
X184554761Y-146948333D02*
X184459523Y-146995952D01*
X184459523Y-146995952D02*
X184411904Y-147043571D01*
X184411904Y-147043571D02*
X184364285Y-147138809D01*
X184364285Y-147138809D02*
X184364285Y-147376904D01*
X184364285Y-147376904D02*
X184411904Y-147472142D01*
X184411904Y-147472142D02*
X184459523Y-147519761D01*
X184459523Y-147519761D02*
X184554761Y-147567380D01*
X184554761Y-147567380D02*
X184840475Y-147567380D01*
X184840475Y-147567380D02*
X184935713Y-147519761D01*
X184935713Y-147519761D02*
X184983332Y-147472142D01*
X184030951Y-146900714D02*
X183792856Y-147567380D01*
X183792856Y-147567380D02*
X183554761Y-146900714D01*
X183269046Y-146567380D02*
X182649999Y-146567380D01*
X182649999Y-146567380D02*
X182983332Y-146948333D01*
X182983332Y-146948333D02*
X182840475Y-146948333D01*
X182840475Y-146948333D02*
X182745237Y-146995952D01*
X182745237Y-146995952D02*
X182697618Y-147043571D01*
X182697618Y-147043571D02*
X182649999Y-147138809D01*
X182649999Y-147138809D02*
X182649999Y-147376904D01*
X182649999Y-147376904D02*
X182697618Y-147472142D01*
X182697618Y-147472142D02*
X182745237Y-147519761D01*
X182745237Y-147519761D02*
X182840475Y-147567380D01*
X182840475Y-147567380D02*
X183126189Y-147567380D01*
X183126189Y-147567380D02*
X183221427Y-147519761D01*
X183221427Y-147519761D02*
X183269046Y-147472142D01*
X184559523Y-139867380D02*
X184559523Y-138867380D01*
X184559523Y-138867380D02*
X184226190Y-139581666D01*
X184226190Y-139581666D02*
X183892857Y-138867380D01*
X183892857Y-138867380D02*
X183892857Y-139867380D01*
X183226190Y-138867380D02*
X183130952Y-138867380D01*
X183130952Y-138867380D02*
X183035714Y-138915000D01*
X183035714Y-138915000D02*
X182988095Y-138962619D01*
X182988095Y-138962619D02*
X182940476Y-139057857D01*
X182940476Y-139057857D02*
X182892857Y-139248333D01*
X182892857Y-139248333D02*
X182892857Y-139486428D01*
X182892857Y-139486428D02*
X182940476Y-139676904D01*
X182940476Y-139676904D02*
X182988095Y-139772142D01*
X182988095Y-139772142D02*
X183035714Y-139819761D01*
X183035714Y-139819761D02*
X183130952Y-139867380D01*
X183130952Y-139867380D02*
X183226190Y-139867380D01*
X183226190Y-139867380D02*
X183321428Y-139819761D01*
X183321428Y-139819761D02*
X183369047Y-139772142D01*
X183369047Y-139772142D02*
X183416666Y-139676904D01*
X183416666Y-139676904D02*
X183464285Y-139486428D01*
X183464285Y-139486428D02*
X183464285Y-139248333D01*
X183464285Y-139248333D02*
X183416666Y-139057857D01*
X183416666Y-139057857D02*
X183369047Y-138962619D01*
X183369047Y-138962619D02*
X183321428Y-138915000D01*
X183321428Y-138915000D02*
X183226190Y-138867380D01*
X185111904Y-121865000D02*
X185207142Y-121817380D01*
X185207142Y-121817380D02*
X185349999Y-121817380D01*
X185349999Y-121817380D02*
X185492856Y-121865000D01*
X185492856Y-121865000D02*
X185588094Y-121960238D01*
X185588094Y-121960238D02*
X185635713Y-122055476D01*
X185635713Y-122055476D02*
X185683332Y-122245952D01*
X185683332Y-122245952D02*
X185683332Y-122388809D01*
X185683332Y-122388809D02*
X185635713Y-122579285D01*
X185635713Y-122579285D02*
X185588094Y-122674523D01*
X185588094Y-122674523D02*
X185492856Y-122769761D01*
X185492856Y-122769761D02*
X185349999Y-122817380D01*
X185349999Y-122817380D02*
X185254761Y-122817380D01*
X185254761Y-122817380D02*
X185111904Y-122769761D01*
X185111904Y-122769761D02*
X185064285Y-122722142D01*
X185064285Y-122722142D02*
X185064285Y-122388809D01*
X185064285Y-122388809D02*
X185254761Y-122388809D01*
X184635713Y-122817380D02*
X184635713Y-121817380D01*
X184635713Y-121817380D02*
X184064285Y-122817380D01*
X184064285Y-122817380D02*
X184064285Y-121817380D01*
X183588094Y-122817380D02*
X183588094Y-121817380D01*
X183588094Y-121817380D02*
X183349999Y-121817380D01*
X183349999Y-121817380D02*
X183207142Y-121865000D01*
X183207142Y-121865000D02*
X183111904Y-121960238D01*
X183111904Y-121960238D02*
X183064285Y-122055476D01*
X183064285Y-122055476D02*
X183016666Y-122245952D01*
X183016666Y-122245952D02*
X183016666Y-122388809D01*
X183016666Y-122388809D02*
X183064285Y-122579285D01*
X183064285Y-122579285D02*
X183111904Y-122674523D01*
X183111904Y-122674523D02*
X183207142Y-122769761D01*
X183207142Y-122769761D02*
X183349999Y-122817380D01*
X183349999Y-122817380D02*
X183588094Y-122817380D01*
X184961904Y-154215000D02*
X185057142Y-154167380D01*
X185057142Y-154167380D02*
X185199999Y-154167380D01*
X185199999Y-154167380D02*
X185342856Y-154215000D01*
X185342856Y-154215000D02*
X185438094Y-154310238D01*
X185438094Y-154310238D02*
X185485713Y-154405476D01*
X185485713Y-154405476D02*
X185533332Y-154595952D01*
X185533332Y-154595952D02*
X185533332Y-154738809D01*
X185533332Y-154738809D02*
X185485713Y-154929285D01*
X185485713Y-154929285D02*
X185438094Y-155024523D01*
X185438094Y-155024523D02*
X185342856Y-155119761D01*
X185342856Y-155119761D02*
X185199999Y-155167380D01*
X185199999Y-155167380D02*
X185104761Y-155167380D01*
X185104761Y-155167380D02*
X184961904Y-155119761D01*
X184961904Y-155119761D02*
X184914285Y-155072142D01*
X184914285Y-155072142D02*
X184914285Y-154738809D01*
X184914285Y-154738809D02*
X185104761Y-154738809D01*
X184485713Y-155167380D02*
X184485713Y-154167380D01*
X184485713Y-154167380D02*
X183914285Y-155167380D01*
X183914285Y-155167380D02*
X183914285Y-154167380D01*
X183438094Y-155167380D02*
X183438094Y-154167380D01*
X183438094Y-154167380D02*
X183199999Y-154167380D01*
X183199999Y-154167380D02*
X183057142Y-154215000D01*
X183057142Y-154215000D02*
X182961904Y-154310238D01*
X182961904Y-154310238D02*
X182914285Y-154405476D01*
X182914285Y-154405476D02*
X182866666Y-154595952D01*
X182866666Y-154595952D02*
X182866666Y-154738809D01*
X182866666Y-154738809D02*
X182914285Y-154929285D01*
X182914285Y-154929285D02*
X182961904Y-155024523D01*
X182961904Y-155024523D02*
X183057142Y-155119761D01*
X183057142Y-155119761D02*
X183199999Y-155167380D01*
X183199999Y-155167380D02*
X183438094Y-155167380D01*
X185585713Y-152186428D02*
X184823809Y-152186428D01*
X185204761Y-152567380D02*
X185204761Y-151805476D01*
X183871428Y-151567380D02*
X184347618Y-151567380D01*
X184347618Y-151567380D02*
X184395237Y-152043571D01*
X184395237Y-152043571D02*
X184347618Y-151995952D01*
X184347618Y-151995952D02*
X184252380Y-151948333D01*
X184252380Y-151948333D02*
X184014285Y-151948333D01*
X184014285Y-151948333D02*
X183919047Y-151995952D01*
X183919047Y-151995952D02*
X183871428Y-152043571D01*
X183871428Y-152043571D02*
X183823809Y-152138809D01*
X183823809Y-152138809D02*
X183823809Y-152376904D01*
X183823809Y-152376904D02*
X183871428Y-152472142D01*
X183871428Y-152472142D02*
X183919047Y-152519761D01*
X183919047Y-152519761D02*
X184014285Y-152567380D01*
X184014285Y-152567380D02*
X184252380Y-152567380D01*
X184252380Y-152567380D02*
X184347618Y-152519761D01*
X184347618Y-152519761D02*
X184395237Y-152472142D01*
X183538094Y-151567380D02*
X183204761Y-152567380D01*
X183204761Y-152567380D02*
X182871428Y-151567380D01*
X184609523Y-107517380D02*
X184609523Y-106517380D01*
X184609523Y-106517380D02*
X184276190Y-107231666D01*
X184276190Y-107231666D02*
X183942857Y-106517380D01*
X183942857Y-106517380D02*
X183942857Y-107517380D01*
X183276190Y-106517380D02*
X183180952Y-106517380D01*
X183180952Y-106517380D02*
X183085714Y-106565000D01*
X183085714Y-106565000D02*
X183038095Y-106612619D01*
X183038095Y-106612619D02*
X182990476Y-106707857D01*
X182990476Y-106707857D02*
X182942857Y-106898333D01*
X182942857Y-106898333D02*
X182942857Y-107136428D01*
X182942857Y-107136428D02*
X182990476Y-107326904D01*
X182990476Y-107326904D02*
X183038095Y-107422142D01*
X183038095Y-107422142D02*
X183085714Y-107469761D01*
X183085714Y-107469761D02*
X183180952Y-107517380D01*
X183180952Y-107517380D02*
X183276190Y-107517380D01*
X183276190Y-107517380D02*
X183371428Y-107469761D01*
X183371428Y-107469761D02*
X183419047Y-107422142D01*
X183419047Y-107422142D02*
X183466666Y-107326904D01*
X183466666Y-107326904D02*
X183514285Y-107136428D01*
X183514285Y-107136428D02*
X183514285Y-106898333D01*
X183514285Y-106898333D02*
X183466666Y-106707857D01*
X183466666Y-106707857D02*
X183419047Y-106612619D01*
X183419047Y-106612619D02*
X183371428Y-106565000D01*
X183371428Y-106565000D02*
X183276190Y-106517380D01*
M02*
